<?xml version="1.0" encoding="utf-8" standalone="no"?>
<!DOCTYPE svg PUBLIC "-//W3C//DTD SVG 1.1//EN"
  "http://www.w3.org/Graphics/SVG/1.1/DTD/svg11.dtd">
<svg xmlns:xlink="http://www.w3.org/1999/xlink" width="460.8pt" height="345.6pt" viewBox="0 0 460.8 345.6" xmlns="http://www.w3.org/2000/svg" version="1.1">
 <metadata>
  <rdf:RDF xmlns:dc="http://purl.org/dc/elements/1.1/" xmlns:cc="http://creativecommons.org/ns#" xmlns:rdf="http://www.w3.org/1999/02/22-rdf-syntax-ns#">
   <cc:Work>
    <dc:type rdf:resource="http://purl.org/dc/dcmitype/StillImage"/>
    <dc:date>2025-12-16T07:51:40.464525</dc:date>
    <dc:format>image/svg+xml</dc:format>
    <dc:creator>
     <cc:Agent>
      <dc:title>Matplotlib v3.10.0, https://matplotlib.org/</dc:title>
     </cc:Agent>
    </dc:creator>
   </cc:Work>
  </rdf:RDF>
 </metadata>
 <defs>
  <style type="text/css">*{stroke-linejoin: round; stroke-linecap: butt}</style>
 </defs>
 <g id="figure_1">
  <g id="patch_1">
   <path d="M 0 345.6 
L 460.8 345.6 
L 460.8 0 
L 0 0 
z
" style="fill: #ffffff"/>
  </g>
  <g id="axes_1">
   <g id="patch_2">
    <path d="M 34.16 291.28 
L 453.192 291.28 
L 453.192 3 
L 34.16 3 
z
" style="fill: #ffffff"/>
   </g>
   <g id="matplotlib.axis_1">
    <g id="xtick_1">
     <g id="line2d_1">
      <path d="M 112.05021 291.28 
L 112.05021 3 
" clip-path="url(#pb509cd53df)" style="fill: none; stroke: #b0b0b0; stroke-width: 0.8; stroke-linecap: square"/>
     </g>
     <g id="line2d_2">
      <defs>
       <path id="m5e2332a56f" d="M 0 0 
L 0 3.5 
" style="stroke: #000000; stroke-width: 0.8"/>
      </defs>
      <g>
       <use xlink:href="#m5e2332a56f" x="112.05021" y="291.28" style="stroke: #000000; stroke-width: 0.8"/>
      </g>
     </g>
     <g id="text_1">
      <!-- -1 -->
      <g transform="translate(102.079898 313.476875) scale(0.2 -0.2)">
       <defs>
        <path id="DejaVuSans-2d" d="M 313 2009 
L 1997 2009 
L 1997 1497 
L 313 1497 
L 313 2009 
z
" transform="scale(0.015625)"/>
        <path id="DejaVuSans-31" d="M 794 531 
L 1825 531 
L 1825 4091 
L 703 3866 
L 703 4441 
L 1819 4666 
L 2450 4666 
L 2450 531 
L 3481 531 
L 3481 0 
L 794 0 
L 794 531 
z
" transform="scale(0.015625)"/>
       </defs>
       <use xlink:href="#DejaVuSans-2d"/>
       <use xlink:href="#DejaVuSans-31" transform="translate(36.083984 0)"/>
      </g>
     </g>
    </g>
    <g id="xtick_2">
     <g id="line2d_3">
      <path d="M 243.676 291.28 
L 243.676 3 
" clip-path="url(#pb509cd53df)" style="fill: none; stroke: #b0b0b0; stroke-width: 0.8; stroke-linecap: square"/>
     </g>
     <g id="line2d_4">
      <g>
       <use xlink:href="#m5e2332a56f" x="243.676" y="291.28" style="stroke: #000000; stroke-width: 0.8"/>
      </g>
     </g>
     <g id="text_2">
      <!-- 0 -->
      <g transform="translate(237.3135 313.476875) scale(0.2 -0.2)">
       <defs>
        <path id="DejaVuSans-30" d="M 2034 4250 
Q 1547 4250 1301 3770 
Q 1056 3291 1056 2328 
Q 1056 1369 1301 889 
Q 1547 409 2034 409 
Q 2525 409 2770 889 
Q 3016 1369 3016 2328 
Q 3016 3291 2770 3770 
Q 2525 4250 2034 4250 
z
M 2034 4750 
Q 2819 4750 3233 4129 
Q 3647 3509 3647 2328 
Q 3647 1150 3233 529 
Q 2819 -91 2034 -91 
Q 1250 -91 836 529 
Q 422 1150 422 2328 
Q 422 3509 836 4129 
Q 1250 4750 2034 4750 
z
" transform="scale(0.015625)"/>
       </defs>
       <use xlink:href="#DejaVuSans-30"/>
      </g>
     </g>
    </g>
    <g id="xtick_3">
     <g id="line2d_5">
      <path d="M 375.30179 291.28 
L 375.30179 3 
" clip-path="url(#pb509cd53df)" style="fill: none; stroke: #b0b0b0; stroke-width: 0.8; stroke-linecap: square"/>
     </g>
     <g id="line2d_6">
      <g>
       <use xlink:href="#m5e2332a56f" x="375.30179" y="291.28" style="stroke: #000000; stroke-width: 0.8"/>
      </g>
     </g>
     <g id="text_3">
      <!-- 1 -->
      <g transform="translate(368.93929 313.476875) scale(0.2 -0.2)">
       <use xlink:href="#DejaVuSans-31"/>
      </g>
     </g>
    </g>
    <g id="xtick_4">
     <g id="line2d_7">
      <defs>
       <path id="mc79ca8f188" d="M 0 0 
L 0 2 
" style="stroke: #000000; stroke-width: 0.6"/>
      </defs>
      <g>
       <use xlink:href="#mc79ca8f188" x="43.225883" y="291.28" style="stroke: #000000; stroke-width: 0.6"/>
      </g>
     </g>
    </g>
    <g id="xtick_5">
     <g id="line2d_8">
      <g>
       <use xlink:href="#mc79ca8f188" x="59.671042" y="291.28" style="stroke: #000000; stroke-width: 0.6"/>
      </g>
     </g>
    </g>
    <g id="xtick_6">
     <g id="line2d_9">
      <g>
       <use xlink:href="#mc79ca8f188" x="72.426899" y="291.28" style="stroke: #000000; stroke-width: 0.6"/>
      </g>
     </g>
    </g>
    <g id="xtick_7">
     <g id="line2d_10">
      <g>
       <use xlink:href="#mc79ca8f188" x="82.849193" y="291.28" style="stroke: #000000; stroke-width: 0.6"/>
      </g>
     </g>
    </g>
    <g id="xtick_8">
     <g id="line2d_11">
      <g>
       <use xlink:href="#mc79ca8f188" x="91.661118" y="291.28" style="stroke: #000000; stroke-width: 0.6"/>
      </g>
     </g>
    </g>
    <g id="xtick_9">
     <g id="line2d_12">
      <g>
       <use xlink:href="#mc79ca8f188" x="99.294353" y="291.28" style="stroke: #000000; stroke-width: 0.6"/>
      </g>
     </g>
    </g>
    <g id="xtick_10">
     <g id="line2d_13">
      <g>
       <use xlink:href="#mc79ca8f188" x="106.027345" y="291.28" style="stroke: #000000; stroke-width: 0.6"/>
      </g>
     </g>
    </g>
    <g id="xtick_11">
     <g id="line2d_14">
      <g>
       <use xlink:href="#mc79ca8f188" x="151.673521" y="291.28" style="stroke: #000000; stroke-width: 0.6"/>
      </g>
     </g>
    </g>
    <g id="xtick_12">
     <g id="line2d_15">
      <g>
       <use xlink:href="#mc79ca8f188" x="174.851672" y="291.28" style="stroke: #000000; stroke-width: 0.6"/>
      </g>
     </g>
    </g>
    <g id="xtick_13">
     <g id="line2d_16">
      <g>
       <use xlink:href="#mc79ca8f188" x="191.296832" y="291.28" style="stroke: #000000; stroke-width: 0.6"/>
      </g>
     </g>
    </g>
    <g id="xtick_14">
     <g id="line2d_17">
      <g>
       <use xlink:href="#mc79ca8f188" x="204.052689" y="291.28" style="stroke: #000000; stroke-width: 0.6"/>
      </g>
     </g>
    </g>
    <g id="xtick_15">
     <g id="line2d_18">
      <g>
       <use xlink:href="#mc79ca8f188" x="214.474983" y="291.28" style="stroke: #000000; stroke-width: 0.6"/>
      </g>
     </g>
    </g>
    <g id="xtick_16">
     <g id="line2d_19">
      <g>
       <use xlink:href="#mc79ca8f188" x="223.286907" y="291.28" style="stroke: #000000; stroke-width: 0.6"/>
      </g>
     </g>
    </g>
    <g id="xtick_17">
     <g id="line2d_20">
      <g>
       <use xlink:href="#mc79ca8f188" x="230.920143" y="291.28" style="stroke: #000000; stroke-width: 0.6"/>
      </g>
     </g>
    </g>
    <g id="xtick_18">
     <g id="line2d_21">
      <g>
       <use xlink:href="#mc79ca8f188" x="237.653134" y="291.28" style="stroke: #000000; stroke-width: 0.6"/>
      </g>
     </g>
    </g>
    <g id="xtick_19">
     <g id="line2d_22">
      <g>
       <use xlink:href="#mc79ca8f188" x="283.299311" y="291.28" style="stroke: #000000; stroke-width: 0.6"/>
      </g>
     </g>
    </g>
    <g id="xtick_20">
     <g id="line2d_23">
      <g>
       <use xlink:href="#mc79ca8f188" x="306.477462" y="291.28" style="stroke: #000000; stroke-width: 0.6"/>
      </g>
     </g>
    </g>
    <g id="xtick_21">
     <g id="line2d_24">
      <g>
       <use xlink:href="#mc79ca8f188" x="322.922622" y="291.28" style="stroke: #000000; stroke-width: 0.6"/>
      </g>
     </g>
    </g>
    <g id="xtick_22">
     <g id="line2d_25">
      <g>
       <use xlink:href="#mc79ca8f188" x="335.678479" y="291.28" style="stroke: #000000; stroke-width: 0.6"/>
      </g>
     </g>
    </g>
    <g id="xtick_23">
     <g id="line2d_26">
      <g>
       <use xlink:href="#mc79ca8f188" x="346.100773" y="291.28" style="stroke: #000000; stroke-width: 0.6"/>
      </g>
     </g>
    </g>
    <g id="xtick_24">
     <g id="line2d_27">
      <g>
       <use xlink:href="#mc79ca8f188" x="354.912697" y="291.28" style="stroke: #000000; stroke-width: 0.6"/>
      </g>
     </g>
    </g>
    <g id="xtick_25">
     <g id="line2d_28">
      <g>
       <use xlink:href="#mc79ca8f188" x="362.545933" y="291.28" style="stroke: #000000; stroke-width: 0.6"/>
      </g>
     </g>
    </g>
    <g id="xtick_26">
     <g id="line2d_29">
      <g>
       <use xlink:href="#mc79ca8f188" x="369.278924" y="291.28" style="stroke: #000000; stroke-width: 0.6"/>
      </g>
     </g>
    </g>
    <g id="xtick_27">
     <g id="line2d_30">
      <g>
       <use xlink:href="#mc79ca8f188" x="414.925101" y="291.28" style="stroke: #000000; stroke-width: 0.6"/>
      </g>
     </g>
    </g>
    <g id="xtick_28">
     <g id="line2d_31">
      <g>
       <use xlink:href="#mc79ca8f188" x="438.103252" y="291.28" style="stroke: #000000; stroke-width: 0.6"/>
      </g>
     </g>
    </g>
    <g id="text_4">
     <!-- log10 of FEvals ratio -->
     <g transform="translate(141.371312 336.833125) scale(0.2 -0.2)">
      <defs>
       <path id="DejaVuSans-6c" d="M 603 4863 
L 1178 4863 
L 1178 0 
L 603 0 
L 603 4863 
z
" transform="scale(0.015625)"/>
       <path id="DejaVuSans-6f" d="M 1959 3097 
Q 1497 3097 1228 2736 
Q 959 2375 959 1747 
Q 959 1119 1226 758 
Q 1494 397 1959 397 
Q 2419 397 2687 759 
Q 2956 1122 2956 1747 
Q 2956 2369 2687 2733 
Q 2419 3097 1959 3097 
z
M 1959 3584 
Q 2709 3584 3137 3096 
Q 3566 2609 3566 1747 
Q 3566 888 3137 398 
Q 2709 -91 1959 -91 
Q 1206 -91 779 398 
Q 353 888 353 1747 
Q 353 2609 779 3096 
Q 1206 3584 1959 3584 
z
" transform="scale(0.015625)"/>
       <path id="DejaVuSans-67" d="M 2906 1791 
Q 2906 2416 2648 2759 
Q 2391 3103 1925 3103 
Q 1463 3103 1205 2759 
Q 947 2416 947 1791 
Q 947 1169 1205 825 
Q 1463 481 1925 481 
Q 2391 481 2648 825 
Q 2906 1169 2906 1791 
z
M 3481 434 
Q 3481 -459 3084 -895 
Q 2688 -1331 1869 -1331 
Q 1566 -1331 1297 -1286 
Q 1028 -1241 775 -1147 
L 775 -588 
Q 1028 -725 1275 -790 
Q 1522 -856 1778 -856 
Q 2344 -856 2625 -561 
Q 2906 -266 2906 331 
L 2906 616 
Q 2728 306 2450 153 
Q 2172 0 1784 0 
Q 1141 0 747 490 
Q 353 981 353 1791 
Q 353 2603 747 3093 
Q 1141 3584 1784 3584 
Q 2172 3584 2450 3431 
Q 2728 3278 2906 2969 
L 2906 3500 
L 3481 3500 
L 3481 434 
z
" transform="scale(0.015625)"/>
       <path id="DejaVuSans-20" transform="scale(0.015625)"/>
       <path id="DejaVuSans-66" d="M 2375 4863 
L 2375 4384 
L 1825 4384 
Q 1516 4384 1395 4259 
Q 1275 4134 1275 3809 
L 1275 3500 
L 2222 3500 
L 2222 3053 
L 1275 3053 
L 1275 0 
L 697 0 
L 697 3053 
L 147 3053 
L 147 3500 
L 697 3500 
L 697 3744 
Q 697 4328 969 4595 
Q 1241 4863 1831 4863 
L 2375 4863 
z
" transform="scale(0.015625)"/>
       <path id="DejaVuSans-46" d="M 628 4666 
L 3309 4666 
L 3309 4134 
L 1259 4134 
L 1259 2759 
L 3109 2759 
L 3109 2228 
L 1259 2228 
L 1259 0 
L 628 0 
L 628 4666 
z
" transform="scale(0.015625)"/>
       <path id="DejaVuSans-45" d="M 628 4666 
L 3578 4666 
L 3578 4134 
L 1259 4134 
L 1259 2753 
L 3481 2753 
L 3481 2222 
L 1259 2222 
L 1259 531 
L 3634 531 
L 3634 0 
L 628 0 
L 628 4666 
z
" transform="scale(0.015625)"/>
       <path id="DejaVuSans-76" d="M 191 3500 
L 800 3500 
L 1894 563 
L 2988 3500 
L 3597 3500 
L 2284 0 
L 1503 0 
L 191 3500 
z
" transform="scale(0.015625)"/>
       <path id="DejaVuSans-61" d="M 2194 1759 
Q 1497 1759 1228 1600 
Q 959 1441 959 1056 
Q 959 750 1161 570 
Q 1363 391 1709 391 
Q 2188 391 2477 730 
Q 2766 1069 2766 1631 
L 2766 1759 
L 2194 1759 
z
M 3341 1997 
L 3341 0 
L 2766 0 
L 2766 531 
Q 2569 213 2275 61 
Q 1981 -91 1556 -91 
Q 1019 -91 701 211 
Q 384 513 384 1019 
Q 384 1609 779 1909 
Q 1175 2209 1959 2209 
L 2766 2209 
L 2766 2266 
Q 2766 2663 2505 2880 
Q 2244 3097 1772 3097 
Q 1472 3097 1187 3025 
Q 903 2953 641 2809 
L 641 3341 
Q 956 3463 1253 3523 
Q 1550 3584 1831 3584 
Q 2591 3584 2966 3190 
Q 3341 2797 3341 1997 
z
" transform="scale(0.015625)"/>
       <path id="DejaVuSans-73" d="M 2834 3397 
L 2834 2853 
Q 2591 2978 2328 3040 
Q 2066 3103 1784 3103 
Q 1356 3103 1142 2972 
Q 928 2841 928 2578 
Q 928 2378 1081 2264 
Q 1234 2150 1697 2047 
L 1894 2003 
Q 2506 1872 2764 1633 
Q 3022 1394 3022 966 
Q 3022 478 2636 193 
Q 2250 -91 1575 -91 
Q 1294 -91 989 -36 
Q 684 19 347 128 
L 347 722 
Q 666 556 975 473 
Q 1284 391 1588 391 
Q 1994 391 2212 530 
Q 2431 669 2431 922 
Q 2431 1156 2273 1281 
Q 2116 1406 1581 1522 
L 1381 1569 
Q 847 1681 609 1914 
Q 372 2147 372 2553 
Q 372 3047 722 3315 
Q 1072 3584 1716 3584 
Q 2034 3584 2315 3537 
Q 2597 3491 2834 3397 
z
" transform="scale(0.015625)"/>
       <path id="DejaVuSans-72" d="M 2631 2963 
Q 2534 3019 2420 3045 
Q 2306 3072 2169 3072 
Q 1681 3072 1420 2755 
Q 1159 2438 1159 1844 
L 1159 0 
L 581 0 
L 581 3500 
L 1159 3500 
L 1159 2956 
Q 1341 3275 1631 3429 
Q 1922 3584 2338 3584 
Q 2397 3584 2469 3576 
Q 2541 3569 2628 3553 
L 2631 2963 
z
" transform="scale(0.015625)"/>
       <path id="DejaVuSans-74" d="M 1172 4494 
L 1172 3500 
L 2356 3500 
L 2356 3053 
L 1172 3053 
L 1172 1153 
Q 1172 725 1289 603 
Q 1406 481 1766 481 
L 2356 481 
L 2356 0 
L 1766 0 
Q 1100 0 847 248 
Q 594 497 594 1153 
L 594 3053 
L 172 3053 
L 172 3500 
L 594 3500 
L 594 4494 
L 1172 4494 
z
" transform="scale(0.015625)"/>
       <path id="DejaVuSans-69" d="M 603 3500 
L 1178 3500 
L 1178 0 
L 603 0 
L 603 3500 
z
M 603 4863 
L 1178 4863 
L 1178 4134 
L 603 4134 
L 603 4863 
z
" transform="scale(0.015625)"/>
      </defs>
      <use xlink:href="#DejaVuSans-6c"/>
      <use xlink:href="#DejaVuSans-6f" transform="translate(27.783203 0)"/>
      <use xlink:href="#DejaVuSans-67" transform="translate(88.964844 0)"/>
      <use xlink:href="#DejaVuSans-31" transform="translate(152.441406 0)"/>
      <use xlink:href="#DejaVuSans-30" transform="translate(216.064453 0)"/>
      <use xlink:href="#DejaVuSans-20" transform="translate(279.6875 0)"/>
      <use xlink:href="#DejaVuSans-6f" transform="translate(311.474609 0)"/>
      <use xlink:href="#DejaVuSans-66" transform="translate(372.65625 0)"/>
      <use xlink:href="#DejaVuSans-20" transform="translate(407.861328 0)"/>
      <use xlink:href="#DejaVuSans-46" transform="translate(439.648438 0)"/>
      <use xlink:href="#DejaVuSans-45" transform="translate(497.167969 0)"/>
      <use xlink:href="#DejaVuSans-76" transform="translate(560.351562 0)"/>
      <use xlink:href="#DejaVuSans-61" transform="translate(619.53125 0)"/>
      <use xlink:href="#DejaVuSans-6c" transform="translate(680.810547 0)"/>
      <use xlink:href="#DejaVuSans-73" transform="translate(708.59375 0)"/>
      <use xlink:href="#DejaVuSans-20" transform="translate(760.693359 0)"/>
      <use xlink:href="#DejaVuSans-72" transform="translate(792.480469 0)"/>
      <use xlink:href="#DejaVuSans-61" transform="translate(833.59375 0)"/>
      <use xlink:href="#DejaVuSans-74" transform="translate(894.873047 0)"/>
      <use xlink:href="#DejaVuSans-69" transform="translate(934.082031 0)"/>
      <use xlink:href="#DejaVuSans-6f" transform="translate(961.865234 0)"/>
     </g>
    </g>
   </g>
   <g id="matplotlib.axis_2">
    <g id="ytick_1">
     <g id="line2d_32">
      <path d="M 34.16 288.453725 
L 453.192 288.453725 
" clip-path="url(#pb509cd53df)" style="fill: none; stroke: #b0b0b0; stroke-width: 0.8; stroke-linecap: square"/>
     </g>
     <g id="line2d_33">
      <defs>
       <path id="med021654e4" d="M 0 0 
L -3.5 0 
" style="stroke: #000000; stroke-width: 0.8"/>
      </defs>
      <g>
       <use xlink:href="#med021654e4" x="34.16" y="288.453725" style="stroke: #000000; stroke-width: 0.8"/>
      </g>
     </g>
    </g>
    <g id="ytick_2">
     <g id="line2d_34">
      <path d="M 34.16 217.796863 
L 453.192 217.796863 
" clip-path="url(#pb509cd53df)" style="fill: none; stroke: #b0b0b0; stroke-width: 0.8; stroke-linecap: square"/>
     </g>
     <g id="line2d_35">
      <g>
       <use xlink:href="#med021654e4" x="34.16" y="217.796863" style="stroke: #000000; stroke-width: 0.8"/>
      </g>
     </g>
    </g>
    <g id="ytick_3">
     <g id="line2d_36">
      <path d="M 34.16 147.14 
L 453.192 147.14 
" clip-path="url(#pb509cd53df)" style="fill: none; stroke: #b0b0b0; stroke-width: 0.8; stroke-linecap: square"/>
     </g>
     <g id="line2d_37">
      <g>
       <use xlink:href="#med021654e4" x="34.16" y="147.14" style="stroke: #000000; stroke-width: 0.8"/>
      </g>
     </g>
    </g>
    <g id="ytick_4">
     <g id="line2d_38">
      <path d="M 34.16 76.483137 
L 453.192 76.483137 
" clip-path="url(#pb509cd53df)" style="fill: none; stroke: #b0b0b0; stroke-width: 0.8; stroke-linecap: square"/>
     </g>
     <g id="line2d_39">
      <g>
       <use xlink:href="#med021654e4" x="34.16" y="76.483137" style="stroke: #000000; stroke-width: 0.8"/>
      </g>
     </g>
    </g>
    <g id="ytick_5">
     <g id="line2d_40">
      <path d="M 34.16 5.826275 
L 453.192 5.826275 
" clip-path="url(#pb509cd53df)" style="fill: none; stroke: #b0b0b0; stroke-width: 0.8; stroke-linecap: square"/>
     </g>
     <g id="line2d_41">
      <g>
       <use xlink:href="#med021654e4" x="34.16" y="5.826275" style="stroke: #000000; stroke-width: 0.8"/>
      </g>
     </g>
    </g>
    <g id="text_5">
     <!-- proportion of trials -->
     <g transform="translate(19.000625 240.14625) rotate(-90) scale(0.2 -0.2)">
      <defs>
       <path id="DejaVuSans-70" d="M 1159 525 
L 1159 -1331 
L 581 -1331 
L 581 3500 
L 1159 3500 
L 1159 2969 
Q 1341 3281 1617 3432 
Q 1894 3584 2278 3584 
Q 2916 3584 3314 3078 
Q 3713 2572 3713 1747 
Q 3713 922 3314 415 
Q 2916 -91 2278 -91 
Q 1894 -91 1617 61 
Q 1341 213 1159 525 
z
M 3116 1747 
Q 3116 2381 2855 2742 
Q 2594 3103 2138 3103 
Q 1681 3103 1420 2742 
Q 1159 2381 1159 1747 
Q 1159 1113 1420 752 
Q 1681 391 2138 391 
Q 2594 391 2855 752 
Q 3116 1113 3116 1747 
z
" transform="scale(0.015625)"/>
       <path id="DejaVuSans-6e" d="M 3513 2113 
L 3513 0 
L 2938 0 
L 2938 2094 
Q 2938 2591 2744 2837 
Q 2550 3084 2163 3084 
Q 1697 3084 1428 2787 
Q 1159 2491 1159 1978 
L 1159 0 
L 581 0 
L 581 3500 
L 1159 3500 
L 1159 2956 
Q 1366 3272 1645 3428 
Q 1925 3584 2291 3584 
Q 2894 3584 3203 3211 
Q 3513 2838 3513 2113 
z
" transform="scale(0.015625)"/>
      </defs>
      <use xlink:href="#DejaVuSans-70"/>
      <use xlink:href="#DejaVuSans-72" transform="translate(63.476562 0)"/>
      <use xlink:href="#DejaVuSans-6f" transform="translate(102.339844 0)"/>
      <use xlink:href="#DejaVuSans-70" transform="translate(163.521484 0)"/>
      <use xlink:href="#DejaVuSans-6f" transform="translate(226.998047 0)"/>
      <use xlink:href="#DejaVuSans-72" transform="translate(288.179688 0)"/>
      <use xlink:href="#DejaVuSans-74" transform="translate(329.292969 0)"/>
      <use xlink:href="#DejaVuSans-69" transform="translate(368.501953 0)"/>
      <use xlink:href="#DejaVuSans-6f" transform="translate(396.285156 0)"/>
      <use xlink:href="#DejaVuSans-6e" transform="translate(457.466797 0)"/>
      <use xlink:href="#DejaVuSans-20" transform="translate(520.845703 0)"/>
      <use xlink:href="#DejaVuSans-6f" transform="translate(552.632812 0)"/>
      <use xlink:href="#DejaVuSans-66" transform="translate(613.814453 0)"/>
      <use xlink:href="#DejaVuSans-20" transform="translate(649.019531 0)"/>
      <use xlink:href="#DejaVuSans-74" transform="translate(680.806641 0)"/>
      <use xlink:href="#DejaVuSans-72" transform="translate(720.015625 0)"/>
      <use xlink:href="#DejaVuSans-69" transform="translate(761.128906 0)"/>
      <use xlink:href="#DejaVuSans-61" transform="translate(788.912109 0)"/>
      <use xlink:href="#DejaVuSans-6c" transform="translate(850.191406 0)"/>
      <use xlink:href="#DejaVuSans-73" transform="translate(877.974609 0)"/>
     </g>
    </g>
   </g>
   <g id="line2d_42">
    <path d="M 34.16 275.984867 
L 58.539038 275.984867 
L 58.539038 273.21401 
L 75.359047 273.21401 
L 75.359047 271.828581 
L 77.03445 271.828581 
L 77.03445 270.443153 
L 81.717189 270.443153 
L 81.717189 269.057724 
L 83.671716 269.057724 
L 83.671716 267.672295 
L 98.322698 267.672295 
L 98.322698 266.286867 
L 129.627375 266.286867 
L 129.627375 264.901438 
L 134.980359 264.901438 
L 134.980359 263.516009 
L 143.605022 263.516009 
L 143.605022 262.130581 
L 152.112125 262.130581 
L 152.112125 260.745152 
L 153.858412 260.745152 
L 153.858412 259.359723 
L 158.532368 259.359723 
L 158.532368 257.974295 
L 159.853789 257.974295 
L 159.853789 256.588866 
L 160.643442 256.588866 
L 160.643442 255.203437 
L 167.025395 255.203437 
L 167.025395 253.818008 
L 170.976783 253.818008 
L 170.976783 252.43258 
L 174.017141 252.43258 
L 174.017141 251.047151 
L 175.131205 251.047151 
L 175.131205 249.661722 
L 175.437865 249.661722 
L 175.532498 246.890865 
L 176.298948 246.890865 
L 176.298948 245.505436 
L 177.280166 245.505436 
L 177.280166 244.120008 
L 181.363053 244.120008 
L 181.363053 242.734579 
L 182.581063 242.734579 
L 182.581063 241.34915 
L 183.307431 241.34915 
L 183.307431 239.963722 
L 183.769554 239.963722 
L 183.769554 238.578293 
L 184.063815 238.578293 
L 184.063815 237.192864 
L 186.096489 237.192864 
L 186.164313 234.422007 
L 188.98505 234.422007 
L 188.98505 233.036578 
L 192.451707 233.036578 
L 192.451707 231.65115 
L 193.350862 231.65115 
L 193.350862 230.265721 
L 193.848441 230.265721 
L 193.848441 228.880292 
L 194.660411 228.880292 
L 194.660411 227.494864 
L 194.908413 227.494864 
L 194.908413 226.109435 
L 195.240765 226.109435 
L 195.240765 224.724006 
L 197.15132 224.724006 
L 197.15132 223.338577 
L 197.667203 223.338577 
L 197.667203 221.953149 
L 200.441108 221.953149 
L 200.441108 220.56772 
L 200.626553 220.56772 
L 200.626553 219.182291 
L 201.295292 219.182291 
L 201.295292 217.796863 
L 201.769107 217.796863 
L 201.769107 216.411434 
L 202.422172 216.411434 
L 202.422172 215.026005 
L 203.078525 215.026005 
L 203.078525 213.640577 
L 203.416345 213.640577 
L 203.416345 212.255148 
L 203.607828 212.255148 
L 203.607828 210.869719 
L 204.891301 210.869719 
L 204.891301 209.484291 
L 205.656604 209.484291 
L 205.656604 208.098862 
L 206.035467 208.098862 
L 206.035467 206.713433 
L 208.712241 206.713433 
L 208.712241 205.328005 
L 208.952735 205.328005 
L 208.952735 203.942576 
L 209.200283 203.942576 
L 209.200283 202.557147 
L 209.559395 202.557147 
L 209.559395 201.171719 
L 209.707611 201.171719 
L 209.707611 199.78629 
L 210.493578 199.78629 
L 210.493578 198.400861 
L 210.621381 198.400861 
L 210.621381 197.015433 
L 211.641318 197.015433 
L 211.641318 195.630004 
L 212.036428 195.630004 
L 212.036428 194.244575 
L 212.726033 194.244575 
L 212.726033 192.859146 
L 213.278713 192.859146 
L 213.278713 191.473718 
L 213.671253 191.473718 
L 213.703225 188.70286 
L 215.334614 188.70286 
L 215.442982 185.932003 
L 215.677583 185.932003 
L 215.677583 184.546574 
L 216.21001 184.546574 
L 216.21001 183.161146 
L 216.772074 183.161146 
L 216.772074 181.775717 
L 217.285972 181.775717 
L 217.285972 180.390288 
L 218.022272 180.390288 
L 218.022272 179.00486 
L 218.214714 179.00486 
L 218.214714 177.619431 
L 221.166446 177.619431 
L 221.166446 176.234002 
L 221.397149 176.234002 
L 221.397149 174.848574 
L 222.53965 174.848574 
L 222.5554 172.077716 
L 223.147274 172.077716 
L 223.147274 170.692288 
L 224.03151 170.692288 
L 224.03151 169.306859 
L 224.797947 169.306859 
L 224.797947 167.92143 
L 225.7198 167.92143 
L 225.7198 166.536002 
L 225.858232 166.536002 
L 225.858232 165.150573 
L 226.715511 165.150573 
L 226.746031 162.379715 
L 227.23084 162.379715 
L 227.23084 160.994287 
L 227.725773 160.994287 
L 227.725773 159.608858 
L 228.282273 159.608858 
L 228.282273 158.223429 
L 228.551413 158.223429 
L 228.551413 156.838001 
L 228.878342 156.838001 
L 228.878342 155.452572 
L 229.404652 155.452572 
L 229.404652 154.067143 
L 231.130952 154.067143 
L 231.130952 152.681715 
L 231.419398 152.681715 
L 231.419398 151.296286 
L 231.923428 151.296286 
L 231.96906 148.525429 
L 232.452791 148.525429 
L 232.463175 145.754571 
L 233.017919 145.754571 
L 233.017919 144.369143 
L 233.852291 144.369143 
L 233.852291 142.983714 
L 234.510116 142.983714 
L 234.510116 141.598285 
L 236.289695 141.598285 
L 236.289695 140.212857 
L 236.609688 140.212857 
L 236.609688 138.827428 
L 236.943009 138.827428 
L 236.943009 137.441999 
L 237.317858 137.441999 
L 237.317858 136.056571 
L 237.523363 136.056571 
L 237.523363 134.671142 
L 237.686379 134.671142 
L 237.686379 133.285713 
L 237.887896 133.285713 
L 237.887896 131.900285 
L 238.472412 131.900285 
L 238.472412 130.514856 
L 238.965684 130.514856 
L 238.965684 129.129427 
L 239.159926 129.129427 
L 239.159926 127.743998 
L 239.942876 127.743998 
L 239.975042 124.973141 
L 240.064419 124.973141 
L 240.064419 123.587712 
L 240.370782 123.587712 
L 240.469682 120.816855 
L 240.761973 120.816855 
L 240.761973 119.431426 
L 241.122782 119.431426 
L 241.122782 118.045998 
L 242.497312 118.045998 
L 242.497312 116.660569 
L 243.621008 116.660569 
L 243.676 93.108281 
L 244.403128 93.108281 
L 244.403128 91.722853 
L 245.22546 91.722853 
L 245.22546 90.337424 
L 245.497619 90.337424 
L 245.497619 88.951995 
L 245.687223 88.951995 
L 245.687223 87.566567 
L 247.882155 87.566567 
L 247.882155 86.181138 
L 250.034142 86.181138 
L 250.034142 84.795709 
L 250.194929 84.795709 
L 250.194929 83.410281 
L 251.342669 83.410281 
L 251.342669 82.024852 
L 252.223885 82.024852 
L 252.223885 80.639423 
L 252.753188 80.639423 
L 252.753188 79.253995 
L 252.929751 79.253995 
L 252.929751 77.868566 
L 254.53972 77.868566 
L 254.53972 76.483137 
L 255.716887 76.483137 
L 255.755348 73.71228 
L 256.694079 73.71228 
L 256.694079 72.326851 
L 258.86475 72.326851 
L 258.86475 70.941423 
L 260.12116 70.941423 
L 260.12116 69.555994 
L 262.554053 69.555994 
L 262.554053 68.170565 
L 267.006386 68.170565 
L 267.006386 66.785136 
L 267.36936 66.785136 
L 267.36936 65.399708 
L 277.589247 65.399708 
L 277.589247 64.014279 
L 278.635844 64.014279 
L 278.635844 62.62885 
L 279.165147 62.62885 
L 279.198117 59.857993 
L 280.135258 59.857993 
L 280.135258 58.472564 
L 282.82882 58.472564 
L 282.82882 57.087136 
L 282.997651 57.087136 
L 282.997651 55.701707 
L 283.765961 55.701707 
L 283.765961 54.316278 
L 285.058353 54.316278 
L 285.058353 52.93085 
L 289.796572 52.93085 
L 289.796572 51.545421 
L 290.733714 51.545421 
L 290.733714 50.159992 
L 291.679804 50.159992 
L 291.679804 48.774564 
L 292.98399 48.774564 
L 292.98399 47.389135 
L 296.614693 47.389135 
L 296.614693 46.003706 
L 297.384631 46.003706 
L 297.384631 44.618278 
L 299.669205 44.618278 
L 299.669205 43.232849 
L 300.220446 43.232849 
L 300.220446 41.84742 
L 303.582446 41.84742 
L 303.582446 40.461992 
L 303.936406 40.461992 
L 303.936406 39.076563 
L 307.924738 39.076563 
L 307.924738 37.691134 
L 311.053052 37.691134 
L 311.053052 36.305705 
L 311.375468 36.305705 
L 311.375468 34.920277 
L 320.350376 34.920277 
L 320.350376 33.534848 
L 327.498211 33.534848 
L 327.498211 32.149419 
L 330.729874 32.149419 
L 330.729874 30.763991 
L 354.912697 30.763991 
L 354.912697 29.378562 
L 381.055012 29.378562 
L 381.055012 27.993133 
L 384.073864 27.993133 
L 384.073864 26.607705 
L 385.724084 26.607705 
L 385.724084 25.222276 
L 405.634811 25.222276 
L 405.634811 23.836847 
L 411.992953 23.836847 
L 411.992953 22.451419 
L 428.812962 22.451419 
L 428.812962 19.680561 
L 434.399002 19.680561 
L 434.399002 18.295133 
L 453.192 18.295133 
L 453.192 18.295133 
" clip-path="url(#pb509cd53df)" style="fill: none; stroke: #000000; stroke-width: 3; stroke-linecap: square"/>
   </g>
   <g id="line2d_43">
    <path clip-path="url(#pb509cd53df)" style="fill: none; stroke: #000000; stroke-width: 3; stroke-linecap: square"/>
   </g>
   <g id="line2d_44">
    <path d="M 34.16 258.172213 
L 171.205471 258.172213 
L 171.205471 254.8076 
L 193.169478 254.8076 
L 193.169478 251.442988 
L 194.515018 251.442988 
L 194.515018 248.078375 
L 198.348738 248.078375 
L 198.348738 244.713763 
L 199.694278 244.713763 
L 199.694278 241.34915 
L 200.830254 241.34915 
L 200.830254 237.984538 
L 202.175793 237.984538 
L 202.175793 234.619925 
L 207.457686 234.619925 
L 207.457686 231.255313 
L 208.733439 231.255313 
L 208.733439 227.8907 
L 209.456555 227.8907 
L 209.456555 224.526088 
L 211.835688 224.526088 
L 211.835688 221.161475 
L 212.636946 221.161475 
L 212.636946 217.796863 
L 214.758678 217.796863 
L 214.758678 214.43225 
L 215.118462 214.43225 
L 215.118462 211.067638 
L 215.740666 211.067638 
L 215.740666 207.703025 
L 218.109163 207.703025 
L 218.109163 204.338413 
L 218.324037 204.338413 
L 218.324037 200.9738 
L 219.408757 200.9738 
L 219.408757 197.609188 
L 221.142295 197.609188 
L 221.142295 194.244575 
L 221.794811 194.244575 
L 221.794811 190.879963 
L 222.61173 190.879963 
L 222.61173 187.51535 
L 223.593718 187.51535 
L 223.593718 184.150738 
L 225.215668 184.150738 
L 225.215668 180.786125 
L 225.745968 180.786125 
L 225.745968 177.421513 
L 225.803546 177.421513 
L 225.803546 174.0569 
L 226.031146 174.0569 
L 226.031146 170.692288 
L 226.177089 170.692288 
L 226.177089 167.327675 
L 227.511892 167.327675 
L 227.511892 163.963063 
L 227.952864 163.963063 
L 227.952864 160.59845 
L 228.010267 160.59845 
L 228.010267 157.233838 
L 228.909006 157.233838 
L 228.909006 153.869225 
L 229.044468 153.869225 
L 229.044468 150.504613 
L 229.982303 150.504613 
L 229.982303 147.14 
L 231.053936 147.14 
L 231.053936 143.775387 
L 231.749073 143.775387 
L 231.749073 140.410775 
L 233.906681 140.410775 
L 233.906681 137.046162 
L 234.347653 137.046162 
L 234.347653 133.68155 
L 234.489776 133.68155 
L 234.489776 130.316937 
L 234.541568 130.316937 
L 234.541568 126.952325 
L 234.579499 126.952325 
L 234.579499 123.587712 
L 234.638784 123.587712 
L 234.638784 120.2231 
L 234.944352 120.2231 
L 234.944352 116.858487 
L 235.290271 116.858487 
L 235.290271 113.493875 
L 235.523557 113.493875 
L 235.523557 110.129262 
L 235.91244 110.129262 
L 235.91244 106.76465 
L 236.604614 106.76465 
L 236.604614 103.400037 
L 237.883882 103.400037 
L 237.883882 100.035425 
L 238.106928 100.035425 
L 238.106928 96.670812 
L 239.852208 96.670812 
L 239.852208 93.3062 
L 240.29318 93.3062 
L 240.29318 89.941587 
L 240.614844 89.941587 
L 240.614844 86.576975 
L 241.357748 86.576975 
L 241.357748 83.212362 
L 241.835039 83.212362 
L 241.835039 79.84775 
L 242.275107 79.84775 
L 242.275107 76.483137 
L 242.540958 76.483137 
L 242.540958 73.118525 
L 247.143007 73.118525 
L 247.143007 69.753912 
L 247.986266 69.753912 
L 247.986266 66.3893 
L 291.903591 66.3893 
L 291.903591 63.024687 
L 297.938937 63.024687 
L 297.938937 59.660075 
L 299.599199 59.660075 
L 299.599199 56.295462 
L 453.192 56.295462 
" clip-path="url(#pb509cd53df)" style="fill: none; stroke: #00bfbf; stroke-width: 3; stroke-linecap: square"/>
   </g>
   <g id="line2d_45">
    <path clip-path="url(#pb509cd53df)" style="fill: none; stroke: #00bfbf; stroke-width: 3; stroke-linecap: square"/>
   </g>
   <g id="line2d_46">
    <path d="M 34.16 211.373512 
L 217.37157 211.373512 
L 217.37157 202.809043 
L 225.955681 202.809043 
L 225.955681 194.244575 
L 226.945731 194.244575 
L 226.945731 185.680107 
L 227.335523 185.680107 
L 227.335523 177.115639 
L 228.974796 177.115639 
L 228.974796 168.551171 
L 228.974796 168.551171 
L 228.974796 159.986702 
L 229.037702 159.986702 
L 229.037702 151.422234 
L 230.450327 151.422234 
L 230.450327 142.857766 
L 232.831065 142.857766 
L 232.831065 134.293298 
L 232.831065 134.293298 
L 232.831065 125.728829 
L 234.306596 125.728829 
L 234.306596 117.164361 
L 234.951734 117.164361 
L 234.951734 108.599893 
L 234.951734 108.599893 
L 234.951734 100.035425 
L 235.529841 100.035425 
L 235.529841 91.470957 
L 235.919633 91.470957 
L 235.919633 82.906488 
L 236.427265 82.906488 
L 236.427265 74.34202 
L 238.611863 74.34202 
L 238.611863 65.777552 
L 239.001655 65.777552 
L 239.001655 57.213084 
L 453.192 57.213084 
" clip-path="url(#pb509cd53df)" style="fill: none; stroke: #bf00bf; stroke-width: 3; stroke-linecap: square"/>
   </g>
   <g id="line2d_47">
    <path clip-path="url(#pb509cd53df)" style="fill: none; stroke: #bf00bf; stroke-width: 3; stroke-linecap: square"/>
   </g>
   <g id="line2d_48">
    <path d="M 34.16 288.453725 
L 229.488972 288.453725 
L 229.488972 269.611895 
L 229.867128 269.611895 
L 229.867128 250.770065 
L 231.233373 250.770065 
L 231.233373 231.928235 
L 231.611529 231.928235 
L 231.611529 213.086405 
L 232.414508 213.086405 
L 232.414508 194.244575 
L 233.138004 194.244575 
L 233.138004 175.402745 
L 233.51616 175.402745 
L 233.51616 156.560915 
L 234.158909 156.560915 
L 234.158909 137.719085 
L 236.06354 137.719085 
L 236.06354 118.877255 
L 453.192 118.877255 
" clip-path="url(#pb509cd53df)" style="fill: none; stroke: #ff0000; stroke-width: 3; stroke-linecap: square"/>
   </g>
   <g id="line2d_49">
    <path clip-path="url(#pb509cd53df)" style="fill: none; stroke: #ff0000; stroke-width: 3; stroke-linecap: square"/>
   </g>
   <g id="line2d_50">
    <path d="M 243.676 291.28 
L 243.676 3 
" clip-path="url(#pb509cd53df)" style="fill: none; stroke: #000000; stroke-width: 1.5; stroke-linecap: square"/>
   </g>
   <g id="line2d_51">
    <path d="M 34.16 147.14 
L 453.192 147.14 
" clip-path="url(#pb509cd53df)" style="fill: none; stroke-dasharray: 2,3.3; stroke-dashoffset: 0; stroke: #000000; stroke-width: 2"/>
   </g>
   <g id="patch_3">
    <path d="M 34.16 291.28 
L 34.16 3 
" style="fill: none; stroke: #000000; stroke-width: 0.8; stroke-linejoin: miter; stroke-linecap: square"/>
   </g>
   <g id="patch_4">
    <path d="M 453.192 291.28 
L 453.192 3 
" style="fill: none; stroke: #000000; stroke-width: 0.8; stroke-linejoin: miter; stroke-linecap: square"/>
   </g>
   <g id="patch_5">
    <path d="M 34.16 291.28 
L 453.192 291.28 
" style="fill: none; stroke: #000000; stroke-width: 0.8; stroke-linejoin: miter; stroke-linecap: square"/>
   </g>
   <g id="patch_6">
    <path d="M 34.16 3 
L 453.192 3 
" style="fill: none; stroke: #000000; stroke-width: 0.8; stroke-linejoin: miter; stroke-linecap: square"/>
   </g>
   <g id="text_6">
    <!-- f1-f24,5-D -->
    <g transform="translate(343.64261 285.5144) scale(0.2 -0.2)">
     <defs>
      <path id="DejaVuSans-32" d="M 1228 531 
L 3431 531 
L 3431 0 
L 469 0 
L 469 531 
Q 828 903 1448 1529 
Q 2069 2156 2228 2338 
Q 2531 2678 2651 2914 
Q 2772 3150 2772 3378 
Q 2772 3750 2511 3984 
Q 2250 4219 1831 4219 
Q 1534 4219 1204 4116 
Q 875 4013 500 3803 
L 500 4441 
Q 881 4594 1212 4672 
Q 1544 4750 1819 4750 
Q 2544 4750 2975 4387 
Q 3406 4025 3406 3419 
Q 3406 3131 3298 2873 
Q 3191 2616 2906 2266 
Q 2828 2175 2409 1742 
Q 1991 1309 1228 531 
z
" transform="scale(0.015625)"/>
      <path id="DejaVuSans-34" d="M 2419 4116 
L 825 1625 
L 2419 1625 
L 2419 4116 
z
M 2253 4666 
L 3047 4666 
L 3047 1625 
L 3713 1625 
L 3713 1100 
L 3047 1100 
L 3047 0 
L 2419 0 
L 2419 1100 
L 313 1100 
L 313 1709 
L 2253 4666 
z
" transform="scale(0.015625)"/>
      <path id="DejaVuSans-2c" d="M 750 794 
L 1409 794 
L 1409 256 
L 897 -744 
L 494 -744 
L 750 256 
L 750 794 
z
" transform="scale(0.015625)"/>
      <path id="DejaVuSans-35" d="M 691 4666 
L 3169 4666 
L 3169 4134 
L 1269 4134 
L 1269 2991 
Q 1406 3038 1543 3061 
Q 1681 3084 1819 3084 
Q 2600 3084 3056 2656 
Q 3513 2228 3513 1497 
Q 3513 744 3044 326 
Q 2575 -91 1722 -91 
Q 1428 -91 1123 -41 
Q 819 9 494 109 
L 494 744 
Q 775 591 1075 516 
Q 1375 441 1709 441 
Q 2250 441 2565 725 
Q 2881 1009 2881 1497 
Q 2881 1984 2565 2268 
Q 2250 2553 1709 2553 
Q 1456 2553 1204 2497 
Q 953 2441 691 2322 
L 691 4666 
z
" transform="scale(0.015625)"/>
      <path id="DejaVuSans-44" d="M 1259 4147 
L 1259 519 
L 2022 519 
Q 2988 519 3436 956 
Q 3884 1394 3884 2338 
Q 3884 3275 3436 3711 
Q 2988 4147 2022 4147 
L 1259 4147 
z
M 628 4666 
L 1925 4666 
Q 3281 4666 3915 4102 
Q 4550 3538 4550 2338 
Q 4550 1131 3912 565 
Q 3275 0 1925 0 
L 628 0 
L 628 4666 
z
" transform="scale(0.015625)"/>
     </defs>
     <use xlink:href="#DejaVuSans-66"/>
     <use xlink:href="#DejaVuSans-31" transform="translate(35.205078 0)"/>
     <use xlink:href="#DejaVuSans-2d" transform="translate(98.828125 0)"/>
     <use xlink:href="#DejaVuSans-66" transform="translate(134.912109 0)"/>
     <use xlink:href="#DejaVuSans-32" transform="translate(170.117188 0)"/>
     <use xlink:href="#DejaVuSans-34" transform="translate(233.740234 0)"/>
     <use xlink:href="#DejaVuSans-2c" transform="translate(297.363281 0)"/>
     <use xlink:href="#DejaVuSans-35" transform="translate(329.150391 0)"/>
     <use xlink:href="#DejaVuSans-2d" transform="translate(392.773438 0)"/>
     <use xlink:href="#DejaVuSans-44" transform="translate(428.857422 0)"/>
    </g>
   </g>
   <g id="text_7">
    <!-- v2.8.2 -->
    <g style="fill: #808080" transform="translate(231.131 286.73345) scale(0.08 -0.08)">
     <defs>
      <path id="DejaVuSans-2e" d="M 684 794 
L 1344 794 
L 1344 0 
L 684 0 
L 684 794 
z
" transform="scale(0.015625)"/>
      <path id="DejaVuSans-38" d="M 2034 2216 
Q 1584 2216 1326 1975 
Q 1069 1734 1069 1313 
Q 1069 891 1326 650 
Q 1584 409 2034 409 
Q 2484 409 2743 651 
Q 3003 894 3003 1313 
Q 3003 1734 2745 1975 
Q 2488 2216 2034 2216 
z
M 1403 2484 
Q 997 2584 770 2862 
Q 544 3141 544 3541 
Q 544 4100 942 4425 
Q 1341 4750 2034 4750 
Q 2731 4750 3128 4425 
Q 3525 4100 3525 3541 
Q 3525 3141 3298 2862 
Q 3072 2584 2669 2484 
Q 3125 2378 3379 2068 
Q 3634 1759 3634 1313 
Q 3634 634 3220 271 
Q 2806 -91 2034 -91 
Q 1263 -91 848 271 
Q 434 634 434 1313 
Q 434 1759 690 2068 
Q 947 2378 1403 2484 
z
M 1172 3481 
Q 1172 3119 1398 2916 
Q 1625 2713 2034 2713 
Q 2441 2713 2670 2916 
Q 2900 3119 2900 3481 
Q 2900 3844 2670 4047 
Q 2441 4250 2034 4250 
Q 1625 4250 1398 4047 
Q 1172 3844 1172 3481 
z
" transform="scale(0.015625)"/>
     </defs>
     <use xlink:href="#DejaVuSans-76"/>
     <use xlink:href="#DejaVuSans-32" transform="translate(59.179688 0)"/>
     <use xlink:href="#DejaVuSans-2e" transform="translate(122.802734 0)"/>
     <use xlink:href="#DejaVuSans-38" transform="translate(154.589844 0)"/>
     <use xlink:href="#DejaVuSans-2e" transform="translate(218.212891 0)"/>
     <use xlink:href="#DejaVuSans-32" transform="translate(250 0)"/>
    </g>
   </g>
   <g id="legend_1">
    <g id="patch_7">
     <path d="M 48.16 136.425 
L 202.831875 136.425 
Q 206.831875 136.425 206.831875 132.425 
L 206.831875 17 
Q 206.831875 13 202.831875 13 
L 48.16 13 
Q 44.16 13 44.16 17 
L 44.16 132.425 
Q 44.16 136.425 48.16 136.425 
z
" style="fill: #ffffff; opacity: 0.2; stroke: #cccccc; stroke-linejoin: miter"/>
    </g>
    <g id="line2d_52">
     <path d="M 52.16 29.196875 
L 72.16 29.196875 
L 92.16 29.196875 
" style="fill: none; stroke: #000000; stroke-width: 3; stroke-linecap: square"/>
    </g>
    <g id="text_8">
     <!-- 1: 23/23 -->
     <g transform="translate(108.16 36.196875) scale(0.2 -0.2)">
      <defs>
       <path id="DejaVuSans-3a" d="M 750 794 
L 1409 794 
L 1409 0 
L 750 0 
L 750 794 
z
M 750 3309 
L 1409 3309 
L 1409 2516 
L 750 2516 
L 750 3309 
z
" transform="scale(0.015625)"/>
       <path id="DejaVuSans-33" d="M 2597 2516 
Q 3050 2419 3304 2112 
Q 3559 1806 3559 1356 
Q 3559 666 3084 287 
Q 2609 -91 1734 -91 
Q 1441 -91 1130 -33 
Q 819 25 488 141 
L 488 750 
Q 750 597 1062 519 
Q 1375 441 1716 441 
Q 2309 441 2620 675 
Q 2931 909 2931 1356 
Q 2931 1769 2642 2001 
Q 2353 2234 1838 2234 
L 1294 2234 
L 1294 2753 
L 1863 2753 
Q 2328 2753 2575 2939 
Q 2822 3125 2822 3475 
Q 2822 3834 2567 4026 
Q 2313 4219 1838 4219 
Q 1578 4219 1281 4162 
Q 984 4106 628 3988 
L 628 4550 
Q 988 4650 1302 4700 
Q 1616 4750 1894 4750 
Q 2613 4750 3031 4423 
Q 3450 4097 3450 3541 
Q 3450 3153 3228 2886 
Q 3006 2619 2597 2516 
z
" transform="scale(0.015625)"/>
       <path id="DejaVuSans-2f" d="M 1625 4666 
L 2156 4666 
L 531 -594 
L 0 -594 
L 1625 4666 
z
" transform="scale(0.015625)"/>
      </defs>
      <use xlink:href="#DejaVuSans-31"/>
      <use xlink:href="#DejaVuSans-3a" transform="translate(63.623047 0)"/>
      <use xlink:href="#DejaVuSans-20" transform="translate(97.314453 0)"/>
      <use xlink:href="#DejaVuSans-32" transform="translate(129.101562 0)"/>
      <use xlink:href="#DejaVuSans-33" transform="translate(192.724609 0)"/>
      <use xlink:href="#DejaVuSans-2f" transform="translate(256.347656 0)"/>
      <use xlink:href="#DejaVuSans-32" transform="translate(290.039062 0)"/>
      <use xlink:href="#DejaVuSans-33" transform="translate(353.662109 0)"/>
     </g>
    </g>
    <g id="line2d_53">
     <path d="M 52.16 58.553125 
L 72.16 58.553125 
L 92.16 58.553125 
" style="fill: none; stroke: #00bfbf; stroke-width: 3; stroke-linecap: square"/>
    </g>
    <g id="text_9">
     <!-- -1: 10/11 -->
     <g transform="translate(108.16 65.553125) scale(0.2 -0.2)">
      <use xlink:href="#DejaVuSans-2d"/>
      <use xlink:href="#DejaVuSans-31" transform="translate(36.083984 0)"/>
      <use xlink:href="#DejaVuSans-3a" transform="translate(99.707031 0)"/>
      <use xlink:href="#DejaVuSans-20" transform="translate(133.398438 0)"/>
      <use xlink:href="#DejaVuSans-31" transform="translate(165.185547 0)"/>
      <use xlink:href="#DejaVuSans-30" transform="translate(228.808594 0)"/>
      <use xlink:href="#DejaVuSans-2f" transform="translate(292.431641 0)"/>
      <use xlink:href="#DejaVuSans-31" transform="translate(326.123047 0)"/>
      <use xlink:href="#DejaVuSans-31" transform="translate(389.746094 0)"/>
     </g>
    </g>
    <g id="line2d_54">
     <path d="M 52.16 87.909375 
L 72.16 87.909375 
L 92.16 87.909375 
" style="fill: none; stroke: #bf00bf; stroke-width: 3; stroke-linecap: square"/>
    </g>
    <g id="text_10">
     <!-- -4: 4/4 -->
     <g transform="translate(108.16 94.909375) scale(0.2 -0.2)">
      <use xlink:href="#DejaVuSans-2d"/>
      <use xlink:href="#DejaVuSans-34" transform="translate(36.083984 0)"/>
      <use xlink:href="#DejaVuSans-3a" transform="translate(99.707031 0)"/>
      <use xlink:href="#DejaVuSans-20" transform="translate(133.398438 0)"/>
      <use xlink:href="#DejaVuSans-34" transform="translate(165.185547 0)"/>
      <use xlink:href="#DejaVuSans-2f" transform="translate(228.808594 0)"/>
      <use xlink:href="#DejaVuSans-34" transform="translate(262.5 0)"/>
     </g>
    </g>
    <g id="line2d_55">
     <path d="M 52.16 117.265625 
L 72.16 117.265625 
L 92.16 117.265625 
" style="fill: none; stroke: #ff0000; stroke-width: 3; stroke-linecap: square"/>
    </g>
    <g id="text_11">
     <!-- -8: 1/3 -->
     <g transform="translate(108.16 124.265625) scale(0.2 -0.2)">
      <use xlink:href="#DejaVuSans-2d"/>
      <use xlink:href="#DejaVuSans-38" transform="translate(36.083984 0)"/>
      <use xlink:href="#DejaVuSans-3a" transform="translate(99.707031 0)"/>
      <use xlink:href="#DejaVuSans-20" transform="translate(133.398438 0)"/>
      <use xlink:href="#DejaVuSans-31" transform="translate(165.185547 0)"/>
      <use xlink:href="#DejaVuSans-2f" transform="translate(228.808594 0)"/>
      <use xlink:href="#DejaVuSans-33" transform="translate(262.5 0)"/>
     </g>
    </g>
   </g>
  </g>
 </g>
 <defs>
  <clipPath id="pb509cd53df">
   <rect x="34.16" y="3" width="419.032" height="288.28"/>
  </clipPath>
 </defs>
</svg>
