<?xml version="1.0" encoding="utf-8" standalone="no"?>
<!DOCTYPE svg PUBLIC "-//W3C//DTD SVG 1.1//EN"
  "http://www.w3.org/Graphics/SVG/1.1/DTD/svg11.dtd">
<svg xmlns:xlink="http://www.w3.org/1999/xlink" width="460.8pt" height="345.6pt" viewBox="0 0 460.8 345.6" xmlns="http://www.w3.org/2000/svg" version="1.1">
 <metadata>
  <rdf:RDF xmlns:dc="http://purl.org/dc/elements/1.1/" xmlns:cc="http://creativecommons.org/ns#" xmlns:rdf="http://www.w3.org/1999/02/22-rdf-syntax-ns#">
   <cc:Work>
    <dc:type rdf:resource="http://purl.org/dc/dcmitype/StillImage"/>
    <dc:date>2025-12-16T07:51:47.463799</dc:date>
    <dc:format>image/svg+xml</dc:format>
    <dc:creator>
     <cc:Agent>
      <dc:title>Matplotlib v3.10.0, https://matplotlib.org/</dc:title>
     </cc:Agent>
    </dc:creator>
   </cc:Work>
  </rdf:RDF>
 </metadata>
 <defs>
  <style type="text/css">*{stroke-linejoin: round; stroke-linecap: butt}</style>
 </defs>
 <g id="figure_1">
  <g id="patch_1">
   <path d="M 0 345.6 
L 460.8 345.6 
L 460.8 0 
L 0 0 
z
" style="fill: #ffffff"/>
  </g>
  <g id="axes_1">
   <g id="patch_2">
    <path d="M 62.208 293.76 
L 460.8 293.76 
L 460.8 3.456 
L 62.208 3.456 
z
" style="fill: #ffffff"/>
   </g>
   <g id="line2d_1">
    <path d="M 331.365764 293.76 
L 331.365764 288.969505 
L 332.260674 288.969505 
L 332.260674 284.17901 
L 334.474963 284.17901 
L 334.474963 279.388515 
L 336.229381 279.388515 
L 336.229381 274.59802 
L 339.930678 274.59802 
L 339.930678 269.807525 
L 341.86152 269.807525 
L 341.86152 265.01703 
L 343.857661 265.01703 
L 343.857661 260.226535 
L 344.507248 260.226535 
L 344.507248 255.43604 
L 344.893346 255.43604 
L 344.893346 250.645545 
L 345.085382 250.645545 
L 345.085382 245.85505 
L 345.27675 245.85505 
L 345.27675 241.064554 
L 346.473512 241.064554 
L 346.473512 236.274059 
L 346.907936 236.274059 
L 346.907936 231.483564 
L 346.907936 231.483564 
L 346.907936 226.693069 
L 348.371846 226.693069 
L 348.371846 221.902574 
L 349.385684 221.902574 
L 349.385684 217.112079 
L 349.680346 217.112079 
L 349.680346 212.321584 
L 349.739089 212.321584 
L 349.739089 207.531089 
L 351.47281 207.531089 
L 351.47281 202.740594 
L 353.043042 202.740594 
L 353.043042 197.950099 
L 356.15957 197.950099 
L 356.15957 193.159604 
L 369.169412 193.159604 
L 369.169412 188.369109 
L 371.62836 188.369109 
L 371.62836 183.578614 
L 371.864385 183.578614 
L 371.864385 178.788119 
L 380.79355 178.788119 
L 380.79355 173.997624 
L 382.07967 173.997624 
L 382.07967 169.207129 
L 400.14023 169.207129 
L 400.14023 164.416634 
L 416.025829 164.416634 
L 416.025829 159.626139 
L 434.229497 159.626139 
L 434.229497 154.835644 
L 434.229497 154.835644 
L 434.229497 154.835644 
L 460.8 154.835644 
" clip-path="url(#p5c1ec8494f)" style="fill: none; stroke: #f5deb3; stroke-width: 1.5; stroke-linecap: square"/>
   </g>
   <g id="line2d_2">
    <path clip-path="url(#p5c1ec8494f)" style="fill: none; stroke: #f5deb3; stroke-width: 1.5; stroke-linecap: square"/>
   </g>
   <g id="line2d_3">
    <path d="M 223.436294 293.76 
L 223.436294 288.969505 
L 275.403518 288.969505 
L 275.403518 284.17901 
L 275.630135 284.17901 
L 275.630135 279.388515 
L 276.749407 279.388515 
L 276.749407 274.59802 
L 279.557118 274.59802 
L 279.557118 269.807525 
L 281.420157 269.807525 
L 281.420157 265.01703 
L 283.418718 265.01703 
L 283.418718 260.226535 
L 285.724835 260.226535 
L 285.724835 255.43604 
L 287.026692 255.43604 
L 287.026692 250.645545 
L 287.393055 250.645545 
L 287.393055 245.85505 
L 287.756993 245.85505 
L 287.756993 241.064554 
L 289.18911 241.064554 
L 289.18911 236.274059 
L 290.065594 236.274059 
L 290.065594 231.483564 
L 292.113821 231.483564 
L 292.113821 226.693069 
L 293.926573 226.693069 
L 293.926573 221.902574 
L 293.926573 221.902574 
L 293.926573 217.112079 
L 298.437385 217.112079 
L 298.437385 212.321584 
L 298.735241 212.321584 
L 298.735241 207.531089 
L 300.200778 207.531089 
L 300.200778 202.740594 
L 302.32831 202.740594 
L 302.32831 197.950099 
L 304.510409 197.950099 
L 304.510409 193.159604 
L 310.580505 193.159604 
L 310.580505 188.369109 
L 310.938515 188.369109 
L 310.938515 183.578614 
L 311.175899 183.578614 
L 311.175899 178.788119 
L 311.175899 178.788119 
L 311.175899 173.997624 
L 311.881961 173.997624 
L 311.881961 169.207129 
L 322.771338 169.207129 
L 322.771338 164.416634 
L 331.529562 164.416634 
L 331.529562 159.626139 
L 331.855702 159.626139 
L 331.855702 154.835644 
L 339.366315 154.835644 
L 339.366315 150.045149 
L 340.140829 150.045149 
L 340.140829 145.254653 
L 341.793717 145.254653 
L 341.793717 140.464158 
L 342.534989 140.464158 
L 342.534989 135.673663 
L 343.067884 135.673663 
L 343.067884 130.883168 
L 345.085382 130.883168 
L 345.085382 126.092673 
L 346.907936 126.092673 
L 346.907936 121.302178 
L 347.461482 121.302178 
L 347.461482 116.511683 
L 360.041502 116.511683 
L 360.041502 111.721188 
L 366.853871 111.721188 
L 366.853871 106.930693 
L 367.664863 106.930693 
L 367.664863 102.140198 
L 368.880069 102.140198 
L 368.880069 97.349703 
L 376.166375 97.349703 
L 376.166375 92.559208 
L 419.548334 92.559208 
L 419.548334 87.768713 
L 426.83906 87.768713 
L 426.83906 82.978218 
L 433.454316 82.978218 
L 433.454316 78.187723 
L 461.8 78.187723 
" clip-path="url(#p5c1ec8494f)" style="fill: none; stroke: #f5deb3; stroke-width: 1.5; stroke-linecap: square"/>
   </g>
   <g id="line2d_4">
    <path d="M 290.065594 293.76 
L 290.065594 288.969505 
L 347.82744 288.969505 
L 347.82744 284.17901 
L 349.385684 284.17901 
L 349.385684 279.388515 
L 358.7113 279.388515 
L 358.7113 274.59802 
L 359.797585 274.59802 
L 359.797585 269.807525 
L 360.090156 269.807525 
L 360.090156 265.01703 
L 360.670665 265.01703 
L 360.670665 260.226535 
L 360.862814 260.226535 
L 360.862814 255.43604 
L 360.958637 255.43604 
L 360.958637 250.645545 
L 361.006485 250.645545 
L 361.006485 245.85505 
L 361.43526 245.85505 
L 361.43526 241.064554 
L 361.719263 241.064554 
L 361.719263 236.274059 
L 361.907786 236.274059 
L 361.907786 231.483564 
L 363.80375 231.483564 
L 363.80375 226.693069 
L 364.166187 226.693069 
L 364.166187 221.902574 
L 368.002785 221.902574 
L 368.002785 217.112079 
L 369.947178 217.112079 
L 369.947178 212.321584 
L 371.707148 212.321584 
L 371.707148 207.531089 
L 372.52767 207.531089 
L 372.52767 202.740594 
L 372.759872 202.740594 
L 372.759872 197.950099 
L 374.09517 197.950099 
L 374.09517 193.159604 
L 374.245731 193.159604 
L 374.245731 188.369109 
L 374.508222 188.369109 
L 374.508222 183.578614 
L 375.398792 183.578614 
L 375.398792 178.788119 
L 377.137771 178.788119 
L 377.137771 173.997624 
L 377.209047 173.997624 
L 377.209047 169.207129 
L 380.155904 169.207129 
L 380.155904 164.416634 
L 381.22561 164.416634 
L 381.22561 159.626139 
L 382.888551 159.626139 
L 382.888551 154.835644 
L 382.92066 154.835644 
L 382.92066 150.045149 
L 383.304511 150.045149 
L 383.304511 145.254653 
L 387.032182 145.254653 
L 387.032182 140.464158 
L 389.677945 140.464158 
L 389.677945 135.673663 
L 391.272559 135.673663 
L 391.272559 130.883168 
L 392.902566 130.883168 
L 392.902566 126.092673 
L 394.537606 126.092673 
L 394.537606 121.302178 
L 394.589548 121.302178 
L 394.589548 116.511683 
L 399.312767 116.511683 
L 399.312767 111.721188 
L 399.928641 111.721188 
L 399.928641 106.930693 
L 401.507498 106.930693 
L 401.507498 102.140198 
L 405.009809 102.140198 
L 405.009809 97.349703 
L 410.444348 97.349703 
L 410.444348 92.559208 
L 413.820545 92.559208 
L 413.820545 87.768713 
L 417.448339 87.768713 
L 417.448339 82.978218 
L 422.297027 82.978218 
L 422.297027 78.187723 
L 422.328376 78.187723 
L 422.328376 73.397228 
L 423.995191 73.397228 
L 423.995191 68.606733 
L 424.358828 68.606733 
L 424.358828 63.816238 
L 427.384874 63.816238 
L 427.384874 59.025743 
L 428.712202 59.025743 
L 428.712202 54.235248 
L 430.900275 54.235248 
L 430.900275 49.444752 
L 431.844006 49.444752 
L 431.844006 44.654257 
L 432.810664 44.654257 
L 432.810664 39.863762 
L 451.600144 39.863762 
L 451.600144 35.073267 
L 454.702907 35.073267 
L 454.702907 30.282772 
L 461.8 30.282772 
" clip-path="url(#p5c1ec8494f)" style="fill: none; stroke: #f5deb3; stroke-width: 1.5; stroke-linecap: square"/>
   </g>
   <g id="line2d_5"/>
   <g id="line2d_6"/>
   <g id="line2d_7">
    <path d="M 336.454143 293.76 
L 336.454143 288.969505 
L 340.070868 288.969505 
L 340.070868 284.17901 
L 342.400954 284.17901 
L 342.400954 279.388515 
L 386.252249 279.388515 
L 386.252249 274.59802 
L 387.918562 274.59802 
L 387.918562 269.807525 
L 388.992434 269.807525 
L 388.992434 265.01703 
L 390.298905 265.01703 
L 390.298905 260.226535 
L 391.189776 260.226535 
L 391.189776 255.43604 
L 391.244979 255.43604 
L 391.244979 250.645545 
L 392.202158 250.645545 
L 392.202158 245.85505 
L 392.526533 245.85505 
L 392.526533 241.064554 
L 392.929328 241.064554 
L 392.929328 236.274059 
L 392.929328 236.274059 
L 392.929328 231.483564 
L 393.355746 231.483564 
L 393.355746 226.693069 
L 393.620587 226.693069 
L 393.620587 221.902574 
L 393.805219 221.902574 
L 393.805219 217.112079 
L 393.857857 217.112079 
L 393.857857 212.321584 
L 393.93672 212.321584 
L 393.93672 207.531089 
L 394.198783 207.531089 
L 394.198783 202.740594 
L 394.563583 202.740594 
L 394.563583 197.950099 
L 394.667369 197.950099 
L 394.667369 193.159604 
L 395.234711 193.159604 
L 395.234711 188.369109 
L 396.201079 188.369109 
L 396.201079 183.578614 
L 396.352122 183.578614 
L 396.352122 178.788119 
L 396.552869 178.788119 
L 396.552869 173.997624 
L 397.644056 173.997624 
L 397.644056 169.207129 
L 397.693145 169.207129 
L 397.693145 164.416634 
L 397.742189 164.416634 
L 397.742189 159.626139 
L 398.593458 159.626139 
L 398.593458 154.835644 
L 400.630794 154.835644 
L 400.630794 150.045149 
L 403.991103 150.045149 
L 403.991103 145.254653 
L 404.296527 145.254653 
L 404.296527 140.464158 
L 406.597279 140.464158 
L 406.597279 135.673663 
L 408.985645 135.673663 
L 408.985645 130.883168 
L 409.403551 130.883168 
L 409.403551 126.092673 
L 409.561921 126.092673 
L 409.561921 121.302178 
L 409.837975 121.302178 
L 409.837975 116.511683 
L 411.580247 116.511683 
L 411.580247 111.721188 
L 412.355997 111.721188 
L 412.355997 106.930693 
L 412.730475 106.930693 
L 412.730475 102.140198 
L 414.039633 102.140198 
L 414.039633 97.349703 
L 416.131173 97.349703 
L 416.131173 92.559208 
L 440.190866 92.559208 
L 440.190866 87.768713 
L 444.511128 87.768713 
L 444.511128 82.978218 
L 450.051505 82.978218 
L 450.051505 78.187723 
L 451.884573 78.187723 
L 451.884573 73.397228 
L 460.466841 73.397228 
L 460.466841 68.606733 
L 461.8 68.606733 
" clip-path="url(#p5c1ec8494f)" style="fill: none; stroke: #f5deb3; stroke-width: 1.5; stroke-linecap: square"/>
   </g>
   <g id="line2d_8">
    <path clip-path="url(#p5c1ec8494f)" style="fill: none; stroke: #f5deb3; stroke-width: 1.5; stroke-linecap: square"/>
   </g>
   <g id="line2d_9">
    <path d="M 300.489253 293.76 
L 300.489253 288.969505 
L 324.841782 288.969505 
L 324.841782 284.17901 
L 338.796096 284.17901 
L 338.796096 279.388515 
L 360.958637 279.388515 
L 360.958637 274.59802 
L 364.391503 274.59802 
L 364.391503 269.807525 
L 365.283639 269.807525 
L 365.283639 265.01703 
L 366.465499 265.01703 
L 366.465499 260.226535 
L 366.6816 260.226535 
L 366.6816 255.43604 
L 375.361972 255.43604 
L 375.361972 250.645545 
L 376.994939 250.645545 
L 376.994939 245.85505 
L 380.425289 245.85505 
L 380.425289 241.064554 
L 380.626465 241.064554 
L 380.626465 236.274059 
L 380.960129 236.274059 
L 380.960129 231.483564 
L 383.748974 231.483564 
L 383.748974 226.693069 
L 383.780584 226.693069 
L 383.780584 221.902574 
L 384.533825 221.902574 
L 384.533825 217.112079 
L 384.844654 217.112079 
L 384.844654 212.321584 
L 385.061193 212.321584 
L 385.061193 207.531089 
L 385.153735 207.531089 
L 385.153735 202.740594 
L 385.399754 202.740594 
L 385.399754 197.950099 
L 385.705736 197.950099 
L 385.705736 193.159604 
L 385.979672 193.159604 
L 385.979672 188.369109 
L 386.040361 188.369109 
L 386.040361 183.578614 
L 387.595214 183.578614 
L 387.595214 178.788119 
L 387.918562 178.788119 
L 387.918562 173.997624 
L 388.123343 173.997624 
L 388.123343 169.207129 
L 389.049888 169.207129 
L 389.049888 164.416634 
L 389.564285 164.416634 
L 389.564285 159.626139 
L 389.96107 159.626139 
L 389.96107 154.835644 
L 391.106867 154.835644 
L 391.106867 150.045149 
L 391.162153 150.045149 
L 391.162153 145.254653 
L 391.355218 145.254653 
L 391.355218 140.464158 
L 391.410255 140.464158 
L 391.410255 135.673663 
L 392.256354 135.673663 
L 392.256354 130.883168 
L 392.499575 130.883168 
L 392.499575 126.092673 
L 393.116293 126.092673 
L 393.116293 121.302178 
L 394.459601 121.302178 
L 394.459601 116.511683 
L 395.131993 116.511683 
L 395.131993 111.721188 
L 395.183376 111.721188 
L 395.183376 106.930693 
L 395.872388 106.930693 
L 395.872388 102.140198 
L 396.251473 102.140198 
L 396.251473 97.349703 
L 396.477674 97.349703 
L 396.477674 92.559208 
L 397.051551 92.559208 
L 397.051551 87.768713 
L 397.545748 87.768713 
L 397.545748 82.978218 
L 398.786196 82.978218 
L 398.786196 78.187723 
L 399.503003 78.187723 
L 399.503003 73.397228 
L 399.716234 73.397228 
L 399.716234 68.606733 
L 400.351008 68.606733 
L 400.351008 63.816238 
L 401.392938 63.816238 
L 401.392938 59.025743 
L 403.264386 59.025743 
L 403.264386 54.235248 
L 403.903526 54.235248 
L 403.903526 49.444752 
L 408.018326 49.444752 
L 408.018326 44.654257 
L 408.160458 44.654257 
L 408.160458 39.863762 
L 408.201 39.863762 
L 408.201 35.073267 
L 412.073455 35.073267 
L 412.073455 30.282772 
L 416.025829 30.282772 
L 416.025829 25.492277 
L 420.496128 25.492277 
L 420.496128 20.701782 
L 421.777174 20.701782 
L 421.777174 15.911287 
L 442.670099 15.911287 
L 442.670099 11.120792 
L 447.584166 11.120792 
L 447.584166 6.330297 
L 447.584166 6.330297 
L 447.584166 6.330297 
L 460.8 6.330297 
" clip-path="url(#p5c1ec8494f)" style="fill: none; stroke: #f5deb3; stroke-width: 1.5; stroke-linecap: square"/>
   </g>
   <g id="line2d_10">
    <path clip-path="url(#p5c1ec8494f)" style="fill: none; stroke: #f5deb3; stroke-width: 1.5; stroke-linecap: square"/>
   </g>
   <g id="line2d_11">
    <path d="M 302.32831 293.76 
L 302.32831 288.969505 
L 351.187628 288.969505 
L 351.187628 284.17901 
L 354.029289 284.17901 
L 354.029289 279.388515 
L 355.529111 279.388515 
L 355.529111 274.59802 
L 361.292707 274.59802 
L 361.292707 269.807525 
L 363.117669 269.807525 
L 363.117669 265.01703 
L 367.111269 265.01703 
L 367.111269 260.226535 
L 367.32485 260.226535 
L 367.32485 255.43604 
L 369.987809 255.43604 
L 369.987809 250.645545 
L 370.593707 250.645545 
L 370.593707 245.85505 
L 371.825118 245.85505 
L 371.825118 241.064554 
L 372.52767 241.064554 
L 372.52767 236.274059 
L 384.09569 236.274059 
L 384.09569 231.483564 
L 391.629853 231.483564 
L 391.629853 226.693069 
L 402.550393 226.693069 
L 402.550393 221.902574 
L 402.729763 221.902574 
L 402.729763 217.112079 
L 426.244011 217.112079 
L 426.244011 212.321584 
L 461.8 212.321584 
" clip-path="url(#p5c1ec8494f)" style="fill: none; stroke: #f5deb3; stroke-width: 1.5; stroke-linecap: square"/>
   </g>
   <g id="line2d_12">
    <path d="M 284.004383 293.76 
L 284.004383 288.969505 
L 290.584852 288.969505 
L 290.584852 284.17901 
L 292.614168 284.17901 
L 292.614168 279.388515 
L 293.601399 279.388515 
L 293.601399 274.59802 
L 293.601399 274.59802 
L 293.601399 269.807525 
L 297.381987 269.807525 
L 297.381987 265.01703 
L 299.179021 265.01703 
L 299.179021 260.226535 
L 299.179021 260.226535 
L 299.179021 255.43604 
L 300.055971 255.43604 
L 300.055971 250.645545 
L 302.605858 250.645545 
L 302.605858 245.85505 
L 303.43019 245.85505 
L 303.43019 241.064554 
L 305.042659 241.064554 
L 305.042659 236.274059 
L 305.042659 236.274059 
L 305.042659 231.483564 
L 312.463494 231.483564 
L 312.463494 226.693069 
L 313.153307 226.693069 
L 313.153307 221.902574 
L 313.153307 221.902574 
L 313.153307 217.112079 
L 313.834569 217.112079 
L 313.834569 212.321584 
L 316.478175 212.321584 
L 316.478175 207.531089 
L 317.119673 207.531089 
L 317.119673 202.740594 
L 318.380632 202.740594 
L 318.380632 197.950099 
L 320.219426 197.950099 
L 320.219426 193.159604 
L 325.393169 193.159604 
L 325.393169 188.369109 
L 327.014891 188.369109 
L 327.014891 183.578614 
L 336.304404 183.578614 
L 336.304404 178.788119 
L 339.79013 178.788119 
L 339.79013 173.997624 
L 343.464192 173.997624 
L 343.464192 169.207129 
L 343.464192 169.207129 
L 343.464192 164.416634 
L 343.857661 164.416634 
L 343.857661 159.626139 
L 349.444743 159.626139 
L 349.444743 154.835644 
L 390.439059 154.835644 
L 390.439059 150.045149 
L 404.966843 150.045149 
L 404.966843 145.254653 
L 456.934778 145.254653 
L 456.934778 140.464158 
L 461.8 140.464158 
" clip-path="url(#p5c1ec8494f)" style="fill: none; stroke: #f5deb3; stroke-width: 1.5; stroke-linecap: square"/>
   </g>
   <g id="line2d_13">
    <path d="M 418.095269 293.76 
L 418.095269 288.969505 
L 422.625301 288.969505 
L 422.625301 284.17901 
L 433.28769 284.17901 
L 433.28769 279.388515 
L 433.28769 279.388515 
L 433.28769 274.59802 
L 441.555012 274.59802 
L 441.555012 269.807525 
L 446.967142 269.807525 
L 446.967142 265.01703 
L 446.967142 265.01703 
L 446.967142 260.226535 
L 461.8 260.226535 
" clip-path="url(#p5c1ec8494f)" style="fill: none; stroke: #f5deb3; stroke-width: 1.5; stroke-linecap: square"/>
   </g>
   <g id="line2d_14">
    <path d="M 326.747906 293.76 
L 326.747906 288.969505 
L 332.099043 288.969505 
L 332.099043 284.17901 
L 347.583739 284.17901 
L 347.583739 279.388515 
L 352.038771 279.388515 
L 352.038771 274.59802 
L 355.792682 274.59802 
L 355.792682 269.807525 
L 357.704781 269.807525 
L 357.704781 265.01703 
L 360.910746 265.01703 
L 360.910746 260.226535 
L 364.928521 260.226535 
L 364.928521 255.43604 
L 366.810854 255.43604 
L 366.810854 250.645545 
L 371.470445 250.645545 
L 371.470445 245.85505 
L 371.707148 245.85505 
L 371.707148 241.064554 
L 372.333416 241.064554 
L 372.333416 236.274059 
L 373.640999 236.274059 
L 373.640999 231.483564 
L 376.383729 231.483564 
L 376.383729 226.693069 
L 379.099384 226.693069 
L 379.099384 221.902574 
L 385.430429 221.902574 
L 385.430429 217.112079 
L 387.35885 217.112079 
L 387.35885 212.321584 
L 388.848537 212.321584 
L 388.848537 207.531089 
L 393.989233 207.531089 
L 393.989233 202.740594 
L 398.834275 202.740594 
L 398.834275 197.950099 
L 405.009809 197.950099 
L 405.009809 193.159604 
L 405.309639 193.159604 
L 405.309639 188.369109 
L 405.819858 188.369109 
L 405.819858 183.578614 
L 411.389366 183.578614 
L 411.389366 178.788119 
L 411.732475 178.788119 
L 411.732475 173.997624 
L 412.58099 173.997624 
L 412.58099 169.207129 
L 419.942509 169.207129 
L 419.942509 164.416634 
L 426.112524 164.416634 
L 426.112524 159.626139 
L 430.779481 159.626139 
L 430.779481 154.835644 
L 435.747808 154.835644 
L 435.747808 150.045149 
L 438.477535 150.045149 
L 438.477535 145.254653 
L 442.561772 145.254653 
L 442.561772 140.464158 
L 445.64019 140.464158 
L 445.64019 135.673663 
L 454.257718 135.673663 
L 454.257718 130.883168 
L 457.491261 130.883168 
L 457.491261 126.092673 
L 461.8 126.092673 
" clip-path="url(#p5c1ec8494f)" style="fill: none; stroke: #f5deb3; stroke-width: 1.5; stroke-linecap: square"/>
   </g>
   <g id="line2d_15">
    <path clip-path="url(#p5c1ec8494f)" style="fill: none; stroke: #f5deb3; stroke-width: 1.5; stroke-linecap: square"/>
   </g>
   <g id="line2d_16">
    <path clip-path="url(#p5c1ec8494f)" style="fill: none; stroke: #f5deb3; stroke-width: 1.5; stroke-linecap: square"/>
   </g>
   <g id="line2d_17">
    <path d="M 423.644434 293.76 
L 423.644434 288.969505 
L 447.732411 288.969505 
L 447.732411 284.17901 
L 449.928363 284.17901 
L 449.928363 279.388515 
L 451.452764 279.388515 
L 451.452764 274.59802 
L 454.126091 274.59802 
L 454.126091 269.807525 
L 454.397774 269.807525 
L 454.397774 265.01703 
L 454.615899 265.01703 
L 454.615899 260.226535 
L 455.830172 260.226535 
L 455.830172 255.43604 
L 457.209571 255.43604 
L 457.209571 250.645545 
L 458.001244 250.645545 
L 458.001244 245.85505 
L 458.083058 245.85505 
L 458.083058 241.064554 
L 459.111635 241.064554 
L 459.111635 236.274059 
L 461.8 236.274059 
" clip-path="url(#p5c1ec8494f)" style="fill: none; stroke: #f5deb3; stroke-width: 1.5; stroke-linecap: square"/>
   </g>
   <g id="line2d_18">
    <path d="M 290.065594 293.76 
L 290.065594 288.969505 
L 290.239226 288.969505 
L 290.239226 284.17901 
L 292.113821 284.17901 
L 292.113821 279.388515 
L 294.89071 279.388515 
L 294.89071 274.59802 
L 297.836784 274.59802 
L 297.836784 269.807525 
L 298.437385 269.807525 
L 298.437385 265.01703 
L 299.179021 265.01703 
L 299.179021 260.226535 
L 300.489253 260.226535 
L 300.489253 255.43604 
L 301.909342 255.43604 
L 301.909342 250.645545 
L 303.156784 250.645545 
L 303.156784 245.85505 
L 304.777178 245.85505 
L 304.777178 241.064554 
L 305.042659 241.064554 
L 305.042659 236.274059 
L 307.755412 236.274059 
L 307.755412 231.483564 
L 308.506508 231.483564 
L 308.506508 226.693069 
L 308.75461 226.693069 
L 308.75461 221.902574 
L 311.175899 221.902574 
L 311.175899 217.112079 
L 311.175899 217.112079 
L 311.175899 212.321584 
L 312.579066 212.321584 
L 312.579066 207.531089 
L 313.947296 207.531089 
L 313.947296 202.740594 
L 316.692841 202.740594 
L 316.692841 197.950099 
L 319.000425 197.950099 
L 319.000425 193.159604 
L 324.934065 193.159604 
L 324.934065 188.369109 
L 333.457984 188.369109 
L 333.457984 183.578614 
L 340.835584 183.578614 
L 340.835584 178.788119 
L 342.199286 178.788119 
L 342.199286 173.997624 
L 349.444743 173.997624 
L 349.444743 169.207129 
L 353.538378 169.207129 
L 353.538378 164.416634 
L 353.702502 164.416634 
L 353.702502 159.626139 
L 364.750097 159.626139 
L 364.750097 154.835644 
L 369.498235 154.835644 
L 369.498235 150.045149 
L 381.456858 150.045149 
L 381.456858 145.254653 
L 407.487164 145.254653 
L 407.487164 140.464158 
L 416.060966 140.464158 
L 416.060966 135.673663 
L 426.214819 135.673663 
L 426.214819 130.883168 
L 427.897007 130.883168 
L 427.897007 126.092673 
L 430.130725 126.092673 
L 430.130725 121.302178 
L 431.007424 121.302178 
L 431.007424 116.511683 
L 433.492696 116.511683 
L 433.492696 111.721188 
L 434.204254 111.721188 
L 434.204254 106.930693 
L 436.394553 106.930693 
L 436.394553 102.140198 
L 437.641935 102.140198 
L 437.641935 97.349703 
L 441.53292 97.349703 
L 441.53292 92.559208 
L 443.974779 92.559208 
L 443.974779 87.768713 
L 448.807491 87.768713 
L 448.807491 82.978218 
L 461.8 82.978218 
" clip-path="url(#p5c1ec8494f)" style="fill: none; stroke: #f5deb3; stroke-width: 1.5; stroke-linecap: square"/>
   </g>
   <g id="line2d_19">
    <path d="M 0 0 
" clip-path="url(#p5c1ec8494f)" style="fill: none; stroke: #f5deb3; stroke-width: 1.5; stroke-linecap: square"/>
   </g>
   <g id="line2d_20">
    <path d="M 312.694395 293.76 
L 312.694395 288.969505 
L 317.648593 288.969505 
L 317.648593 284.17901 
L 319.714791 284.17901 
L 319.714791 279.388515 
L 323.91033 279.388515 
L 323.91033 274.59802 
L 325.484531 274.59802 
L 325.484531 269.807525 
L 326.389896 269.807525 
L 326.389896 265.01703 
L 326.92604 265.01703 
L 326.92604 260.226535 
L 327.545002 260.226535 
L 327.545002 255.43604 
L 329.190725 255.43604 
L 329.190725 250.645545 
L 329.784832 250.645545 
L 329.784832 245.85505 
L 334.319724 245.85505 
L 334.319724 241.064554 
L 335.01487 241.064554 
L 335.01487 236.274059 
L 336.304404 236.274059 
L 336.304404 231.483564 
L 337.491049 231.483564 
L 337.491049 226.693069 
L 337.564371 226.693069 
L 337.564371 221.902574 
L 338.436681 221.902574 
L 338.436681 217.112079 
L 338.580729 217.112079 
L 338.580729 212.321584 
L 342.868654 212.321584 
L 342.868654 207.531089 
L 345.467454 207.531089 
L 345.467454 202.740594 
L 348.910913 202.740594 
L 348.910913 197.950099 
L 351.130414 197.950099 
L 351.130414 193.159604 
L 356.263947 193.159604 
L 356.263947 188.369109 
L 356.834503 188.369109 
L 356.834503 183.578614 
L 365.724334 183.578614 
L 365.724334 178.788119 
L 368.04488 178.788119 
L 368.04488 173.997624 
L 371.033825 173.997624 
L 371.033825 169.207129 
L 374.208129 169.207129 
L 374.208129 164.416634 
L 377.244651 164.416634 
L 377.244651 159.626139 
L 384.377749 159.626139 
L 384.377749 154.835644 
L 388.210873 154.835644 
L 388.210873 150.045149 
L 432.706976 150.045149 
L 432.706976 145.254653 
L 440.821239 145.254653 
L 440.821239 140.464158 
L 447.603955 140.464158 
L 447.603955 135.673663 
L 461.8 135.673663 
" clip-path="url(#p5c1ec8494f)" style="fill: none; stroke: #f5deb3; stroke-width: 1.5; stroke-linecap: square"/>
   </g>
   <g id="line2d_21"/>
   <g id="line2d_22">
    <path d="M 302.049353 293.76 
L 302.049353 288.969505 
L 305.700803 288.969505 
L 305.700803 284.17901 
L 305.961869 284.17901 
L 305.961869 279.388515 
L 311.412263 279.388515 
L 311.412263 274.59802 
L 317.543216 274.59802 
L 317.543216 269.807525 
L 317.963519 269.807525 
L 317.963519 265.01703 
L 319.205479 265.01703 
L 319.205479 260.226535 
L 321.215004 260.226535 
L 321.215004 255.43604 
L 323.153631 255.43604 
L 323.153631 250.645545 
L 326.210012 250.645545 
L 326.210012 245.85505 
L 327.632859 245.85505 
L 327.632859 241.064554 
L 332.902484 241.064554 
L 332.902484 236.274059 
L 333.141243 236.274059 
L 333.141243 231.483564 
L 340.628078 231.483564 
L 340.628078 226.693069 
L 346.223719 226.693069 
L 346.223719 221.902574 
L 349.267375 221.902574 
L 349.267375 217.112079 
L 349.914943 217.112079 
L 349.914943 212.321584 
L 351.643211 212.321584 
L 351.643211 207.531089 
L 354.246071 207.531089 
L 354.246071 202.740594 
L 355.26427 202.740594 
L 355.26427 197.950099 
L 356.782878 197.950099 
L 356.782878 193.159604 
L 358.611473 193.159604 
L 358.611473 188.369109 
L 361.245107 188.369109 
L 361.245107 183.578614 
L 389.45039 183.578614 
L 389.45039 178.788119 
L 389.904561 178.788119 
L 389.904561 173.997624 
L 403.74993 173.997624 
L 403.74993 169.207129 
L 407.997991 169.207129 
L 407.997991 164.416634 
L 410.735369 164.416634 
L 410.735369 159.626139 
L 412.39356 159.626139 
L 412.39356 154.835644 
L 413.655655 154.835644 
L 413.655655 150.045149 
L 414.709706 150.045149 
L 414.709706 145.254653 
L 417.362646 145.254653 
L 417.362646 140.464158 
L 419.10148 140.464158 
L 419.10148 135.673663 
L 421.539242 135.673663 
L 421.539242 130.883168 
L 435.489431 130.883168 
L 435.489431 126.092673 
L 435.87042 126.092673 
L 435.87042 121.302178 
L 440.088878 121.302178 
L 440.088878 116.511683 
L 441.819429 116.511683 
L 441.819429 111.721188 
L 447.909779 111.721188 
L 447.909779 106.930693 
L 451.369688 106.930693 
L 451.369688 102.140198 
L 453.311806 102.140198 
L 453.311806 97.349703 
L 456.127476 97.349703 
L 456.127476 92.559208 
L 457.126445 92.559208 
L 457.126445 87.768713 
L 458.660461 87.768713 
L 458.660461 82.978218 
L 461.8 82.978218 
" clip-path="url(#p5c1ec8494f)" style="fill: none; stroke: #f5deb3; stroke-width: 1.5; stroke-linecap: square"/>
   </g>
   <g id="line2d_23">
    <path d="M 448.826844 293.76 
L 448.826844 288.969505 
L 461.8 288.969505 
" clip-path="url(#p5c1ec8494f)" style="fill: none; stroke: #f5deb3; stroke-width: 1.5; stroke-linecap: square"/>
   </g>
   <g id="line2d_24">
    <path d="M 334.707001 293.76 
L 334.707001 288.969505 
L 338.074899 288.969505 
L 338.074899 284.17901 
L 339.224314 284.17901 
L 339.224314 279.388515 
L 349.79777 279.388515 
L 349.79777 274.59802 
L 349.914943 274.59802 
L 349.914943 269.807525 
L 353.59314 269.807525 
L 353.59314 265.01703 
L 358.008677 265.01703 
L 358.008677 260.226535 
L 363.80375 260.226535 
L 363.80375 255.43604 
L 379.613141 255.43604 
L 379.613141 250.645545 
L 385.338352 250.645545 
L 385.338352 245.85505 
L 389.19326 245.85505 
L 389.19326 241.064554 
L 398.617587 241.064554 
L 398.617587 236.274059 
L 410.754716 236.274059 
L 410.754716 231.483564 
L 419.58129 231.483564 
L 419.58129 226.693069 
L 419.827833 226.693069 
L 419.827833 221.902574 
L 420.479925 221.902574 
L 420.479925 217.112079 
L 420.512327 217.112079 
L 420.512327 212.321584 
L 425.863297 212.321584 
L 425.863297 207.531089 
L 427.141364 207.531089 
L 427.141364 202.740594 
L 427.313365 202.740594 
L 427.313365 197.950099 
L 429.871795 197.950099 
L 429.871795 193.159604 
L 432.512033 193.159604 
L 432.512033 188.369109 
L 432.577091 188.369109 
L 432.577091 183.578614 
L 433.441516 183.578614 
L 433.441516 178.788119 
L 433.620438 178.788119 
L 433.620438 173.997624 
L 434.229497 173.997624 
L 434.229497 169.207129 
L 435.056083 169.207129 
L 435.056083 164.416634 
L 436.078233 164.416634 
L 436.078233 159.626139 
L 436.564128 159.626139 
L 436.564128 154.835644 
L 439.058454 154.835644 
L 439.058454 150.045149 
L 439.243058 150.045149 
L 439.243058 145.254653 
L 439.323628 145.254653 
L 439.323628 140.464158 
L 439.713296 140.464158 
L 439.713296 135.673663 
L 440.495699 135.673663 
L 440.495699 130.883168 
L 440.955383 130.883168 
L 440.955383 126.092673 
L 441.874355 126.092673 
L 441.874355 121.302178 
L 442.060697 121.302178 
L 442.060697 116.511683 
L 442.082579 116.511683 
L 442.082579 111.721188 
L 442.886115 111.721188 
L 442.886115 106.930693 
L 446.272208 106.930693 
L 446.272208 102.140198 
L 448.564995 102.140198 
L 448.564995 97.349703 
L 448.942823 97.349703 
L 448.942823 92.559208 
L 450.306383 92.559208 
L 450.306383 87.768713 
L 451.24021 87.768713 
L 451.24021 82.978218 
L 452.557641 82.978218 
L 452.557641 78.187723 
L 453.667326 78.187723 
L 453.667326 73.397228 
L 453.764692 73.397228 
L 453.764692 68.606733 
L 458.449721 68.606733 
L 458.449721 63.816238 
L 459.606867 63.816238 
L 459.606867 59.025743 
L 460.981093 59.025743 
L 460.981093 54.235248 
L 461.8 54.235248 
" clip-path="url(#p5c1ec8494f)" style="fill: none; stroke: #f5deb3; stroke-width: 1.5; stroke-linecap: square"/>
   </g>
   <g id="line2d_25">
    <path clip-path="url(#p5c1ec8494f)" style="fill: none; stroke: #f5deb3; stroke-width: 1.5; stroke-linecap: square"/>
   </g>
   <g id="line2d_26">
    <path d="M 423.76669 293.76 
L 423.76669 288.969505 
L 426.520567 288.969505 
L 426.520567 284.17901 
L 429.198343 284.17901 
L 429.198343 279.388515 
L 436.394553 279.388515 
L 436.394553 274.59802 
L 436.949775 274.59802 
L 436.949775 269.807525 
L 437.057752 269.807525 
L 437.057752 265.01703 
L 437.368499 265.01703 
L 437.368499 260.226535 
L 437.428058 260.226535 
L 437.428058 255.43604 
L 437.914016 255.43604 
L 437.914016 250.645545 
L 438.465854 250.645545 
L 438.465854 245.85505 
L 439.127753 245.85505 
L 439.127753 241.064554 
L 439.16237 241.064554 
L 439.16237 236.274059 
L 439.495881 236.274059 
L 439.495881 231.483564 
L 439.9526 231.483564 
L 439.9526 226.693069 
L 440.088878 226.693069 
L 440.088878 221.902574 
L 440.156891 221.902574 
L 440.156891 217.112079 
L 440.337848 217.112079 
L 440.337848 212.321584 
L 441.3226 212.321584 
L 441.3226 207.531089 
L 446.927095 207.531089 
L 446.927095 202.740594 
L 446.977149 202.740594 
L 446.977149 197.950099 
L 447.047148 197.950099 
L 447.047148 193.159604 
L 447.326257 193.159604 
L 447.326257 188.369109 
L 447.574269 188.369109 
L 447.574269 183.578614 
L 447.949116 183.578614 
L 447.949116 178.788119 
L 448.057149 178.788119 
L 448.057149 173.997624 
L 448.184551 173.997624 
L 448.184551 169.207129 
L 448.350709 169.207129 
L 448.350709 164.416634 
L 448.360468 164.416634 
L 448.360468 159.626139 
L 448.516367 159.626139 
L 448.516367 154.835644 
L 448.545549 154.835644 
L 448.545549 150.045149 
L 448.991075 150.045149 
L 448.991075 145.254653 
L 449.048922 145.254653 
L 449.048922 140.464158 
L 449.164433 140.464158 
L 449.164433 135.673663 
L 449.202883 135.673663 
L 449.202883 130.883168 
L 449.327659 130.883168 
L 449.327659 126.092673 
L 449.59545 126.092673 
L 449.59545 121.302178 
L 450.756601 121.302178 
L 450.756601 116.511683 
L 450.896541 116.511683 
L 450.896541 111.721188 
L 450.980334 111.721188 
L 450.980334 106.930693 
L 451.045418 106.930693 
L 451.045418 102.140198 
L 451.064 102.140198 
L 451.064 97.349703 
L 451.489646 97.349703 
L 451.489646 92.559208 
L 456.984842 92.559208 
L 456.984842 87.768713 
L 457.482997 87.768713 
L 457.482997 82.978218 
L 461.8 82.978218 
" clip-path="url(#p5c1ec8494f)" style="fill: none; stroke: #f5deb3; stroke-width: 1.5; stroke-linecap: square"/>
   </g>
   <g id="line2d_27">
    <path d="M 359.306479 293.76 
L 359.306479 288.969505 
L 382.014442 288.969505 
L 382.014442 284.17901 
L 386.70356 284.17901 
L 386.70356 279.388515 
L 392.661126 279.388515 
L 392.661126 274.59802 
L 395.414008 274.59802 
L 395.414008 269.807525 
L 397.27449 269.807525 
L 397.27449 265.01703 
L 403.705967 265.01703 
L 403.705967 260.226535 
L 404.621894 260.226535 
L 404.621894 255.43604 
L 405.862163 255.43604 
L 405.862163 250.645545 
L 406.888594 250.645545 
L 406.888594 245.85505 
L 408.281994 245.85505 
L 408.281994 241.064554 
L 411.101797 241.064554 
L 411.101797 236.274059 
L 412.167797 236.274059 
L 412.167797 231.483564 
L 412.991099 231.483564 
L 412.991099 226.693069 
L 415.014859 226.693069 
L 415.014859 221.902574 
L 416.620125 221.902574 
L 416.620125 217.112079 
L 417.806794 217.112079 
L 417.806794 212.321584 
L 418.86834 212.321584 
L 418.86834 207.531089 
L 422.578525 207.531089 
L 422.578525 202.740594 
L 424.298389 202.740594 
L 424.298389 197.950099 
L 424.824992 197.950099 
L 424.824992 193.159604 
L 429.391601 193.159604 
L 429.391601 188.369109 
L 431.020803 188.369109 
L 431.020803 183.578614 
L 434.84436 183.578614 
L 434.84436 178.788119 
L 446.79674 178.788119 
L 446.79674 173.997624 
L 448.106185 173.997624 
L 448.106185 169.207129 
L 448.477434 169.207129 
L 448.477434 164.416634 
L 454.615899 164.416634 
L 454.615899 159.626139 
L 461.259578 159.626139 
L 461.259578 154.835644 
L 461.8 154.835644 
" clip-path="url(#p5c1ec8494f)" style="fill: none; stroke: #f5deb3; stroke-width: 1.5; stroke-linecap: square"/>
   </g>
   <g id="line2d_28">
    <path d="M 318.172471 293.76 
L 318.172471 288.969505 
L 320.219426 288.969505 
L 320.219426 284.17901 
L 326.658622 284.17901 
L 326.658622 279.388515 
L 336.304404 279.388515 
L 336.304404 274.59802 
L 365.150738 274.59802 
L 365.150738 269.807525 
L 387.418037 269.807525 
L 387.418037 265.01703 
L 393.857857 265.01703 
L 393.857857 260.226535 
L 395.414008 260.226535 
L 395.414008 255.43604 
L 395.669136 255.43604 
L 395.669136 250.645545 
L 398.641706 250.645545 
L 398.641706 245.85505 
L 399.645249 245.85505 
L 399.645249 241.064554 
L 400.607532 241.064554 
L 400.607532 236.274059 
L 402.572847 236.274059 
L 402.572847 231.483564 
L 403.28655 231.483564 
L 403.28655 226.693069 
L 403.859686 226.693069 
L 403.859686 221.902574 
L 404.034839 221.902574 
L 404.034839 217.112079 
L 404.837741 217.112079 
L 404.837741 212.321584 
L 406.304412 212.321584 
L 406.304412 207.531089 
L 409.660671 207.531089 
L 409.660671 202.740594 
L 409.916594 202.740594 
L 409.916594 197.950099 
L 410.17133 197.950099 
L 410.17133 193.159604 
L 411.101797 193.159604 
L 411.101797 188.369109 
L 411.884283 188.369109 
L 411.884283 183.578614 
L 411.97895 183.578614 
L 411.97895 178.788119 
L 412.092336 178.788119 
L 412.092336 173.997624 
L 414.691703 173.997624 
L 414.691703 169.207129 
L 414.979047 169.207129 
L 414.979047 164.416634 
L 415.56699 164.416634 
L 415.56699 159.626139 
L 415.584709 159.626139 
L 415.584709 154.835644 
L 416.113629 154.835644 
L 416.113629 150.045149 
L 417.173652 150.045149 
L 417.173652 145.254653 
L 418.567128 145.254653 
L 418.567128 140.464158 
L 418.951718 140.464158 
L 418.951718 135.673663 
L 419.778613 135.673663 
L 419.778613 130.883168 
L 420.301369 130.883168 
L 420.301369 126.092673 
L 421.204396 126.092673 
L 421.204396 121.302178 
L 423.152668 121.302178 
L 423.152668 116.511683 
L 423.368357 116.511683 
L 423.368357 111.721188 
L 425.242671 111.721188 
L 425.242671 106.930693 
L 426.28777 106.930693 
L 426.28777 102.140198 
L 426.911188 102.140198 
L 426.911188 97.349703 
L 427.112644 97.349703 
L 427.112644 92.559208 
L 427.76942 92.559208 
L 427.76942 87.768713 
L 437.105674 87.768713 
L 437.105674 82.978218 
L 455.838689 82.978218 
L 455.838689 78.187723 
L 456.683767 78.187723 
L 456.683767 73.397228 
L 457.425111 73.397228 
L 457.425111 68.606733 
L 457.598586 68.606733 
L 457.598586 63.816238 
L 458.692811 63.816238 
L 458.692811 59.025743 
L 459.646611 59.025743 
L 459.646611 54.235248 
L 460.105556 54.235248 
L 460.105556 49.444752 
L 460.262929 49.444752 
L 460.262929 44.654257 
L 461.0973 44.654257 
L 461.0973 39.863762 
L 461.8 39.863762 
" clip-path="url(#p5c1ec8494f)" style="fill: none; stroke: #f5deb3; stroke-width: 1.5; stroke-linecap: square"/>
   </g>
   <g id="line2d_29">
    <path d="M 271.644489 293.76 
L 271.644489 288.969505 
L 271.644489 288.969505 
L 271.644489 284.17901 
L 271.644489 284.17901 
L 271.644489 279.388515 
L 292.614168 279.388515 
L 292.614168 274.59802 
L 292.614168 274.59802 
L 292.614168 269.807525 
L 292.614168 269.807525 
L 292.614168 265.01703 
L 294.571207 265.01703 
L 294.571207 260.226535 
L 294.571207 260.226535 
L 294.571207 255.43604 
L 294.571207 255.43604 
L 294.571207 250.645545 
L 295.049768 250.645545 
L 295.049768 245.85505 
L 295.049768 245.85505 
L 295.049768 241.064554 
L 295.049768 241.064554 
L 295.049768 236.274059 
L 298.137905 236.274059 
L 298.137905 231.483564 
L 298.137905 231.483564 
L 298.137905 226.693069 
L 298.137905 226.693069 
L 298.137905 221.902574 
L 303.156784 221.902574 
L 303.156784 217.112079 
L 303.156784 217.112079 
L 303.156784 212.321584 
L 303.156784 212.321584 
L 303.156784 207.531089 
L 303.566384 207.531089 
L 303.566384 202.740594 
L 303.566384 202.740594 
L 303.566384 197.950099 
L 303.566384 197.950099 
L 303.566384 193.159604 
L 305.700803 193.159604 
L 305.700803 188.369109 
L 305.700803 188.369109 
L 305.700803 183.578614 
L 305.700803 183.578614 
L 305.700803 178.788119 
L 319.917201 178.788119 
L 319.917201 173.997624 
L 319.917201 173.997624 
L 319.917201 169.207129 
L 319.917201 169.207129 
L 319.917201 164.416634 
L 348.432004 164.416634 
L 348.432004 159.626139 
L 348.432004 159.626139 
L 348.432004 154.835644 
L 348.432004 154.835644 
L 348.432004 150.045149 
L 397.27449 150.045149 
L 397.27449 145.254653 
L 397.27449 145.254653 
L 397.27449 140.464158 
L 397.27449 140.464158 
L 397.27449 135.673663 
L 461.8 135.673663 
" clip-path="url(#p5c1ec8494f)" style="fill: none; stroke: #f5deb3; stroke-width: 1.5; stroke-linecap: square"/>
   </g>
   <g id="line2d_30">
    <path d="M 442.853766 293.76 
L 442.853766 288.969505 
L 461.8 288.969505 
" clip-path="url(#p5c1ec8494f)" style="fill: none; stroke: #f5deb3; stroke-width: 1.5; stroke-linecap: square"/>
   </g>
   <g id="matplotlib.axis_1">
    <g id="xtick_1">
     <g id="line2d_31">
      <path d="M 62.208 293.76 
L 62.208 3.456 
" clip-path="url(#p5c1ec8494f)" style="fill: none; stroke: #b0b0b0; stroke-width: 0.8; stroke-linecap: square"/>
     </g>
     <g id="line2d_32">
      <defs>
       <path id="m858e72477a" d="M 0 0 
L 0 3.5 
" style="stroke: #000000; stroke-width: 0.8"/>
      </defs>
      <g>
       <use xlink:href="#m858e72477a" x="62.208" y="293.76" style="stroke: #000000; stroke-width: 0.8"/>
      </g>
     </g>
     <g id="text_1">
      <!-- 0 -->
      <g transform="translate(55.8455 315.956875) scale(0.2 -0.2)">
       <defs>
        <path id="DejaVuSans-30" d="M 2034 4250 
Q 1547 4250 1301 3770 
Q 1056 3291 1056 2328 
Q 1056 1369 1301 889 
Q 1547 409 2034 409 
Q 2525 409 2770 889 
Q 3016 1369 3016 2328 
Q 3016 3291 2770 3770 
Q 2525 4250 2034 4250 
z
M 2034 4750 
Q 2819 4750 3233 4129 
Q 3647 3509 3647 2328 
Q 3647 1150 3233 529 
Q 2819 -91 2034 -91 
Q 1250 -91 836 529 
Q 422 1150 422 2328 
Q 422 3509 836 4129 
Q 1250 4750 2034 4750 
z
" transform="scale(0.015625)"/>
       </defs>
       <use xlink:href="#DejaVuSans-30"/>
      </g>
     </g>
    </g>
    <g id="xtick_2">
     <g id="line2d_33">
      <path d="M 188.745143 293.76 
L 188.745143 3.456 
" clip-path="url(#p5c1ec8494f)" style="fill: none; stroke: #b0b0b0; stroke-width: 0.8; stroke-linecap: square"/>
     </g>
     <g id="line2d_34">
      <g>
       <use xlink:href="#m858e72477a" x="188.745143" y="293.76" style="stroke: #000000; stroke-width: 0.8"/>
      </g>
     </g>
     <g id="text_2">
      <!-- 1 -->
      <g transform="translate(182.382643 315.956875) scale(0.2 -0.2)">
       <defs>
        <path id="DejaVuSans-31" d="M 794 531 
L 1825 531 
L 1825 4091 
L 703 3866 
L 703 4441 
L 1819 4666 
L 2450 4666 
L 2450 531 
L 3481 531 
L 3481 0 
L 794 0 
L 794 531 
z
" transform="scale(0.015625)"/>
       </defs>
       <use xlink:href="#DejaVuSans-31"/>
      </g>
     </g>
    </g>
    <g id="xtick_3">
     <g id="line2d_35">
      <path d="M 315.282286 293.76 
L 315.282286 3.456 
" clip-path="url(#p5c1ec8494f)" style="fill: none; stroke: #b0b0b0; stroke-width: 0.8; stroke-linecap: square"/>
     </g>
     <g id="line2d_36">
      <g>
       <use xlink:href="#m858e72477a" x="315.282286" y="293.76" style="stroke: #000000; stroke-width: 0.8"/>
      </g>
     </g>
     <g id="text_3">
      <!-- 2 -->
      <g transform="translate(308.919786 315.956875) scale(0.2 -0.2)">
       <defs>
        <path id="DejaVuSans-32" d="M 1228 531 
L 3431 531 
L 3431 0 
L 469 0 
L 469 531 
Q 828 903 1448 1529 
Q 2069 2156 2228 2338 
Q 2531 2678 2651 2914 
Q 2772 3150 2772 3378 
Q 2772 3750 2511 3984 
Q 2250 4219 1831 4219 
Q 1534 4219 1204 4116 
Q 875 4013 500 3803 
L 500 4441 
Q 881 4594 1212 4672 
Q 1544 4750 1819 4750 
Q 2544 4750 2975 4387 
Q 3406 4025 3406 3419 
Q 3406 3131 3298 2873 
Q 3191 2616 2906 2266 
Q 2828 2175 2409 1742 
Q 1991 1309 1228 531 
z
" transform="scale(0.015625)"/>
       </defs>
       <use xlink:href="#DejaVuSans-32"/>
      </g>
     </g>
    </g>
    <g id="xtick_4">
     <g id="line2d_37">
      <path d="M 441.819429 293.76 
L 441.819429 3.456 
" clip-path="url(#p5c1ec8494f)" style="fill: none; stroke: #b0b0b0; stroke-width: 0.8; stroke-linecap: square"/>
     </g>
     <g id="line2d_38">
      <g>
       <use xlink:href="#m858e72477a" x="441.819429" y="293.76" style="stroke: #000000; stroke-width: 0.8"/>
      </g>
     </g>
     <g id="text_4">
      <!-- 3 -->
      <g transform="translate(435.456929 315.956875) scale(0.2 -0.2)">
       <defs>
        <path id="DejaVuSans-33" d="M 2597 2516 
Q 3050 2419 3304 2112 
Q 3559 1806 3559 1356 
Q 3559 666 3084 287 
Q 2609 -91 1734 -91 
Q 1441 -91 1130 -33 
Q 819 25 488 141 
L 488 750 
Q 750 597 1062 519 
Q 1375 441 1716 441 
Q 2309 441 2620 675 
Q 2931 909 2931 1356 
Q 2931 1769 2642 2001 
Q 2353 2234 1838 2234 
L 1294 2234 
L 1294 2753 
L 1863 2753 
Q 2328 2753 2575 2939 
Q 2822 3125 2822 3475 
Q 2822 3834 2567 4026 
Q 2313 4219 1838 4219 
Q 1578 4219 1281 4162 
Q 984 4106 628 3988 
L 628 4550 
Q 988 4650 1302 4700 
Q 1616 4750 1894 4750 
Q 2613 4750 3031 4423 
Q 3450 4097 3450 3541 
Q 3450 3153 3228 2886 
Q 3006 2619 2597 2516 
z
" transform="scale(0.015625)"/>
       </defs>
       <use xlink:href="#DejaVuSans-33"/>
      </g>
     </g>
    </g>
    <g id="xtick_5">
     <g id="line2d_39">
      <path d="M 100.299476 293.76 
L 100.299476 3.456 
" clip-path="url(#p5c1ec8494f)" style="fill: none; stroke: #b0b0b0; stroke-width: 0.8; stroke-linecap: square"/>
     </g>
     <g id="line2d_40">
      <defs>
       <path id="mb4b9329221" d="M 0 0 
L 0 2 
" style="stroke: #000000; stroke-width: 0.6"/>
      </defs>
      <g>
       <use xlink:href="#mb4b9329221" x="100.299476" y="293.76" style="stroke: #000000; stroke-width: 0.6"/>
      </g>
     </g>
    </g>
    <g id="xtick_6">
     <g id="line2d_41">
      <path d="M 122.58156 293.76 
L 122.58156 3.456 
" clip-path="url(#p5c1ec8494f)" style="fill: none; stroke: #b0b0b0; stroke-width: 0.8; stroke-linecap: square"/>
     </g>
     <g id="line2d_42">
      <g>
       <use xlink:href="#mb4b9329221" x="122.58156" y="293.76" style="stroke: #000000; stroke-width: 0.6"/>
      </g>
     </g>
    </g>
    <g id="xtick_7">
     <g id="line2d_43">
      <path d="M 138.390951 293.76 
L 138.390951 3.456 
" clip-path="url(#p5c1ec8494f)" style="fill: none; stroke: #b0b0b0; stroke-width: 0.8; stroke-linecap: square"/>
     </g>
     <g id="line2d_44">
      <g>
       <use xlink:href="#mb4b9329221" x="138.390951" y="293.76" style="stroke: #000000; stroke-width: 0.6"/>
      </g>
     </g>
    </g>
    <g id="xtick_8">
     <g id="line2d_45">
      <path d="M 150.653667 293.76 
L 150.653667 3.456 
" clip-path="url(#p5c1ec8494f)" style="fill: none; stroke: #b0b0b0; stroke-width: 0.8; stroke-linecap: square"/>
     </g>
     <g id="line2d_46">
      <g>
       <use xlink:href="#mb4b9329221" x="150.653667" y="293.76" style="stroke: #000000; stroke-width: 0.6"/>
      </g>
     </g>
    </g>
    <g id="xtick_9">
     <g id="line2d_47">
      <path d="M 160.673036 293.76 
L 160.673036 3.456 
" clip-path="url(#p5c1ec8494f)" style="fill: none; stroke: #b0b0b0; stroke-width: 0.8; stroke-linecap: square"/>
     </g>
     <g id="line2d_48">
      <g>
       <use xlink:href="#mb4b9329221" x="160.673036" y="293.76" style="stroke: #000000; stroke-width: 0.6"/>
      </g>
     </g>
    </g>
    <g id="xtick_10">
     <g id="line2d_49">
      <path d="M 169.144291 293.76 
L 169.144291 3.456 
" clip-path="url(#p5c1ec8494f)" style="fill: none; stroke: #b0b0b0; stroke-width: 0.8; stroke-linecap: square"/>
     </g>
     <g id="line2d_50">
      <g>
       <use xlink:href="#mb4b9329221" x="169.144291" y="293.76" style="stroke: #000000; stroke-width: 0.6"/>
      </g>
     </g>
    </g>
    <g id="xtick_11">
     <g id="line2d_51">
      <path d="M 176.482427 293.76 
L 176.482427 3.456 
" clip-path="url(#p5c1ec8494f)" style="fill: none; stroke: #b0b0b0; stroke-width: 0.8; stroke-linecap: square"/>
     </g>
     <g id="line2d_52">
      <g>
       <use xlink:href="#mb4b9329221" x="176.482427" y="293.76" style="stroke: #000000; stroke-width: 0.6"/>
      </g>
     </g>
    </g>
    <g id="xtick_12">
     <g id="line2d_53">
      <path d="M 182.955121 293.76 
L 182.955121 3.456 
" clip-path="url(#p5c1ec8494f)" style="fill: none; stroke: #b0b0b0; stroke-width: 0.8; stroke-linecap: square"/>
     </g>
     <g id="line2d_54">
      <g>
       <use xlink:href="#mb4b9329221" x="182.955121" y="293.76" style="stroke: #000000; stroke-width: 0.6"/>
      </g>
     </g>
    </g>
    <g id="xtick_13">
     <g id="line2d_55">
      <path d="M 226.836618 293.76 
L 226.836618 3.456 
" clip-path="url(#p5c1ec8494f)" style="fill: none; stroke: #b0b0b0; stroke-width: 0.8; stroke-linecap: square"/>
     </g>
     <g id="line2d_56">
      <g>
       <use xlink:href="#mb4b9329221" x="226.836618" y="293.76" style="stroke: #000000; stroke-width: 0.6"/>
      </g>
     </g>
    </g>
    <g id="xtick_14">
     <g id="line2d_57">
      <path d="M 249.118703 293.76 
L 249.118703 3.456 
" clip-path="url(#p5c1ec8494f)" style="fill: none; stroke: #b0b0b0; stroke-width: 0.8; stroke-linecap: square"/>
     </g>
     <g id="line2d_58">
      <g>
       <use xlink:href="#mb4b9329221" x="249.118703" y="293.76" style="stroke: #000000; stroke-width: 0.6"/>
      </g>
     </g>
    </g>
    <g id="xtick_15">
     <g id="line2d_59">
      <path d="M 264.928094 293.76 
L 264.928094 3.456 
" clip-path="url(#p5c1ec8494f)" style="fill: none; stroke: #b0b0b0; stroke-width: 0.8; stroke-linecap: square"/>
     </g>
     <g id="line2d_60">
      <g>
       <use xlink:href="#mb4b9329221" x="264.928094" y="293.76" style="stroke: #000000; stroke-width: 0.6"/>
      </g>
     </g>
    </g>
    <g id="xtick_16">
     <g id="line2d_61">
      <path d="M 277.19081 293.76 
L 277.19081 3.456 
" clip-path="url(#p5c1ec8494f)" style="fill: none; stroke: #b0b0b0; stroke-width: 0.8; stroke-linecap: square"/>
     </g>
     <g id="line2d_62">
      <g>
       <use xlink:href="#mb4b9329221" x="277.19081" y="293.76" style="stroke: #000000; stroke-width: 0.6"/>
      </g>
     </g>
    </g>
    <g id="xtick_17">
     <g id="line2d_63">
      <path d="M 287.210179 293.76 
L 287.210179 3.456 
" clip-path="url(#p5c1ec8494f)" style="fill: none; stroke: #b0b0b0; stroke-width: 0.8; stroke-linecap: square"/>
     </g>
     <g id="line2d_64">
      <g>
       <use xlink:href="#mb4b9329221" x="287.210179" y="293.76" style="stroke: #000000; stroke-width: 0.6"/>
      </g>
     </g>
    </g>
    <g id="xtick_18">
     <g id="line2d_65">
      <path d="M 295.681434 293.76 
L 295.681434 3.456 
" clip-path="url(#p5c1ec8494f)" style="fill: none; stroke: #b0b0b0; stroke-width: 0.8; stroke-linecap: square"/>
     </g>
     <g id="line2d_66">
      <g>
       <use xlink:href="#mb4b9329221" x="295.681434" y="293.76" style="stroke: #000000; stroke-width: 0.6"/>
      </g>
     </g>
    </g>
    <g id="xtick_19">
     <g id="line2d_67">
      <path d="M 303.01957 293.76 
L 303.01957 3.456 
" clip-path="url(#p5c1ec8494f)" style="fill: none; stroke: #b0b0b0; stroke-width: 0.8; stroke-linecap: square"/>
     </g>
     <g id="line2d_68">
      <g>
       <use xlink:href="#mb4b9329221" x="303.01957" y="293.76" style="stroke: #000000; stroke-width: 0.6"/>
      </g>
     </g>
    </g>
    <g id="xtick_20">
     <g id="line2d_69">
      <path d="M 309.492264 293.76 
L 309.492264 3.456 
" clip-path="url(#p5c1ec8494f)" style="fill: none; stroke: #b0b0b0; stroke-width: 0.8; stroke-linecap: square"/>
     </g>
     <g id="line2d_70">
      <g>
       <use xlink:href="#mb4b9329221" x="309.492264" y="293.76" style="stroke: #000000; stroke-width: 0.6"/>
      </g>
     </g>
    </g>
    <g id="xtick_21">
     <g id="line2d_71">
      <path d="M 353.373761 293.76 
L 353.373761 3.456 
" clip-path="url(#p5c1ec8494f)" style="fill: none; stroke: #b0b0b0; stroke-width: 0.8; stroke-linecap: square"/>
     </g>
     <g id="line2d_72">
      <g>
       <use xlink:href="#mb4b9329221" x="353.373761" y="293.76" style="stroke: #000000; stroke-width: 0.6"/>
      </g>
     </g>
    </g>
    <g id="xtick_22">
     <g id="line2d_73">
      <path d="M 375.655846 293.76 
L 375.655846 3.456 
" clip-path="url(#p5c1ec8494f)" style="fill: none; stroke: #b0b0b0; stroke-width: 0.8; stroke-linecap: square"/>
     </g>
     <g id="line2d_74">
      <g>
       <use xlink:href="#mb4b9329221" x="375.655846" y="293.76" style="stroke: #000000; stroke-width: 0.6"/>
      </g>
     </g>
    </g>
    <g id="xtick_23">
     <g id="line2d_75">
      <path d="M 391.465237 293.76 
L 391.465237 3.456 
" clip-path="url(#p5c1ec8494f)" style="fill: none; stroke: #b0b0b0; stroke-width: 0.8; stroke-linecap: square"/>
     </g>
     <g id="line2d_76">
      <g>
       <use xlink:href="#mb4b9329221" x="391.465237" y="293.76" style="stroke: #000000; stroke-width: 0.6"/>
      </g>
     </g>
    </g>
    <g id="xtick_24">
     <g id="line2d_77">
      <path d="M 403.727953 293.76 
L 403.727953 3.456 
" clip-path="url(#p5c1ec8494f)" style="fill: none; stroke: #b0b0b0; stroke-width: 0.8; stroke-linecap: square"/>
     </g>
     <g id="line2d_78">
      <g>
       <use xlink:href="#mb4b9329221" x="403.727953" y="293.76" style="stroke: #000000; stroke-width: 0.6"/>
      </g>
     </g>
    </g>
    <g id="xtick_25">
     <g id="line2d_79">
      <path d="M 413.747322 293.76 
L 413.747322 3.456 
" clip-path="url(#p5c1ec8494f)" style="fill: none; stroke: #b0b0b0; stroke-width: 0.8; stroke-linecap: square"/>
     </g>
     <g id="line2d_80">
      <g>
       <use xlink:href="#mb4b9329221" x="413.747322" y="293.76" style="stroke: #000000; stroke-width: 0.6"/>
      </g>
     </g>
    </g>
    <g id="xtick_26">
     <g id="line2d_81">
      <path d="M 422.218577 293.76 
L 422.218577 3.456 
" clip-path="url(#p5c1ec8494f)" style="fill: none; stroke: #b0b0b0; stroke-width: 0.8; stroke-linecap: square"/>
     </g>
     <g id="line2d_82">
      <g>
       <use xlink:href="#mb4b9329221" x="422.218577" y="293.76" style="stroke: #000000; stroke-width: 0.6"/>
      </g>
     </g>
    </g>
    <g id="xtick_27">
     <g id="line2d_83">
      <path d="M 429.556712 293.76 
L 429.556712 3.456 
" clip-path="url(#p5c1ec8494f)" style="fill: none; stroke: #b0b0b0; stroke-width: 0.8; stroke-linecap: square"/>
     </g>
     <g id="line2d_84">
      <g>
       <use xlink:href="#mb4b9329221" x="429.556712" y="293.76" style="stroke: #000000; stroke-width: 0.6"/>
      </g>
     </g>
    </g>
    <g id="xtick_28">
     <g id="line2d_85">
      <path d="M 436.029406 293.76 
L 436.029406 3.456 
" clip-path="url(#p5c1ec8494f)" style="fill: none; stroke: #b0b0b0; stroke-width: 0.8; stroke-linecap: square"/>
     </g>
     <g id="line2d_86">
      <g>
       <use xlink:href="#mb4b9329221" x="436.029406" y="293.76" style="stroke: #000000; stroke-width: 0.6"/>
      </g>
     </g>
    </g>
    <g id="text_5">
     <!-- log10 of FEvals / DIM -->
     <g transform="translate(156.430563 339.313125) scale(0.2 -0.2)">
      <defs>
       <path id="DejaVuSans-6c" d="M 603 4863 
L 1178 4863 
L 1178 0 
L 603 0 
L 603 4863 
z
" transform="scale(0.015625)"/>
       <path id="DejaVuSans-6f" d="M 1959 3097 
Q 1497 3097 1228 2736 
Q 959 2375 959 1747 
Q 959 1119 1226 758 
Q 1494 397 1959 397 
Q 2419 397 2687 759 
Q 2956 1122 2956 1747 
Q 2956 2369 2687 2733 
Q 2419 3097 1959 3097 
z
M 1959 3584 
Q 2709 3584 3137 3096 
Q 3566 2609 3566 1747 
Q 3566 888 3137 398 
Q 2709 -91 1959 -91 
Q 1206 -91 779 398 
Q 353 888 353 1747 
Q 353 2609 779 3096 
Q 1206 3584 1959 3584 
z
" transform="scale(0.015625)"/>
       <path id="DejaVuSans-67" d="M 2906 1791 
Q 2906 2416 2648 2759 
Q 2391 3103 1925 3103 
Q 1463 3103 1205 2759 
Q 947 2416 947 1791 
Q 947 1169 1205 825 
Q 1463 481 1925 481 
Q 2391 481 2648 825 
Q 2906 1169 2906 1791 
z
M 3481 434 
Q 3481 -459 3084 -895 
Q 2688 -1331 1869 -1331 
Q 1566 -1331 1297 -1286 
Q 1028 -1241 775 -1147 
L 775 -588 
Q 1028 -725 1275 -790 
Q 1522 -856 1778 -856 
Q 2344 -856 2625 -561 
Q 2906 -266 2906 331 
L 2906 616 
Q 2728 306 2450 153 
Q 2172 0 1784 0 
Q 1141 0 747 490 
Q 353 981 353 1791 
Q 353 2603 747 3093 
Q 1141 3584 1784 3584 
Q 2172 3584 2450 3431 
Q 2728 3278 2906 2969 
L 2906 3500 
L 3481 3500 
L 3481 434 
z
" transform="scale(0.015625)"/>
       <path id="DejaVuSans-20" transform="scale(0.015625)"/>
       <path id="DejaVuSans-66" d="M 2375 4863 
L 2375 4384 
L 1825 4384 
Q 1516 4384 1395 4259 
Q 1275 4134 1275 3809 
L 1275 3500 
L 2222 3500 
L 2222 3053 
L 1275 3053 
L 1275 0 
L 697 0 
L 697 3053 
L 147 3053 
L 147 3500 
L 697 3500 
L 697 3744 
Q 697 4328 969 4595 
Q 1241 4863 1831 4863 
L 2375 4863 
z
" transform="scale(0.015625)"/>
       <path id="DejaVuSans-46" d="M 628 4666 
L 3309 4666 
L 3309 4134 
L 1259 4134 
L 1259 2759 
L 3109 2759 
L 3109 2228 
L 1259 2228 
L 1259 0 
L 628 0 
L 628 4666 
z
" transform="scale(0.015625)"/>
       <path id="DejaVuSans-45" d="M 628 4666 
L 3578 4666 
L 3578 4134 
L 1259 4134 
L 1259 2753 
L 3481 2753 
L 3481 2222 
L 1259 2222 
L 1259 531 
L 3634 531 
L 3634 0 
L 628 0 
L 628 4666 
z
" transform="scale(0.015625)"/>
       <path id="DejaVuSans-76" d="M 191 3500 
L 800 3500 
L 1894 563 
L 2988 3500 
L 3597 3500 
L 2284 0 
L 1503 0 
L 191 3500 
z
" transform="scale(0.015625)"/>
       <path id="DejaVuSans-61" d="M 2194 1759 
Q 1497 1759 1228 1600 
Q 959 1441 959 1056 
Q 959 750 1161 570 
Q 1363 391 1709 391 
Q 2188 391 2477 730 
Q 2766 1069 2766 1631 
L 2766 1759 
L 2194 1759 
z
M 3341 1997 
L 3341 0 
L 2766 0 
L 2766 531 
Q 2569 213 2275 61 
Q 1981 -91 1556 -91 
Q 1019 -91 701 211 
Q 384 513 384 1019 
Q 384 1609 779 1909 
Q 1175 2209 1959 2209 
L 2766 2209 
L 2766 2266 
Q 2766 2663 2505 2880 
Q 2244 3097 1772 3097 
Q 1472 3097 1187 3025 
Q 903 2953 641 2809 
L 641 3341 
Q 956 3463 1253 3523 
Q 1550 3584 1831 3584 
Q 2591 3584 2966 3190 
Q 3341 2797 3341 1997 
z
" transform="scale(0.015625)"/>
       <path id="DejaVuSans-73" d="M 2834 3397 
L 2834 2853 
Q 2591 2978 2328 3040 
Q 2066 3103 1784 3103 
Q 1356 3103 1142 2972 
Q 928 2841 928 2578 
Q 928 2378 1081 2264 
Q 1234 2150 1697 2047 
L 1894 2003 
Q 2506 1872 2764 1633 
Q 3022 1394 3022 966 
Q 3022 478 2636 193 
Q 2250 -91 1575 -91 
Q 1294 -91 989 -36 
Q 684 19 347 128 
L 347 722 
Q 666 556 975 473 
Q 1284 391 1588 391 
Q 1994 391 2212 530 
Q 2431 669 2431 922 
Q 2431 1156 2273 1281 
Q 2116 1406 1581 1522 
L 1381 1569 
Q 847 1681 609 1914 
Q 372 2147 372 2553 
Q 372 3047 722 3315 
Q 1072 3584 1716 3584 
Q 2034 3584 2315 3537 
Q 2597 3491 2834 3397 
z
" transform="scale(0.015625)"/>
       <path id="DejaVuSans-2f" d="M 1625 4666 
L 2156 4666 
L 531 -594 
L 0 -594 
L 1625 4666 
z
" transform="scale(0.015625)"/>
       <path id="DejaVuSans-44" d="M 1259 4147 
L 1259 519 
L 2022 519 
Q 2988 519 3436 956 
Q 3884 1394 3884 2338 
Q 3884 3275 3436 3711 
Q 2988 4147 2022 4147 
L 1259 4147 
z
M 628 4666 
L 1925 4666 
Q 3281 4666 3915 4102 
Q 4550 3538 4550 2338 
Q 4550 1131 3912 565 
Q 3275 0 1925 0 
L 628 0 
L 628 4666 
z
" transform="scale(0.015625)"/>
       <path id="DejaVuSans-49" d="M 628 4666 
L 1259 4666 
L 1259 0 
L 628 0 
L 628 4666 
z
" transform="scale(0.015625)"/>
       <path id="DejaVuSans-4d" d="M 628 4666 
L 1569 4666 
L 2759 1491 
L 3956 4666 
L 4897 4666 
L 4897 0 
L 4281 0 
L 4281 4097 
L 3078 897 
L 2444 897 
L 1241 4097 
L 1241 0 
L 628 0 
L 628 4666 
z
" transform="scale(0.015625)"/>
      </defs>
      <use xlink:href="#DejaVuSans-6c"/>
      <use xlink:href="#DejaVuSans-6f" transform="translate(27.783203 0)"/>
      <use xlink:href="#DejaVuSans-67" transform="translate(88.964844 0)"/>
      <use xlink:href="#DejaVuSans-31" transform="translate(152.441406 0)"/>
      <use xlink:href="#DejaVuSans-30" transform="translate(216.064453 0)"/>
      <use xlink:href="#DejaVuSans-20" transform="translate(279.6875 0)"/>
      <use xlink:href="#DejaVuSans-6f" transform="translate(311.474609 0)"/>
      <use xlink:href="#DejaVuSans-66" transform="translate(372.65625 0)"/>
      <use xlink:href="#DejaVuSans-20" transform="translate(407.861328 0)"/>
      <use xlink:href="#DejaVuSans-46" transform="translate(439.648438 0)"/>
      <use xlink:href="#DejaVuSans-45" transform="translate(497.167969 0)"/>
      <use xlink:href="#DejaVuSans-76" transform="translate(560.351562 0)"/>
      <use xlink:href="#DejaVuSans-61" transform="translate(619.53125 0)"/>
      <use xlink:href="#DejaVuSans-6c" transform="translate(680.810547 0)"/>
      <use xlink:href="#DejaVuSans-73" transform="translate(708.59375 0)"/>
      <use xlink:href="#DejaVuSans-20" transform="translate(760.693359 0)"/>
      <use xlink:href="#DejaVuSans-2f" transform="translate(792.480469 0)"/>
      <use xlink:href="#DejaVuSans-20" transform="translate(826.171875 0)"/>
      <use xlink:href="#DejaVuSans-44" transform="translate(857.958984 0)"/>
      <use xlink:href="#DejaVuSans-49" transform="translate(934.960938 0)"/>
      <use xlink:href="#DejaVuSans-4d" transform="translate(964.453125 0)"/>
     </g>
    </g>
   </g>
   <g id="matplotlib.axis_2">
    <g id="ytick_1">
     <g id="line2d_87">
      <path d="M 62.208 293.76 
L 460.8 293.76 
" clip-path="url(#p5c1ec8494f)" style="fill: none; stroke: #b0b0b0; stroke-width: 0.8; stroke-linecap: square"/>
     </g>
     <g id="line2d_88">
      <defs>
       <path id="m26048bd489" d="M 0 0 
L -3.5 0 
" style="stroke: #000000; stroke-width: 0.8"/>
      </defs>
      <g>
       <use xlink:href="#m26048bd489" x="62.208" y="293.76" style="stroke: #000000; stroke-width: 0.8"/>
      </g>
     </g>
     <g id="text_6">
      <!-- 0.0 -->
      <g transform="translate(29.763 299.83875) scale(0.16 -0.16)">
       <defs>
        <path id="DejaVuSans-2e" d="M 684 794 
L 1344 794 
L 1344 0 
L 684 0 
L 684 794 
z
" transform="scale(0.015625)"/>
       </defs>
       <use xlink:href="#DejaVuSans-30"/>
       <use xlink:href="#DejaVuSans-2e" transform="translate(63.623047 0)"/>
       <use xlink:href="#DejaVuSans-30" transform="translate(95.410156 0)"/>
      </g>
     </g>
    </g>
    <g id="ytick_2">
     <g id="line2d_89">
      <path d="M 62.208 236.274059 
L 460.8 236.274059 
" clip-path="url(#p5c1ec8494f)" style="fill: none; stroke: #b0b0b0; stroke-width: 0.8; stroke-linecap: square"/>
     </g>
     <g id="line2d_90">
      <g>
       <use xlink:href="#m26048bd489" x="62.208" y="236.274059" style="stroke: #000000; stroke-width: 0.8"/>
      </g>
     </g>
     <g id="text_7">
      <!-- 0.2 -->
      <g transform="translate(29.763 242.352809) scale(0.16 -0.16)">
       <use xlink:href="#DejaVuSans-30"/>
       <use xlink:href="#DejaVuSans-2e" transform="translate(63.623047 0)"/>
       <use xlink:href="#DejaVuSans-32" transform="translate(95.410156 0)"/>
      </g>
     </g>
    </g>
    <g id="ytick_3">
     <g id="line2d_91">
      <path d="M 62.208 178.788119 
L 460.8 178.788119 
" clip-path="url(#p5c1ec8494f)" style="fill: none; stroke: #b0b0b0; stroke-width: 0.8; stroke-linecap: square"/>
     </g>
     <g id="line2d_92">
      <g>
       <use xlink:href="#m26048bd489" x="62.208" y="178.788119" style="stroke: #000000; stroke-width: 0.8"/>
      </g>
     </g>
     <g id="text_8">
      <!-- 0.4 -->
      <g transform="translate(29.763 184.866869) scale(0.16 -0.16)">
       <defs>
        <path id="DejaVuSans-34" d="M 2419 4116 
L 825 1625 
L 2419 1625 
L 2419 4116 
z
M 2253 4666 
L 3047 4666 
L 3047 1625 
L 3713 1625 
L 3713 1100 
L 3047 1100 
L 3047 0 
L 2419 0 
L 2419 1100 
L 313 1100 
L 313 1709 
L 2253 4666 
z
" transform="scale(0.015625)"/>
       </defs>
       <use xlink:href="#DejaVuSans-30"/>
       <use xlink:href="#DejaVuSans-2e" transform="translate(63.623047 0)"/>
       <use xlink:href="#DejaVuSans-34" transform="translate(95.410156 0)"/>
      </g>
     </g>
    </g>
    <g id="ytick_4">
     <g id="line2d_93">
      <path d="M 62.208 121.302178 
L 460.8 121.302178 
" clip-path="url(#p5c1ec8494f)" style="fill: none; stroke: #b0b0b0; stroke-width: 0.8; stroke-linecap: square"/>
     </g>
     <g id="line2d_94">
      <g>
       <use xlink:href="#m26048bd489" x="62.208" y="121.302178" style="stroke: #000000; stroke-width: 0.8"/>
      </g>
     </g>
     <g id="text_9">
      <!-- 0.6 -->
      <g transform="translate(29.763 127.380928) scale(0.16 -0.16)">
       <defs>
        <path id="DejaVuSans-36" d="M 2113 2584 
Q 1688 2584 1439 2293 
Q 1191 2003 1191 1497 
Q 1191 994 1439 701 
Q 1688 409 2113 409 
Q 2538 409 2786 701 
Q 3034 994 3034 1497 
Q 3034 2003 2786 2293 
Q 2538 2584 2113 2584 
z
M 3366 4563 
L 3366 3988 
Q 3128 4100 2886 4159 
Q 2644 4219 2406 4219 
Q 1781 4219 1451 3797 
Q 1122 3375 1075 2522 
Q 1259 2794 1537 2939 
Q 1816 3084 2150 3084 
Q 2853 3084 3261 2657 
Q 3669 2231 3669 1497 
Q 3669 778 3244 343 
Q 2819 -91 2113 -91 
Q 1303 -91 875 529 
Q 447 1150 447 2328 
Q 447 3434 972 4092 
Q 1497 4750 2381 4750 
Q 2619 4750 2861 4703 
Q 3103 4656 3366 4563 
z
" transform="scale(0.015625)"/>
       </defs>
       <use xlink:href="#DejaVuSans-30"/>
       <use xlink:href="#DejaVuSans-2e" transform="translate(63.623047 0)"/>
       <use xlink:href="#DejaVuSans-36" transform="translate(95.410156 0)"/>
      </g>
     </g>
    </g>
    <g id="ytick_5">
     <g id="line2d_95">
      <path d="M 62.208 63.816238 
L 460.8 63.816238 
" clip-path="url(#p5c1ec8494f)" style="fill: none; stroke: #b0b0b0; stroke-width: 0.8; stroke-linecap: square"/>
     </g>
     <g id="line2d_96">
      <g>
       <use xlink:href="#m26048bd489" x="62.208" y="63.816238" style="stroke: #000000; stroke-width: 0.8"/>
      </g>
     </g>
     <g id="text_10">
      <!-- 0.8 -->
      <g transform="translate(29.763 69.894988) scale(0.16 -0.16)">
       <defs>
        <path id="DejaVuSans-38" d="M 2034 2216 
Q 1584 2216 1326 1975 
Q 1069 1734 1069 1313 
Q 1069 891 1326 650 
Q 1584 409 2034 409 
Q 2484 409 2743 651 
Q 3003 894 3003 1313 
Q 3003 1734 2745 1975 
Q 2488 2216 2034 2216 
z
M 1403 2484 
Q 997 2584 770 2862 
Q 544 3141 544 3541 
Q 544 4100 942 4425 
Q 1341 4750 2034 4750 
Q 2731 4750 3128 4425 
Q 3525 4100 3525 3541 
Q 3525 3141 3298 2862 
Q 3072 2584 2669 2484 
Q 3125 2378 3379 2068 
Q 3634 1759 3634 1313 
Q 3634 634 3220 271 
Q 2806 -91 2034 -91 
Q 1263 -91 848 271 
Q 434 634 434 1313 
Q 434 1759 690 2068 
Q 947 2378 1403 2484 
z
M 1172 3481 
Q 1172 3119 1398 2916 
Q 1625 2713 2034 2713 
Q 2441 2713 2670 2916 
Q 2900 3119 2900 3481 
Q 2900 3844 2670 4047 
Q 2441 4250 2034 4250 
Q 1625 4250 1398 4047 
Q 1172 3844 1172 3481 
z
" transform="scale(0.015625)"/>
       </defs>
       <use xlink:href="#DejaVuSans-30"/>
       <use xlink:href="#DejaVuSans-2e" transform="translate(63.623047 0)"/>
       <use xlink:href="#DejaVuSans-38" transform="translate(95.410156 0)"/>
      </g>
     </g>
    </g>
    <g id="ytick_6">
     <g id="line2d_97">
      <path d="M 62.208 6.330297 
L 460.8 6.330297 
" clip-path="url(#p5c1ec8494f)" style="fill: none; stroke: #b0b0b0; stroke-width: 0.8; stroke-linecap: square"/>
     </g>
     <g id="line2d_98">
      <g>
       <use xlink:href="#m26048bd489" x="62.208" y="6.330297" style="stroke: #000000; stroke-width: 0.8"/>
      </g>
     </g>
     <g id="text_11">
      <!-- 1.0 -->
      <g transform="translate(29.763 12.409047) scale(0.16 -0.16)">
       <use xlink:href="#DejaVuSans-31"/>
       <use xlink:href="#DejaVuSans-2e" transform="translate(63.623047 0)"/>
       <use xlink:href="#DejaVuSans-30" transform="translate(95.410156 0)"/>
      </g>
     </g>
    </g>
    <g id="text_12">
     <!-- proportion of trials -->
     <g transform="translate(21.603625 241.61425) rotate(-90) scale(0.2 -0.2)">
      <defs>
       <path id="DejaVuSans-70" d="M 1159 525 
L 1159 -1331 
L 581 -1331 
L 581 3500 
L 1159 3500 
L 1159 2969 
Q 1341 3281 1617 3432 
Q 1894 3584 2278 3584 
Q 2916 3584 3314 3078 
Q 3713 2572 3713 1747 
Q 3713 922 3314 415 
Q 2916 -91 2278 -91 
Q 1894 -91 1617 61 
Q 1341 213 1159 525 
z
M 3116 1747 
Q 3116 2381 2855 2742 
Q 2594 3103 2138 3103 
Q 1681 3103 1420 2742 
Q 1159 2381 1159 1747 
Q 1159 1113 1420 752 
Q 1681 391 2138 391 
Q 2594 391 2855 752 
Q 3116 1113 3116 1747 
z
" transform="scale(0.015625)"/>
       <path id="DejaVuSans-72" d="M 2631 2963 
Q 2534 3019 2420 3045 
Q 2306 3072 2169 3072 
Q 1681 3072 1420 2755 
Q 1159 2438 1159 1844 
L 1159 0 
L 581 0 
L 581 3500 
L 1159 3500 
L 1159 2956 
Q 1341 3275 1631 3429 
Q 1922 3584 2338 3584 
Q 2397 3584 2469 3576 
Q 2541 3569 2628 3553 
L 2631 2963 
z
" transform="scale(0.015625)"/>
       <path id="DejaVuSans-74" d="M 1172 4494 
L 1172 3500 
L 2356 3500 
L 2356 3053 
L 1172 3053 
L 1172 1153 
Q 1172 725 1289 603 
Q 1406 481 1766 481 
L 2356 481 
L 2356 0 
L 1766 0 
Q 1100 0 847 248 
Q 594 497 594 1153 
L 594 3053 
L 172 3053 
L 172 3500 
L 594 3500 
L 594 4494 
L 1172 4494 
z
" transform="scale(0.015625)"/>
       <path id="DejaVuSans-69" d="M 603 3500 
L 1178 3500 
L 1178 0 
L 603 0 
L 603 3500 
z
M 603 4863 
L 1178 4863 
L 1178 4134 
L 603 4134 
L 603 4863 
z
" transform="scale(0.015625)"/>
       <path id="DejaVuSans-6e" d="M 3513 2113 
L 3513 0 
L 2938 0 
L 2938 2094 
Q 2938 2591 2744 2837 
Q 2550 3084 2163 3084 
Q 1697 3084 1428 2787 
Q 1159 2491 1159 1978 
L 1159 0 
L 581 0 
L 581 3500 
L 1159 3500 
L 1159 2956 
Q 1366 3272 1645 3428 
Q 1925 3584 2291 3584 
Q 2894 3584 3203 3211 
Q 3513 2838 3513 2113 
z
" transform="scale(0.015625)"/>
      </defs>
      <use xlink:href="#DejaVuSans-70"/>
      <use xlink:href="#DejaVuSans-72" transform="translate(63.476562 0)"/>
      <use xlink:href="#DejaVuSans-6f" transform="translate(102.339844 0)"/>
      <use xlink:href="#DejaVuSans-70" transform="translate(163.521484 0)"/>
      <use xlink:href="#DejaVuSans-6f" transform="translate(226.998047 0)"/>
      <use xlink:href="#DejaVuSans-72" transform="translate(288.179688 0)"/>
      <use xlink:href="#DejaVuSans-74" transform="translate(329.292969 0)"/>
      <use xlink:href="#DejaVuSans-69" transform="translate(368.501953 0)"/>
      <use xlink:href="#DejaVuSans-6f" transform="translate(396.285156 0)"/>
      <use xlink:href="#DejaVuSans-6e" transform="translate(457.466797 0)"/>
      <use xlink:href="#DejaVuSans-20" transform="translate(520.845703 0)"/>
      <use xlink:href="#DejaVuSans-6f" transform="translate(552.632812 0)"/>
      <use xlink:href="#DejaVuSans-66" transform="translate(613.814453 0)"/>
      <use xlink:href="#DejaVuSans-20" transform="translate(649.019531 0)"/>
      <use xlink:href="#DejaVuSans-74" transform="translate(680.806641 0)"/>
      <use xlink:href="#DejaVuSans-72" transform="translate(720.015625 0)"/>
      <use xlink:href="#DejaVuSans-69" transform="translate(761.128906 0)"/>
      <use xlink:href="#DejaVuSans-61" transform="translate(788.912109 0)"/>
      <use xlink:href="#DejaVuSans-6c" transform="translate(850.191406 0)"/>
      <use xlink:href="#DejaVuSans-73" transform="translate(877.974609 0)"/>
     </g>
    </g>
   </g>
   <g id="line2d_99">
    <path d="M 224.017827 293.76 
L 224.017827 269.807525 
L 256.639715 269.807525 
L 256.639715 245.85505 
L 270.165806 245.85505 
L 270.165806 221.902574 
L 281.623315 221.902574 
L 281.623315 197.950099 
L 303.702241 197.950099 
L 303.702241 173.997624 
L 314.395905 173.997624 
L 314.395905 150.045149 
L 319.409771 150.045149 
L 319.409771 126.092673 
L 328.934128 126.092673 
L 328.934128 102.140198 
L 329.275992 102.140198 
L 329.275992 78.187723 
L 329.784832 78.187723 
L 329.784832 54.235248 
L 330.037496 54.235248 
L 330.037496 30.282772 
L 348.791576 30.282772 
L 348.791576 6.330297 
L 348.791576 6.330297 
L 348.791576 6.330297 
L 460.8 6.330297 
" clip-path="url(#p5c1ec8494f)" style="fill: none; stroke: #000000; stroke-width: 1.5; stroke-linecap: square"/>
   </g>
   <g id="line2d_100">
    <defs>
     <path id="mc1733684f1" d="M -0 14.142136 
L 8.485281 0 
L -0 -14.142136 
L -8.485281 -0 
z
" style="stroke: #000000; stroke-width: 1.5; stroke-linejoin: miter"/>
    </defs>
    <g clip-path="url(#p5c1ec8494f)">
     <use xlink:href="#mc1733684f1" x="329.275992" y="102.140198" style="fill-opacity: 0; stroke: #000000; stroke-width: 1.5; stroke-linejoin: miter"/>
     <use xlink:href="#mc1733684f1" x="348.791576" y="30.282772" style="fill-opacity: 0; stroke: #000000; stroke-width: 1.5; stroke-linejoin: miter"/>
     <use xlink:href="#mc1733684f1" x="348.791576" y="6.330297" style="fill-opacity: 0; stroke: #000000; stroke-width: 1.5; stroke-linejoin: miter"/>
    </g>
   </g>
   <g id="line2d_101">
    <path clip-path="url(#p5c1ec8494f)" style="fill: none; stroke: #000000; stroke-width: 1.5; stroke-linecap: square"/>
    <g clip-path="url(#p5c1ec8494f)">
     <use xlink:href="#mc1733684f1" x="-1" y="581.189703" style="fill-opacity: 0; stroke: #000000; stroke-width: 1.5; stroke-linejoin: miter"/>
     <use xlink:href="#mc1733684f1" x="460.8" y="581.189703" style="fill-opacity: 0; stroke: #000000; stroke-width: 1.5; stroke-linejoin: miter"/>
    </g>
   </g>
   <g id="line2d_102">
    <path d="M 242.920096 293.76 
L 242.920096 269.807525 
L 249.846586 269.807525 
L 249.846586 245.85505 
L 261.819305 245.85505 
L 261.819305 221.902574 
L 267.083444 221.902574 
L 267.083444 197.950099 
L 270.165806 197.950099 
L 270.165806 173.997624 
L 277.846337 173.997624 
L 277.846337 150.045149 
L 290.756853 150.045149 
L 290.756853 126.092673 
L 298.137905 126.092673 
L 298.137905 102.140198 
L 326.479617 102.140198 
L 326.479617 78.187723 
L 336.304404 78.187723 
L 336.304404 54.235248 
L 338.002256 54.235248 
L 338.002256 30.282772 
L 363.39313 30.282772 
L 363.39313 6.330297 
L 363.39313 6.330297 
L 363.39313 6.330297 
L 460.8 6.330297 
" clip-path="url(#p5c1ec8494f)" style="fill: none; stroke: #000000; stroke-width: 1.5; stroke-linecap: square"/>
   </g>
   <g id="line2d_103">
    <defs>
     <path id="mc53ab7e8db" d="M 0 7.5 
C 1.989023 7.5 3.896849 6.709753 5.303301 5.303301 
C 6.709753 3.896849 7.5 1.989023 7.5 0 
C 7.5 -1.989023 6.709753 -3.896849 5.303301 -5.303301 
C 3.896849 -6.709753 1.989023 -7.5 0 -7.5 
C -1.989023 -7.5 -3.896849 -6.709753 -5.303301 -5.303301 
C -6.709753 -3.896849 -7.5 -1.989023 -7.5 0 
C -7.5 1.989023 -6.709753 3.896849 -5.303301 5.303301 
C -3.896849 6.709753 -1.989023 7.5 0 7.5 
z
" style="stroke: #000000; stroke-width: 1.5"/>
    </defs>
    <g clip-path="url(#p5c1ec8494f)">
     <use xlink:href="#mc53ab7e8db" x="270.165806" y="197.950099" style="fill-opacity: 0; stroke: #000000; stroke-width: 1.5"/>
     <use xlink:href="#mc53ab7e8db" x="336.304404" y="78.187723" style="fill-opacity: 0; stroke: #000000; stroke-width: 1.5"/>
     <use xlink:href="#mc53ab7e8db" x="363.39313" y="6.330297" style="fill-opacity: 0; stroke: #000000; stroke-width: 1.5"/>
    </g>
   </g>
   <g id="line2d_104">
    <path clip-path="url(#p5c1ec8494f)" style="fill: none; stroke: #000000; stroke-width: 1.5; stroke-linecap: square"/>
   </g>
   <g id="line2d_105">
    <path d="M 388.819712 293.76 
L 388.819712 269.807525 
L 391.106867 269.807525 
L 391.106867 245.85505 
L 402.482978 245.85505 
L 402.482978 221.902574 
L 414.925284 221.902574 
L 414.925284 197.950099 
L 416.218805 197.950099 
L 416.218805 173.997624 
L 416.218805 173.997624 
L 416.218805 173.997624 
L 460.8 173.997624 
" clip-path="url(#p5c1ec8494f)" style="fill: none; stroke: #00bfbf; stroke-width: 1.5; stroke-linecap: square"/>
   </g>
   <g id="line2d_106">
    <defs>
     <path id="m3f6febafee" d="M -0 14.142136 
L 8.485281 0 
L -0 -14.142136 
L -8.485281 -0 
z
" style="stroke: #00bfbf; stroke-width: 1.5; stroke-linejoin: miter"/>
    </defs>
    <g clip-path="url(#p5c1ec8494f)">
     <use xlink:href="#m3f6febafee" x="391.106867" y="269.807525" style="fill-opacity: 0; stroke: #00bfbf; stroke-width: 1.5; stroke-linejoin: miter"/>
     <use xlink:href="#m3f6febafee" x="416.218805" y="197.950099" style="fill-opacity: 0; stroke: #00bfbf; stroke-width: 1.5; stroke-linejoin: miter"/>
     <use xlink:href="#m3f6febafee" x="416.218805" y="173.997624" style="fill-opacity: 0; stroke: #00bfbf; stroke-width: 1.5; stroke-linejoin: miter"/>
    </g>
   </g>
   <g id="line2d_107">
    <path clip-path="url(#p5c1ec8494f)" style="fill: none; stroke: #00bfbf; stroke-width: 1.5; stroke-linecap: square"/>
    <g clip-path="url(#p5c1ec8494f)">
     <use xlink:href="#m3f6febafee" x="-1" y="581.189703" style="fill-opacity: 0; stroke: #00bfbf; stroke-width: 1.5; stroke-linejoin: miter"/>
     <use xlink:href="#m3f6febafee" x="460.8" y="581.189703" style="fill-opacity: 0; stroke: #00bfbf; stroke-width: 1.5; stroke-linejoin: miter"/>
    </g>
   </g>
   <g id="line2d_108">
    <path d="M 358.210345 293.76 
L 358.210345 269.807525 
L 367.664863 269.807525 
L 367.664863 245.85505 
L 372.643893 245.85505 
L 372.643893 221.902574 
L 375.029474 221.902574 
L 375.029474 197.950099 
L 375.029474 197.950099 
L 375.029474 197.950099 
L 460.8 197.950099 
" clip-path="url(#p5c1ec8494f)" style="fill: none; stroke: #00bfbf; stroke-width: 1.5; stroke-linecap: square"/>
   </g>
   <g id="line2d_109">
    <defs>
     <path id="m7c180628de" d="M 0 7.5 
C 1.989023 7.5 3.896849 6.709753 5.303301 5.303301 
C 6.709753 3.896849 7.5 1.989023 7.5 0 
C 7.5 -1.989023 6.709753 -3.896849 5.303301 -5.303301 
C 3.896849 -6.709753 1.989023 -7.5 0 -7.5 
C -1.989023 -7.5 -3.896849 -6.709753 -5.303301 -5.303301 
C -6.709753 -3.896849 -7.5 -1.989023 -7.5 0 
C -7.5 1.989023 -6.709753 3.896849 -5.303301 5.303301 
C -3.896849 6.709753 -1.989023 7.5 0 7.5 
z
" style="stroke: #00bfbf; stroke-width: 1.5"/>
    </defs>
    <g clip-path="url(#p5c1ec8494f)">
     <use xlink:href="#m7c180628de" x="367.664863" y="269.807525" style="fill-opacity: 0; stroke: #00bfbf; stroke-width: 1.5"/>
     <use xlink:href="#m7c180628de" x="375.029474" y="221.902574" style="fill-opacity: 0; stroke: #00bfbf; stroke-width: 1.5"/>
     <use xlink:href="#m7c180628de" x="375.029474" y="197.950099" style="fill-opacity: 0; stroke: #00bfbf; stroke-width: 1.5"/>
    </g>
   </g>
   <g id="line2d_110">
    <path clip-path="url(#p5c1ec8494f)" style="fill: none; stroke: #00bfbf; stroke-width: 1.5; stroke-linecap: square"/>
   </g>
   <g id="line2d_111">
    <path d="M 429.967332 293.76 
L 429.967332 269.807525 
L 429.967332 269.807525 
L 429.967332 269.807525 
L 460.8 269.807525 
" clip-path="url(#p5c1ec8494f)" style="fill: none; stroke: #bf00bf; stroke-width: 1.5; stroke-linecap: square"/>
   </g>
   <g id="line2d_112">
    <defs>
     <path id="m139dc08f42" d="M -0 14.142136 
L 8.485281 0 
L -0 -14.142136 
L -8.485281 -0 
z
" style="stroke: #bf00bf; stroke-width: 1.5; stroke-linejoin: miter"/>
    </defs>
    <g clip-path="url(#p5c1ec8494f)">
     <use xlink:href="#m139dc08f42" x="429.967332" y="293.76" style="fill-opacity: 0; stroke: #bf00bf; stroke-width: 1.5; stroke-linejoin: miter"/>
     <use xlink:href="#m139dc08f42" x="429.967332" y="293.76" style="fill-opacity: 0; stroke: #bf00bf; stroke-width: 1.5; stroke-linejoin: miter"/>
     <use xlink:href="#m139dc08f42" x="429.967332" y="269.807525" style="fill-opacity: 0; stroke: #bf00bf; stroke-width: 1.5; stroke-linejoin: miter"/>
    </g>
   </g>
   <g id="line2d_113">
    <path clip-path="url(#p5c1ec8494f)" style="fill: none; stroke: #bf00bf; stroke-width: 1.5; stroke-linecap: square"/>
    <g clip-path="url(#p5c1ec8494f)">
     <use xlink:href="#m139dc08f42" x="-1" y="581.189703" style="fill-opacity: 0; stroke: #bf00bf; stroke-width: 1.5; stroke-linejoin: miter"/>
     <use xlink:href="#m139dc08f42" x="460.8" y="581.189703" style="fill-opacity: 0; stroke: #bf00bf; stroke-width: 1.5; stroke-linejoin: miter"/>
    </g>
   </g>
   <g id="line2d_114">
    <path d="M 420.947899 293.76 
L 420.947899 269.807525 
L 432.041329 269.807525 
L 432.041329 245.85505 
L 432.041329 245.85505 
L 432.041329 245.85505 
L 460.8 245.85505 
" clip-path="url(#p5c1ec8494f)" style="fill: none; stroke: #bf00bf; stroke-width: 1.5; stroke-linecap: square"/>
   </g>
   <g id="line2d_115">
    <defs>
     <path id="m8d1f704650" d="M 0 7.5 
C 1.989023 7.5 3.896849 6.709753 5.303301 5.303301 
C 6.709753 3.896849 7.5 1.989023 7.5 0 
C 7.5 -1.989023 6.709753 -3.896849 5.303301 -5.303301 
C 3.896849 -6.709753 1.989023 -7.5 0 -7.5 
C -1.989023 -7.5 -3.896849 -6.709753 -5.303301 -5.303301 
C -6.709753 -3.896849 -7.5 -1.989023 -7.5 0 
C -7.5 1.989023 -6.709753 3.896849 -5.303301 5.303301 
C -3.896849 6.709753 -1.989023 7.5 0 7.5 
z
" style="stroke: #bf00bf; stroke-width: 1.5"/>
    </defs>
    <g clip-path="url(#p5c1ec8494f)">
     <use xlink:href="#m8d1f704650" x="420.947899" y="293.76" style="fill-opacity: 0; stroke: #bf00bf; stroke-width: 1.5"/>
     <use xlink:href="#m8d1f704650" x="432.041329" y="269.807525" style="fill-opacity: 0; stroke: #bf00bf; stroke-width: 1.5"/>
     <use xlink:href="#m8d1f704650" x="432.041329" y="245.85505" style="fill-opacity: 0; stroke: #bf00bf; stroke-width: 1.5"/>
    </g>
   </g>
   <g id="line2d_116">
    <path clip-path="url(#p5c1ec8494f)" style="fill: none; stroke: #bf00bf; stroke-width: 1.5; stroke-linecap: square"/>
   </g>
   <g id="line2d_117">
    <path d="M 436.805474 293.76 
L 436.805474 269.807525 
L 436.805474 269.807525 
L 436.805474 269.807525 
L 460.8 269.807525 
" clip-path="url(#p5c1ec8494f)" style="fill: none; stroke: #ff0000; stroke-width: 3; stroke-linecap: square"/>
   </g>
   <g id="line2d_118">
    <defs>
     <path id="mbc48550e44" d="M -0 14.142136 
L 8.485281 0 
L -0 -14.142136 
L -8.485281 -0 
z
" style="stroke: #ff0000; stroke-width: 3; stroke-linejoin: miter"/>
    </defs>
    <g clip-path="url(#p5c1ec8494f)">
     <use xlink:href="#mbc48550e44" x="436.805474" y="293.76" style="fill-opacity: 0; stroke: #ff0000; stroke-width: 3; stroke-linejoin: miter"/>
     <use xlink:href="#mbc48550e44" x="436.805474" y="293.76" style="fill-opacity: 0; stroke: #ff0000; stroke-width: 3; stroke-linejoin: miter"/>
     <use xlink:href="#mbc48550e44" x="436.805474" y="269.807525" style="fill-opacity: 0; stroke: #ff0000; stroke-width: 3; stroke-linejoin: miter"/>
    </g>
   </g>
   <g id="line2d_119">
    <path clip-path="url(#p5c1ec8494f)" style="fill: none; stroke: #ff0000; stroke-width: 3; stroke-linecap: square"/>
    <g clip-path="url(#p5c1ec8494f)">
     <use xlink:href="#mbc48550e44" x="-1" y="581.189703" style="fill-opacity: 0; stroke: #ff0000; stroke-width: 3; stroke-linejoin: miter"/>
     <use xlink:href="#mbc48550e44" x="460.8" y="581.189703" style="fill-opacity: 0; stroke: #ff0000; stroke-width: 3; stroke-linejoin: miter"/>
    </g>
   </g>
   <g id="line2d_120"/>
   <g id="line2d_121">
    <path d="M 441.819429 293.76 
L 441.819429 3.456 
" clip-path="url(#p5c1ec8494f)" style="fill: none; stroke: #000000; stroke-width: 1.5; stroke-linecap: square"/>
    <defs>
     <path id="mbd1d1e69c0" d="M -10 0 
L 10 0 
M 0 10 
L 0 -10 
" style="stroke: #000000; stroke-width: 3"/>
    </defs>
    <g clip-path="url(#p5c1ec8494f)">
     <use xlink:href="#mbd1d1e69c0" x="441.819429" y="293.76" style="stroke: #000000; stroke-width: 3"/>
     <use xlink:href="#mbd1d1e69c0" x="441.819429" y="3.456" style="stroke: #000000; stroke-width: 3"/>
    </g>
   </g>
   <g id="line2d_122">
    <path d="M 441.819429 293.76 
L 441.819429 3.456 
" clip-path="url(#p5c1ec8494f)" style="fill: none; stroke: #000000; stroke-width: 1.5; stroke-linecap: square"/>
    <defs>
     <path id="md6fb7ed3f1" d="M 0 7.5 
C 1.989023 7.5 3.896849 6.709753 5.303301 5.303301 
C 6.709753 3.896849 7.5 1.989023 7.5 0 
C 7.5 -1.989023 6.709753 -3.896849 5.303301 -5.303301 
C 3.896849 -6.709753 1.989023 -7.5 0 -7.5 
C -1.989023 -7.5 -3.896849 -6.709753 -5.303301 -5.303301 
C -6.709753 -3.896849 -7.5 -1.989023 -7.5 0 
C -7.5 1.989023 -6.709753 3.896849 -5.303301 5.303301 
C -3.896849 6.709753 -1.989023 7.5 0 7.5 
z
" style="stroke: #000000; stroke-width: 3"/>
    </defs>
    <g clip-path="url(#p5c1ec8494f)">
     <use xlink:href="#md6fb7ed3f1" x="441.819429" y="293.76" style="fill-opacity: 0; stroke: #000000; stroke-width: 3"/>
     <use xlink:href="#md6fb7ed3f1" x="441.819429" y="3.456" style="fill-opacity: 0; stroke: #000000; stroke-width: 3"/>
    </g>
   </g>
   <g id="patch_3">
    <path d="M 62.208 293.76 
L 62.208 3.456 
" style="fill: none; stroke: #000000; stroke-width: 0.8; stroke-linejoin: miter; stroke-linecap: square"/>
   </g>
   <g id="patch_4">
    <path d="M 460.8 293.76 
L 460.8 3.456 
" style="fill: none; stroke: #000000; stroke-width: 0.8; stroke-linejoin: miter; stroke-linecap: square"/>
   </g>
   <g id="patch_5">
    <path d="M 62.208 293.76 
L 460.8 293.76 
" style="fill: none; stroke: #000000; stroke-width: 0.8; stroke-linejoin: miter; stroke-linecap: square"/>
   </g>
   <g id="patch_6">
    <path d="M 62.208 3.456 
L 460.8 3.456 
" style="fill: none; stroke: #000000; stroke-width: 0.8; stroke-linejoin: miter; stroke-linecap: square"/>
   </g>
   <g id="text_13">
    <!-- f6-f9 -->
    <g transform="translate(238.130563 24.458955) scale(0.2 -0.2)">
     <defs>
      <path id="DejaVuSans-2d" d="M 313 2009 
L 1997 2009 
L 1997 1497 
L 313 1497 
L 313 2009 
z
" transform="scale(0.015625)"/>
      <path id="DejaVuSans-39" d="M 703 97 
L 703 672 
Q 941 559 1184 500 
Q 1428 441 1663 441 
Q 2288 441 2617 861 
Q 2947 1281 2994 2138 
Q 2813 1869 2534 1725 
Q 2256 1581 1919 1581 
Q 1219 1581 811 2004 
Q 403 2428 403 3163 
Q 403 3881 828 4315 
Q 1253 4750 1959 4750 
Q 2769 4750 3195 4129 
Q 3622 3509 3622 2328 
Q 3622 1225 3098 567 
Q 2575 -91 1691 -91 
Q 1453 -91 1209 -44 
Q 966 3 703 97 
z
M 1959 2075 
Q 2384 2075 2632 2365 
Q 2881 2656 2881 3163 
Q 2881 3666 2632 3958 
Q 2384 4250 1959 4250 
Q 1534 4250 1286 3958 
Q 1038 3666 1038 3163 
Q 1038 2656 1286 2365 
Q 1534 2075 1959 2075 
z
" transform="scale(0.015625)"/>
     </defs>
     <use xlink:href="#DejaVuSans-66"/>
     <use xlink:href="#DejaVuSans-36" transform="translate(35.205078 0)"/>
     <use xlink:href="#DejaVuSans-2d" transform="translate(98.828125 0)"/>
     <use xlink:href="#DejaVuSans-66" transform="translate(134.912109 0)"/>
     <use xlink:href="#DejaVuSans-39" transform="translate(170.117188 0)"/>
    </g>
   </g>
   <g id="text_14">
    <!-- absolute targets -->
    <g transform="translate(62.208 609.932673) scale(0.14 -0.14)">
     <defs>
      <path id="DejaVuSans-62" d="M 3116 1747 
Q 3116 2381 2855 2742 
Q 2594 3103 2138 3103 
Q 1681 3103 1420 2742 
Q 1159 2381 1159 1747 
Q 1159 1113 1420 752 
Q 1681 391 2138 391 
Q 2594 391 2855 752 
Q 3116 1113 3116 1747 
z
M 1159 2969 
Q 1341 3281 1617 3432 
Q 1894 3584 2278 3584 
Q 2916 3584 3314 3078 
Q 3713 2572 3713 1747 
Q 3713 922 3314 415 
Q 2916 -91 2278 -91 
Q 1894 -91 1617 61 
Q 1341 213 1159 525 
L 1159 0 
L 581 0 
L 581 4863 
L 1159 4863 
L 1159 2969 
z
" transform="scale(0.015625)"/>
      <path id="DejaVuSans-75" d="M 544 1381 
L 544 3500 
L 1119 3500 
L 1119 1403 
Q 1119 906 1312 657 
Q 1506 409 1894 409 
Q 2359 409 2629 706 
Q 2900 1003 2900 1516 
L 2900 3500 
L 3475 3500 
L 3475 0 
L 2900 0 
L 2900 538 
Q 2691 219 2414 64 
Q 2138 -91 1772 -91 
Q 1169 -91 856 284 
Q 544 659 544 1381 
z
M 1991 3584 
L 1991 3584 
z
" transform="scale(0.015625)"/>
      <path id="DejaVuSans-65" d="M 3597 1894 
L 3597 1613 
L 953 1613 
Q 991 1019 1311 708 
Q 1631 397 2203 397 
Q 2534 397 2845 478 
Q 3156 559 3463 722 
L 3463 178 
Q 3153 47 2828 -22 
Q 2503 -91 2169 -91 
Q 1331 -91 842 396 
Q 353 884 353 1716 
Q 353 2575 817 3079 
Q 1281 3584 2069 3584 
Q 2775 3584 3186 3129 
Q 3597 2675 3597 1894 
z
M 3022 2063 
Q 3016 2534 2758 2815 
Q 2500 3097 2075 3097 
Q 1594 3097 1305 2825 
Q 1016 2553 972 2059 
L 3022 2063 
z
" transform="scale(0.015625)"/>
     </defs>
     <use xlink:href="#DejaVuSans-61"/>
     <use xlink:href="#DejaVuSans-62" transform="translate(61.279297 0)"/>
     <use xlink:href="#DejaVuSans-73" transform="translate(124.755859 0)"/>
     <use xlink:href="#DejaVuSans-6f" transform="translate(176.855469 0)"/>
     <use xlink:href="#DejaVuSans-6c" transform="translate(238.037109 0)"/>
     <use xlink:href="#DejaVuSans-75" transform="translate(265.820312 0)"/>
     <use xlink:href="#DejaVuSans-74" transform="translate(329.199219 0)"/>
     <use xlink:href="#DejaVuSans-65" transform="translate(368.408203 0)"/>
     <use xlink:href="#DejaVuSans-20" transform="translate(429.931641 0)"/>
     <use xlink:href="#DejaVuSans-74" transform="translate(461.71875 0)"/>
     <use xlink:href="#DejaVuSans-61" transform="translate(500.927734 0)"/>
     <use xlink:href="#DejaVuSans-72" transform="translate(562.207031 0)"/>
     <use xlink:href="#DejaVuSans-67" transform="translate(601.570312 0)"/>
     <use xlink:href="#DejaVuSans-65" transform="translate(665.046875 0)"/>
     <use xlink:href="#DejaVuSans-74" transform="translate(726.570312 0)"/>
     <use xlink:href="#DejaVuSans-73" transform="translate(765.779297 0)"/>
    </g>
   </g>
   <g id="text_15">
    <!-- v2.8.2 -->
    <g style="fill: #808080" transform="translate(248.959 289.19321) scale(0.08 -0.08)">
     <use xlink:href="#DejaVuSans-76"/>
     <use xlink:href="#DejaVuSans-32" transform="translate(59.179688 0)"/>
     <use xlink:href="#DejaVuSans-2e" transform="translate(122.802734 0)"/>
     <use xlink:href="#DejaVuSans-38" transform="translate(154.589844 0)"/>
     <use xlink:href="#DejaVuSans-2e" transform="translate(218.212891 0)"/>
     <use xlink:href="#DejaVuSans-32" transform="translate(250 0)"/>
    </g>
   </g>
   <g id="legend_1">
    <g id="patch_7">
     <path d="M 76.208 136.881 
L 160.148625 136.881 
Q 164.148625 136.881 164.148625 132.881 
L 164.148625 17.456 
Q 164.148625 13.456 160.148625 13.456 
L 76.208 13.456 
Q 72.208 13.456 72.208 17.456 
L 72.208 132.881 
Q 72.208 136.881 76.208 136.881 
z
" style="fill: #ffffff; opacity: 0.2; stroke: #cccccc; stroke-linejoin: miter"/>
    </g>
    <g id="line2d_123">
     <path d="M 80.208 29.652875 
L 80.208 29.652875 
L 100.208 29.652875 
L 100.208 29.652875 
L 120.208 29.652875 
" style="fill: none; stroke: #000000; stroke-width: 1.5; stroke-linecap: square"/>
    </g>
    <g id="text_16">
     <!-- 1 -->
     <g transform="translate(136.208 36.652875) scale(0.2 -0.2)">
      <use xlink:href="#DejaVuSans-31"/>
     </g>
    </g>
    <g id="line2d_124">
     <path d="M 80.208 59.009125 
L 80.208 59.009125 
L 100.208 59.009125 
L 100.208 59.009125 
L 120.208 59.009125 
" style="fill: none; stroke: #00bfbf; stroke-width: 1.5; stroke-linecap: square"/>
    </g>
    <g id="text_17">
     <!-- -1 -->
     <g transform="translate(136.208 66.009125) scale(0.2 -0.2)">
      <use xlink:href="#DejaVuSans-2d"/>
      <use xlink:href="#DejaVuSans-31" transform="translate(36.083984 0)"/>
     </g>
    </g>
    <g id="line2d_125">
     <path d="M 80.208 88.365375 
L 80.208 88.365375 
L 100.208 88.365375 
L 100.208 88.365375 
L 120.208 88.365375 
" style="fill: none; stroke: #bf00bf; stroke-width: 1.5; stroke-linecap: square"/>
    </g>
    <g id="text_18">
     <!-- -4 -->
     <g transform="translate(136.208 95.365375) scale(0.2 -0.2)">
      <use xlink:href="#DejaVuSans-2d"/>
      <use xlink:href="#DejaVuSans-34" transform="translate(36.083984 0)"/>
     </g>
    </g>
    <g id="line2d_126">
     <path d="M 80.208 117.721625 
L 100.208 117.721625 
L 120.208 117.721625 
" style="fill: none; stroke: #ff0000; stroke-width: 3; stroke-linecap: square"/>
    </g>
    <g id="text_19">
     <!-- -8 -->
     <g transform="translate(136.208 124.721625) scale(0.2 -0.2)">
      <use xlink:href="#DejaVuSans-2d"/>
      <use xlink:href="#DejaVuSans-38" transform="translate(36.083984 0)"/>
     </g>
    </g>
   </g>
  </g>
 </g>
 <defs>
  <clipPath id="p5c1ec8494f">
   <rect x="62.208" y="3.456" width="398.592" height="290.304"/>
  </clipPath>
 </defs>
</svg>
