<?xml version="1.0" encoding="utf-8" standalone="no"?>
<!DOCTYPE svg PUBLIC "-//W3C//DTD SVG 1.1//EN"
  "http://www.w3.org/Graphics/SVG/1.1/DTD/svg11.dtd">
<svg xmlns:xlink="http://www.w3.org/1999/xlink" width="460.8pt" height="345.6pt" viewBox="0 0 460.8 345.6" xmlns="http://www.w3.org/2000/svg" version="1.1">
 <metadata>
  <rdf:RDF xmlns:dc="http://purl.org/dc/elements/1.1/" xmlns:cc="http://creativecommons.org/ns#" xmlns:rdf="http://www.w3.org/1999/02/22-rdf-syntax-ns#">
   <cc:Work>
    <dc:type rdf:resource="http://purl.org/dc/dcmitype/StillImage"/>
    <dc:date>2025-12-16T07:51:34.788701</dc:date>
    <dc:format>image/svg+xml</dc:format>
    <dc:creator>
     <cc:Agent>
      <dc:title>Matplotlib v3.10.0, https://matplotlib.org/</dc:title>
     </cc:Agent>
    </dc:creator>
   </cc:Work>
  </rdf:RDF>
 </metadata>
 <defs>
  <style type="text/css">*{stroke-linejoin: round; stroke-linecap: butt}</style>
 </defs>
 <g id="figure_1">
  <g id="patch_1">
   <path d="M 0 345.6 
L 460.8 345.6 
L 460.8 0 
L 0 0 
z
" style="fill: #ffffff"/>
  </g>
  <g id="axes_1">
   <g id="patch_2">
    <path d="M 34.16 291.28 
L 453.192 291.28 
L 453.192 3 
L 34.16 3 
z
" style="fill: #ffffff"/>
   </g>
   <g id="matplotlib.axis_1">
    <g id="xtick_1">
     <g id="line2d_1">
      <path d="M 112.05021 291.28 
L 112.05021 3 
" clip-path="url(#p0c25df8620)" style="fill: none; stroke: #b0b0b0; stroke-width: 0.8; stroke-linecap: square"/>
     </g>
     <g id="line2d_2">
      <defs>
       <path id="md6323fbc3a" d="M 0 0 
L 0 3.5 
" style="stroke: #000000; stroke-width: 0.8"/>
      </defs>
      <g>
       <use xlink:href="#md6323fbc3a" x="112.05021" y="291.28" style="stroke: #000000; stroke-width: 0.8"/>
      </g>
     </g>
     <g id="text_1">
      <!-- -1 -->
      <g transform="translate(102.079898 313.476875) scale(0.2 -0.2)">
       <defs>
        <path id="DejaVuSans-2d" d="M 313 2009 
L 1997 2009 
L 1997 1497 
L 313 1497 
L 313 2009 
z
" transform="scale(0.015625)"/>
        <path id="DejaVuSans-31" d="M 794 531 
L 1825 531 
L 1825 4091 
L 703 3866 
L 703 4441 
L 1819 4666 
L 2450 4666 
L 2450 531 
L 3481 531 
L 3481 0 
L 794 0 
L 794 531 
z
" transform="scale(0.015625)"/>
       </defs>
       <use xlink:href="#DejaVuSans-2d"/>
       <use xlink:href="#DejaVuSans-31" transform="translate(36.083984 0)"/>
      </g>
     </g>
    </g>
    <g id="xtick_2">
     <g id="line2d_3">
      <path d="M 243.676 291.28 
L 243.676 3 
" clip-path="url(#p0c25df8620)" style="fill: none; stroke: #b0b0b0; stroke-width: 0.8; stroke-linecap: square"/>
     </g>
     <g id="line2d_4">
      <g>
       <use xlink:href="#md6323fbc3a" x="243.676" y="291.28" style="stroke: #000000; stroke-width: 0.8"/>
      </g>
     </g>
     <g id="text_2">
      <!-- 0 -->
      <g transform="translate(237.3135 313.476875) scale(0.2 -0.2)">
       <defs>
        <path id="DejaVuSans-30" d="M 2034 4250 
Q 1547 4250 1301 3770 
Q 1056 3291 1056 2328 
Q 1056 1369 1301 889 
Q 1547 409 2034 409 
Q 2525 409 2770 889 
Q 3016 1369 3016 2328 
Q 3016 3291 2770 3770 
Q 2525 4250 2034 4250 
z
M 2034 4750 
Q 2819 4750 3233 4129 
Q 3647 3509 3647 2328 
Q 3647 1150 3233 529 
Q 2819 -91 2034 -91 
Q 1250 -91 836 529 
Q 422 1150 422 2328 
Q 422 3509 836 4129 
Q 1250 4750 2034 4750 
z
" transform="scale(0.015625)"/>
       </defs>
       <use xlink:href="#DejaVuSans-30"/>
      </g>
     </g>
    </g>
    <g id="xtick_3">
     <g id="line2d_5">
      <path d="M 375.30179 291.28 
L 375.30179 3 
" clip-path="url(#p0c25df8620)" style="fill: none; stroke: #b0b0b0; stroke-width: 0.8; stroke-linecap: square"/>
     </g>
     <g id="line2d_6">
      <g>
       <use xlink:href="#md6323fbc3a" x="375.30179" y="291.28" style="stroke: #000000; stroke-width: 0.8"/>
      </g>
     </g>
     <g id="text_3">
      <!-- 1 -->
      <g transform="translate(368.93929 313.476875) scale(0.2 -0.2)">
       <use xlink:href="#DejaVuSans-31"/>
      </g>
     </g>
    </g>
    <g id="xtick_4">
     <g id="line2d_7">
      <defs>
       <path id="mbdbda372e0" d="M 0 0 
L 0 2 
" style="stroke: #000000; stroke-width: 0.6"/>
      </defs>
      <g>
       <use xlink:href="#mbdbda372e0" x="43.225883" y="291.28" style="stroke: #000000; stroke-width: 0.6"/>
      </g>
     </g>
    </g>
    <g id="xtick_5">
     <g id="line2d_8">
      <g>
       <use xlink:href="#mbdbda372e0" x="59.671042" y="291.28" style="stroke: #000000; stroke-width: 0.6"/>
      </g>
     </g>
    </g>
    <g id="xtick_6">
     <g id="line2d_9">
      <g>
       <use xlink:href="#mbdbda372e0" x="72.426899" y="291.28" style="stroke: #000000; stroke-width: 0.6"/>
      </g>
     </g>
    </g>
    <g id="xtick_7">
     <g id="line2d_10">
      <g>
       <use xlink:href="#mbdbda372e0" x="82.849193" y="291.28" style="stroke: #000000; stroke-width: 0.6"/>
      </g>
     </g>
    </g>
    <g id="xtick_8">
     <g id="line2d_11">
      <g>
       <use xlink:href="#mbdbda372e0" x="91.661118" y="291.28" style="stroke: #000000; stroke-width: 0.6"/>
      </g>
     </g>
    </g>
    <g id="xtick_9">
     <g id="line2d_12">
      <g>
       <use xlink:href="#mbdbda372e0" x="99.294353" y="291.28" style="stroke: #000000; stroke-width: 0.6"/>
      </g>
     </g>
    </g>
    <g id="xtick_10">
     <g id="line2d_13">
      <g>
       <use xlink:href="#mbdbda372e0" x="106.027345" y="291.28" style="stroke: #000000; stroke-width: 0.6"/>
      </g>
     </g>
    </g>
    <g id="xtick_11">
     <g id="line2d_14">
      <g>
       <use xlink:href="#mbdbda372e0" x="151.673521" y="291.28" style="stroke: #000000; stroke-width: 0.6"/>
      </g>
     </g>
    </g>
    <g id="xtick_12">
     <g id="line2d_15">
      <g>
       <use xlink:href="#mbdbda372e0" x="174.851672" y="291.28" style="stroke: #000000; stroke-width: 0.6"/>
      </g>
     </g>
    </g>
    <g id="xtick_13">
     <g id="line2d_16">
      <g>
       <use xlink:href="#mbdbda372e0" x="191.296832" y="291.28" style="stroke: #000000; stroke-width: 0.6"/>
      </g>
     </g>
    </g>
    <g id="xtick_14">
     <g id="line2d_17">
      <g>
       <use xlink:href="#mbdbda372e0" x="204.052689" y="291.28" style="stroke: #000000; stroke-width: 0.6"/>
      </g>
     </g>
    </g>
    <g id="xtick_15">
     <g id="line2d_18">
      <g>
       <use xlink:href="#mbdbda372e0" x="214.474983" y="291.28" style="stroke: #000000; stroke-width: 0.6"/>
      </g>
     </g>
    </g>
    <g id="xtick_16">
     <g id="line2d_19">
      <g>
       <use xlink:href="#mbdbda372e0" x="223.286907" y="291.28" style="stroke: #000000; stroke-width: 0.6"/>
      </g>
     </g>
    </g>
    <g id="xtick_17">
     <g id="line2d_20">
      <g>
       <use xlink:href="#mbdbda372e0" x="230.920143" y="291.28" style="stroke: #000000; stroke-width: 0.6"/>
      </g>
     </g>
    </g>
    <g id="xtick_18">
     <g id="line2d_21">
      <g>
       <use xlink:href="#mbdbda372e0" x="237.653134" y="291.28" style="stroke: #000000; stroke-width: 0.6"/>
      </g>
     </g>
    </g>
    <g id="xtick_19">
     <g id="line2d_22">
      <g>
       <use xlink:href="#mbdbda372e0" x="283.299311" y="291.28" style="stroke: #000000; stroke-width: 0.6"/>
      </g>
     </g>
    </g>
    <g id="xtick_20">
     <g id="line2d_23">
      <g>
       <use xlink:href="#mbdbda372e0" x="306.477462" y="291.28" style="stroke: #000000; stroke-width: 0.6"/>
      </g>
     </g>
    </g>
    <g id="xtick_21">
     <g id="line2d_24">
      <g>
       <use xlink:href="#mbdbda372e0" x="322.922622" y="291.28" style="stroke: #000000; stroke-width: 0.6"/>
      </g>
     </g>
    </g>
    <g id="xtick_22">
     <g id="line2d_25">
      <g>
       <use xlink:href="#mbdbda372e0" x="335.678479" y="291.28" style="stroke: #000000; stroke-width: 0.6"/>
      </g>
     </g>
    </g>
    <g id="xtick_23">
     <g id="line2d_26">
      <g>
       <use xlink:href="#mbdbda372e0" x="346.100773" y="291.28" style="stroke: #000000; stroke-width: 0.6"/>
      </g>
     </g>
    </g>
    <g id="xtick_24">
     <g id="line2d_27">
      <g>
       <use xlink:href="#mbdbda372e0" x="354.912697" y="291.28" style="stroke: #000000; stroke-width: 0.6"/>
      </g>
     </g>
    </g>
    <g id="xtick_25">
     <g id="line2d_28">
      <g>
       <use xlink:href="#mbdbda372e0" x="362.545933" y="291.28" style="stroke: #000000; stroke-width: 0.6"/>
      </g>
     </g>
    </g>
    <g id="xtick_26">
     <g id="line2d_29">
      <g>
       <use xlink:href="#mbdbda372e0" x="369.278924" y="291.28" style="stroke: #000000; stroke-width: 0.6"/>
      </g>
     </g>
    </g>
    <g id="xtick_27">
     <g id="line2d_30">
      <g>
       <use xlink:href="#mbdbda372e0" x="414.925101" y="291.28" style="stroke: #000000; stroke-width: 0.6"/>
      </g>
     </g>
    </g>
    <g id="xtick_28">
     <g id="line2d_31">
      <g>
       <use xlink:href="#mbdbda372e0" x="438.103252" y="291.28" style="stroke: #000000; stroke-width: 0.6"/>
      </g>
     </g>
    </g>
    <g id="text_4">
     <!-- log10 of FEvals ratio -->
     <g transform="translate(141.371312 336.833125) scale(0.2 -0.2)">
      <defs>
       <path id="DejaVuSans-6c" d="M 603 4863 
L 1178 4863 
L 1178 0 
L 603 0 
L 603 4863 
z
" transform="scale(0.015625)"/>
       <path id="DejaVuSans-6f" d="M 1959 3097 
Q 1497 3097 1228 2736 
Q 959 2375 959 1747 
Q 959 1119 1226 758 
Q 1494 397 1959 397 
Q 2419 397 2687 759 
Q 2956 1122 2956 1747 
Q 2956 2369 2687 2733 
Q 2419 3097 1959 3097 
z
M 1959 3584 
Q 2709 3584 3137 3096 
Q 3566 2609 3566 1747 
Q 3566 888 3137 398 
Q 2709 -91 1959 -91 
Q 1206 -91 779 398 
Q 353 888 353 1747 
Q 353 2609 779 3096 
Q 1206 3584 1959 3584 
z
" transform="scale(0.015625)"/>
       <path id="DejaVuSans-67" d="M 2906 1791 
Q 2906 2416 2648 2759 
Q 2391 3103 1925 3103 
Q 1463 3103 1205 2759 
Q 947 2416 947 1791 
Q 947 1169 1205 825 
Q 1463 481 1925 481 
Q 2391 481 2648 825 
Q 2906 1169 2906 1791 
z
M 3481 434 
Q 3481 -459 3084 -895 
Q 2688 -1331 1869 -1331 
Q 1566 -1331 1297 -1286 
Q 1028 -1241 775 -1147 
L 775 -588 
Q 1028 -725 1275 -790 
Q 1522 -856 1778 -856 
Q 2344 -856 2625 -561 
Q 2906 -266 2906 331 
L 2906 616 
Q 2728 306 2450 153 
Q 2172 0 1784 0 
Q 1141 0 747 490 
Q 353 981 353 1791 
Q 353 2603 747 3093 
Q 1141 3584 1784 3584 
Q 2172 3584 2450 3431 
Q 2728 3278 2906 2969 
L 2906 3500 
L 3481 3500 
L 3481 434 
z
" transform="scale(0.015625)"/>
       <path id="DejaVuSans-20" transform="scale(0.015625)"/>
       <path id="DejaVuSans-66" d="M 2375 4863 
L 2375 4384 
L 1825 4384 
Q 1516 4384 1395 4259 
Q 1275 4134 1275 3809 
L 1275 3500 
L 2222 3500 
L 2222 3053 
L 1275 3053 
L 1275 0 
L 697 0 
L 697 3053 
L 147 3053 
L 147 3500 
L 697 3500 
L 697 3744 
Q 697 4328 969 4595 
Q 1241 4863 1831 4863 
L 2375 4863 
z
" transform="scale(0.015625)"/>
       <path id="DejaVuSans-46" d="M 628 4666 
L 3309 4666 
L 3309 4134 
L 1259 4134 
L 1259 2759 
L 3109 2759 
L 3109 2228 
L 1259 2228 
L 1259 0 
L 628 0 
L 628 4666 
z
" transform="scale(0.015625)"/>
       <path id="DejaVuSans-45" d="M 628 4666 
L 3578 4666 
L 3578 4134 
L 1259 4134 
L 1259 2753 
L 3481 2753 
L 3481 2222 
L 1259 2222 
L 1259 531 
L 3634 531 
L 3634 0 
L 628 0 
L 628 4666 
z
" transform="scale(0.015625)"/>
       <path id="DejaVuSans-76" d="M 191 3500 
L 800 3500 
L 1894 563 
L 2988 3500 
L 3597 3500 
L 2284 0 
L 1503 0 
L 191 3500 
z
" transform="scale(0.015625)"/>
       <path id="DejaVuSans-61" d="M 2194 1759 
Q 1497 1759 1228 1600 
Q 959 1441 959 1056 
Q 959 750 1161 570 
Q 1363 391 1709 391 
Q 2188 391 2477 730 
Q 2766 1069 2766 1631 
L 2766 1759 
L 2194 1759 
z
M 3341 1997 
L 3341 0 
L 2766 0 
L 2766 531 
Q 2569 213 2275 61 
Q 1981 -91 1556 -91 
Q 1019 -91 701 211 
Q 384 513 384 1019 
Q 384 1609 779 1909 
Q 1175 2209 1959 2209 
L 2766 2209 
L 2766 2266 
Q 2766 2663 2505 2880 
Q 2244 3097 1772 3097 
Q 1472 3097 1187 3025 
Q 903 2953 641 2809 
L 641 3341 
Q 956 3463 1253 3523 
Q 1550 3584 1831 3584 
Q 2591 3584 2966 3190 
Q 3341 2797 3341 1997 
z
" transform="scale(0.015625)"/>
       <path id="DejaVuSans-73" d="M 2834 3397 
L 2834 2853 
Q 2591 2978 2328 3040 
Q 2066 3103 1784 3103 
Q 1356 3103 1142 2972 
Q 928 2841 928 2578 
Q 928 2378 1081 2264 
Q 1234 2150 1697 2047 
L 1894 2003 
Q 2506 1872 2764 1633 
Q 3022 1394 3022 966 
Q 3022 478 2636 193 
Q 2250 -91 1575 -91 
Q 1294 -91 989 -36 
Q 684 19 347 128 
L 347 722 
Q 666 556 975 473 
Q 1284 391 1588 391 
Q 1994 391 2212 530 
Q 2431 669 2431 922 
Q 2431 1156 2273 1281 
Q 2116 1406 1581 1522 
L 1381 1569 
Q 847 1681 609 1914 
Q 372 2147 372 2553 
Q 372 3047 722 3315 
Q 1072 3584 1716 3584 
Q 2034 3584 2315 3537 
Q 2597 3491 2834 3397 
z
" transform="scale(0.015625)"/>
       <path id="DejaVuSans-72" d="M 2631 2963 
Q 2534 3019 2420 3045 
Q 2306 3072 2169 3072 
Q 1681 3072 1420 2755 
Q 1159 2438 1159 1844 
L 1159 0 
L 581 0 
L 581 3500 
L 1159 3500 
L 1159 2956 
Q 1341 3275 1631 3429 
Q 1922 3584 2338 3584 
Q 2397 3584 2469 3576 
Q 2541 3569 2628 3553 
L 2631 2963 
z
" transform="scale(0.015625)"/>
       <path id="DejaVuSans-74" d="M 1172 4494 
L 1172 3500 
L 2356 3500 
L 2356 3053 
L 1172 3053 
L 1172 1153 
Q 1172 725 1289 603 
Q 1406 481 1766 481 
L 2356 481 
L 2356 0 
L 1766 0 
Q 1100 0 847 248 
Q 594 497 594 1153 
L 594 3053 
L 172 3053 
L 172 3500 
L 594 3500 
L 594 4494 
L 1172 4494 
z
" transform="scale(0.015625)"/>
       <path id="DejaVuSans-69" d="M 603 3500 
L 1178 3500 
L 1178 0 
L 603 0 
L 603 3500 
z
M 603 4863 
L 1178 4863 
L 1178 4134 
L 603 4134 
L 603 4863 
z
" transform="scale(0.015625)"/>
      </defs>
      <use xlink:href="#DejaVuSans-6c"/>
      <use xlink:href="#DejaVuSans-6f" transform="translate(27.783203 0)"/>
      <use xlink:href="#DejaVuSans-67" transform="translate(88.964844 0)"/>
      <use xlink:href="#DejaVuSans-31" transform="translate(152.441406 0)"/>
      <use xlink:href="#DejaVuSans-30" transform="translate(216.064453 0)"/>
      <use xlink:href="#DejaVuSans-20" transform="translate(279.6875 0)"/>
      <use xlink:href="#DejaVuSans-6f" transform="translate(311.474609 0)"/>
      <use xlink:href="#DejaVuSans-66" transform="translate(372.65625 0)"/>
      <use xlink:href="#DejaVuSans-20" transform="translate(407.861328 0)"/>
      <use xlink:href="#DejaVuSans-46" transform="translate(439.648438 0)"/>
      <use xlink:href="#DejaVuSans-45" transform="translate(497.167969 0)"/>
      <use xlink:href="#DejaVuSans-76" transform="translate(560.351562 0)"/>
      <use xlink:href="#DejaVuSans-61" transform="translate(619.53125 0)"/>
      <use xlink:href="#DejaVuSans-6c" transform="translate(680.810547 0)"/>
      <use xlink:href="#DejaVuSans-73" transform="translate(708.59375 0)"/>
      <use xlink:href="#DejaVuSans-20" transform="translate(760.693359 0)"/>
      <use xlink:href="#DejaVuSans-72" transform="translate(792.480469 0)"/>
      <use xlink:href="#DejaVuSans-61" transform="translate(833.59375 0)"/>
      <use xlink:href="#DejaVuSans-74" transform="translate(894.873047 0)"/>
      <use xlink:href="#DejaVuSans-69" transform="translate(934.082031 0)"/>
      <use xlink:href="#DejaVuSans-6f" transform="translate(961.865234 0)"/>
     </g>
    </g>
   </g>
   <g id="matplotlib.axis_2">
    <g id="ytick_1">
     <g id="line2d_32">
      <path d="M 34.16 288.453725 
L 453.192 288.453725 
" clip-path="url(#p0c25df8620)" style="fill: none; stroke: #b0b0b0; stroke-width: 0.8; stroke-linecap: square"/>
     </g>
     <g id="line2d_33">
      <defs>
       <path id="mae50184331" d="M 0 0 
L -3.5 0 
" style="stroke: #000000; stroke-width: 0.8"/>
      </defs>
      <g>
       <use xlink:href="#mae50184331" x="34.16" y="288.453725" style="stroke: #000000; stroke-width: 0.8"/>
      </g>
     </g>
    </g>
    <g id="ytick_2">
     <g id="line2d_34">
      <path d="M 34.16 217.796863 
L 453.192 217.796863 
" clip-path="url(#p0c25df8620)" style="fill: none; stroke: #b0b0b0; stroke-width: 0.8; stroke-linecap: square"/>
     </g>
     <g id="line2d_35">
      <g>
       <use xlink:href="#mae50184331" x="34.16" y="217.796863" style="stroke: #000000; stroke-width: 0.8"/>
      </g>
     </g>
    </g>
    <g id="ytick_3">
     <g id="line2d_36">
      <path d="M 34.16 147.14 
L 453.192 147.14 
" clip-path="url(#p0c25df8620)" style="fill: none; stroke: #b0b0b0; stroke-width: 0.8; stroke-linecap: square"/>
     </g>
     <g id="line2d_37">
      <g>
       <use xlink:href="#mae50184331" x="34.16" y="147.14" style="stroke: #000000; stroke-width: 0.8"/>
      </g>
     </g>
    </g>
    <g id="ytick_4">
     <g id="line2d_38">
      <path d="M 34.16 76.483137 
L 453.192 76.483137 
" clip-path="url(#p0c25df8620)" style="fill: none; stroke: #b0b0b0; stroke-width: 0.8; stroke-linecap: square"/>
     </g>
     <g id="line2d_39">
      <g>
       <use xlink:href="#mae50184331" x="34.16" y="76.483137" style="stroke: #000000; stroke-width: 0.8"/>
      </g>
     </g>
    </g>
    <g id="ytick_5">
     <g id="line2d_40">
      <path d="M 34.16 5.826275 
L 453.192 5.826275 
" clip-path="url(#p0c25df8620)" style="fill: none; stroke: #b0b0b0; stroke-width: 0.8; stroke-linecap: square"/>
     </g>
     <g id="line2d_41">
      <g>
       <use xlink:href="#mae50184331" x="34.16" y="5.826275" style="stroke: #000000; stroke-width: 0.8"/>
      </g>
     </g>
    </g>
    <g id="text_5">
     <!-- proportion of trials -->
     <g transform="translate(19.000625 240.14625) rotate(-90) scale(0.2 -0.2)">
      <defs>
       <path id="DejaVuSans-70" d="M 1159 525 
L 1159 -1331 
L 581 -1331 
L 581 3500 
L 1159 3500 
L 1159 2969 
Q 1341 3281 1617 3432 
Q 1894 3584 2278 3584 
Q 2916 3584 3314 3078 
Q 3713 2572 3713 1747 
Q 3713 922 3314 415 
Q 2916 -91 2278 -91 
Q 1894 -91 1617 61 
Q 1341 213 1159 525 
z
M 3116 1747 
Q 3116 2381 2855 2742 
Q 2594 3103 2138 3103 
Q 1681 3103 1420 2742 
Q 1159 2381 1159 1747 
Q 1159 1113 1420 752 
Q 1681 391 2138 391 
Q 2594 391 2855 752 
Q 3116 1113 3116 1747 
z
" transform="scale(0.015625)"/>
       <path id="DejaVuSans-6e" d="M 3513 2113 
L 3513 0 
L 2938 0 
L 2938 2094 
Q 2938 2591 2744 2837 
Q 2550 3084 2163 3084 
Q 1697 3084 1428 2787 
Q 1159 2491 1159 1978 
L 1159 0 
L 581 0 
L 581 3500 
L 1159 3500 
L 1159 2956 
Q 1366 3272 1645 3428 
Q 1925 3584 2291 3584 
Q 2894 3584 3203 3211 
Q 3513 2838 3513 2113 
z
" transform="scale(0.015625)"/>
      </defs>
      <use xlink:href="#DejaVuSans-70"/>
      <use xlink:href="#DejaVuSans-72" transform="translate(63.476562 0)"/>
      <use xlink:href="#DejaVuSans-6f" transform="translate(102.339844 0)"/>
      <use xlink:href="#DejaVuSans-70" transform="translate(163.521484 0)"/>
      <use xlink:href="#DejaVuSans-6f" transform="translate(226.998047 0)"/>
      <use xlink:href="#DejaVuSans-72" transform="translate(288.179688 0)"/>
      <use xlink:href="#DejaVuSans-74" transform="translate(329.292969 0)"/>
      <use xlink:href="#DejaVuSans-69" transform="translate(368.501953 0)"/>
      <use xlink:href="#DejaVuSans-6f" transform="translate(396.285156 0)"/>
      <use xlink:href="#DejaVuSans-6e" transform="translate(457.466797 0)"/>
      <use xlink:href="#DejaVuSans-20" transform="translate(520.845703 0)"/>
      <use xlink:href="#DejaVuSans-6f" transform="translate(552.632812 0)"/>
      <use xlink:href="#DejaVuSans-66" transform="translate(613.814453 0)"/>
      <use xlink:href="#DejaVuSans-20" transform="translate(649.019531 0)"/>
      <use xlink:href="#DejaVuSans-74" transform="translate(680.806641 0)"/>
      <use xlink:href="#DejaVuSans-72" transform="translate(720.015625 0)"/>
      <use xlink:href="#DejaVuSans-69" transform="translate(761.128906 0)"/>
      <use xlink:href="#DejaVuSans-61" transform="translate(788.912109 0)"/>
      <use xlink:href="#DejaVuSans-6c" transform="translate(850.191406 0)"/>
      <use xlink:href="#DejaVuSans-73" transform="translate(877.974609 0)"/>
     </g>
    </g>
   </g>
   <g id="line2d_42">
    <path d="M 34.16 275.984867 
L 52.952998 275.984867 
L 52.952998 274.599439 
L 58.539038 274.599439 
L 58.539038 271.828581 
L 75.359047 271.828581 
L 75.359047 270.443153 
L 81.717189 270.443153 
L 81.717189 269.057724 
L 101.627916 269.057724 
L 101.627916 267.672295 
L 103.278136 267.672295 
L 103.278136 266.286867 
L 106.296988 266.286867 
L 106.296988 264.901438 
L 132.439303 264.901438 
L 132.439303 263.516009 
L 156.622126 263.516009 
L 156.622126 262.130581 
L 159.853789 262.130581 
L 159.853789 260.745152 
L 167.001624 260.745152 
L 167.001624 259.359723 
L 175.976532 259.359723 
L 175.976532 257.974295 
L 176.298948 257.974295 
L 176.298948 256.588866 
L 179.427262 256.588866 
L 179.427262 255.203437 
L 183.415594 255.203437 
L 183.415594 253.818008 
L 183.769554 253.818008 
L 183.769554 252.43258 
L 187.131554 252.43258 
L 187.131554 251.047151 
L 187.682795 251.047151 
L 187.682795 249.661722 
L 189.967369 249.661722 
L 189.967369 248.276294 
L 190.737307 248.276294 
L 190.737307 246.890865 
L 194.36801 246.890865 
L 194.36801 245.505436 
L 195.672196 245.505436 
L 195.672196 244.120008 
L 196.618286 244.120008 
L 196.618286 242.734579 
L 197.555428 242.734579 
L 197.555428 241.34915 
L 202.293647 241.34915 
L 202.293647 239.963722 
L 203.586039 239.963722 
L 203.586039 238.578293 
L 204.354349 238.578293 
L 204.354349 237.192864 
L 204.52318 237.192864 
L 204.52318 235.807436 
L 207.216742 235.807436 
L 207.216742 234.422007 
L 208.153883 234.422007 
L 208.186853 231.65115 
L 208.716156 231.65115 
L 208.716156 230.265721 
L 209.762753 230.265721 
L 209.762753 228.880292 
L 219.98264 228.880292 
L 219.98264 227.494864 
L 220.345614 227.494864 
L 220.345614 226.109435 
L 224.797947 226.109435 
L 224.797947 224.724006 
L 227.23084 224.724006 
L 227.23084 223.338577 
L 228.48725 223.338577 
L 228.48725 221.953149 
L 230.657921 221.953149 
L 230.657921 220.56772 
L 231.596652 220.56772 
L 231.635113 217.796863 
L 232.81228 217.796863 
L 232.81228 216.411434 
L 234.422249 216.411434 
L 234.422249 215.026005 
L 234.598812 215.026005 
L 234.598812 213.640577 
L 235.128115 213.640577 
L 235.128115 212.255148 
L 236.009331 212.255148 
L 236.009331 210.869719 
L 237.157071 210.869719 
L 237.157071 209.484291 
L 237.317858 209.484291 
L 237.317858 208.098862 
L 239.469845 208.098862 
L 239.469845 206.713433 
L 241.664777 206.713433 
L 241.664777 205.328005 
L 241.854381 205.328005 
L 241.854381 203.942576 
L 242.12654 203.942576 
L 242.12654 202.557147 
L 242.948872 202.557147 
L 242.948872 201.171719 
L 243.676 201.171719 
L 243.730992 177.619431 
L 244.854688 177.619431 
L 244.854688 176.234002 
L 246.229218 176.234002 
L 246.229218 174.848574 
L 246.590027 174.848574 
L 246.590027 173.463145 
L 246.882318 173.463145 
L 246.981218 170.692288 
L 247.287581 170.692288 
L 247.376958 167.92143 
L 247.409124 167.92143 
L 247.409124 166.536002 
L 248.192074 166.536002 
L 248.192074 165.150573 
L 248.386316 165.150573 
L 248.386316 163.765144 
L 248.879588 163.765144 
L 248.879588 162.379715 
L 249.464104 162.379715 
L 249.464104 160.994287 
L 249.665621 160.994287 
L 249.665621 159.608858 
L 249.828637 159.608858 
L 249.828637 158.223429 
L 250.034142 158.223429 
L 250.034142 156.838001 
L 250.408991 156.838001 
L 250.408991 155.452572 
L 250.742312 155.452572 
L 250.742312 154.067143 
L 251.062305 154.067143 
L 251.062305 152.681715 
L 252.841884 152.681715 
L 252.841884 151.296286 
L 253.499709 151.296286 
L 253.499709 149.910857 
L 254.334081 149.910857 
L 254.334081 148.525429 
L 254.888825 148.525429 
L 254.899209 145.754571 
L 255.38294 145.754571 
L 255.428572 142.983714 
L 255.932602 142.983714 
L 255.932602 141.598285 
L 256.221048 141.598285 
L 256.221048 140.212857 
L 257.947348 140.212857 
L 257.947348 138.827428 
L 258.473658 138.827428 
L 258.473658 137.441999 
L 258.800587 137.441999 
L 258.800587 136.056571 
L 259.069727 136.056571 
L 259.069727 134.671142 
L 259.626227 134.671142 
L 259.626227 133.285713 
L 260.12116 133.285713 
L 260.12116 131.900285 
L 260.605969 131.900285 
L 260.636489 129.129427 
L 261.493768 129.129427 
L 261.493768 127.743998 
L 261.6322 127.743998 
L 261.6322 126.35857 
L 262.554053 126.35857 
L 262.554053 124.973141 
L 263.32049 124.973141 
L 263.32049 123.587712 
L 264.204726 123.587712 
L 264.204726 122.202284 
L 264.7966 122.202284 
L 264.81235 119.431426 
L 265.954851 119.431426 
L 265.954851 118.045998 
L 266.185554 118.045998 
L 266.185554 116.660569 
L 269.137286 116.660569 
L 269.137286 115.27514 
L 269.329728 115.27514 
L 269.329728 113.889712 
L 270.066028 113.889712 
L 270.066028 112.504283 
L 270.579926 112.504283 
L 270.579926 111.118854 
L 271.14199 111.118854 
L 271.14199 109.733426 
L 271.674417 109.733426 
L 271.674417 108.347997 
L 271.909018 108.347997 
L 272.017386 105.57714 
L 273.648775 105.57714 
L 273.680747 102.806282 
L 274.073287 102.806282 
L 274.073287 101.420854 
L 274.625967 101.420854 
L 274.625967 100.035425 
L 275.315572 100.035425 
L 275.315572 98.649996 
L 275.710682 98.649996 
L 275.710682 97.264567 
L 276.730619 97.264567 
L 276.730619 95.879139 
L 276.858422 95.879139 
L 276.858422 94.49371 
L 277.644389 94.49371 
L 277.644389 93.108281 
L 277.792605 93.108281 
L 277.792605 91.722853 
L 278.151717 91.722853 
L 278.151717 90.337424 
L 278.399265 90.337424 
L 278.399265 88.951995 
L 278.639759 88.951995 
L 278.639759 87.566567 
L 281.316533 87.566567 
L 281.316533 86.181138 
L 281.695396 86.181138 
L 281.695396 84.795709 
L 282.460699 84.795709 
L 282.460699 83.410281 
L 283.744172 83.410281 
L 283.744172 82.024852 
L 283.935655 82.024852 
L 283.935655 80.639423 
L 284.273475 80.639423 
L 284.273475 79.253995 
L 284.929828 79.253995 
L 284.929828 77.868566 
L 285.582893 77.868566 
L 285.582893 76.483137 
L 286.056708 76.483137 
L 286.056708 75.097709 
L 286.725447 75.097709 
L 286.725447 73.71228 
L 286.910892 73.71228 
L 286.910892 72.326851 
L 289.684797 72.326851 
L 289.684797 70.941423 
L 290.20068 70.941423 
L 290.20068 69.555994 
L 292.111235 69.555994 
L 292.111235 68.170565 
L 292.443587 68.170565 
L 292.443587 66.785136 
L 292.691589 66.785136 
L 292.691589 65.399708 
L 293.503559 65.399708 
L 293.503559 64.014279 
L 294.001138 64.014279 
L 294.001138 62.62885 
L 294.900293 62.62885 
L 294.900293 61.243422 
L 298.36695 61.243422 
L 298.36695 59.857993 
L 301.187687 59.857993 
L 301.255511 57.087136 
L 303.288185 57.087136 
L 303.288185 55.701707 
L 303.582446 55.701707 
L 303.582446 54.316278 
L 304.044569 54.316278 
L 304.044569 52.93085 
L 304.770937 52.93085 
L 304.770937 51.545421 
L 305.988947 51.545421 
L 305.988947 50.159992 
L 310.071834 50.159992 
L 310.071834 48.774564 
L 311.053052 48.774564 
L 311.053052 47.389135 
L 311.819502 47.389135 
L 311.914135 44.618278 
L 312.220795 44.618278 
L 312.220795 43.232849 
L 313.334859 43.232849 
L 313.334859 41.84742 
L 316.375217 41.84742 
L 316.375217 40.461992 
L 320.326605 40.461992 
L 320.326605 39.076563 
L 326.708558 39.076563 
L 326.708558 37.691134 
L 327.498211 37.691134 
L 327.498211 36.305705 
L 328.819632 36.305705 
L 328.819632 34.920277 
L 333.493588 34.920277 
L 333.493588 33.534848 
L 335.239875 33.534848 
L 335.239875 32.149419 
L 343.746978 32.149419 
L 343.746978 30.763991 
L 352.371641 30.763991 
L 352.371641 29.378562 
L 357.724625 29.378562 
L 357.724625 27.993133 
L 389.029302 27.993133 
L 389.029302 26.607705 
L 403.680284 26.607705 
L 403.680284 25.222276 
L 405.634811 25.222276 
L 405.634811 23.836847 
L 410.31755 23.836847 
L 410.31755 22.451419 
L 411.992953 22.451419 
L 411.992953 21.06599 
L 428.812962 21.06599 
L 428.812962 18.295133 
L 453.192 18.295133 
L 453.192 18.295133 
" clip-path="url(#p0c25df8620)" style="fill: none; stroke: #000000; stroke-width: 3; stroke-linecap: square"/>
   </g>
   <g id="line2d_43">
    <path clip-path="url(#p0c25df8620)" style="fill: none; stroke: #000000; stroke-width: 3; stroke-linecap: square"/>
   </g>
   <g id="line2d_44">
    <path d="M 34.16 237.984538 
L 187.752801 237.984538 
L 187.752801 234.619925 
L 189.413063 234.619925 
L 189.413063 231.255313 
L 195.448409 231.255313 
L 195.448409 227.8907 
L 239.365734 227.8907 
L 239.365734 224.526088 
L 240.208993 224.526088 
L 240.208993 221.161475 
L 244.811042 221.161475 
L 244.811042 217.796863 
L 245.076893 217.796863 
L 245.076893 214.43225 
L 245.516961 214.43225 
L 245.516961 211.067638 
L 245.994252 211.067638 
L 245.994252 207.703025 
L 246.737156 207.703025 
L 246.737156 204.338413 
L 247.05882 204.338413 
L 247.05882 200.9738 
L 247.499792 200.9738 
L 247.499792 197.609188 
L 249.245072 197.609188 
L 249.245072 194.244575 
L 249.468118 194.244575 
L 249.468118 190.879963 
L 250.747386 190.879963 
L 250.747386 187.51535 
L 251.43956 187.51535 
L 251.43956 184.150738 
L 251.828443 184.150738 
L 251.828443 180.786125 
L 252.061729 180.786125 
L 252.061729 177.421513 
L 252.407648 177.421513 
L 252.407648 174.0569 
L 252.713216 174.0569 
L 252.713216 170.692288 
L 252.772501 170.692288 
L 252.772501 167.327675 
L 252.810432 167.327675 
L 252.810432 163.963063 
L 252.862224 163.963063 
L 252.862224 160.59845 
L 253.004347 160.59845 
L 253.004347 157.233838 
L 253.445319 157.233838 
L 253.445319 153.869225 
L 255.602927 153.869225 
L 255.602927 150.504613 
L 256.298064 150.504613 
L 256.298064 147.14 
L 257.369697 147.14 
L 257.369697 143.775387 
L 258.307532 143.775387 
L 258.307532 140.410775 
L 258.442994 140.410775 
L 258.442994 137.046162 
L 259.341733 137.046162 
L 259.341733 133.68155 
L 259.399136 133.68155 
L 259.399136 130.316937 
L 259.840108 130.316937 
L 259.840108 126.952325 
L 261.174911 126.952325 
L 261.174911 123.587712 
L 261.320854 123.587712 
L 261.320854 120.2231 
L 261.548454 120.2231 
L 261.548454 116.858487 
L 261.606032 116.858487 
L 261.606032 113.493875 
L 262.136332 113.493875 
L 262.136332 110.129262 
L 263.758282 110.129262 
L 263.758282 106.76465 
L 264.74027 106.76465 
L 264.74027 103.400037 
L 265.557189 103.400037 
L 265.557189 100.035425 
L 266.209705 100.035425 
L 266.209705 96.670812 
L 267.943243 96.670812 
L 267.943243 93.3062 
L 269.027963 93.3062 
L 269.027963 89.941587 
L 269.242837 89.941587 
L 269.242837 86.576975 
L 271.611334 86.576975 
L 271.611334 83.212362 
L 272.233538 83.212362 
L 272.233538 79.84775 
L 272.593322 79.84775 
L 272.593322 76.483137 
L 274.715054 76.483137 
L 274.715054 73.118525 
L 275.516312 73.118525 
L 275.516312 69.753912 
L 277.895445 69.753912 
L 277.895445 66.3893 
L 278.618561 66.3893 
L 278.618561 63.024687 
L 279.894314 63.024687 
L 279.894314 59.660075 
L 285.176207 59.660075 
L 285.176207 56.295462 
L 286.521746 56.295462 
L 286.521746 52.93085 
L 287.657722 52.93085 
L 287.657722 49.566237 
L 289.003262 49.566237 
L 289.003262 46.201625 
L 292.836982 46.201625 
L 292.836982 42.837012 
L 294.182522 42.837012 
L 294.182522 39.4724 
L 316.146529 39.4724 
L 316.146529 36.107787 
L 453.192 36.107787 
" clip-path="url(#p0c25df8620)" style="fill: none; stroke: #00bfbf; stroke-width: 3; stroke-linecap: square"/>
   </g>
   <g id="line2d_45">
    <path clip-path="url(#p0c25df8620)" style="fill: none; stroke: #00bfbf; stroke-width: 3; stroke-linecap: square"/>
   </g>
   <g id="line2d_46">
    <path d="M 34.16 237.066916 
L 248.350345 237.066916 
L 248.350345 228.502448 
L 248.740137 228.502448 
L 248.740137 219.93798 
L 250.924735 219.93798 
L 250.924735 211.373512 
L 251.432367 211.373512 
L 251.432367 202.809043 
L 251.822159 202.809043 
L 251.822159 194.244575 
L 252.400266 194.244575 
L 252.400266 185.680107 
L 252.400266 185.680107 
L 252.400266 177.115639 
L 253.045404 177.115639 
L 253.045404 168.551171 
L 254.520935 168.551171 
L 254.520935 159.986702 
L 254.520935 159.986702 
L 254.520935 151.422234 
L 256.901673 151.422234 
L 256.901673 142.857766 
L 258.314298 142.857766 
L 258.314298 134.293298 
L 258.377204 134.293298 
L 258.377204 125.728829 
L 258.377204 125.728829 
L 258.377204 117.164361 
L 260.016477 117.164361 
L 260.016477 108.599893 
L 260.406269 108.599893 
L 260.406269 100.035425 
L 261.396319 100.035425 
L 261.396319 91.470957 
L 269.98043 91.470957 
L 269.98043 82.906488 
L 453.192 82.906488 
" clip-path="url(#p0c25df8620)" style="fill: none; stroke: #bf00bf; stroke-width: 3; stroke-linecap: square"/>
   </g>
   <g id="line2d_47">
    <path clip-path="url(#p0c25df8620)" style="fill: none; stroke: #bf00bf; stroke-width: 3; stroke-linecap: square"/>
   </g>
   <g id="line2d_48">
    <path d="M 34.16 175.402745 
L 251.28846 175.402745 
L 251.28846 156.560915 
L 253.193091 156.560915 
L 253.193091 137.719085 
L 253.83584 137.719085 
L 253.83584 118.877255 
L 254.213996 118.877255 
L 254.213996 100.035425 
L 254.937492 100.035425 
L 254.937492 81.193595 
L 255.740471 81.193595 
L 255.740471 62.351765 
L 256.118627 62.351765 
L 256.118627 43.509935 
L 257.484872 43.509935 
L 257.484872 24.668105 
L 257.863028 24.668105 
L 257.863028 5.826275 
L 453.192 5.826275 
" clip-path="url(#p0c25df8620)" style="fill: none; stroke: #ff0000; stroke-width: 3; stroke-linecap: square"/>
   </g>
   <g id="line2d_49">
    <path clip-path="url(#p0c25df8620)" style="fill: none; stroke: #ff0000; stroke-width: 3; stroke-linecap: square"/>
   </g>
   <g id="line2d_50">
    <path d="M 243.676 291.28 
L 243.676 3 
" clip-path="url(#p0c25df8620)" style="fill: none; stroke: #000000; stroke-width: 1.5; stroke-linecap: square"/>
   </g>
   <g id="line2d_51">
    <path d="M 34.16 147.14 
L 453.192 147.14 
" clip-path="url(#p0c25df8620)" style="fill: none; stroke-dasharray: 2,3.3; stroke-dashoffset: 0; stroke: #000000; stroke-width: 2"/>
   </g>
   <g id="patch_3">
    <path d="M 34.16 291.28 
L 34.16 3 
" style="fill: none; stroke: #000000; stroke-width: 0.8; stroke-linejoin: miter; stroke-linecap: square"/>
   </g>
   <g id="patch_4">
    <path d="M 453.192 291.28 
L 453.192 3 
" style="fill: none; stroke: #000000; stroke-width: 0.8; stroke-linejoin: miter; stroke-linecap: square"/>
   </g>
   <g id="patch_5">
    <path d="M 34.16 291.28 
L 453.192 291.28 
" style="fill: none; stroke: #000000; stroke-width: 0.8; stroke-linejoin: miter; stroke-linecap: square"/>
   </g>
   <g id="patch_6">
    <path d="M 34.16 3 
L 453.192 3 
" style="fill: none; stroke: #000000; stroke-width: 0.8; stroke-linejoin: miter; stroke-linecap: square"/>
   </g>
   <g id="text_6">
    <!-- f1-f24,5-D -->
    <g transform="translate(343.64261 285.5144) scale(0.2 -0.2)">
     <defs>
      <path id="DejaVuSans-32" d="M 1228 531 
L 3431 531 
L 3431 0 
L 469 0 
L 469 531 
Q 828 903 1448 1529 
Q 2069 2156 2228 2338 
Q 2531 2678 2651 2914 
Q 2772 3150 2772 3378 
Q 2772 3750 2511 3984 
Q 2250 4219 1831 4219 
Q 1534 4219 1204 4116 
Q 875 4013 500 3803 
L 500 4441 
Q 881 4594 1212 4672 
Q 1544 4750 1819 4750 
Q 2544 4750 2975 4387 
Q 3406 4025 3406 3419 
Q 3406 3131 3298 2873 
Q 3191 2616 2906 2266 
Q 2828 2175 2409 1742 
Q 1991 1309 1228 531 
z
" transform="scale(0.015625)"/>
      <path id="DejaVuSans-34" d="M 2419 4116 
L 825 1625 
L 2419 1625 
L 2419 4116 
z
M 2253 4666 
L 3047 4666 
L 3047 1625 
L 3713 1625 
L 3713 1100 
L 3047 1100 
L 3047 0 
L 2419 0 
L 2419 1100 
L 313 1100 
L 313 1709 
L 2253 4666 
z
" transform="scale(0.015625)"/>
      <path id="DejaVuSans-2c" d="M 750 794 
L 1409 794 
L 1409 256 
L 897 -744 
L 494 -744 
L 750 256 
L 750 794 
z
" transform="scale(0.015625)"/>
      <path id="DejaVuSans-35" d="M 691 4666 
L 3169 4666 
L 3169 4134 
L 1269 4134 
L 1269 2991 
Q 1406 3038 1543 3061 
Q 1681 3084 1819 3084 
Q 2600 3084 3056 2656 
Q 3513 2228 3513 1497 
Q 3513 744 3044 326 
Q 2575 -91 1722 -91 
Q 1428 -91 1123 -41 
Q 819 9 494 109 
L 494 744 
Q 775 591 1075 516 
Q 1375 441 1709 441 
Q 2250 441 2565 725 
Q 2881 1009 2881 1497 
Q 2881 1984 2565 2268 
Q 2250 2553 1709 2553 
Q 1456 2553 1204 2497 
Q 953 2441 691 2322 
L 691 4666 
z
" transform="scale(0.015625)"/>
      <path id="DejaVuSans-44" d="M 1259 4147 
L 1259 519 
L 2022 519 
Q 2988 519 3436 956 
Q 3884 1394 3884 2338 
Q 3884 3275 3436 3711 
Q 2988 4147 2022 4147 
L 1259 4147 
z
M 628 4666 
L 1925 4666 
Q 3281 4666 3915 4102 
Q 4550 3538 4550 2338 
Q 4550 1131 3912 565 
Q 3275 0 1925 0 
L 628 0 
L 628 4666 
z
" transform="scale(0.015625)"/>
     </defs>
     <use xlink:href="#DejaVuSans-66"/>
     <use xlink:href="#DejaVuSans-31" transform="translate(35.205078 0)"/>
     <use xlink:href="#DejaVuSans-2d" transform="translate(98.828125 0)"/>
     <use xlink:href="#DejaVuSans-66" transform="translate(134.912109 0)"/>
     <use xlink:href="#DejaVuSans-32" transform="translate(170.117188 0)"/>
     <use xlink:href="#DejaVuSans-34" transform="translate(233.740234 0)"/>
     <use xlink:href="#DejaVuSans-2c" transform="translate(297.363281 0)"/>
     <use xlink:href="#DejaVuSans-35" transform="translate(329.150391 0)"/>
     <use xlink:href="#DejaVuSans-2d" transform="translate(392.773438 0)"/>
     <use xlink:href="#DejaVuSans-44" transform="translate(428.857422 0)"/>
    </g>
   </g>
   <g id="text_7">
    <!-- v2.8.2 -->
    <g style="fill: #808080" transform="translate(231.131 286.73345) scale(0.08 -0.08)">
     <defs>
      <path id="DejaVuSans-2e" d="M 684 794 
L 1344 794 
L 1344 0 
L 684 0 
L 684 794 
z
" transform="scale(0.015625)"/>
      <path id="DejaVuSans-38" d="M 2034 2216 
Q 1584 2216 1326 1975 
Q 1069 1734 1069 1313 
Q 1069 891 1326 650 
Q 1584 409 2034 409 
Q 2484 409 2743 651 
Q 3003 894 3003 1313 
Q 3003 1734 2745 1975 
Q 2488 2216 2034 2216 
z
M 1403 2484 
Q 997 2584 770 2862 
Q 544 3141 544 3541 
Q 544 4100 942 4425 
Q 1341 4750 2034 4750 
Q 2731 4750 3128 4425 
Q 3525 4100 3525 3541 
Q 3525 3141 3298 2862 
Q 3072 2584 2669 2484 
Q 3125 2378 3379 2068 
Q 3634 1759 3634 1313 
Q 3634 634 3220 271 
Q 2806 -91 2034 -91 
Q 1263 -91 848 271 
Q 434 634 434 1313 
Q 434 1759 690 2068 
Q 947 2378 1403 2484 
z
M 1172 3481 
Q 1172 3119 1398 2916 
Q 1625 2713 2034 2713 
Q 2441 2713 2670 2916 
Q 2900 3119 2900 3481 
Q 2900 3844 2670 4047 
Q 2441 4250 2034 4250 
Q 1625 4250 1398 4047 
Q 1172 3844 1172 3481 
z
" transform="scale(0.015625)"/>
     </defs>
     <use xlink:href="#DejaVuSans-76"/>
     <use xlink:href="#DejaVuSans-32" transform="translate(59.179688 0)"/>
     <use xlink:href="#DejaVuSans-2e" transform="translate(122.802734 0)"/>
     <use xlink:href="#DejaVuSans-38" transform="translate(154.589844 0)"/>
     <use xlink:href="#DejaVuSans-2e" transform="translate(218.212891 0)"/>
     <use xlink:href="#DejaVuSans-32" transform="translate(250 0)"/>
    </g>
   </g>
   <g id="legend_1">
    <g id="patch_7">
     <path d="M 48.16 136.425 
L 202.831875 136.425 
Q 206.831875 136.425 206.831875 132.425 
L 206.831875 17 
Q 206.831875 13 202.831875 13 
L 48.16 13 
Q 44.16 13 44.16 17 
L 44.16 132.425 
Q 44.16 136.425 48.16 136.425 
z
" style="fill: #ffffff; opacity: 0.2; stroke: #cccccc; stroke-linejoin: miter"/>
    </g>
    <g id="line2d_52">
     <path d="M 52.16 29.196875 
L 72.16 29.196875 
L 92.16 29.196875 
" style="fill: none; stroke: #000000; stroke-width: 3; stroke-linecap: square"/>
    </g>
    <g id="text_8">
     <!-- 1: 23/23 -->
     <g transform="translate(108.16 36.196875) scale(0.2 -0.2)">
      <defs>
       <path id="DejaVuSans-3a" d="M 750 794 
L 1409 794 
L 1409 0 
L 750 0 
L 750 794 
z
M 750 3309 
L 1409 3309 
L 1409 2516 
L 750 2516 
L 750 3309 
z
" transform="scale(0.015625)"/>
       <path id="DejaVuSans-33" d="M 2597 2516 
Q 3050 2419 3304 2112 
Q 3559 1806 3559 1356 
Q 3559 666 3084 287 
Q 2609 -91 1734 -91 
Q 1441 -91 1130 -33 
Q 819 25 488 141 
L 488 750 
Q 750 597 1062 519 
Q 1375 441 1716 441 
Q 2309 441 2620 675 
Q 2931 909 2931 1356 
Q 2931 1769 2642 2001 
Q 2353 2234 1838 2234 
L 1294 2234 
L 1294 2753 
L 1863 2753 
Q 2328 2753 2575 2939 
Q 2822 3125 2822 3475 
Q 2822 3834 2567 4026 
Q 2313 4219 1838 4219 
Q 1578 4219 1281 4162 
Q 984 4106 628 3988 
L 628 4550 
Q 988 4650 1302 4700 
Q 1616 4750 1894 4750 
Q 2613 4750 3031 4423 
Q 3450 4097 3450 3541 
Q 3450 3153 3228 2886 
Q 3006 2619 2597 2516 
z
" transform="scale(0.015625)"/>
       <path id="DejaVuSans-2f" d="M 1625 4666 
L 2156 4666 
L 531 -594 
L 0 -594 
L 1625 4666 
z
" transform="scale(0.015625)"/>
      </defs>
      <use xlink:href="#DejaVuSans-31"/>
      <use xlink:href="#DejaVuSans-3a" transform="translate(63.623047 0)"/>
      <use xlink:href="#DejaVuSans-20" transform="translate(97.314453 0)"/>
      <use xlink:href="#DejaVuSans-32" transform="translate(129.101562 0)"/>
      <use xlink:href="#DejaVuSans-33" transform="translate(192.724609 0)"/>
      <use xlink:href="#DejaVuSans-2f" transform="translate(256.347656 0)"/>
      <use xlink:href="#DejaVuSans-32" transform="translate(290.039062 0)"/>
      <use xlink:href="#DejaVuSans-33" transform="translate(353.662109 0)"/>
     </g>
    </g>
    <g id="line2d_53">
     <path d="M 52.16 58.553125 
L 72.16 58.553125 
L 92.16 58.553125 
" style="fill: none; stroke: #00bfbf; stroke-width: 3; stroke-linecap: square"/>
    </g>
    <g id="text_9">
     <!-- -1: 11/10 -->
     <g transform="translate(108.16 65.553125) scale(0.2 -0.2)">
      <use xlink:href="#DejaVuSans-2d"/>
      <use xlink:href="#DejaVuSans-31" transform="translate(36.083984 0)"/>
      <use xlink:href="#DejaVuSans-3a" transform="translate(99.707031 0)"/>
      <use xlink:href="#DejaVuSans-20" transform="translate(133.398438 0)"/>
      <use xlink:href="#DejaVuSans-31" transform="translate(165.185547 0)"/>
      <use xlink:href="#DejaVuSans-31" transform="translate(228.808594 0)"/>
      <use xlink:href="#DejaVuSans-2f" transform="translate(292.431641 0)"/>
      <use xlink:href="#DejaVuSans-31" transform="translate(326.123047 0)"/>
      <use xlink:href="#DejaVuSans-30" transform="translate(389.746094 0)"/>
     </g>
    </g>
    <g id="line2d_54">
     <path d="M 52.16 87.909375 
L 72.16 87.909375 
L 92.16 87.909375 
" style="fill: none; stroke: #bf00bf; stroke-width: 3; stroke-linecap: square"/>
    </g>
    <g id="text_10">
     <!-- -4: 4/4 -->
     <g transform="translate(108.16 94.909375) scale(0.2 -0.2)">
      <use xlink:href="#DejaVuSans-2d"/>
      <use xlink:href="#DejaVuSans-34" transform="translate(36.083984 0)"/>
      <use xlink:href="#DejaVuSans-3a" transform="translate(99.707031 0)"/>
      <use xlink:href="#DejaVuSans-20" transform="translate(133.398438 0)"/>
      <use xlink:href="#DejaVuSans-34" transform="translate(165.185547 0)"/>
      <use xlink:href="#DejaVuSans-2f" transform="translate(228.808594 0)"/>
      <use xlink:href="#DejaVuSans-34" transform="translate(262.5 0)"/>
     </g>
    </g>
    <g id="line2d_55">
     <path d="M 52.16 117.265625 
L 72.16 117.265625 
L 92.16 117.265625 
" style="fill: none; stroke: #ff0000; stroke-width: 3; stroke-linecap: square"/>
    </g>
    <g id="text_11">
     <!-- -8: 3/1 -->
     <g transform="translate(108.16 124.265625) scale(0.2 -0.2)">
      <use xlink:href="#DejaVuSans-2d"/>
      <use xlink:href="#DejaVuSans-38" transform="translate(36.083984 0)"/>
      <use xlink:href="#DejaVuSans-3a" transform="translate(99.707031 0)"/>
      <use xlink:href="#DejaVuSans-20" transform="translate(133.398438 0)"/>
      <use xlink:href="#DejaVuSans-33" transform="translate(165.185547 0)"/>
      <use xlink:href="#DejaVuSans-2f" transform="translate(228.808594 0)"/>
      <use xlink:href="#DejaVuSans-31" transform="translate(262.5 0)"/>
     </g>
    </g>
   </g>
  </g>
 </g>
 <defs>
  <clipPath id="p0c25df8620">
   <rect x="34.16" y="3" width="419.032" height="288.28"/>
  </clipPath>
 </defs>
</svg>
