<?xml version="1.0" encoding="utf-8" standalone="no"?>
<!DOCTYPE svg PUBLIC "-//W3C//DTD SVG 1.1//EN"
  "http://www.w3.org/Graphics/SVG/1.1/DTD/svg11.dtd">
<svg xmlns:xlink="http://www.w3.org/1999/xlink" width="460.8pt" height="345.6pt" viewBox="0 0 460.8 345.6" xmlns="http://www.w3.org/2000/svg" version="1.1">
 <metadata>
  <rdf:RDF xmlns:dc="http://purl.org/dc/elements/1.1/" xmlns:cc="http://creativecommons.org/ns#" xmlns:rdf="http://www.w3.org/1999/02/22-rdf-syntax-ns#">
   <cc:Work>
    <dc:type rdf:resource="http://purl.org/dc/dcmitype/StillImage"/>
    <dc:date>2025-12-16T07:51:47.980987</dc:date>
    <dc:format>image/svg+xml</dc:format>
    <dc:creator>
     <cc:Agent>
      <dc:title>Matplotlib v3.10.0, https://matplotlib.org/</dc:title>
     </cc:Agent>
    </dc:creator>
   </cc:Work>
  </rdf:RDF>
 </metadata>
 <defs>
  <style type="text/css">*{stroke-linejoin: round; stroke-linecap: butt}</style>
 </defs>
 <g id="figure_1">
  <g id="patch_1">
   <path d="M 0 345.6 
L 460.8 345.6 
L 460.8 0 
L 0 0 
z
" style="fill: #ffffff"/>
  </g>
  <g id="axes_1">
   <g id="patch_2">
    <path d="M 62.208 293.76 
L 460.8 293.76 
L 460.8 3.456 
L 62.208 3.456 
z
" style="fill: #ffffff"/>
   </g>
   <g id="line2d_1">
    <path d="M 303.01957 293.76 
L 303.01957 289.927604 
L 308.132243 289.927604 
L 308.132243 286.095208 
L 309.735964 286.095208 
L 309.735964 282.262812 
L 311.647614 282.262812 
L 311.647614 278.430416 
L 311.881961 278.430416 
L 311.881961 274.59802 
L 312.347679 274.59802 
L 312.347679 270.765624 
L 318.691402 270.765624 
L 318.691402 266.933228 
L 321.510194 266.933228 
L 321.510194 263.100832 
L 325.301654 263.100832 
L 325.301654 259.268436 
L 330.871418 259.268436 
L 330.871418 255.43604 
L 332.42183 255.43604 
L 332.42183 251.603644 
L 341.793717 251.603644 
L 341.793717 247.771248 
L 352.543201 247.771248 
L 352.543201 243.938851 
L 360.090156 243.938851 
L 360.090156 240.106455 
L 361.197465 240.106455 
L 361.197465 236.274059 
L 362.236153 236.274059 
L 362.236153 232.441663 
L 363.301463 232.441663 
L 363.301463 228.609267 
L 363.712766 228.609267 
L 363.712766 224.776871 
L 367.707217 224.776871 
L 367.707217 220.944475 
L 369.004259 220.944475 
L 369.004259 217.112079 
L 387.830565 217.112079 
L 387.830565 213.279683 
L 389.250504 213.279683 
L 389.250504 209.447287 
L 390.996128 209.447287 
L 390.996128 205.614891 
L 394.693285 205.614891 
L 394.693285 201.782495 
L 407.936942 201.782495 
L 407.936942 197.950099 
L 413.820545 197.950099 
L 413.820545 194.117703 
L 418.31485 194.117703 
L 418.31485 190.285307 
L 434.806913 190.285307 
L 434.806913 186.452911 
L 434.806913 186.452911 
L 434.806913 186.452911 
L 460.8 186.452911 
" clip-path="url(#p019c11ecee)" style="fill: none; stroke: #f5deb3; stroke-width: 1.5; stroke-linecap: square"/>
   </g>
   <g id="line2d_2">
    <path d="M 410.366481 293.76 
L 410.366481 282.262812 
L 436.151392 282.262812 
L 436.151392 270.765624 
L 455.402642 270.765624 
L 455.402642 259.268436 
L 461.8 259.268436 
" clip-path="url(#p019c11ecee)" style="fill: none; stroke: #f5deb3; stroke-width: 1.5; stroke-linecap: square"/>
   </g>
   <g id="line2d_3">
    <path d="M 248.751114 293.76 
L 248.751114 289.927604 
L 255.346611 289.927604 
L 255.346611 286.095208 
L 307.248916 286.095208 
L 307.248916 282.262812 
L 309.370007 282.262812 
L 309.370007 278.430416 
L 312.579066 278.430416 
L 312.579066 274.59802 
L 321.90133 274.59802 
L 321.90133 270.765624 
L 327.545002 270.765624 
L 327.545002 266.933228 
L 332.42183 266.933228 
L 332.42183 263.100832 
L 336.52886 263.100832 
L 336.52886 259.268436 
L 337.196781 259.268436 
L 337.196781 255.43604 
L 343.398339 255.43604 
L 343.398339 251.603644 
L 346.473512 251.603644 
L 346.473512 247.771248 
L 355.529111 247.771248 
L 355.529111 243.938851 
L 358.159997 243.938851 
L 358.159997 240.106455 
L 367.791828 240.106455 
L 367.791828 236.274059 
L 379.305464 236.274059 
L 379.305464 232.441663 
L 391.711977 232.441663 
L 391.711977 228.609267 
L 407.054369 228.609267 
L 407.054369 224.776871 
L 407.977649 224.776871 
L 407.977649 220.944475 
L 410.889952 220.944475 
L 410.889952 217.112079 
L 416.358727 217.112079 
L 416.358727 213.279683 
L 422.359707 213.279683 
L 422.359707 209.447287 
L 423.629132 209.447287 
L 423.629132 205.614891 
L 442.290016 205.614891 
L 442.290016 201.782495 
L 447.097093 201.782495 
L 447.097093 197.950099 
L 461.8 197.950099 
" clip-path="url(#p019c11ecee)" style="fill: none; stroke: #f5deb3; stroke-width: 1.5; stroke-linecap: square"/>
   </g>
   <g id="line2d_4">
    <path d="M 291.269651 293.76 
L 291.269651 289.927604 
L 319.816089 289.927604 
L 319.816089 286.095208 
L 319.917201 286.095208 
L 319.917201 282.262812 
L 323.81631 282.262812 
L 323.81631 278.430416 
L 367.282201 278.430416 
L 367.282201 274.59802 
L 368.880069 274.59802 
L 368.880069 270.765624 
L 374.806685 270.765624 
L 374.806685 266.933228 
L 375.177499 266.933228 
L 375.177499 263.100832 
L 380.69336 263.100832 
L 380.69336 259.268436 
L 396.276652 259.268436 
L 396.276652 255.43604 
L 398.327335 255.43604 
L 398.327335 251.603644 
L 402.662568 251.603644 
L 402.662568 247.771248 
L 402.819229 247.771248 
L 402.819229 243.938851 
L 408.342661 243.938851 
L 408.342661 240.106455 
L 409.383723 240.106455 
L 409.383723 236.274059 
L 411.427596 236.274059 
L 411.427596 232.441663 
L 418.179827 232.441663 
L 418.179827 228.609267 
L 439.243058 228.609267 
L 439.243058 224.776871 
L 453.976531 224.776871 
L 453.976531 220.944475 
L 454.615899 220.944475 
L 454.615899 217.112079 
L 461.8 217.112079 
" clip-path="url(#p019c11ecee)" style="fill: none; stroke: #f5deb3; stroke-width: 1.5; stroke-linecap: square"/>
   </g>
   <g id="line2d_5">
    <path d="M 445.362668 293.76 
L 445.362668 289.927604 
L 445.362668 289.927604 
L 445.362668 289.927604 
L 460.8 289.927604 
" clip-path="url(#p019c11ecee)" style="fill: none; stroke: #f5deb3; stroke-width: 1.5; stroke-linecap: square"/>
   </g>
   <g id="line2d_6"/>
   <g id="line2d_7">
    <path d="M 324.564001 293.76 
L 324.564001 289.927604 
L 334.164046 289.927604 
L 334.164046 286.095208 
L 336.975042 286.095208 
L 336.975042 282.262812 
L 342.802083 282.262812 
L 342.802083 278.430416 
L 354.944767 278.430416 
L 354.944767 274.59802 
L 434.178999 274.59802 
L 434.178999 270.765624 
L 454.511307 270.765624 
L 454.511307 266.933228 
L 459.527292 266.933228 
L 459.527292 263.100832 
L 460.73236 263.100832 
L 460.73236 259.268436 
L 461.8 259.268436 
" clip-path="url(#p019c11ecee)" style="fill: none; stroke: #f5deb3; stroke-width: 1.5; stroke-linecap: square"/>
   </g>
   <g id="line2d_8">
    <path clip-path="url(#p019c11ecee)" style="fill: none; stroke: #f5deb3; stroke-width: 1.5; stroke-linecap: square"/>
   </g>
   <g id="line2d_9">
    <path d="M 311.530064 293.76 
L 311.530064 289.927604 
L 318.172471 289.927604 
L 318.172471 286.095208 
L 335.92826 286.095208 
L 335.92826 282.262812 
L 337.344112 282.262812 
L 337.344112 278.430416 
L 390.912927 278.430416 
L 390.912927 274.59802 
L 397.397955 274.59802 
L 397.397955 270.765624 
L 403.947332 270.765624 
L 403.947332 266.933228 
L 408.965665 266.933228 
L 408.965665 263.100832 
L 417.379795 263.100832 
L 417.379795 259.268436 
L 438.219972 259.268436 
L 438.219972 255.43604 
L 440.077535 255.43604 
L 440.077535 251.603644 
L 440.122895 251.603644 
L 440.122895 247.771248 
L 456.220583 247.771248 
L 456.220583 243.938851 
L 460.443352 243.938851 
L 460.443352 240.106455 
L 461.8 240.106455 
" clip-path="url(#p019c11ecee)" style="fill: none; stroke: #f5deb3; stroke-width: 1.5; stroke-linecap: square"/>
   </g>
   <g id="line2d_10">
    <path clip-path="url(#p019c11ecee)" style="fill: none; stroke: #f5deb3; stroke-width: 1.5; stroke-linecap: square"/>
   </g>
   <g id="line2d_11">
    <path d="M 405.883303 293.76 
L 405.883303 289.927604 
L 452.149326 289.927604 
L 452.149326 286.095208 
L 461.8 286.095208 
" clip-path="url(#p019c11ecee)" style="fill: none; stroke: #f5deb3; stroke-width: 1.5; stroke-linecap: square"/>
   </g>
   <g id="line2d_12">
    <path d="M 316.478175 293.76 
L 316.478175 289.927604 
L 321.411973 289.927604 
L 321.411973 286.095208 
L 323.72213 286.095208 
L 323.72213 282.262812 
L 343.857661 282.262812 
L 343.857661 278.430416 
L 344.248334 278.430416 
L 344.248334 274.59802 
L 365.327868 274.59802 
L 365.327868 270.765624 
L 368.17097 270.765624 
L 368.17097 266.933228 
L 370.150036 266.933228 
L 370.150036 263.100832 
L 371.351711 263.100832 
L 371.351711 259.268436 
L 378.267252 259.268436 
L 378.267252 255.43604 
L 387.859913 255.43604 
L 387.859913 251.603644 
L 390.773978 251.603644 
L 390.773978 247.771248 
L 392.902566 247.771248 
L 392.902566 243.938851 
L 395.567227 243.938851 
L 395.567227 240.106455 
L 395.720019 240.106455 
L 395.720019 236.274059 
L 396.024336 236.274059 
L 396.024336 232.441663 
L 398.689912 232.441663 
L 398.689912 228.609267 
L 404.837741 228.609267 
L 404.837741 224.776871 
L 416.55054 224.776871 
L 416.55054 220.944475 
L 428.600478 220.944475 
L 428.600478 217.112079 
L 441.078062 217.112079 
L 441.078062 213.279683 
L 447.445442 213.279683 
L 447.445442 209.447287 
L 452.828175 209.447287 
L 452.828175 205.614891 
L 456.482131 205.614891 
L 456.482131 201.782495 
L 461.8 201.782495 
" clip-path="url(#p019c11ecee)" style="fill: none; stroke: #f5deb3; stroke-width: 1.5; stroke-linecap: square"/>
   </g>
   <g id="line2d_13">
    <path d="M 406.115312 293.76 
L 406.115312 289.927604 
L 425.123658 289.927604 
L 425.123658 286.095208 
L 432.32946 286.095208 
L 432.32946 282.262812 
L 433.963864 282.262812 
L 433.963864 278.430416 
L 441.40018 278.430416 
L 441.40018 274.59802 
L 447.385882 274.59802 
L 447.385882 270.765624 
L 452.313017 270.765624 
L 452.313017 266.933228 
L 452.702092 266.933228 
L 452.702092 263.100832 
L 452.702092 263.100832 
L 452.702092 259.268436 
L 456.195206 259.268436 
L 456.195206 255.43604 
L 461.8 255.43604 
" clip-path="url(#p019c11ecee)" style="fill: none; stroke: #f5deb3; stroke-width: 1.5; stroke-linecap: square"/>
   </g>
   <g id="line2d_14">
    <path d="M 266.55248 293.76 
L 266.55248 289.927604 
L 282.027394 289.927604 
L 282.027394 286.095208 
L 364.256424 286.095208 
L 364.256424 282.262812 
L 416.724337 282.262812 
L 416.724337 278.430416 
L 429.556712 278.430416 
L 429.556712 274.59802 
L 436.029406 274.59802 
L 436.029406 270.765624 
L 437.760396 270.765624 
L 437.760396 266.933228 
L 448.223692 266.933228 
L 448.223692 263.100832 
L 449.480842 263.100832 
L 449.480842 259.268436 
L 456.288199 259.268436 
L 456.288199 255.43604 
L 460.089794 255.43604 
L 460.089794 251.603644 
L 460.849094 251.603644 
L 460.849094 247.771248 
L 461.275009 247.771248 
L 461.275009 243.938851 
L 461.8 243.938851 
" clip-path="url(#p019c11ecee)" style="fill: none; stroke: #f5deb3; stroke-width: 1.5; stroke-linecap: square"/>
   </g>
   <g id="line2d_15">
    <path clip-path="url(#p019c11ecee)" style="fill: none; stroke: #f5deb3; stroke-width: 1.5; stroke-linecap: square"/>
   </g>
   <g id="line2d_16">
    <path d="M 414.31227 293.76 
L 414.31227 289.927604 
L 461.8 289.927604 
" clip-path="url(#p019c11ecee)" style="fill: none; stroke: #f5deb3; stroke-width: 1.5; stroke-linecap: square"/>
   </g>
   <g id="line2d_17">
    <path d="M 427.427734 293.76 
L 427.427734 289.927604 
L 430.712258 289.927604 
L 430.712258 286.095208 
L 456.801048 286.095208 
L 456.801048 282.262812 
L 461.8 282.262812 
" clip-path="url(#p019c11ecee)" style="fill: none; stroke: #f5deb3; stroke-width: 1.5; stroke-linecap: square"/>
   </g>
   <g id="line2d_18">
    <path d="M 280.599927 293.76 
L 280.599927 289.927604 
L 306.609161 289.927604 
L 306.609161 286.095208 
L 317.437636 286.095208 
L 317.437636 282.262812 
L 319.714791 282.262812 
L 319.714791 278.430416 
L 320.219426 278.430416 
L 320.219426 274.59802 
L 336.975042 274.59802 
L 336.975042 270.765624 
L 347.277586 270.765624 
L 347.277586 266.933228 
L 349.267375 266.933228 
L 349.267375 263.100832 
L 353.263742 263.100832 
L 353.263742 259.268436 
L 358.8607 259.268436 
L 358.8607 255.43604 
L 370.754158 255.43604 
L 370.754158 251.603644 
L 371.982019 251.603644 
L 371.982019 247.771248 
L 374.320856 247.771248 
L 374.320856 243.938851 
L 375.14053 243.938851 
L 375.14053 240.106455 
L 391.217384 240.106455 
L 391.217384 236.274059 
L 393.647001 236.274059 
L 393.647001 232.441663 
L 394.22492 232.441663 
L 394.22492 228.609267 
L 394.900172 228.609267 
L 394.900172 224.776871 
L 396.276652 224.776871 
L 396.276652 220.944475 
L 412.337206 220.944475 
L 412.337206 217.112079 
L 413.342838 217.112079 
L 413.342838 213.279683 
L 421.284306 213.279683 
L 421.284306 209.447287 
L 425.420709 209.447287 
L 425.420709 205.614891 
L 434.594226 205.614891 
L 434.594226 201.782495 
L 448.7397 201.782495 
L 448.7397 197.950099 
L 453.98534 197.950099 
L 453.98534 194.117703 
L 458.498425 194.117703 
L 458.498425 190.285307 
L 461.8 190.285307 
" clip-path="url(#p019c11ecee)" style="fill: none; stroke: #f5deb3; stroke-width: 1.5; stroke-linecap: square"/>
   </g>
   <g id="line2d_19">
    <path d="M 0 0 
" clip-path="url(#p019c11ecee)" style="fill: none; stroke: #f5deb3; stroke-width: 1.5; stroke-linecap: square"/>
   </g>
   <g id="line2d_20">
    <path d="M 274.023838 293.76 
L 274.023838 289.927604 
L 274.023838 289.927604 
L 274.023838 286.095208 
L 279.767269 286.095208 
L 279.767269 282.262812 
L 282.826744 282.262812 
L 282.826744 278.430416 
L 300.919146 278.430416 
L 300.919146 274.59802 
L 326.029538 274.59802 
L 326.029538 270.765624 
L 332.341311 270.765624 
L 332.341311 266.933228 
L 341.996876 266.933228 
L 341.996876 263.100832 
L 353.866138 263.100832 
L 353.866138 259.268436 
L 367.410051 259.268436 
L 367.410051 255.43604 
L 369.251802 255.43604 
L 369.251802 251.603644 
L 372.099401 251.603644 
L 372.099401 247.771248 
L 374.320856 247.771248 
L 374.320856 243.938851 
L 379.030519 243.938851 
L 379.030519 240.106455 
L 379.168163 240.106455 
L 379.168163 236.274059 
L 388.443608 236.274059 
L 388.443608 232.441663 
L 392.822204 232.441663 
L 392.822204 228.609267 
L 393.805219 228.609267 
L 393.805219 224.776871 
L 394.796826 224.776871 
L 394.796826 220.944475 
L 396.201079 220.944475 
L 396.201079 217.112079 
L 400.607532 217.112079 
L 400.607532 213.279683 
L 405.756339 213.279683 
L 405.756339 209.447287 
L 414.420947 209.447287 
L 414.420947 205.614891 
L 414.439039 205.614891 
L 414.439039 201.782495 
L 416.672256 201.782495 
L 416.672256 197.950099 
L 431.870357 197.950099 
L 431.870357 194.117703 
L 433.454316 194.117703 
L 433.454316 190.285307 
L 435.563377 190.285307 
L 435.563377 186.452911 
L 461.8 186.452911 
" clip-path="url(#p019c11ecee)" style="fill: none; stroke: #f5deb3; stroke-width: 1.5; stroke-linecap: square"/>
   </g>
   <g id="line2d_21">
    <path clip-path="url(#p019c11ecee)" style="fill: none; stroke: #f5deb3; stroke-width: 1.5; stroke-linecap: square"/>
   </g>
   <g id="line2d_22">
    <path d="M 253.686232 293.76 
L 253.686232 289.927604 
L 262.109303 289.927604 
L 262.109303 286.095208 
L 273.084424 286.095208 
L 273.084424 282.262812 
L 274.487591 282.262812 
L 274.487591 278.430416 
L 282.826744 278.430416 
L 282.826744 274.59802 
L 287.393055 274.59802 
L 287.393055 270.765624 
L 356.472108 270.765624 
L 356.472108 266.933228 
L 390.996128 266.933228 
L 390.996128 263.100832 
L 393.805219 263.100832 
L 393.805219 259.268436 
L 399.002222 259.268436 
L 399.002222 255.43604 
L 402.280236 255.43604 
L 402.280236 251.603644 
L 412.618399 251.603644 
L 412.618399 247.771248 
L 417.328332 247.771248 
L 417.328332 243.938851 
L 427.953617 243.938851 
L 427.953617 240.106455 
L 433.989218 240.106455 
L 433.989218 236.274059 
L 440.450645 236.274059 
L 440.450645 232.441663 
L 461.8 232.441663 
" clip-path="url(#p019c11ecee)" style="fill: none; stroke: #f5deb3; stroke-width: 1.5; stroke-linecap: square"/>
   </g>
   <g id="line2d_23">
    <path d="M 417.550993 293.76 
L 417.550993 289.927604 
L 426.171001 289.927604 
L 426.171001 286.095208 
L 430.117128 286.095208 
L 430.117128 282.262812 
L 431.181098 282.262812 
L 431.181098 278.430416 
L 433.197759 278.430416 
L 433.197759 274.59802 
L 437.225296 274.59802 
L 437.225296 270.765624 
L 457.919308 270.765624 
L 457.919308 266.933228 
L 461.8 266.933228 
" clip-path="url(#p019c11ecee)" style="fill: none; stroke: #f5deb3; stroke-width: 1.5; stroke-linecap: square"/>
   </g>
   <g id="line2d_24">
    <path d="M 359.059271 293.76 
L 359.059271 289.927604 
L 360.910746 289.927604 
L 360.910746 286.095208 
L 369.661911 286.095208 
L 369.661911 282.262812 
L 371.153248 282.262812 
L 371.153248 278.430416 
L 379.510773 278.430416 
L 379.510773 274.59802 
L 380.760174 274.59802 
L 380.760174 270.765624 
L 393.302624 270.765624 
L 393.302624 266.933228 
L 426.156388 266.933228 
L 426.156388 263.100832 
L 461.8 263.100832 
" clip-path="url(#p019c11ecee)" style="fill: none; stroke: #f5deb3; stroke-width: 1.5; stroke-linecap: square"/>
   </g>
   <g id="line2d_25">
    <path clip-path="url(#p019c11ecee)" style="fill: none; stroke: #f5deb3; stroke-width: 1.5; stroke-linecap: square"/>
   </g>
   <g id="line2d_26">
    <path d="M 380.69336 293.76 
L 380.69336 289.927604 
L 382.695503 289.927604 
L 382.695503 286.095208 
L 383.176858 286.095208 
L 383.176858 282.262812 
L 383.812176 282.262812 
L 383.812176 278.430416 
L 384.064261 278.430416 
L 384.064261 274.59802 
L 385.491727 274.59802 
L 385.491727 270.765624 
L 386.52348 270.765624 
L 386.52348 266.933228 
L 386.883052 266.933228 
L 386.883052 263.100832 
L 391.300126 263.100832 
L 391.300126 259.268436 
L 404.340021 259.268436 
L 404.340021 255.43604 
L 405.607842 255.43604 
L 405.607842 251.603644 
L 407.157725 251.603644 
L 407.157725 247.771248 
L 407.732954 247.771248 
L 407.732954 243.938851 
L 411.827404 243.938851 
L 411.827404 240.106455 
L 422.687607 240.106455 
L 422.687607 236.274059 
L 423.705596 236.274059 
L 423.705596 232.441663 
L 423.736152 232.441663 
L 423.736152 228.609267 
L 424.509636 228.609267 
L 424.509636 224.776871 
L 426.89677 224.776871 
L 426.89677 220.944475 
L 427.256091 220.944475 
L 427.256091 217.112079 
L 428.530535 217.112079 
L 428.530535 213.279683 
L 443.943065 213.279683 
L 443.943065 209.447287 
L 447.673161 209.447287 
L 447.673161 205.614891 
L 447.811312 205.614891 
L 447.811312 201.782495 
L 449.116333 201.782495 
L 449.116333 197.950099 
L 451.295738 197.950099 
L 451.295738 194.117703 
L 458.725141 194.117703 
L 458.725141 190.285307 
L 459.007228 190.285307 
L 459.007228 186.452911 
L 461.8 186.452911 
" clip-path="url(#p019c11ecee)" style="fill: none; stroke: #f5deb3; stroke-width: 1.5; stroke-linecap: square"/>
   </g>
   <g id="line2d_27">
    <path d="M 304.910079 293.76 
L 304.910079 289.927604 
L 317.858744 289.927604 
L 317.858744 286.095208 
L 367.32485 286.095208 
L 367.32485 282.262812 
L 385.552958 282.262812 
L 385.552958 278.430416 
L 419.795024 278.430416 
L 419.795024 274.59802 
L 441.555012 274.59802 
L 441.555012 270.765624 
L 448.875198 270.765624 
L 448.875198 266.933228 
L 450.249846 266.933228 
L 450.249846 263.100832 
L 450.82195 263.100832 
L 450.82195 259.268436 
L 461.8 259.268436 
" clip-path="url(#p019c11ecee)" style="fill: none; stroke: #f5deb3; stroke-width: 1.5; stroke-linecap: square"/>
   </g>
   <g id="line2d_28">
    <path d="M 327.368866 293.76 
L 327.368866 289.927604 
L 328.243954 289.927604 
L 328.243954 286.095208 
L 339.719721 286.095208 
L 339.719721 282.262812 
L 352.821451 282.262812 
L 352.821451 278.430416 
L 379.373985 278.430416 
L 379.373985 274.59802 
L 412.506095 274.59802 
L 412.506095 270.765624 
L 432.237946 270.765624 
L 432.237946 266.933228 
L 461.8 266.933228 
" clip-path="url(#p019c11ecee)" style="fill: none; stroke: #f5deb3; stroke-width: 1.5; stroke-linecap: square"/>
   </g>
   <g id="line2d_29">
    <path d="M 321.803806 293.76 
L 321.803806 289.927604 
L 321.803806 289.927604 
L 321.803806 286.095208 
L 321.803806 286.095208 
L 321.803806 282.262812 
L 360.33278 282.262812 
L 360.33278 278.430416 
L 360.33278 278.430416 
L 360.33278 274.59802 
L 360.33278 274.59802 
L 360.33278 270.765624 
L 368.422286 270.765624 
L 368.422286 266.933228 
L 368.422286 266.933228 
L 368.422286 263.100832 
L 368.422286 263.100832 
L 368.422286 259.268436 
L 416.620125 259.268436 
L 416.620125 255.43604 
L 416.620125 255.43604 
L 416.620125 251.603644 
L 416.620125 251.603644 
L 416.620125 247.771248 
L 461.8 247.771248 
" clip-path="url(#p019c11ecee)" style="fill: none; stroke: #f5deb3; stroke-width: 1.5; stroke-linecap: square"/>
   </g>
   <g id="line2d_30">
    <path d="M 456.784309 293.76 
L 456.784309 289.927604 
L 460.215764 289.927604 
L 460.215764 286.095208 
L 461.8 286.095208 
" clip-path="url(#p019c11ecee)" style="fill: none; stroke: #f5deb3; stroke-width: 1.5; stroke-linecap: square"/>
   </g>
   <g id="matplotlib.axis_1">
    <g id="xtick_1">
     <g id="line2d_31">
      <path d="M 188.745143 293.76 
L 188.745143 3.456 
" clip-path="url(#p019c11ecee)" style="fill: none; stroke: #b0b0b0; stroke-width: 0.8; stroke-linecap: square"/>
     </g>
     <g id="line2d_32">
      <defs>
       <path id="m872eb77e4d" d="M 0 0 
L 0 3.5 
" style="stroke: #000000; stroke-width: 0.8"/>
      </defs>
      <g>
       <use xlink:href="#m872eb77e4d" x="188.745143" y="293.76" style="stroke: #000000; stroke-width: 0.8"/>
      </g>
     </g>
     <g id="text_1">
      <!-- 1 -->
      <g transform="translate(182.382643 315.956875) scale(0.2 -0.2)">
       <defs>
        <path id="DejaVuSans-31" d="M 794 531 
L 1825 531 
L 1825 4091 
L 703 3866 
L 703 4441 
L 1819 4666 
L 2450 4666 
L 2450 531 
L 3481 531 
L 3481 0 
L 794 0 
L 794 531 
z
" transform="scale(0.015625)"/>
       </defs>
       <use xlink:href="#DejaVuSans-31"/>
      </g>
     </g>
    </g>
    <g id="xtick_2">
     <g id="line2d_33">
      <path d="M 441.819429 293.76 
L 441.819429 3.456 
" clip-path="url(#p019c11ecee)" style="fill: none; stroke: #b0b0b0; stroke-width: 0.8; stroke-linecap: square"/>
     </g>
     <g id="line2d_34">
      <g>
       <use xlink:href="#m872eb77e4d" x="441.819429" y="293.76" style="stroke: #000000; stroke-width: 0.8"/>
      </g>
     </g>
     <g id="text_2">
      <!-- 3 -->
      <g transform="translate(435.456929 315.956875) scale(0.2 -0.2)">
       <defs>
        <path id="DejaVuSans-33" d="M 2597 2516 
Q 3050 2419 3304 2112 
Q 3559 1806 3559 1356 
Q 3559 666 3084 287 
Q 2609 -91 1734 -91 
Q 1441 -91 1130 -33 
Q 819 25 488 141 
L 488 750 
Q 750 597 1062 519 
Q 1375 441 1716 441 
Q 2309 441 2620 675 
Q 2931 909 2931 1356 
Q 2931 1769 2642 2001 
Q 2353 2234 1838 2234 
L 1294 2234 
L 1294 2753 
L 1863 2753 
Q 2328 2753 2575 2939 
Q 2822 3125 2822 3475 
Q 2822 3834 2567 4026 
Q 2313 4219 1838 4219 
Q 1578 4219 1281 4162 
Q 984 4106 628 3988 
L 628 4550 
Q 988 4650 1302 4700 
Q 1616 4750 1894 4750 
Q 2613 4750 3031 4423 
Q 3450 4097 3450 3541 
Q 3450 3153 3228 2886 
Q 3006 2619 2597 2516 
z
" transform="scale(0.015625)"/>
       </defs>
       <use xlink:href="#DejaVuSans-33"/>
      </g>
     </g>
    </g>
    <g id="xtick_3">
     <g id="line2d_35">
      <path d="M 100.299476 293.76 
L 100.299476 3.456 
" clip-path="url(#p019c11ecee)" style="fill: none; stroke: #b0b0b0; stroke-width: 0.8; stroke-linecap: square"/>
     </g>
     <g id="line2d_36">
      <defs>
       <path id="m71cc157fe7" d="M 0 0 
L 0 2 
" style="stroke: #000000; stroke-width: 0.6"/>
      </defs>
      <g>
       <use xlink:href="#m71cc157fe7" x="100.299476" y="293.76" style="stroke: #000000; stroke-width: 0.6"/>
      </g>
     </g>
    </g>
    <g id="xtick_4">
     <g id="line2d_37">
      <path d="M 122.58156 293.76 
L 122.58156 3.456 
" clip-path="url(#p019c11ecee)" style="fill: none; stroke: #b0b0b0; stroke-width: 0.8; stroke-linecap: square"/>
     </g>
     <g id="line2d_38">
      <g>
       <use xlink:href="#m71cc157fe7" x="122.58156" y="293.76" style="stroke: #000000; stroke-width: 0.6"/>
      </g>
     </g>
    </g>
    <g id="xtick_5">
     <g id="line2d_39">
      <path d="M 138.390951 293.76 
L 138.390951 3.456 
" clip-path="url(#p019c11ecee)" style="fill: none; stroke: #b0b0b0; stroke-width: 0.8; stroke-linecap: square"/>
     </g>
     <g id="line2d_40">
      <g>
       <use xlink:href="#m71cc157fe7" x="138.390951" y="293.76" style="stroke: #000000; stroke-width: 0.6"/>
      </g>
     </g>
    </g>
    <g id="xtick_6">
     <g id="line2d_41">
      <path d="M 150.653667 293.76 
L 150.653667 3.456 
" clip-path="url(#p019c11ecee)" style="fill: none; stroke: #b0b0b0; stroke-width: 0.8; stroke-linecap: square"/>
     </g>
     <g id="line2d_42">
      <g>
       <use xlink:href="#m71cc157fe7" x="150.653667" y="293.76" style="stroke: #000000; stroke-width: 0.6"/>
      </g>
     </g>
    </g>
    <g id="xtick_7">
     <g id="line2d_43">
      <path d="M 160.673036 293.76 
L 160.673036 3.456 
" clip-path="url(#p019c11ecee)" style="fill: none; stroke: #b0b0b0; stroke-width: 0.8; stroke-linecap: square"/>
     </g>
     <g id="line2d_44">
      <g>
       <use xlink:href="#m71cc157fe7" x="160.673036" y="293.76" style="stroke: #000000; stroke-width: 0.6"/>
      </g>
     </g>
    </g>
    <g id="xtick_8">
     <g id="line2d_45">
      <path d="M 169.144291 293.76 
L 169.144291 3.456 
" clip-path="url(#p019c11ecee)" style="fill: none; stroke: #b0b0b0; stroke-width: 0.8; stroke-linecap: square"/>
     </g>
     <g id="line2d_46">
      <g>
       <use xlink:href="#m71cc157fe7" x="169.144291" y="293.76" style="stroke: #000000; stroke-width: 0.6"/>
      </g>
     </g>
    </g>
    <g id="xtick_9">
     <g id="line2d_47">
      <path d="M 176.482427 293.76 
L 176.482427 3.456 
" clip-path="url(#p019c11ecee)" style="fill: none; stroke: #b0b0b0; stroke-width: 0.8; stroke-linecap: square"/>
     </g>
     <g id="line2d_48">
      <g>
       <use xlink:href="#m71cc157fe7" x="176.482427" y="293.76" style="stroke: #000000; stroke-width: 0.6"/>
      </g>
     </g>
    </g>
    <g id="xtick_10">
     <g id="line2d_49">
      <path d="M 182.955121 293.76 
L 182.955121 3.456 
" clip-path="url(#p019c11ecee)" style="fill: none; stroke: #b0b0b0; stroke-width: 0.8; stroke-linecap: square"/>
     </g>
     <g id="line2d_50">
      <g>
       <use xlink:href="#m71cc157fe7" x="182.955121" y="293.76" style="stroke: #000000; stroke-width: 0.6"/>
      </g>
     </g>
    </g>
    <g id="xtick_11">
     <g id="line2d_51">
      <path d="M 226.836618 293.76 
L 226.836618 3.456 
" clip-path="url(#p019c11ecee)" style="fill: none; stroke: #b0b0b0; stroke-width: 0.8; stroke-linecap: square"/>
     </g>
     <g id="line2d_52">
      <g>
       <use xlink:href="#m71cc157fe7" x="226.836618" y="293.76" style="stroke: #000000; stroke-width: 0.6"/>
      </g>
     </g>
    </g>
    <g id="xtick_12">
     <g id="line2d_53">
      <path d="M 249.118703 293.76 
L 249.118703 3.456 
" clip-path="url(#p019c11ecee)" style="fill: none; stroke: #b0b0b0; stroke-width: 0.8; stroke-linecap: square"/>
     </g>
     <g id="line2d_54">
      <g>
       <use xlink:href="#m71cc157fe7" x="249.118703" y="293.76" style="stroke: #000000; stroke-width: 0.6"/>
      </g>
     </g>
    </g>
    <g id="xtick_13">
     <g id="line2d_55">
      <path d="M 264.928094 293.76 
L 264.928094 3.456 
" clip-path="url(#p019c11ecee)" style="fill: none; stroke: #b0b0b0; stroke-width: 0.8; stroke-linecap: square"/>
     </g>
     <g id="line2d_56">
      <g>
       <use xlink:href="#m71cc157fe7" x="264.928094" y="293.76" style="stroke: #000000; stroke-width: 0.6"/>
      </g>
     </g>
    </g>
    <g id="xtick_14">
     <g id="line2d_57">
      <path d="M 277.19081 293.76 
L 277.19081 3.456 
" clip-path="url(#p019c11ecee)" style="fill: none; stroke: #b0b0b0; stroke-width: 0.8; stroke-linecap: square"/>
     </g>
     <g id="line2d_58">
      <g>
       <use xlink:href="#m71cc157fe7" x="277.19081" y="293.76" style="stroke: #000000; stroke-width: 0.6"/>
      </g>
     </g>
    </g>
    <g id="xtick_15">
     <g id="line2d_59">
      <path d="M 287.210179 293.76 
L 287.210179 3.456 
" clip-path="url(#p019c11ecee)" style="fill: none; stroke: #b0b0b0; stroke-width: 0.8; stroke-linecap: square"/>
     </g>
     <g id="line2d_60">
      <g>
       <use xlink:href="#m71cc157fe7" x="287.210179" y="293.76" style="stroke: #000000; stroke-width: 0.6"/>
      </g>
     </g>
    </g>
    <g id="xtick_16">
     <g id="line2d_61">
      <path d="M 295.681434 293.76 
L 295.681434 3.456 
" clip-path="url(#p019c11ecee)" style="fill: none; stroke: #b0b0b0; stroke-width: 0.8; stroke-linecap: square"/>
     </g>
     <g id="line2d_62">
      <g>
       <use xlink:href="#m71cc157fe7" x="295.681434" y="293.76" style="stroke: #000000; stroke-width: 0.6"/>
      </g>
     </g>
    </g>
    <g id="xtick_17">
     <g id="line2d_63">
      <path d="M 303.01957 293.76 
L 303.01957 3.456 
" clip-path="url(#p019c11ecee)" style="fill: none; stroke: #b0b0b0; stroke-width: 0.8; stroke-linecap: square"/>
     </g>
     <g id="line2d_64">
      <g>
       <use xlink:href="#m71cc157fe7" x="303.01957" y="293.76" style="stroke: #000000; stroke-width: 0.6"/>
      </g>
     </g>
    </g>
    <g id="xtick_18">
     <g id="line2d_65">
      <path d="M 309.492264 293.76 
L 309.492264 3.456 
" clip-path="url(#p019c11ecee)" style="fill: none; stroke: #b0b0b0; stroke-width: 0.8; stroke-linecap: square"/>
     </g>
     <g id="line2d_66">
      <g>
       <use xlink:href="#m71cc157fe7" x="309.492264" y="293.76" style="stroke: #000000; stroke-width: 0.6"/>
      </g>
     </g>
    </g>
    <g id="xtick_19">
     <g id="line2d_67">
      <path d="M 353.373761 293.76 
L 353.373761 3.456 
" clip-path="url(#p019c11ecee)" style="fill: none; stroke: #b0b0b0; stroke-width: 0.8; stroke-linecap: square"/>
     </g>
     <g id="line2d_68">
      <g>
       <use xlink:href="#m71cc157fe7" x="353.373761" y="293.76" style="stroke: #000000; stroke-width: 0.6"/>
      </g>
     </g>
    </g>
    <g id="xtick_20">
     <g id="line2d_69">
      <path d="M 375.655846 293.76 
L 375.655846 3.456 
" clip-path="url(#p019c11ecee)" style="fill: none; stroke: #b0b0b0; stroke-width: 0.8; stroke-linecap: square"/>
     </g>
     <g id="line2d_70">
      <g>
       <use xlink:href="#m71cc157fe7" x="375.655846" y="293.76" style="stroke: #000000; stroke-width: 0.6"/>
      </g>
     </g>
    </g>
    <g id="xtick_21">
     <g id="line2d_71">
      <path d="M 391.465237 293.76 
L 391.465237 3.456 
" clip-path="url(#p019c11ecee)" style="fill: none; stroke: #b0b0b0; stroke-width: 0.8; stroke-linecap: square"/>
     </g>
     <g id="line2d_72">
      <g>
       <use xlink:href="#m71cc157fe7" x="391.465237" y="293.76" style="stroke: #000000; stroke-width: 0.6"/>
      </g>
     </g>
    </g>
    <g id="xtick_22">
     <g id="line2d_73">
      <path d="M 403.727953 293.76 
L 403.727953 3.456 
" clip-path="url(#p019c11ecee)" style="fill: none; stroke: #b0b0b0; stroke-width: 0.8; stroke-linecap: square"/>
     </g>
     <g id="line2d_74">
      <g>
       <use xlink:href="#m71cc157fe7" x="403.727953" y="293.76" style="stroke: #000000; stroke-width: 0.6"/>
      </g>
     </g>
    </g>
    <g id="xtick_23">
     <g id="line2d_75">
      <path d="M 413.747322 293.76 
L 413.747322 3.456 
" clip-path="url(#p019c11ecee)" style="fill: none; stroke: #b0b0b0; stroke-width: 0.8; stroke-linecap: square"/>
     </g>
     <g id="line2d_76">
      <g>
       <use xlink:href="#m71cc157fe7" x="413.747322" y="293.76" style="stroke: #000000; stroke-width: 0.6"/>
      </g>
     </g>
    </g>
    <g id="xtick_24">
     <g id="line2d_77">
      <path d="M 422.218577 293.76 
L 422.218577 3.456 
" clip-path="url(#p019c11ecee)" style="fill: none; stroke: #b0b0b0; stroke-width: 0.8; stroke-linecap: square"/>
     </g>
     <g id="line2d_78">
      <g>
       <use xlink:href="#m71cc157fe7" x="422.218577" y="293.76" style="stroke: #000000; stroke-width: 0.6"/>
      </g>
     </g>
    </g>
    <g id="xtick_25">
     <g id="line2d_79">
      <path d="M 429.556712 293.76 
L 429.556712 3.456 
" clip-path="url(#p019c11ecee)" style="fill: none; stroke: #b0b0b0; stroke-width: 0.8; stroke-linecap: square"/>
     </g>
     <g id="line2d_80">
      <g>
       <use xlink:href="#m71cc157fe7" x="429.556712" y="293.76" style="stroke: #000000; stroke-width: 0.6"/>
      </g>
     </g>
    </g>
    <g id="xtick_26">
     <g id="line2d_81">
      <path d="M 436.029406 293.76 
L 436.029406 3.456 
" clip-path="url(#p019c11ecee)" style="fill: none; stroke: #b0b0b0; stroke-width: 0.8; stroke-linecap: square"/>
     </g>
     <g id="line2d_82">
      <g>
       <use xlink:href="#m71cc157fe7" x="436.029406" y="293.76" style="stroke: #000000; stroke-width: 0.6"/>
      </g>
     </g>
    </g>
    <g id="text_3">
     <!-- log10 of FEvals / DIM -->
     <g transform="translate(156.430563 339.313125) scale(0.2 -0.2)">
      <defs>
       <path id="DejaVuSans-6c" d="M 603 4863 
L 1178 4863 
L 1178 0 
L 603 0 
L 603 4863 
z
" transform="scale(0.015625)"/>
       <path id="DejaVuSans-6f" d="M 1959 3097 
Q 1497 3097 1228 2736 
Q 959 2375 959 1747 
Q 959 1119 1226 758 
Q 1494 397 1959 397 
Q 2419 397 2687 759 
Q 2956 1122 2956 1747 
Q 2956 2369 2687 2733 
Q 2419 3097 1959 3097 
z
M 1959 3584 
Q 2709 3584 3137 3096 
Q 3566 2609 3566 1747 
Q 3566 888 3137 398 
Q 2709 -91 1959 -91 
Q 1206 -91 779 398 
Q 353 888 353 1747 
Q 353 2609 779 3096 
Q 1206 3584 1959 3584 
z
" transform="scale(0.015625)"/>
       <path id="DejaVuSans-67" d="M 2906 1791 
Q 2906 2416 2648 2759 
Q 2391 3103 1925 3103 
Q 1463 3103 1205 2759 
Q 947 2416 947 1791 
Q 947 1169 1205 825 
Q 1463 481 1925 481 
Q 2391 481 2648 825 
Q 2906 1169 2906 1791 
z
M 3481 434 
Q 3481 -459 3084 -895 
Q 2688 -1331 1869 -1331 
Q 1566 -1331 1297 -1286 
Q 1028 -1241 775 -1147 
L 775 -588 
Q 1028 -725 1275 -790 
Q 1522 -856 1778 -856 
Q 2344 -856 2625 -561 
Q 2906 -266 2906 331 
L 2906 616 
Q 2728 306 2450 153 
Q 2172 0 1784 0 
Q 1141 0 747 490 
Q 353 981 353 1791 
Q 353 2603 747 3093 
Q 1141 3584 1784 3584 
Q 2172 3584 2450 3431 
Q 2728 3278 2906 2969 
L 2906 3500 
L 3481 3500 
L 3481 434 
z
" transform="scale(0.015625)"/>
       <path id="DejaVuSans-30" d="M 2034 4250 
Q 1547 4250 1301 3770 
Q 1056 3291 1056 2328 
Q 1056 1369 1301 889 
Q 1547 409 2034 409 
Q 2525 409 2770 889 
Q 3016 1369 3016 2328 
Q 3016 3291 2770 3770 
Q 2525 4250 2034 4250 
z
M 2034 4750 
Q 2819 4750 3233 4129 
Q 3647 3509 3647 2328 
Q 3647 1150 3233 529 
Q 2819 -91 2034 -91 
Q 1250 -91 836 529 
Q 422 1150 422 2328 
Q 422 3509 836 4129 
Q 1250 4750 2034 4750 
z
" transform="scale(0.015625)"/>
       <path id="DejaVuSans-20" transform="scale(0.015625)"/>
       <path id="DejaVuSans-66" d="M 2375 4863 
L 2375 4384 
L 1825 4384 
Q 1516 4384 1395 4259 
Q 1275 4134 1275 3809 
L 1275 3500 
L 2222 3500 
L 2222 3053 
L 1275 3053 
L 1275 0 
L 697 0 
L 697 3053 
L 147 3053 
L 147 3500 
L 697 3500 
L 697 3744 
Q 697 4328 969 4595 
Q 1241 4863 1831 4863 
L 2375 4863 
z
" transform="scale(0.015625)"/>
       <path id="DejaVuSans-46" d="M 628 4666 
L 3309 4666 
L 3309 4134 
L 1259 4134 
L 1259 2759 
L 3109 2759 
L 3109 2228 
L 1259 2228 
L 1259 0 
L 628 0 
L 628 4666 
z
" transform="scale(0.015625)"/>
       <path id="DejaVuSans-45" d="M 628 4666 
L 3578 4666 
L 3578 4134 
L 1259 4134 
L 1259 2753 
L 3481 2753 
L 3481 2222 
L 1259 2222 
L 1259 531 
L 3634 531 
L 3634 0 
L 628 0 
L 628 4666 
z
" transform="scale(0.015625)"/>
       <path id="DejaVuSans-76" d="M 191 3500 
L 800 3500 
L 1894 563 
L 2988 3500 
L 3597 3500 
L 2284 0 
L 1503 0 
L 191 3500 
z
" transform="scale(0.015625)"/>
       <path id="DejaVuSans-61" d="M 2194 1759 
Q 1497 1759 1228 1600 
Q 959 1441 959 1056 
Q 959 750 1161 570 
Q 1363 391 1709 391 
Q 2188 391 2477 730 
Q 2766 1069 2766 1631 
L 2766 1759 
L 2194 1759 
z
M 3341 1997 
L 3341 0 
L 2766 0 
L 2766 531 
Q 2569 213 2275 61 
Q 1981 -91 1556 -91 
Q 1019 -91 701 211 
Q 384 513 384 1019 
Q 384 1609 779 1909 
Q 1175 2209 1959 2209 
L 2766 2209 
L 2766 2266 
Q 2766 2663 2505 2880 
Q 2244 3097 1772 3097 
Q 1472 3097 1187 3025 
Q 903 2953 641 2809 
L 641 3341 
Q 956 3463 1253 3523 
Q 1550 3584 1831 3584 
Q 2591 3584 2966 3190 
Q 3341 2797 3341 1997 
z
" transform="scale(0.015625)"/>
       <path id="DejaVuSans-73" d="M 2834 3397 
L 2834 2853 
Q 2591 2978 2328 3040 
Q 2066 3103 1784 3103 
Q 1356 3103 1142 2972 
Q 928 2841 928 2578 
Q 928 2378 1081 2264 
Q 1234 2150 1697 2047 
L 1894 2003 
Q 2506 1872 2764 1633 
Q 3022 1394 3022 966 
Q 3022 478 2636 193 
Q 2250 -91 1575 -91 
Q 1294 -91 989 -36 
Q 684 19 347 128 
L 347 722 
Q 666 556 975 473 
Q 1284 391 1588 391 
Q 1994 391 2212 530 
Q 2431 669 2431 922 
Q 2431 1156 2273 1281 
Q 2116 1406 1581 1522 
L 1381 1569 
Q 847 1681 609 1914 
Q 372 2147 372 2553 
Q 372 3047 722 3315 
Q 1072 3584 1716 3584 
Q 2034 3584 2315 3537 
Q 2597 3491 2834 3397 
z
" transform="scale(0.015625)"/>
       <path id="DejaVuSans-2f" d="M 1625 4666 
L 2156 4666 
L 531 -594 
L 0 -594 
L 1625 4666 
z
" transform="scale(0.015625)"/>
       <path id="DejaVuSans-44" d="M 1259 4147 
L 1259 519 
L 2022 519 
Q 2988 519 3436 956 
Q 3884 1394 3884 2338 
Q 3884 3275 3436 3711 
Q 2988 4147 2022 4147 
L 1259 4147 
z
M 628 4666 
L 1925 4666 
Q 3281 4666 3915 4102 
Q 4550 3538 4550 2338 
Q 4550 1131 3912 565 
Q 3275 0 1925 0 
L 628 0 
L 628 4666 
z
" transform="scale(0.015625)"/>
       <path id="DejaVuSans-49" d="M 628 4666 
L 1259 4666 
L 1259 0 
L 628 0 
L 628 4666 
z
" transform="scale(0.015625)"/>
       <path id="DejaVuSans-4d" d="M 628 4666 
L 1569 4666 
L 2759 1491 
L 3956 4666 
L 4897 4666 
L 4897 0 
L 4281 0 
L 4281 4097 
L 3078 897 
L 2444 897 
L 1241 4097 
L 1241 0 
L 628 0 
L 628 4666 
z
" transform="scale(0.015625)"/>
      </defs>
      <use xlink:href="#DejaVuSans-6c"/>
      <use xlink:href="#DejaVuSans-6f" transform="translate(27.783203 0)"/>
      <use xlink:href="#DejaVuSans-67" transform="translate(88.964844 0)"/>
      <use xlink:href="#DejaVuSans-31" transform="translate(152.441406 0)"/>
      <use xlink:href="#DejaVuSans-30" transform="translate(216.064453 0)"/>
      <use xlink:href="#DejaVuSans-20" transform="translate(279.6875 0)"/>
      <use xlink:href="#DejaVuSans-6f" transform="translate(311.474609 0)"/>
      <use xlink:href="#DejaVuSans-66" transform="translate(372.65625 0)"/>
      <use xlink:href="#DejaVuSans-20" transform="translate(407.861328 0)"/>
      <use xlink:href="#DejaVuSans-46" transform="translate(439.648438 0)"/>
      <use xlink:href="#DejaVuSans-45" transform="translate(497.167969 0)"/>
      <use xlink:href="#DejaVuSans-76" transform="translate(560.351562 0)"/>
      <use xlink:href="#DejaVuSans-61" transform="translate(619.53125 0)"/>
      <use xlink:href="#DejaVuSans-6c" transform="translate(680.810547 0)"/>
      <use xlink:href="#DejaVuSans-73" transform="translate(708.59375 0)"/>
      <use xlink:href="#DejaVuSans-20" transform="translate(760.693359 0)"/>
      <use xlink:href="#DejaVuSans-2f" transform="translate(792.480469 0)"/>
      <use xlink:href="#DejaVuSans-20" transform="translate(826.171875 0)"/>
      <use xlink:href="#DejaVuSans-44" transform="translate(857.958984 0)"/>
      <use xlink:href="#DejaVuSans-49" transform="translate(934.960938 0)"/>
      <use xlink:href="#DejaVuSans-4d" transform="translate(964.453125 0)"/>
     </g>
    </g>
   </g>
   <g id="matplotlib.axis_2">
    <g id="ytick_1">
     <g id="line2d_83">
      <path d="M 62.208 293.76 
L 460.8 293.76 
" clip-path="url(#p019c11ecee)" style="fill: none; stroke: #b0b0b0; stroke-width: 0.8; stroke-linecap: square"/>
     </g>
     <g id="line2d_84">
      <defs>
       <path id="m339833f0fd" d="M 0 0 
L -3.5 0 
" style="stroke: #000000; stroke-width: 0.8"/>
      </defs>
      <g>
       <use xlink:href="#m339833f0fd" x="62.208" y="293.76" style="stroke: #000000; stroke-width: 0.8"/>
      </g>
     </g>
     <g id="text_4">
      <!-- 0.0 -->
      <g transform="translate(29.763 299.83875) scale(0.16 -0.16)">
       <defs>
        <path id="DejaVuSans-2e" d="M 684 794 
L 1344 794 
L 1344 0 
L 684 0 
L 684 794 
z
" transform="scale(0.015625)"/>
       </defs>
       <use xlink:href="#DejaVuSans-30"/>
       <use xlink:href="#DejaVuSans-2e" transform="translate(63.623047 0)"/>
       <use xlink:href="#DejaVuSans-30" transform="translate(95.410156 0)"/>
      </g>
     </g>
    </g>
    <g id="ytick_2">
     <g id="line2d_85">
      <path d="M 62.208 236.274059 
L 460.8 236.274059 
" clip-path="url(#p019c11ecee)" style="fill: none; stroke: #b0b0b0; stroke-width: 0.8; stroke-linecap: square"/>
     </g>
     <g id="line2d_86">
      <g>
       <use xlink:href="#m339833f0fd" x="62.208" y="236.274059" style="stroke: #000000; stroke-width: 0.8"/>
      </g>
     </g>
     <g id="text_5">
      <!-- 0.2 -->
      <g transform="translate(29.763 242.352809) scale(0.16 -0.16)">
       <defs>
        <path id="DejaVuSans-32" d="M 1228 531 
L 3431 531 
L 3431 0 
L 469 0 
L 469 531 
Q 828 903 1448 1529 
Q 2069 2156 2228 2338 
Q 2531 2678 2651 2914 
Q 2772 3150 2772 3378 
Q 2772 3750 2511 3984 
Q 2250 4219 1831 4219 
Q 1534 4219 1204 4116 
Q 875 4013 500 3803 
L 500 4441 
Q 881 4594 1212 4672 
Q 1544 4750 1819 4750 
Q 2544 4750 2975 4387 
Q 3406 4025 3406 3419 
Q 3406 3131 3298 2873 
Q 3191 2616 2906 2266 
Q 2828 2175 2409 1742 
Q 1991 1309 1228 531 
z
" transform="scale(0.015625)"/>
       </defs>
       <use xlink:href="#DejaVuSans-30"/>
       <use xlink:href="#DejaVuSans-2e" transform="translate(63.623047 0)"/>
       <use xlink:href="#DejaVuSans-32" transform="translate(95.410156 0)"/>
      </g>
     </g>
    </g>
    <g id="ytick_3">
     <g id="line2d_87">
      <path d="M 62.208 178.788119 
L 460.8 178.788119 
" clip-path="url(#p019c11ecee)" style="fill: none; stroke: #b0b0b0; stroke-width: 0.8; stroke-linecap: square"/>
     </g>
     <g id="line2d_88">
      <g>
       <use xlink:href="#m339833f0fd" x="62.208" y="178.788119" style="stroke: #000000; stroke-width: 0.8"/>
      </g>
     </g>
     <g id="text_6">
      <!-- 0.4 -->
      <g transform="translate(29.763 184.866869) scale(0.16 -0.16)">
       <defs>
        <path id="DejaVuSans-34" d="M 2419 4116 
L 825 1625 
L 2419 1625 
L 2419 4116 
z
M 2253 4666 
L 3047 4666 
L 3047 1625 
L 3713 1625 
L 3713 1100 
L 3047 1100 
L 3047 0 
L 2419 0 
L 2419 1100 
L 313 1100 
L 313 1709 
L 2253 4666 
z
" transform="scale(0.015625)"/>
       </defs>
       <use xlink:href="#DejaVuSans-30"/>
       <use xlink:href="#DejaVuSans-2e" transform="translate(63.623047 0)"/>
       <use xlink:href="#DejaVuSans-34" transform="translate(95.410156 0)"/>
      </g>
     </g>
    </g>
    <g id="ytick_4">
     <g id="line2d_89">
      <path d="M 62.208 121.302178 
L 460.8 121.302178 
" clip-path="url(#p019c11ecee)" style="fill: none; stroke: #b0b0b0; stroke-width: 0.8; stroke-linecap: square"/>
     </g>
     <g id="line2d_90">
      <g>
       <use xlink:href="#m339833f0fd" x="62.208" y="121.302178" style="stroke: #000000; stroke-width: 0.8"/>
      </g>
     </g>
     <g id="text_7">
      <!-- 0.6 -->
      <g transform="translate(29.763 127.380928) scale(0.16 -0.16)">
       <defs>
        <path id="DejaVuSans-36" d="M 2113 2584 
Q 1688 2584 1439 2293 
Q 1191 2003 1191 1497 
Q 1191 994 1439 701 
Q 1688 409 2113 409 
Q 2538 409 2786 701 
Q 3034 994 3034 1497 
Q 3034 2003 2786 2293 
Q 2538 2584 2113 2584 
z
M 3366 4563 
L 3366 3988 
Q 3128 4100 2886 4159 
Q 2644 4219 2406 4219 
Q 1781 4219 1451 3797 
Q 1122 3375 1075 2522 
Q 1259 2794 1537 2939 
Q 1816 3084 2150 3084 
Q 2853 3084 3261 2657 
Q 3669 2231 3669 1497 
Q 3669 778 3244 343 
Q 2819 -91 2113 -91 
Q 1303 -91 875 529 
Q 447 1150 447 2328 
Q 447 3434 972 4092 
Q 1497 4750 2381 4750 
Q 2619 4750 2861 4703 
Q 3103 4656 3366 4563 
z
" transform="scale(0.015625)"/>
       </defs>
       <use xlink:href="#DejaVuSans-30"/>
       <use xlink:href="#DejaVuSans-2e" transform="translate(63.623047 0)"/>
       <use xlink:href="#DejaVuSans-36" transform="translate(95.410156 0)"/>
      </g>
     </g>
    </g>
    <g id="ytick_5">
     <g id="line2d_91">
      <path d="M 62.208 63.816238 
L 460.8 63.816238 
" clip-path="url(#p019c11ecee)" style="fill: none; stroke: #b0b0b0; stroke-width: 0.8; stroke-linecap: square"/>
     </g>
     <g id="line2d_92">
      <g>
       <use xlink:href="#m339833f0fd" x="62.208" y="63.816238" style="stroke: #000000; stroke-width: 0.8"/>
      </g>
     </g>
     <g id="text_8">
      <!-- 0.8 -->
      <g transform="translate(29.763 69.894988) scale(0.16 -0.16)">
       <defs>
        <path id="DejaVuSans-38" d="M 2034 2216 
Q 1584 2216 1326 1975 
Q 1069 1734 1069 1313 
Q 1069 891 1326 650 
Q 1584 409 2034 409 
Q 2484 409 2743 651 
Q 3003 894 3003 1313 
Q 3003 1734 2745 1975 
Q 2488 2216 2034 2216 
z
M 1403 2484 
Q 997 2584 770 2862 
Q 544 3141 544 3541 
Q 544 4100 942 4425 
Q 1341 4750 2034 4750 
Q 2731 4750 3128 4425 
Q 3525 4100 3525 3541 
Q 3525 3141 3298 2862 
Q 3072 2584 2669 2484 
Q 3125 2378 3379 2068 
Q 3634 1759 3634 1313 
Q 3634 634 3220 271 
Q 2806 -91 2034 -91 
Q 1263 -91 848 271 
Q 434 634 434 1313 
Q 434 1759 690 2068 
Q 947 2378 1403 2484 
z
M 1172 3481 
Q 1172 3119 1398 2916 
Q 1625 2713 2034 2713 
Q 2441 2713 2670 2916 
Q 2900 3119 2900 3481 
Q 2900 3844 2670 4047 
Q 2441 4250 2034 4250 
Q 1625 4250 1398 4047 
Q 1172 3844 1172 3481 
z
" transform="scale(0.015625)"/>
       </defs>
       <use xlink:href="#DejaVuSans-30"/>
       <use xlink:href="#DejaVuSans-2e" transform="translate(63.623047 0)"/>
       <use xlink:href="#DejaVuSans-38" transform="translate(95.410156 0)"/>
      </g>
     </g>
    </g>
    <g id="ytick_6">
     <g id="line2d_93">
      <path d="M 62.208 6.330297 
L 460.8 6.330297 
" clip-path="url(#p019c11ecee)" style="fill: none; stroke: #b0b0b0; stroke-width: 0.8; stroke-linecap: square"/>
     </g>
     <g id="line2d_94">
      <g>
       <use xlink:href="#m339833f0fd" x="62.208" y="6.330297" style="stroke: #000000; stroke-width: 0.8"/>
      </g>
     </g>
     <g id="text_9">
      <!-- 1.0 -->
      <g transform="translate(29.763 12.409047) scale(0.16 -0.16)">
       <use xlink:href="#DejaVuSans-31"/>
       <use xlink:href="#DejaVuSans-2e" transform="translate(63.623047 0)"/>
       <use xlink:href="#DejaVuSans-30" transform="translate(95.410156 0)"/>
      </g>
     </g>
    </g>
    <g id="text_10">
     <!-- proportion of trials -->
     <g transform="translate(21.603625 241.61425) rotate(-90) scale(0.2 -0.2)">
      <defs>
       <path id="DejaVuSans-70" d="M 1159 525 
L 1159 -1331 
L 581 -1331 
L 581 3500 
L 1159 3500 
L 1159 2969 
Q 1341 3281 1617 3432 
Q 1894 3584 2278 3584 
Q 2916 3584 3314 3078 
Q 3713 2572 3713 1747 
Q 3713 922 3314 415 
Q 2916 -91 2278 -91 
Q 1894 -91 1617 61 
Q 1341 213 1159 525 
z
M 3116 1747 
Q 3116 2381 2855 2742 
Q 2594 3103 2138 3103 
Q 1681 3103 1420 2742 
Q 1159 2381 1159 1747 
Q 1159 1113 1420 752 
Q 1681 391 2138 391 
Q 2594 391 2855 752 
Q 3116 1113 3116 1747 
z
" transform="scale(0.015625)"/>
       <path id="DejaVuSans-72" d="M 2631 2963 
Q 2534 3019 2420 3045 
Q 2306 3072 2169 3072 
Q 1681 3072 1420 2755 
Q 1159 2438 1159 1844 
L 1159 0 
L 581 0 
L 581 3500 
L 1159 3500 
L 1159 2956 
Q 1341 3275 1631 3429 
Q 1922 3584 2338 3584 
Q 2397 3584 2469 3576 
Q 2541 3569 2628 3553 
L 2631 2963 
z
" transform="scale(0.015625)"/>
       <path id="DejaVuSans-74" d="M 1172 4494 
L 1172 3500 
L 2356 3500 
L 2356 3053 
L 1172 3053 
L 1172 1153 
Q 1172 725 1289 603 
Q 1406 481 1766 481 
L 2356 481 
L 2356 0 
L 1766 0 
Q 1100 0 847 248 
Q 594 497 594 1153 
L 594 3053 
L 172 3053 
L 172 3500 
L 594 3500 
L 594 4494 
L 1172 4494 
z
" transform="scale(0.015625)"/>
       <path id="DejaVuSans-69" d="M 603 3500 
L 1178 3500 
L 1178 0 
L 603 0 
L 603 3500 
z
M 603 4863 
L 1178 4863 
L 1178 4134 
L 603 4134 
L 603 4863 
z
" transform="scale(0.015625)"/>
       <path id="DejaVuSans-6e" d="M 3513 2113 
L 3513 0 
L 2938 0 
L 2938 2094 
Q 2938 2591 2744 2837 
Q 2550 3084 2163 3084 
Q 1697 3084 1428 2787 
Q 1159 2491 1159 1978 
L 1159 0 
L 581 0 
L 581 3500 
L 1159 3500 
L 1159 2956 
Q 1366 3272 1645 3428 
Q 1925 3584 2291 3584 
Q 2894 3584 3203 3211 
Q 3513 2838 3513 2113 
z
" transform="scale(0.015625)"/>
      </defs>
      <use xlink:href="#DejaVuSans-70"/>
      <use xlink:href="#DejaVuSans-72" transform="translate(63.476562 0)"/>
      <use xlink:href="#DejaVuSans-6f" transform="translate(102.339844 0)"/>
      <use xlink:href="#DejaVuSans-70" transform="translate(163.521484 0)"/>
      <use xlink:href="#DejaVuSans-6f" transform="translate(226.998047 0)"/>
      <use xlink:href="#DejaVuSans-72" transform="translate(288.179688 0)"/>
      <use xlink:href="#DejaVuSans-74" transform="translate(329.292969 0)"/>
      <use xlink:href="#DejaVuSans-69" transform="translate(368.501953 0)"/>
      <use xlink:href="#DejaVuSans-6f" transform="translate(396.285156 0)"/>
      <use xlink:href="#DejaVuSans-6e" transform="translate(457.466797 0)"/>
      <use xlink:href="#DejaVuSans-20" transform="translate(520.845703 0)"/>
      <use xlink:href="#DejaVuSans-6f" transform="translate(552.632812 0)"/>
      <use xlink:href="#DejaVuSans-66" transform="translate(613.814453 0)"/>
      <use xlink:href="#DejaVuSans-20" transform="translate(649.019531 0)"/>
      <use xlink:href="#DejaVuSans-74" transform="translate(680.806641 0)"/>
      <use xlink:href="#DejaVuSans-72" transform="translate(720.015625 0)"/>
      <use xlink:href="#DejaVuSans-69" transform="translate(761.128906 0)"/>
      <use xlink:href="#DejaVuSans-61" transform="translate(788.912109 0)"/>
      <use xlink:href="#DejaVuSans-6c" transform="translate(850.191406 0)"/>
      <use xlink:href="#DejaVuSans-73" transform="translate(877.974609 0)"/>
     </g>
    </g>
   </g>
   <g id="line2d_95">
    <path d="M 34.135893 293.76 
L 34.135893 274.59802 
L 49.945284 274.59802 
L 49.945284 255.43604 
L 80.698624 255.43604 
L 80.698624 236.274059 
L 114.717542 236.274059 
L 114.717542 217.112079 
L 146.071482 217.112079 
L 146.071482 197.950099 
L 164.219711 197.950099 
L 164.219711 178.788119 
L 192.974489 178.788119 
L 192.974489 159.626139 
L 199.672869 159.626139 
L 199.672869 140.464158 
L 203.163209 140.464158 
L 203.163209 121.302178 
L 220.432574 121.302178 
L 220.432574 102.140198 
L 234.51715 102.140198 
L 234.51715 82.978218 
L 250.564955 82.978218 
L 250.564955 63.816238 
L 420.285108 63.816238 
L 420.285108 44.654257 
L 420.285108 44.654257 
L 420.285108 44.654257 
L 460.8 44.654257 
" clip-path="url(#p019c11ecee)" style="fill: none; stroke: #000000; stroke-width: 1.5; stroke-linecap: square"/>
   </g>
   <g id="line2d_96">
    <defs>
     <path id="m2faa7f3ba4" d="M -0 14.142136 
L 8.485281 0 
L -0 -14.142136 
L -8.485281 -0 
z
" style="stroke: #000000; stroke-width: 1.5; stroke-linejoin: miter"/>
    </defs>
    <g clip-path="url(#p019c11ecee)">
     <use xlink:href="#m2faa7f3ba4" x="146.071482" y="217.112079" style="fill-opacity: 0; stroke: #000000; stroke-width: 1.5; stroke-linejoin: miter"/>
     <use xlink:href="#m2faa7f3ba4" x="199.672869" y="159.626139" style="fill-opacity: 0; stroke: #000000; stroke-width: 1.5; stroke-linejoin: miter"/>
     <use xlink:href="#m2faa7f3ba4" x="234.51715" y="102.140198" style="fill-opacity: 0; stroke: #000000; stroke-width: 1.5; stroke-linejoin: miter"/>
     <use xlink:href="#m2faa7f3ba4" x="250.564955" y="82.978218" style="fill-opacity: 0; stroke: #000000; stroke-width: 1.5; stroke-linejoin: miter"/>
     <use xlink:href="#m2faa7f3ba4" x="420.285108" y="44.654257" style="fill-opacity: 0; stroke: #000000; stroke-width: 1.5; stroke-linejoin: miter"/>
    </g>
   </g>
   <g id="line2d_97">
    <path clip-path="url(#p019c11ecee)" style="fill: none; stroke: #000000; stroke-width: 1.5; stroke-linecap: square"/>
    <g clip-path="url(#p019c11ecee)">
     <use xlink:href="#m2faa7f3ba4" x="-1" y="581.189703" style="fill-opacity: 0; stroke: #000000; stroke-width: 1.5; stroke-linejoin: miter"/>
     <use xlink:href="#m2faa7f3ba4" x="460.8" y="581.189703" style="fill-opacity: 0; stroke: #000000; stroke-width: 1.5; stroke-linejoin: miter"/>
    </g>
   </g>
   <g id="line2d_98">
    <path d="M 34.135893 293.76 
L 34.135893 274.59802 
L 49.945284 274.59802 
L 49.945284 255.43604 
L 80.698624 255.43604 
L 80.698624 236.274059 
L 114.717542 236.274059 
L 114.717542 217.112079 
L 146.071482 217.112079 
L 146.071482 197.950099 
L 164.219711 197.950099 
L 164.219711 178.788119 
L 187.634916 178.788119 
L 187.634916 159.626139 
L 204.002224 159.626139 
L 204.002224 140.464158 
L 217.255136 140.464158 
L 217.255136 121.302178 
L 237.312043 121.302178 
L 237.312043 102.140198 
L 238.212954 102.140198 
L 238.212954 82.978218 
L 250.564955 82.978218 
L 250.564955 63.816238 
L 360.381177 63.816238 
L 360.381177 44.654257 
L 422.218577 44.654257 
L 422.218577 25.492277 
L 422.218577 25.492277 
L 422.218577 25.492277 
L 460.8 25.492277 
" clip-path="url(#p019c11ecee)" style="fill: none; stroke: #000000; stroke-width: 1.5; stroke-linecap: square"/>
   </g>
   <g id="line2d_99">
    <defs>
     <path id="m61faae8710" d="M 0 7.5 
C 1.989023 7.5 3.896849 6.709753 5.303301 5.303301 
C 6.709753 3.896849 7.5 1.989023 7.5 0 
C 7.5 -1.989023 6.709753 -3.896849 5.303301 -5.303301 
C 3.896849 -6.709753 1.989023 -7.5 0 -7.5 
C -1.989023 -7.5 -3.896849 -6.709753 -5.303301 -5.303301 
C -6.709753 -3.896849 -7.5 -1.989023 -7.5 0 
C -7.5 1.989023 -6.709753 3.896849 -5.303301 5.303301 
C -3.896849 6.709753 -1.989023 7.5 0 7.5 
z
" style="stroke: #000000; stroke-width: 1.5"/>
    </defs>
    <g clip-path="url(#p019c11ecee)">
     <use xlink:href="#m61faae8710" x="146.071482" y="217.112079" style="fill-opacity: 0; stroke: #000000; stroke-width: 1.5"/>
     <use xlink:href="#m61faae8710" x="204.002224" y="159.626139" style="fill-opacity: 0; stroke: #000000; stroke-width: 1.5"/>
     <use xlink:href="#m61faae8710" x="238.212954" y="102.140198" style="fill-opacity: 0; stroke: #000000; stroke-width: 1.5"/>
     <use xlink:href="#m61faae8710" x="250.564955" y="82.978218" style="fill-opacity: 0; stroke: #000000; stroke-width: 1.5"/>
     <use xlink:href="#m61faae8710" x="422.218577" y="25.492277" style="fill-opacity: 0; stroke: #000000; stroke-width: 1.5"/>
    </g>
   </g>
   <g id="line2d_100">
    <path clip-path="url(#p019c11ecee)" style="fill: none; stroke: #000000; stroke-width: 1.5; stroke-linecap: square"/>
   </g>
   <g id="line2d_101">
    <path d="M 340.419786 293.76 
L 340.419786 274.59802 
L 343.988194 274.59802 
L 343.988194 255.43604 
L 389.078592 255.43604 
L 389.078592 236.274059 
L 389.078592 236.274059 
L 389.078592 236.274059 
L 460.8 236.274059 
" clip-path="url(#p019c11ecee)" style="fill: none; stroke: #00bfbf; stroke-width: 1.5; stroke-linecap: square"/>
   </g>
   <g id="line2d_102">
    <defs>
     <path id="m67df38286d" d="M -0 14.142136 
L 8.485281 0 
L -0 -14.142136 
L -8.485281 -0 
z
" style="stroke: #00bfbf; stroke-width: 1.5; stroke-linejoin: miter"/>
    </defs>
    <g clip-path="url(#p019c11ecee)">
     <use xlink:href="#m67df38286d" x="343.988194" y="274.59802" style="fill-opacity: 0; stroke: #00bfbf; stroke-width: 1.5; stroke-linejoin: miter"/>
     <use xlink:href="#m67df38286d" x="389.078592" y="255.43604" style="fill-opacity: 0; stroke: #00bfbf; stroke-width: 1.5; stroke-linejoin: miter"/>
     <use xlink:href="#m67df38286d" x="389.078592" y="236.274059" style="fill-opacity: 0; stroke: #00bfbf; stroke-width: 1.5; stroke-linejoin: miter"/>
    </g>
   </g>
   <g id="line2d_103">
    <path clip-path="url(#p019c11ecee)" style="fill: none; stroke: #00bfbf; stroke-width: 1.5; stroke-linecap: square"/>
    <g clip-path="url(#p019c11ecee)">
     <use xlink:href="#m67df38286d" x="-1" y="581.189703" style="fill-opacity: 0; stroke: #00bfbf; stroke-width: 1.5; stroke-linejoin: miter"/>
     <use xlink:href="#m67df38286d" x="460.8" y="581.189703" style="fill-opacity: 0; stroke: #00bfbf; stroke-width: 1.5; stroke-linejoin: miter"/>
    </g>
   </g>
   <g id="line2d_104">
    <path d="M 319.409771 293.76 
L 319.409771 274.59802 
L 319.409771 274.59802 
L 319.409771 274.59802 
L 460.8 274.59802 
" clip-path="url(#p019c11ecee)" style="fill: none; stroke: #00bfbf; stroke-width: 1.5; stroke-linecap: square"/>
   </g>
   <g id="line2d_105">
    <defs>
     <path id="mdb77df56e1" d="M 0 7.5 
C 1.989023 7.5 3.896849 6.709753 5.303301 5.303301 
C 6.709753 3.896849 7.5 1.989023 7.5 0 
C 7.5 -1.989023 6.709753 -3.896849 5.303301 -5.303301 
C 3.896849 -6.709753 1.989023 -7.5 0 -7.5 
C -1.989023 -7.5 -3.896849 -6.709753 -5.303301 -5.303301 
C -6.709753 -3.896849 -7.5 -1.989023 -7.5 0 
C -7.5 1.989023 -6.709753 3.896849 -5.303301 5.303301 
C -3.896849 6.709753 -1.989023 7.5 0 7.5 
z
" style="stroke: #00bfbf; stroke-width: 1.5"/>
    </defs>
    <g clip-path="url(#p019c11ecee)">
     <use xlink:href="#mdb77df56e1" x="319.409771" y="293.76" style="fill-opacity: 0; stroke: #00bfbf; stroke-width: 1.5"/>
     <use xlink:href="#mdb77df56e1" x="319.409771" y="293.76" style="fill-opacity: 0; stroke: #00bfbf; stroke-width: 1.5"/>
     <use xlink:href="#mdb77df56e1" x="319.409771" y="274.59802" style="fill-opacity: 0; stroke: #00bfbf; stroke-width: 1.5"/>
    </g>
   </g>
   <g id="line2d_106">
    <path clip-path="url(#p019c11ecee)" style="fill: none; stroke: #00bfbf; stroke-width: 1.5; stroke-linecap: square"/>
   </g>
   <g id="line2d_107">
    <path d="M 412.805065 293.76 
L 412.805065 274.59802 
L 412.805065 274.59802 
L 412.805065 274.59802 
L 460.8 274.59802 
" clip-path="url(#p019c11ecee)" style="fill: none; stroke: #bf00bf; stroke-width: 1.5; stroke-linecap: square"/>
   </g>
   <g id="line2d_108">
    <defs>
     <path id="m68b54ed3b6" d="M -0 14.142136 
L 8.485281 0 
L -0 -14.142136 
L -8.485281 -0 
z
" style="stroke: #bf00bf; stroke-width: 1.5; stroke-linejoin: miter"/>
    </defs>
    <g clip-path="url(#p019c11ecee)">
     <use xlink:href="#m68b54ed3b6" x="412.805065" y="293.76" style="fill-opacity: 0; stroke: #bf00bf; stroke-width: 1.5; stroke-linejoin: miter"/>
     <use xlink:href="#m68b54ed3b6" x="412.805065" y="293.76" style="fill-opacity: 0; stroke: #bf00bf; stroke-width: 1.5; stroke-linejoin: miter"/>
     <use xlink:href="#m68b54ed3b6" x="412.805065" y="274.59802" style="fill-opacity: 0; stroke: #bf00bf; stroke-width: 1.5; stroke-linejoin: miter"/>
    </g>
   </g>
   <g id="line2d_109">
    <path clip-path="url(#p019c11ecee)" style="fill: none; stroke: #bf00bf; stroke-width: 1.5; stroke-linecap: square"/>
    <g clip-path="url(#p019c11ecee)">
     <use xlink:href="#m68b54ed3b6" x="-1" y="581.189703" style="fill-opacity: 0; stroke: #bf00bf; stroke-width: 1.5; stroke-linejoin: miter"/>
     <use xlink:href="#m68b54ed3b6" x="460.8" y="581.189703" style="fill-opacity: 0; stroke: #bf00bf; stroke-width: 1.5; stroke-linejoin: miter"/>
    </g>
   </g>
   <g id="line2d_110">
    <path d="M 430.130725 293.76 
L 430.130725 274.59802 
L 430.130725 274.59802 
L 430.130725 274.59802 
L 460.8 274.59802 
" clip-path="url(#p019c11ecee)" style="fill: none; stroke: #bf00bf; stroke-width: 1.5; stroke-linecap: square"/>
   </g>
   <g id="line2d_111">
    <defs>
     <path id="m02ba2e367b" d="M 0 7.5 
C 1.989023 7.5 3.896849 6.709753 5.303301 5.303301 
C 6.709753 3.896849 7.5 1.989023 7.5 0 
C 7.5 -1.989023 6.709753 -3.896849 5.303301 -5.303301 
C 3.896849 -6.709753 1.989023 -7.5 0 -7.5 
C -1.989023 -7.5 -3.896849 -6.709753 -5.303301 -5.303301 
C -6.709753 -3.896849 -7.5 -1.989023 -7.5 0 
C -7.5 1.989023 -6.709753 3.896849 -5.303301 5.303301 
C -3.896849 6.709753 -1.989023 7.5 0 7.5 
z
" style="stroke: #bf00bf; stroke-width: 1.5"/>
    </defs>
    <g clip-path="url(#p019c11ecee)">
     <use xlink:href="#m02ba2e367b" x="430.130725" y="293.76" style="fill-opacity: 0; stroke: #bf00bf; stroke-width: 1.5"/>
     <use xlink:href="#m02ba2e367b" x="430.130725" y="293.76" style="fill-opacity: 0; stroke: #bf00bf; stroke-width: 1.5"/>
     <use xlink:href="#m02ba2e367b" x="430.130725" y="274.59802" style="fill-opacity: 0; stroke: #bf00bf; stroke-width: 1.5"/>
    </g>
   </g>
   <g id="line2d_112">
    <path clip-path="url(#p019c11ecee)" style="fill: none; stroke: #bf00bf; stroke-width: 1.5; stroke-linecap: square"/>
   </g>
   <g id="line2d_113">
    <path d="M 438.489214 293.76 
L 438.489214 274.59802 
L 438.489214 274.59802 
L 438.489214 274.59802 
L 460.8 274.59802 
" clip-path="url(#p019c11ecee)" style="fill: none; stroke: #ff0000; stroke-width: 3; stroke-linecap: square"/>
   </g>
   <g id="line2d_114">
    <defs>
     <path id="m966940d68a" d="M -0 14.142136 
L 8.485281 0 
L -0 -14.142136 
L -8.485281 -0 
z
" style="stroke: #ff0000; stroke-width: 3; stroke-linejoin: miter"/>
    </defs>
    <g clip-path="url(#p019c11ecee)">
     <use xlink:href="#m966940d68a" x="438.489214" y="293.76" style="fill-opacity: 0; stroke: #ff0000; stroke-width: 3; stroke-linejoin: miter"/>
     <use xlink:href="#m966940d68a" x="438.489214" y="293.76" style="fill-opacity: 0; stroke: #ff0000; stroke-width: 3; stroke-linejoin: miter"/>
     <use xlink:href="#m966940d68a" x="438.489214" y="274.59802" style="fill-opacity: 0; stroke: #ff0000; stroke-width: 3; stroke-linejoin: miter"/>
    </g>
   </g>
   <g id="line2d_115">
    <path clip-path="url(#p019c11ecee)" style="fill: none; stroke: #ff0000; stroke-width: 3; stroke-linecap: square"/>
    <g clip-path="url(#p019c11ecee)">
     <use xlink:href="#m966940d68a" x="-1" y="581.189703" style="fill-opacity: 0; stroke: #ff0000; stroke-width: 3; stroke-linejoin: miter"/>
     <use xlink:href="#m966940d68a" x="460.8" y="581.189703" style="fill-opacity: 0; stroke: #ff0000; stroke-width: 3; stroke-linejoin: miter"/>
    </g>
   </g>
   <g id="line2d_116"/>
   <g id="line2d_117">
    <path d="M 441.819429 293.76 
L 441.819429 3.456 
" clip-path="url(#p019c11ecee)" style="fill: none; stroke: #000000; stroke-width: 1.5; stroke-linecap: square"/>
    <defs>
     <path id="m0b3869e209" d="M -10 0 
L 10 0 
M 0 10 
L 0 -10 
" style="stroke: #000000; stroke-width: 3"/>
    </defs>
    <g clip-path="url(#p019c11ecee)">
     <use xlink:href="#m0b3869e209" x="441.819429" y="293.76" style="stroke: #000000; stroke-width: 3"/>
     <use xlink:href="#m0b3869e209" x="441.819429" y="3.456" style="stroke: #000000; stroke-width: 3"/>
    </g>
   </g>
   <g id="line2d_118">
    <path d="M 441.819429 293.76 
L 441.819429 3.456 
" clip-path="url(#p019c11ecee)" style="fill: none; stroke: #000000; stroke-width: 1.5; stroke-linecap: square"/>
    <defs>
     <path id="me9fe864063" d="M 0 7.5 
C 1.989023 7.5 3.896849 6.709753 5.303301 5.303301 
C 6.709753 3.896849 7.5 1.989023 7.5 0 
C 7.5 -1.989023 6.709753 -3.896849 5.303301 -5.303301 
C 3.896849 -6.709753 1.989023 -7.5 0 -7.5 
C -1.989023 -7.5 -3.896849 -6.709753 -5.303301 -5.303301 
C -6.709753 -3.896849 -7.5 -1.989023 -7.5 0 
C -7.5 1.989023 -6.709753 3.896849 -5.303301 5.303301 
C -3.896849 6.709753 -1.989023 7.5 0 7.5 
z
" style="stroke: #000000; stroke-width: 3"/>
    </defs>
    <g clip-path="url(#p019c11ecee)">
     <use xlink:href="#me9fe864063" x="441.819429" y="293.76" style="fill-opacity: 0; stroke: #000000; stroke-width: 3"/>
     <use xlink:href="#me9fe864063" x="441.819429" y="3.456" style="fill-opacity: 0; stroke: #000000; stroke-width: 3"/>
    </g>
   </g>
   <g id="patch_3">
    <path d="M 62.208 293.76 
L 62.208 3.456 
" style="fill: none; stroke: #000000; stroke-width: 0.8; stroke-linejoin: miter; stroke-linecap: square"/>
   </g>
   <g id="patch_4">
    <path d="M 460.8 293.76 
L 460.8 3.456 
" style="fill: none; stroke: #000000; stroke-width: 0.8; stroke-linejoin: miter; stroke-linecap: square"/>
   </g>
   <g id="patch_5">
    <path d="M 62.208 293.76 
L 460.8 293.76 
" style="fill: none; stroke: #000000; stroke-width: 0.8; stroke-linejoin: miter; stroke-linecap: square"/>
   </g>
   <g id="patch_6">
    <path d="M 62.208 3.456 
L 460.8 3.456 
" style="fill: none; stroke: #000000; stroke-width: 0.8; stroke-linejoin: miter; stroke-linecap: square"/>
   </g>
   <g id="text_11">
    <!-- f20-f24 -->
    <g transform="translate(225.405563 24.458955) scale(0.2 -0.2)">
     <defs>
      <path id="DejaVuSans-2d" d="M 313 2009 
L 1997 2009 
L 1997 1497 
L 313 1497 
L 313 2009 
z
" transform="scale(0.015625)"/>
     </defs>
     <use xlink:href="#DejaVuSans-66"/>
     <use xlink:href="#DejaVuSans-32" transform="translate(35.205078 0)"/>
     <use xlink:href="#DejaVuSans-30" transform="translate(98.828125 0)"/>
     <use xlink:href="#DejaVuSans-2d" transform="translate(162.451172 0)"/>
     <use xlink:href="#DejaVuSans-66" transform="translate(198.535156 0)"/>
     <use xlink:href="#DejaVuSans-32" transform="translate(233.740234 0)"/>
     <use xlink:href="#DejaVuSans-34" transform="translate(297.363281 0)"/>
    </g>
   </g>
   <g id="text_12">
    <!-- absolute targets -->
    <g transform="translate(62.208 608.974574) scale(0.14 -0.14)">
     <defs>
      <path id="DejaVuSans-62" d="M 3116 1747 
Q 3116 2381 2855 2742 
Q 2594 3103 2138 3103 
Q 1681 3103 1420 2742 
Q 1159 2381 1159 1747 
Q 1159 1113 1420 752 
Q 1681 391 2138 391 
Q 2594 391 2855 752 
Q 3116 1113 3116 1747 
z
M 1159 2969 
Q 1341 3281 1617 3432 
Q 1894 3584 2278 3584 
Q 2916 3584 3314 3078 
Q 3713 2572 3713 1747 
Q 3713 922 3314 415 
Q 2916 -91 2278 -91 
Q 1894 -91 1617 61 
Q 1341 213 1159 525 
L 1159 0 
L 581 0 
L 581 4863 
L 1159 4863 
L 1159 2969 
z
" transform="scale(0.015625)"/>
      <path id="DejaVuSans-75" d="M 544 1381 
L 544 3500 
L 1119 3500 
L 1119 1403 
Q 1119 906 1312 657 
Q 1506 409 1894 409 
Q 2359 409 2629 706 
Q 2900 1003 2900 1516 
L 2900 3500 
L 3475 3500 
L 3475 0 
L 2900 0 
L 2900 538 
Q 2691 219 2414 64 
Q 2138 -91 1772 -91 
Q 1169 -91 856 284 
Q 544 659 544 1381 
z
M 1991 3584 
L 1991 3584 
z
" transform="scale(0.015625)"/>
      <path id="DejaVuSans-65" d="M 3597 1894 
L 3597 1613 
L 953 1613 
Q 991 1019 1311 708 
Q 1631 397 2203 397 
Q 2534 397 2845 478 
Q 3156 559 3463 722 
L 3463 178 
Q 3153 47 2828 -22 
Q 2503 -91 2169 -91 
Q 1331 -91 842 396 
Q 353 884 353 1716 
Q 353 2575 817 3079 
Q 1281 3584 2069 3584 
Q 2775 3584 3186 3129 
Q 3597 2675 3597 1894 
z
M 3022 2063 
Q 3016 2534 2758 2815 
Q 2500 3097 2075 3097 
Q 1594 3097 1305 2825 
Q 1016 2553 972 2059 
L 3022 2063 
z
" transform="scale(0.015625)"/>
     </defs>
     <use xlink:href="#DejaVuSans-61"/>
     <use xlink:href="#DejaVuSans-62" transform="translate(61.279297 0)"/>
     <use xlink:href="#DejaVuSans-73" transform="translate(124.755859 0)"/>
     <use xlink:href="#DejaVuSans-6f" transform="translate(176.855469 0)"/>
     <use xlink:href="#DejaVuSans-6c" transform="translate(238.037109 0)"/>
     <use xlink:href="#DejaVuSans-75" transform="translate(265.820312 0)"/>
     <use xlink:href="#DejaVuSans-74" transform="translate(329.199219 0)"/>
     <use xlink:href="#DejaVuSans-65" transform="translate(368.408203 0)"/>
     <use xlink:href="#DejaVuSans-20" transform="translate(429.931641 0)"/>
     <use xlink:href="#DejaVuSans-74" transform="translate(461.71875 0)"/>
     <use xlink:href="#DejaVuSans-61" transform="translate(500.927734 0)"/>
     <use xlink:href="#DejaVuSans-72" transform="translate(562.207031 0)"/>
     <use xlink:href="#DejaVuSans-67" transform="translate(601.570312 0)"/>
     <use xlink:href="#DejaVuSans-65" transform="translate(665.046875 0)"/>
     <use xlink:href="#DejaVuSans-74" transform="translate(726.570312 0)"/>
     <use xlink:href="#DejaVuSans-73" transform="translate(765.779297 0)"/>
    </g>
   </g>
   <g id="text_13">
    <!-- v2.8.2 -->
    <g style="fill: #808080" transform="translate(248.959 289.19321) scale(0.08 -0.08)">
     <use xlink:href="#DejaVuSans-76"/>
     <use xlink:href="#DejaVuSans-32" transform="translate(59.179688 0)"/>
     <use xlink:href="#DejaVuSans-2e" transform="translate(122.802734 0)"/>
     <use xlink:href="#DejaVuSans-38" transform="translate(154.589844 0)"/>
     <use xlink:href="#DejaVuSans-2e" transform="translate(218.212891 0)"/>
     <use xlink:href="#DejaVuSans-32" transform="translate(250 0)"/>
    </g>
   </g>
   <g id="legend_1">
    <g id="patch_7">
     <path d="M 76.208 136.881 
L 160.148625 136.881 
Q 164.148625 136.881 164.148625 132.881 
L 164.148625 17.456 
Q 164.148625 13.456 160.148625 13.456 
L 76.208 13.456 
Q 72.208 13.456 72.208 17.456 
L 72.208 132.881 
Q 72.208 136.881 76.208 136.881 
z
" style="fill: #ffffff; opacity: 0.2; stroke: #cccccc; stroke-linejoin: miter"/>
    </g>
    <g id="line2d_119">
     <path d="M 80.208 29.652875 
L 80.208 29.652875 
L 100.208 29.652875 
L 100.208 29.652875 
L 120.208 29.652875 
" style="fill: none; stroke: #000000; stroke-width: 1.5; stroke-linecap: square"/>
    </g>
    <g id="text_14">
     <!-- 1 -->
     <g transform="translate(136.208 36.652875) scale(0.2 -0.2)">
      <use xlink:href="#DejaVuSans-31"/>
     </g>
    </g>
    <g id="line2d_120">
     <path d="M 80.208 59.009125 
L 80.208 59.009125 
L 100.208 59.009125 
L 100.208 59.009125 
L 120.208 59.009125 
" style="fill: none; stroke: #00bfbf; stroke-width: 1.5; stroke-linecap: square"/>
    </g>
    <g id="text_15">
     <!-- -1 -->
     <g transform="translate(136.208 66.009125) scale(0.2 -0.2)">
      <use xlink:href="#DejaVuSans-2d"/>
      <use xlink:href="#DejaVuSans-31" transform="translate(36.083984 0)"/>
     </g>
    </g>
    <g id="line2d_121">
     <path d="M 80.208 88.365375 
L 80.208 88.365375 
L 100.208 88.365375 
L 100.208 88.365375 
L 120.208 88.365375 
" style="fill: none; stroke: #bf00bf; stroke-width: 1.5; stroke-linecap: square"/>
    </g>
    <g id="text_16">
     <!-- -4 -->
     <g transform="translate(136.208 95.365375) scale(0.2 -0.2)">
      <use xlink:href="#DejaVuSans-2d"/>
      <use xlink:href="#DejaVuSans-34" transform="translate(36.083984 0)"/>
     </g>
    </g>
    <g id="line2d_122">
     <path d="M 80.208 117.721625 
L 100.208 117.721625 
L 120.208 117.721625 
" style="fill: none; stroke: #ff0000; stroke-width: 3; stroke-linecap: square"/>
    </g>
    <g id="text_17">
     <!-- -8 -->
     <g transform="translate(136.208 124.721625) scale(0.2 -0.2)">
      <use xlink:href="#DejaVuSans-2d"/>
      <use xlink:href="#DejaVuSans-38" transform="translate(36.083984 0)"/>
     </g>
    </g>
   </g>
  </g>
 </g>
 <defs>
  <clipPath id="p019c11ecee">
   <rect x="62.208" y="3.456" width="398.592" height="290.304"/>
  </clipPath>
 </defs>
</svg>
