<?xml version="1.0" encoding="utf-8" standalone="no"?>
<!DOCTYPE svg PUBLIC "-//W3C//DTD SVG 1.1//EN"
  "http://www.w3.org/Graphics/SVG/1.1/DTD/svg11.dtd">
<svg xmlns:xlink="http://www.w3.org/1999/xlink" width="460.8pt" height="345.6pt" viewBox="0 0 460.8 345.6" xmlns="http://www.w3.org/2000/svg" version="1.1">
 <metadata>
  <rdf:RDF xmlns:dc="http://purl.org/dc/elements/1.1/" xmlns:cc="http://creativecommons.org/ns#" xmlns:rdf="http://www.w3.org/1999/02/22-rdf-syntax-ns#">
   <cc:Work>
    <dc:type rdf:resource="http://purl.org/dc/dcmitype/StillImage"/>
    <dc:date>2025-12-16T07:51:46.777243</dc:date>
    <dc:format>image/svg+xml</dc:format>
    <dc:creator>
     <cc:Agent>
      <dc:title>Matplotlib v3.10.0, https://matplotlib.org/</dc:title>
     </cc:Agent>
    </dc:creator>
   </cc:Work>
  </rdf:RDF>
 </metadata>
 <defs>
  <style type="text/css">*{stroke-linejoin: round; stroke-linecap: butt}</style>
 </defs>
 <g id="figure_1">
  <g id="patch_1">
   <path d="M 0 345.6 
L 460.8 345.6 
L 460.8 0 
L 0 0 
z
" style="fill: #ffffff"/>
  </g>
  <g id="axes_1">
   <g id="patch_2">
    <path d="M 62.208 293.76 
L 460.8 293.76 
L 460.8 3.456 
L 62.208 3.456 
z
" style="fill: #ffffff"/>
   </g>
   <g id="line2d_1">
    <path d="M 342.064429 293.76 
L 342.064429 289.927604 
L 346.223719 289.927604 
L 346.223719 286.095208 
L 347.705725 286.095208 
L 347.705725 282.262812 
L 348.251332 282.262812 
L 348.251332 278.430416 
L 348.731811 278.430416 
L 348.731811 274.59802 
L 349.680346 274.59802 
L 349.680346 270.765624 
L 349.739089 270.765624 
L 349.739089 266.933228 
L 350.090237 266.933228 
L 350.090237 263.100832 
L 352.431505 263.100832 
L 352.431505 259.268436 
L 353.866138 259.268436 
L 353.866138 255.43604 
L 354.462002 255.43604 
L 354.462002 251.603644 
L 354.837852 251.603644 
L 354.837852 247.771248 
L 373.297891 247.771248 
L 373.297891 243.938851 
L 380.659922 243.938851 
L 380.659922 240.106455 
L 381.059835 240.106455 
L 381.059835 236.274059 
L 387.06196 236.274059 
L 387.06196 232.441663 
L 387.506697 232.441663 
L 387.506697 228.609267 
L 394.925978 228.609267 
L 394.925978 224.776871 
L 408.403262 224.776871 
L 408.403262 220.944475 
L 409.045541 220.944475 
L 409.045541 217.112079 
L 413.361288 217.112079 
L 413.361288 213.279683 
L 426.752381 213.279683 
L 426.752381 209.447287 
L 437.795885 209.447287 
L 437.795885 205.614891 
L 461.8 205.614891 
" clip-path="url(#p5644309cb1)" style="fill: none; stroke: #f5deb3; stroke-width: 1.5; stroke-linecap: square"/>
   </g>
   <g id="line2d_2"/>
   <g id="line2d_3">
    <path d="M 207.235767 293.76 
L 207.235767 289.927604 
L 208.78388 289.927604 
L 208.78388 286.095208 
L 222.848541 286.095208 
L 222.848541 282.262812 
L 313.947296 282.262812 
L 313.947296 278.430416 
L 336.975042 278.430416 
L 336.975042 274.59802 
L 386.463322 274.59802 
L 386.463322 270.765624 
L 399.928641 270.765624 
L 399.928641 266.933228 
L 406.763934 266.933228 
L 406.763934 263.100832 
L 421.220387 263.100832 
L 421.220387 259.268436 
L 423.76669 259.268436 
L 423.76669 255.43604 
L 430.685346 255.43604 
L 430.685346 251.603644 
L 439.16237 251.603644 
L 439.16237 247.771248 
L 445.865288 247.771248 
L 445.865288 243.938851 
L 448.92351 243.938851 
L 448.92351 240.106455 
L 455.058208 240.106455 
L 455.058208 236.274059 
L 461.8 236.274059 
" clip-path="url(#p5644309cb1)" style="fill: none; stroke: #f5deb3; stroke-width: 1.5; stroke-linecap: square"/>
   </g>
   <g id="line2d_4">
    <path d="M 357.704781 293.76 
L 357.704781 289.927604 
L 365.416219 289.927604 
L 365.416219 286.095208 
L 366.896855 286.095208 
L 366.896855 282.262812 
L 367.025604 282.262812 
L 367.025604 278.430416 
L 367.196801 278.430416 
L 367.196801 274.59802 
L 369.416213 274.59802 
L 369.416213 270.765624 
L 370.352149 270.765624 
L 370.352149 266.933228 
L 372.294482 266.933228 
L 372.294482 263.100832 
L 372.605179 263.100832 
L 372.605179 259.268436 
L 374.58299 259.268436 
L 374.58299 255.43604 
L 375.911703 255.43604 
L 375.911703 251.603644 
L 376.708158 251.603644 
L 376.708158 247.771248 
L 377.564051 247.771248 
L 377.564051 243.938851 
L 377.811196 243.938851 
L 377.811196 240.106455 
L 378.302177 240.106455 
L 378.302177 236.274059 
L 378.650211 236.274059 
L 378.754193 228.609267 
L 378.788809 228.609267 
L 378.788809 224.776871 
L 379.168163 224.776871 
L 379.168163 220.944475 
L 379.305464 220.944475 
L 379.305464 217.112079 
L 379.579039 217.112079 
L 379.579039 213.279683 
L 380.893558 213.279683 
L 380.893558 209.447287 
L 381.949137 209.447287 
L 381.949137 205.614891 
L 382.372241 205.614891 
L 382.372241 201.782495 
L 382.566426 201.782495 
L 382.566426 197.950099 
L 383.46366 197.950099 
L 383.46366 194.117703 
L 383.590649 194.117703 
L 383.590649 190.285307 
L 385.736241 190.285307 
L 385.736241 186.452911 
L 386.282452 186.452911 
L 386.282452 182.620515 
L 386.70356 182.620515 
L 386.70356 178.788119 
L 387.240286 178.788119 
L 387.240286 174.955723 
L 388.064912 174.955723 
L 388.064912 171.123327 
L 388.181712 171.123327 
L 388.181712 167.290931 
L 388.501638 167.290931 
L 388.501638 163.458535 
L 389.478886 163.458535 
L 389.478886 159.626139 
L 390.326964 159.626139 
L 390.326964 155.793743 
L 390.773978 155.793743 
L 390.773978 151.961347 
L 390.912927 151.961347 
L 390.968408 144.296554 
L 391.410255 144.296554 
L 391.437753 136.631762 
L 392.229262 136.631762 
L 392.310496 128.96697 
L 392.768564 128.96697 
L 392.822204 121.302178 
L 393.59416 121.302178 
L 393.620587 113.637386 
L 393.93672 113.637386 
L 393.989233 105.972594 
L 394.900172 105.972594 
L 394.900172 102.140198 
L 395.260361 102.140198 
L 395.260361 98.307802 
L 398.15731 98.307802 
L 398.15731 94.475406 
L 401.553256 94.475406 
L 401.553256 90.64301 
L 403.507695 90.64301 
L 403.507695 86.810614 
L 405.352339 86.810614 
L 405.352339 82.978218 
L 410.696655 82.978218 
L 410.696655 79.145822 
L 421.539242 79.145822 
L 421.539242 75.313426 
L 421.998319 75.313426 
L 421.998319 71.48103 
L 423.751423 71.48103 
L 423.751423 67.648634 
L 424.373927 67.648634 
L 424.373927 63.816238 
L 424.720074 63.816238 
L 424.720074 59.983842 
L 428.837621 59.983842 
L 428.837621 56.151446 
L 433.28769 56.151446 
L 433.28769 52.31905 
L 444.416858 52.31905 
L 444.416858 48.486653 
L 450.485036 48.486653 
L 450.485036 44.654257 
L 458.074882 44.654257 
L 458.074882 40.821861 
L 458.327772 40.821861 
L 458.327772 36.989465 
L 461.8 36.989465 
L 461.8 36.989465 
" clip-path="url(#p5644309cb1)" style="fill: none; stroke: #f5deb3; stroke-width: 1.5; stroke-linecap: square"/>
   </g>
   <g id="line2d_5"/>
   <g id="line2d_6"/>
   <g id="line2d_7">
    <path d="M 395.567227 293.76 
L 395.567227 289.927604 
L 396.452587 289.927604 
L 396.452587 286.095208 
L 397.225026 286.095208 
L 397.225026 282.262812 
L 398.035541 282.262812 
L 398.035541 278.430416 
L 398.205942 278.430416 
L 398.205942 274.59802 
L 400.839702 274.59802 
L 400.839702 270.765624 
L 401.047819 270.765624 
L 401.047819 266.933228 
L 401.872494 266.933228 
L 401.872494 263.100832 
L 402.370436 263.100832 
L 402.415481 255.43604 
L 402.707374 255.43604 
L 402.796876 243.938851 
L 402.908549 243.938851 
L 402.908549 240.106455 
L 403.042259 240.106455 
L 403.042259 236.274059 
L 403.507695 236.274059 
L 403.595904 228.609267 
L 403.683972 228.609267 
L 403.74993 220.944475 
L 403.969222 220.944475 
L 404.034839 205.614891 
L 404.751504 205.614891 
L 404.751504 201.782495 
L 404.966843 201.782495 
L 404.966843 197.950099 
L 405.373676 197.950099 
L 405.373676 194.117703 
L 406.325382 194.117703 
L 406.325382 190.285307 
L 406.659834 190.285307 
L 406.659834 186.452911 
L 407.012972 186.452911 
L 407.054369 178.788119 
L 407.219646 178.788119 
L 407.219646 174.955723 
L 407.40499 174.955723 
L 407.40499 171.123327 
L 407.875825 171.123327 
L 407.977649 163.458535 
L 408.665093 163.458535 
L 408.685183 155.793743 
L 409.005617 155.793743 
L 409.005617 151.961347 
L 410.249474 151.961347 
L 410.249474 148.12895 
L 411.082572 148.12895 
L 411.082572 144.296554 
L 411.751474 144.296554 
L 411.751474 140.464158 
L 411.884283 140.464158 
L 411.922169 132.799366 
L 412.186646 132.799366 
L 412.186646 128.96697 
L 412.449856 128.96697 
L 412.449856 125.134574 
L 413.747322 125.134574 
L 413.838836 117.469782 
L 414.996956 117.469782 
L 414.996956 113.637386 
L 419.250835 113.637386 
L 419.250835 109.80499 
L 419.614226 109.80499 
L 419.614226 105.972594 
L 425.078961 105.972594 
L 425.078961 102.140198 
L 425.287235 102.140198 
L 425.287235 98.307802 
L 427.71262 98.307802 
L 427.71262 94.475406 
L 429.322659 94.475406 
L 429.322659 90.64301 
L 429.529228 90.64301 
L 429.529228 86.810614 
L 431.141068 86.810614 
L 431.24775 79.145822 
L 432.133171 79.145822 
L 432.133171 75.313426 
L 432.355579 75.313426 
L 432.40778 67.648634 
L 433.454316 67.648634 
L 433.454316 63.816238 
L 435.080938 63.816238 
L 435.080938 59.983842 
L 435.600313 59.983842 
L 435.600313 56.151446 
L 437.428058 56.151446 
L 437.428058 52.31905 
L 440.697985 52.31905 
L 440.697985 48.486653 
L 441.488709 48.486653 
L 441.488709 44.654257 
L 444.437821 44.654257 
L 444.437821 40.821861 
L 447.544566 40.821861 
L 447.544566 36.989465 
L 455.804614 36.989465 
L 455.804614 33.157069 
L 461.8 33.157069 
L 461.8 33.157069 
" clip-path="url(#p5644309cb1)" style="fill: none; stroke: #f5deb3; stroke-width: 1.5; stroke-linecap: square"/>
   </g>
   <g id="line2d_8">
    <path clip-path="url(#p5644309cb1)" style="fill: none; stroke: #f5deb3; stroke-width: 1.5; stroke-linecap: square"/>
   </g>
   <g id="line2d_9">
    <path d="M 388.501638 293.76 
L 388.501638 289.927604 
L 389.876285 289.927604 
L 389.876285 286.095208 
L 390.940675 286.095208 
L 390.940675 282.262812 
L 392.688005 282.262812 
L 392.688005 278.430416 
L 393.14295 278.430416 
L 393.14295 274.59802 
L 393.302624 274.59802 
L 393.302624 270.765624 
L 394.172633 270.765624 
L 394.172633 266.933228 
L 395.106283 266.933228 
L 395.106283 263.100832 
L 395.720019 263.100832 
L 395.720019 259.268436 
L 396.024336 259.268436 
L 396.125402 251.603644 
L 396.175865 251.603644 
L 396.201079 243.938851 
L 397.001886 243.938851 
L 397.001886 240.106455 
L 397.323909 240.106455 
L 397.323909 236.274059 
L 397.570342 236.274059 
L 397.594924 228.609267 
L 397.79119 228.609267 
L 397.79119 224.776871 
L 397.96235 224.776871 
L 397.96235 220.944475 
L 398.303078 220.944475 
L 398.303078 217.112079 
L 398.424256 217.112079 
L 398.424256 213.279683 
L 399.145768 213.279683 
L 399.145768 209.447287 
L 399.739875 209.447287 
L 399.739875 205.614891 
L 400.022781 205.614891 
L 400.022781 201.782495 
L 400.257429 201.782495 
L 400.257429 197.950099 
L 400.630794 197.950099 
L 400.677286 190.285307 
L 400.746952 190.285307 
L 400.746952 186.452911 
L 401.070894 186.452911 
L 401.1631 174.955723 
L 401.186127 174.955723 
L 401.255151 163.458535 
L 401.62182 163.458535 
L 401.62182 159.626139 
L 401.963365 159.626139 
L 401.986059 151.961347 
L 402.819229 151.961347 
L 402.886233 144.296554 
L 403.52976 144.296554 
L 403.52976 140.464158 
L 404.012975 140.464158 
L 404.122207 132.799366 
L 404.729924 132.799366 
L 404.729924 128.96697 
L 404.859279 128.96697 
L 404.859279 125.134574 
L 405.22414 125.134574 
L 405.22414 121.302178 
L 406.597279 121.302178 
L 406.701498 113.637386 
L 406.722318 113.637386 
L 406.722318 109.80499 
L 408.099589 109.80499 
L 408.099589 105.972594 
L 409.045541 105.972594 
L 409.045541 102.140198 
L 416.183769 102.140198 
L 416.183769 98.307802 
L 417.08753 98.307802 
L 417.08753 94.475406 
L 418.078341 94.475406 
L 418.078341 90.64301 
L 419.729348 90.64301 
L 419.729348 86.810614 
L 420.056946 86.810614 
L 420.056946 82.978218 
L 421.998319 82.978218 
L 421.998319 79.145822 
L 424.071147 79.145822 
L 424.071147 75.313426 
L 424.358828 75.313426 
L 424.358828 71.48103 
L 424.854931 71.48103 
L 424.854931 67.648634 
L 427.427734 67.648634 
L 427.427734 63.816238 
L 428.781915 63.816238 
L 428.781915 59.983842 
L 429.680221 59.983842 
L 429.680221 56.151446 
L 432.927079 56.151446 
L 432.927079 52.31905 
L 443.272816 52.31905 
L 443.272816 48.486653 
L 443.507802 48.486653 
L 443.507802 44.654257 
L 444.834605 44.654257 
L 444.834605 40.821861 
L 452.085537 40.821861 
L 452.085537 36.989465 
L 459.702205 36.989465 
L 459.702205 33.157069 
L 461.49826 33.157069 
L 461.49826 29.324673 
L 461.8 29.324673 
L 461.8 29.324673 
" clip-path="url(#p5644309cb1)" style="fill: none; stroke: #f5deb3; stroke-width: 1.5; stroke-linecap: square"/>
   </g>
   <g id="line2d_10">
    <path clip-path="url(#p5644309cb1)" style="fill: none; stroke: #f5deb3; stroke-width: 1.5; stroke-linecap: square"/>
   </g>
   <g id="line2d_11">
    <path clip-path="url(#p5644309cb1)" style="fill: none; stroke: #f5deb3; stroke-width: 1.5; stroke-linecap: square"/>
   </g>
   <g id="line2d_12">
    <path d="M 343.464192 293.76 
L 343.464192 289.927604 
L 409.54215 289.927604 
L 409.54215 286.095208 
L 412.879554 286.095208 
L 412.879554 282.262812 
L 461.8 282.262812 
" clip-path="url(#p5644309cb1)" style="fill: none; stroke: #f5deb3; stroke-width: 1.5; stroke-linecap: square"/>
   </g>
   <g id="line2d_13"/>
   <g id="line2d_14">
    <path d="M 380.155904 293.76 
L 380.155904 289.927604 
L 387.565724 289.927604 
L 387.565724 286.095208 
L 402.997725 286.095208 
L 402.997725 282.262812 
L 404.859279 282.262812 
L 404.859279 278.430416 
L 411.370242 278.430416 
L 411.370242 274.59802 
L 411.827404 274.59802 
L 411.827404 270.765624 
L 415.4428 270.765624 
L 415.4428 266.933228 
L 419.827833 266.933228 
L 419.827833 263.100832 
L 420.996083 263.100832 
L 420.996083 259.268436 
L 427.227432 259.268436 
L 427.227432 255.43604 
L 428.600478 255.43604 
L 428.600478 251.603644 
L 430.537094 251.603644 
L 430.537094 247.771248 
L 431.870357 247.771248 
L 431.870357 243.938851 
L 437.819532 243.938851 
L 437.819532 240.106455 
L 442.550927 240.106455 
L 442.550927 236.274059 
L 443.197837 236.274059 
L 443.197837 232.441663 
L 444.917775 232.441663 
L 444.917775 228.609267 
L 445.650442 228.609267 
L 445.650442 224.776871 
L 456.851235 224.776871 
L 456.851235 220.944475 
L 458.246322 220.944475 
L 458.246322 217.112079 
L 461.8 217.112079 
" clip-path="url(#p5644309cb1)" style="fill: none; stroke: #f5deb3; stroke-width: 1.5; stroke-linecap: square"/>
   </g>
   <g id="line2d_15"/>
   <g id="line2d_16"/>
   <g id="line2d_17">
    <path d="M 0 0 
" clip-path="url(#p5644309cb1)" style="fill: none; stroke: #f5deb3; stroke-width: 1.5; stroke-linecap: square"/>
   </g>
   <g id="line2d_18">
    <path d="M 288.834565 293.76 
L 288.834565 289.927604 
L 327.192164 289.927604 
L 327.192164 286.095208 
L 328.934128 286.095208 
L 328.934128 282.262812 
L 338.147446 282.262812 
L 338.147446 278.430416 
L 339.224314 278.430416 
L 339.224314 274.59802 
L 356.107307 274.59802 
L 356.107307 270.765624 
L 360.766823 270.765624 
L 360.766823 266.933228 
L 379.339735 266.933228 
L 379.339735 263.100832 
L 383.875306 263.100832 
L 383.875306 259.268436 
L 402.03142 259.268436 
L 402.03142 255.43604 
L 402.729763 255.43604 
L 402.729763 251.603644 
L 410.870653 251.603644 
L 410.870653 247.771248 
L 415.902672 247.771248 
L 415.902672 243.938851 
L 418.061409 243.938851 
L 418.061409 240.106455 
L 418.281125 240.106455 
L 418.281125 236.274059 
L 418.4159 236.274059 
L 418.4159 232.441663 
L 424.464437 232.441663 
L 424.464437 228.609267 
L 425.465129 228.609267 
L 425.465129 224.776871 
L 426.214819 224.776871 
L 426.214819 220.944475 
L 426.360625 220.944475 
L 426.360625 217.112079 
L 427.098279 217.112079 
L 427.098279 213.279683 
L 427.92532 213.279683 
L 427.92532 209.447287 
L 433.811495 209.447287 
L 433.811495 205.614891 
L 439.541724 205.614891 
L 439.541724 201.782495 
L 439.770367 201.782495 
L 439.770367 197.950099 
L 444.385399 197.950099 
L 444.385399 194.117703 
L 446.282343 194.117703 
L 446.282343 190.285307 
L 447.84087 190.285307 
L 447.84087 186.452911 
L 461.8 186.452911 
" clip-path="url(#p5644309cb1)" style="fill: none; stroke: #f5deb3; stroke-width: 1.5; stroke-linecap: square"/>
   </g>
   <g id="line2d_19">
    <path clip-path="url(#p5644309cb1)" style="fill: none; stroke: #f5deb3; stroke-width: 1.5; stroke-linecap: square"/>
   </g>
   <g id="line2d_20">
    <path d="M 309.001596 293.76 
L 309.001596 289.927604 
L 315.062027 289.927604 
L 315.062027 286.095208 
L 319.816089 286.095208 
L 319.816089 282.262812 
L 320.91822 282.262812 
L 320.91822 278.430416 
L 323.153631 278.430416 
L 323.153631 270.765624 
L 323.533283 270.765624 
L 323.533283 266.933228 
L 324.471094 266.933228 
L 324.471094 263.100832 
L 324.934065 263.100832 
L 324.934065 259.268436 
L 326.837045 259.268436 
L 326.92604 251.603644 
L 328.330701 251.603644 
L 328.330701 247.771248 
L 329.446129 247.771248 
L 329.446129 243.938851 
L 332.982186 243.938851 
L 332.982186 240.106455 
L 334.164046 240.106455 
L 334.164046 232.441663 
L 336.900929 232.441663 
L 336.900929 228.609267 
L 339.437178 228.609267 
L 339.437178 224.776871 
L 343.398339 224.776871 
L 343.398339 217.112079 
L 343.857661 217.112079 
L 343.857661 213.279683 
L 344.636249 213.279683 
L 344.636249 209.447287 
L 345.213035 209.447287 
L 345.213035 205.614891 
L 346.161093 205.614891 
L 346.161093 201.782495 
L 348.970484 201.782495 
L 348.970484 197.950099 
L 349.856388 197.950099 
L 349.856388 194.117703 
L 350.900959 194.117703 
L 350.900959 190.285307 
L 351.982437 190.285307 
L 351.982437 186.452911 
L 355.476245 186.452911 
L 355.476245 182.620515 
L 355.634691 182.620515 
L 355.687405 174.955723 
L 356.211783 174.955723 
L 356.211783 171.123327 
L 357.399195 171.123327 
L 357.450244 163.458535 
L 359.797585 163.458535 
L 359.797585 159.626139 
L 363.667217 159.626139 
L 363.667217 155.793743 
L 364.256424 155.793743 
L 364.256424 151.961347 
L 366.6816 151.961347 
L 366.6816 148.12895 
L 366.810854 148.12895 
L 366.810854 144.296554 
L 373.106345 144.296554 
L 373.106345 140.464158 
L 373.944197 140.464158 
L 373.944197 136.631762 
L 374.132849 136.631762 
L 374.132849 132.799366 
L 375.066517 132.799366 
L 375.066517 128.96697 
L 375.545827 128.96697 
L 375.655846 121.302178 
L 383.906843 121.302178 
L 383.906843 117.469782 
L 390.690439 117.469782 
L 390.690439 113.637386 
L 391.547607 113.637386 
L 391.547607 109.80499 
L 394.537606 109.80499 
L 394.537606 105.972594 
L 399.999261 105.972594 
L 399.999261 102.140198 
L 400.746952 102.140198 
L 400.746952 98.307802 
L 403.573865 98.307802 
L 403.573865 94.475406 
L 409.224837 94.475406 
L 409.224837 90.64301 
L 412.280794 90.64301 
L 412.280794 86.810614 
L 415.247074 86.810614 
L 415.247074 82.978218 
L 415.74392 82.978218 
L 415.74392 79.145822 
L 420.690199 79.145822 
L 420.690199 75.313426 
L 420.931828 75.313426 
L 420.931828 71.48103 
L 422.951625 71.48103 
L 422.951625 67.648634 
L 424.884855 67.648634 
L 424.884855 63.816238 
L 426.997617 63.816238 
L 426.997617 59.983842 
L 429.37782 59.983842 
L 429.37782 56.151446 
L 443.036822 56.151446 
L 443.036822 52.31905 
L 447.801455 52.31905 
L 447.801455 48.486653 
L 448.428728 48.486653 
L 448.428728 44.654257 
L 456.059662 44.654257 
L 456.059662 40.821861 
L 461.8 40.821861 
L 461.8 40.821861 
" clip-path="url(#p5644309cb1)" style="fill: none; stroke: #f5deb3; stroke-width: 1.5; stroke-linecap: square"/>
   </g>
   <g id="line2d_21"/>
   <g id="line2d_22">
    <path d="M 307.121559 293.76 
L 307.121559 289.927604 
L 309.85741 289.927604 
L 309.85741 286.095208 
L 315.611027 286.095208 
L 315.611027 282.262812 
L 316.262667 282.262812 
L 316.262667 278.430416 
L 317.119673 278.430416 
L 317.119673 274.59802 
L 317.331853 274.59802 
L 317.331853 270.765624 
L 317.858744 270.765624 
L 317.858744 266.933228 
L 318.484418 266.933228 
L 318.588007 259.268436 
L 319.816089 259.268436 
L 319.816089 255.43604 
L 321.017326 255.43604 
L 321.017326 251.603644 
L 323.153631 251.603644 
L 323.153631 247.771248 
L 324.656751 247.771248 
L 324.656751 243.938851 
L 326.389896 243.938851 
L 326.389896 240.106455 
L 327.192164 240.106455 
L 327.192164 236.274059 
L 327.368866 236.274059 
L 327.368866 232.441663 
L 327.720575 232.441663 
L 327.720575 228.609267 
L 330.705643 228.609267 
L 330.705643 224.776871 
L 332.099043 224.776871 
L 332.099043 220.944475 
L 333.141243 220.944475 
L 333.141243 217.112079 
L 334.397398 217.112079 
L 334.397398 213.279683 
L 343.134134 213.279683 
L 343.134134 209.447287 
L 343.857661 209.447287 
L 343.857661 205.614891 
L 344.571786 205.614891 
L 344.571786 201.782495 
L 347.338953 201.782495 
L 347.338953 197.950099 
L 349.62154 197.950099 
L 349.62154 194.117703 
L 352.487381 194.117703 
L 352.487381 190.285307 
L 353.811647 190.285307 
L 353.811647 186.452911 
L 356.107307 186.452911 
L 356.107307 182.620515 
L 360.81484 182.620515 
L 360.81484 178.788119 
L 362.794543 178.788119 
L 362.794543 174.955723 
L 363.438906 174.955723 
L 363.438906 171.123327 
L 364.481371 171.123327 
L 364.481371 167.290931 
L 364.839381 167.290931 
L 364.839381 163.458535 
L 366.767803 163.458535 
L 366.767803 159.626139 
L 367.960658 159.626139 
L 367.960658 155.793743 
L 371.982019 155.793743 
L 371.982019 151.961347 
L 377.030682 151.961347 
L 377.030682 148.12895 
L 377.951925 148.12895 
L 377.951925 144.296554 
L 378.754193 144.296554 
L 378.754193 140.464158 
L 381.456858 140.464158 
L 381.456858 136.631762 
L 384.158495 136.631762 
L 384.158495 132.799366 
L 387.091721 132.799366 
L 387.091721 128.96697 
L 388.41457 128.96697 
L 388.41457 125.134574 
L 389.847995 125.134574 
L 389.847995 121.302178 
L 391.437753 121.302178 
L 391.547607 113.637386 
L 391.629853 113.637386 
L 391.629853 109.80499 
L 392.875792 109.80499 
L 392.875792 105.972594 
L 393.75253 105.972594 
L 393.75253 102.140198 
L 394.796826 102.140198 
L 394.796826 98.307802 
L 399.431741 98.307802 
L 399.455505 90.64301 
L 402.796876 90.64301 
L 402.796876 86.810614 
L 404.426905 86.810614 
L 404.426905 82.978218 
L 405.052742 82.978218 
L 405.052742 79.145822 
L 408.322446 79.145822 
L 408.322446 75.313426 
L 409.1253 75.313426 
L 409.1253 71.48103 
L 409.719836 71.48103 
L 409.719836 67.648634 
L 410.151777 67.648634 
L 410.151777 63.816238 
L 410.48324 63.816238 
L 410.48324 59.983842 
L 411.024857 59.983842 
L 411.101797 52.31905 
L 414.745695 52.31905 
L 414.745695 48.486653 
L 423.368357 48.486653 
L 423.368357 44.654257 
L 424.884855 44.654257 
L 424.884855 40.821861 
L 431.08765 40.821861 
L 431.08765 36.989465 
L 431.619513 36.989465 
L 431.619513 33.157069 
L 435.291753 33.157069 
L 435.291753 29.324673 
L 436.236621 29.324673 
L 436.236621 25.492277 
L 437.866794 25.492277 
L 437.866794 21.659881 
L 447.653397 21.659881 
L 447.653397 17.827485 
L 448.496904 17.827485 
L 448.496904 13.995089 
L 461.8 13.995089 
L 461.8 13.995089 
" clip-path="url(#p5644309cb1)" style="fill: none; stroke: #f5deb3; stroke-width: 1.5; stroke-linecap: square"/>
   </g>
   <g id="line2d_23">
    <path clip-path="url(#p5644309cb1)" style="fill: none; stroke: #f5deb3; stroke-width: 1.5; stroke-linecap: square"/>
   </g>
   <g id="line2d_24">
    <path d="M 370.593707 293.76 
L 370.593707 289.927604 
L 373.144708 289.927604 
L 373.144708 286.095208 
L 379.613141 286.095208 
L 379.613141 282.262812 
L 380.391688 282.262812 
L 380.391688 278.430416 
L 380.525969 278.430416 
L 380.525969 274.59802 
L 380.69336 274.59802 
L 380.69336 270.765624 
L 381.357871 270.765624 
L 381.357871 266.933228 
L 381.883754 266.933228 
L 381.883754 263.100832 
L 385.61412 263.100832 
L 385.644676 255.43604 
L 386.100984 255.43604 
L 386.100984 251.603644 
L 386.553534 251.603644 
L 386.553534 247.771248 
L 387.180908 247.771248 
L 387.180908 243.938851 
L 388.152535 243.938851 
L 388.152535 240.106455 
L 388.704262 240.106455 
L 388.704262 236.274059 
L 389.96107 236.274059 
L 389.96107 232.441663 
L 390.467047 232.441663 
L 390.467047 228.609267 
L 392.03925 228.609267 
L 392.03925 224.776871 
L 393.062939 224.776871 
L 393.14295 217.112079 
L 394.82268 217.112079 
L 394.82268 213.279683 
L 396.427488 213.279683 
L 396.427488 209.447287 
L 397.373284 209.447287 
L 397.373284 205.614891 
L 399.241258 205.614891 
L 399.241258 201.782495 
L 399.479259 201.782495 
L 399.479259 197.950099 
L 399.597874 197.950099 
L 399.597874 194.117703 
L 399.952191 194.117703 
L 399.952191 190.285307 
L 400.654045 190.285307 
L 400.654045 186.452911 
L 400.793346 186.452911 
L 400.793346 182.620515 
L 401.1631 182.620515 
L 401.255151 174.955723 
L 401.963365 174.955723 
L 401.963365 171.123327 
L 402.841573 171.123327 
L 402.841573 167.290931 
L 403.153435 167.290931 
L 403.153435 163.458535 
L 404.470296 163.458535 
L 404.470296 159.626139 
L 405.544077 159.626139 
L 405.544077 155.793743 
L 405.946675 155.793743 
L 406.031058 148.12895 
L 407.692065 148.12895 
L 407.692065 144.296554 
L 409.244723 144.296554 
L 409.244723 140.464158 
L 409.936231 140.464158 
L 409.936231 136.631762 
L 411.159431 136.631762 
L 411.159431 132.799366 
L 411.827404 132.799366 
L 411.827404 128.96697 
L 411.997864 128.96697 
L 411.997864 125.134574 
L 414.871469 125.134574 
L 414.871469 121.302178 
L 415.832172 121.302178 
L 415.832172 117.469782 
L 418.095269 117.469782 
L 418.095269 113.637386 
L 418.834953 113.637386 
L 418.834953 109.80499 
L 419.59776 109.80499 
L 419.59776 105.972594 
L 420.479925 105.972594 
L 420.479925 102.140198 
L 420.931828 102.140198 
L 420.931828 98.307802 
L 421.395986 98.307802 
L 421.395986 94.475406 
L 423.368357 94.475406 
L 423.368357 90.64301 
L 424.989459 90.64301 
L 425.034228 82.978218 
L 425.168318 82.978218 
L 425.168318 79.145822 
L 425.892677 79.145822 
L 425.892677 75.313426 
L 426.622106 75.313426 
L 426.622106 71.48103 
L 427.783611 71.48103 
L 427.783611 67.648634 
L 428.151295 67.648634 
L 428.151295 63.816238 
L 429.267442 63.816238 
L 429.267442 59.983842 
L 429.40538 59.983842 
L 429.40538 56.151446 
L 435.018779 56.151446 
L 435.018779 52.31905 
L 436.829551 52.31905 
L 436.829551 48.486653 
L 438.325485 48.486653 
L 438.325485 44.654257 
L 438.873227 44.654257 
L 438.873227 40.821861 
L 449.947326 40.821861 
L 449.947326 36.989465 
L 454.911167 36.989465 
L 454.911167 33.157069 
L 461.8 33.157069 
L 461.8 33.157069 
" clip-path="url(#p5644309cb1)" style="fill: none; stroke: #f5deb3; stroke-width: 1.5; stroke-linecap: square"/>
   </g>
   <g id="line2d_25"/>
   <g id="line2d_26">
    <path d="M 437.902214 293.76 
L 437.902214 289.927604 
L 439.861559 289.927604 
L 439.861559 286.095208 
L 441.078062 286.095208 
L 441.178232 278.430416 
L 441.233803 278.430416 
L 441.233803 274.59802 
L 441.411254 274.59802 
L 441.411254 270.765624 
L 441.566055 270.765624 
L 441.566055 266.933228 
L 447.18688 266.933228 
L 447.226738 259.268436 
L 447.495027 259.268436 
L 447.495027 255.43604 
L 448.047337 255.43604 
L 448.047337 251.603644 
L 448.184551 251.603644 
L 448.184551 247.771248 
L 448.487169 247.771248 
L 448.594151 240.106455 
L 448.720315 240.106455 
L 448.720315 236.274059 
L 448.913851 236.274059 
L 448.991075 228.609267 
L 449.279702 228.609267 
L 449.279702 224.776871 
L 449.404304 224.776871 
L 449.404304 220.944475 
L 449.804945 220.944475 
L 449.804945 217.112079 
L 450.004176 217.112079 
L 450.004176 213.279683 
L 450.19325 213.279683 
L 450.19325 209.447287 
L 450.616304 209.447287 
L 450.672465 197.950099 
L 451.017534 197.950099 
L 451.017534 194.117703 
L 451.406626 194.117703 
L 451.471208 182.620515 
L 451.526503 182.620515 
L 451.526503 178.788119 
L 456.102056 178.788119 
L 456.161351 167.290931 
L 456.541018 167.290931 
L 456.625033 159.626139 
L 457.159711 159.626139 
L 457.159711 155.793743 
L 457.441656 155.793743 
L 457.524307 148.12895 
L 458.254472 148.12895 
L 458.254472 144.296554 
L 458.733221 144.296554 
L 458.733221 140.464158 
L 459.455576 140.464158 
L 459.455576 136.631762 
L 461.8 136.631762 
L 461.8 136.631762 
" clip-path="url(#p5644309cb1)" style="fill: none; stroke: #f5deb3; stroke-width: 1.5; stroke-linecap: square"/>
   </g>
   <g id="line2d_27">
    <path d="M 421.156394 293.76 
L 421.156394 289.927604 
L 422.749843 289.927604 
L 422.749843 286.095208 
L 437.523217 286.095208 
L 437.523217 282.262812 
L 438.442484 282.262812 
L 438.442484 278.430416 
L 438.826822 278.430416 
L 438.826822 274.59802 
L 449.404304 274.59802 
L 449.404304 270.765624 
L 458.781675 270.765624 
L 458.781675 266.933228 
L 461.8 266.933228 
" clip-path="url(#p5644309cb1)" style="fill: none; stroke: #f5deb3; stroke-width: 1.5; stroke-linecap: square"/>
   </g>
   <g id="line2d_28">
    <path d="M 361.813605 293.76 
L 361.813605 289.927604 
L 362.376283 289.927604 
L 362.376283 286.095208 
L 363.80375 286.095208 
L 363.80375 282.262812 
L 366.161523 282.262812 
L 366.161523 278.430416 
L 366.552042 278.430416 
L 366.552042 274.59802 
L 367.111269 274.59802 
L 367.111269 270.765624 
L 369.004259 270.765624 
L 369.004259 266.933228 
L 371.192998 266.933228 
L 371.192998 263.100832 
L 371.391317 263.100832 
L 371.391317 259.268436 
L 373.106345 259.268436 
L 373.106345 255.43604 
L 373.792807 255.43604 
L 373.792807 251.603644 
L 374.09517 251.603644 
L 374.09517 247.771248 
L 375.472359 247.771248 
L 375.472359 243.938851 
L 376.708158 243.938851 
L 376.708158 240.106455 
L 376.923384 240.106455 
L 376.923384 236.274059 
L 377.351324 236.274059 
L 377.351324 232.441663 
L 377.564051 232.441663 
L 377.564051 228.609267 
L 378.092293 228.609267 
L 378.092293 224.776871 
L 378.511261 224.776871 
L 378.511261 220.944475 
L 378.89253 220.944475 
L 378.89253 217.112079 
L 379.133785 217.112079 
L 379.133785 213.279683 
L 380.020715 213.279683 
L 380.020715 209.447287 
L 380.290762 209.447287 
L 380.290762 205.614891 
L 380.49243 205.614891 
L 380.49243 201.782495 
L 381.851033 201.782495 
L 381.851033 197.950099 
L 382.598724 197.950099 
L 382.598724 194.117703 
L 382.856423 194.117703 
L 382.856423 190.285307 
L 384.221228 190.285307 
L 384.221228 186.452911 
L 385.184547 186.452911 
L 385.184547 182.620515 
L 386.372961 182.620515 
L 386.372961 178.788119 
L 386.942753 178.788119 
L 386.942753 174.955723 
L 388.123343 174.955723 
L 388.123343 171.123327 
L 389.706323 171.123327 
L 389.706323 167.290931 
L 390.411057 167.290931 
L 390.411057 163.458535 
L 390.746146 163.458535 
L 390.746146 159.626139 
L 390.996128 159.626139 
L 390.996128 155.793743 
L 392.688005 155.793743 
L 392.688005 151.961347 
L 392.902566 151.961347 
L 392.902566 148.12895 
L 393.541269 148.12895 
L 393.541269 144.296554 
L 393.75253 144.296554 
L 393.75253 140.464158 
L 394.277158 140.464158 
L 394.277158 136.631762 
L 394.537606 136.631762 
L 394.537606 132.799366 
L 394.745079 132.799366 
L 394.745079 128.96697 
L 395.38843 128.96697 
L 395.38843 125.134574 
L 396.352122 125.134574 
L 396.352122 121.302178 
L 396.952176 121.302178 
L 396.952176 117.469782 
L 397.447263 117.469782 
L 397.447263 113.637386 
L 397.594924 113.637386 
L 397.693145 102.140198 
L 398.665814 102.140198 
L 398.665814 98.307802 
L 399.999261 98.307802 
L 399.999261 94.475406 
L 401.392938 94.475406 
L 401.392938 90.64301 
L 401.804241 90.64301 
L 401.804241 86.810614 
L 402.774514 86.810614 
L 402.774514 82.978218 
L 403.086756 82.978218 
L 403.086756 79.145822 
L 404.794639 79.145822 
L 404.794639 75.313426 
L 405.692746 75.313426 
L 405.692746 71.48103 
L 406.220448 71.48103 
L 406.220448 67.648634 
L 406.63899 67.648634 
L 406.63899 63.816238 
L 408.201 63.816238 
L 408.201 59.983842 
L 408.665093 59.983842 
L 408.665093 56.151446 
L 409.185044 56.151446 
L 409.185044 52.31905 
L 409.837975 52.31905 
L 409.837975 48.486653 
L 410.268992 48.486653 
L 410.268992 44.654257 
L 411.484889 44.654257 
L 411.484889 40.821861 
L 413.838836 40.821861 
L 413.838836 36.989465 
L 414.294136 36.989465 
L 414.294136 33.157069 
L 414.889413 33.157069 
L 414.889413 29.324673 
L 434.103165 29.324673 
L 434.103165 25.492277 
L 435.068512 25.492277 
L 435.068512 21.659881 
L 438.74552 21.659881 
L 438.74552 17.827485 
L 441.995002 17.827485 
L 441.995002 13.995089 
L 445.187211 13.995089 
L 445.187211 10.162693 
L 461.8 10.162693 
L 461.8 10.162693 
" clip-path="url(#p5644309cb1)" style="fill: none; stroke: #f5deb3; stroke-width: 1.5; stroke-linecap: square"/>
   </g>
   <g id="line2d_29">
    <path d="M 452.213042 293.76 
L 452.213042 289.927604 
L 452.213042 289.927604 
L 452.213042 286.095208 
L 452.213042 286.095208 
L 452.213042 282.262812 
L 461.8 282.262812 
" clip-path="url(#p5644309cb1)" style="fill: none; stroke: #f5deb3; stroke-width: 1.5; stroke-linecap: square"/>
   </g>
   <g id="line2d_30"/>
   <g id="matplotlib.axis_1">
    <g id="xtick_1">
     <g id="line2d_31">
      <path d="M 188.745143 293.76 
L 188.745143 3.456 
" clip-path="url(#p5644309cb1)" style="fill: none; stroke: #b0b0b0; stroke-width: 0.8; stroke-linecap: square"/>
     </g>
     <g id="line2d_32">
      <defs>
       <path id="m994bbf5904" d="M 0 0 
L 0 3.5 
" style="stroke: #000000; stroke-width: 0.8"/>
      </defs>
      <g>
       <use xlink:href="#m994bbf5904" x="188.745143" y="293.76" style="stroke: #000000; stroke-width: 0.8"/>
      </g>
     </g>
     <g id="text_1">
      <!-- 1 -->
      <g transform="translate(182.382643 315.956875) scale(0.2 -0.2)">
       <defs>
        <path id="DejaVuSans-31" d="M 794 531 
L 1825 531 
L 1825 4091 
L 703 3866 
L 703 4441 
L 1819 4666 
L 2450 4666 
L 2450 531 
L 3481 531 
L 3481 0 
L 794 0 
L 794 531 
z
" transform="scale(0.015625)"/>
       </defs>
       <use xlink:href="#DejaVuSans-31"/>
      </g>
     </g>
    </g>
    <g id="xtick_2">
     <g id="line2d_33">
      <path d="M 441.819429 293.76 
L 441.819429 3.456 
" clip-path="url(#p5644309cb1)" style="fill: none; stroke: #b0b0b0; stroke-width: 0.8; stroke-linecap: square"/>
     </g>
     <g id="line2d_34">
      <g>
       <use xlink:href="#m994bbf5904" x="441.819429" y="293.76" style="stroke: #000000; stroke-width: 0.8"/>
      </g>
     </g>
     <g id="text_2">
      <!-- 3 -->
      <g transform="translate(435.456929 315.956875) scale(0.2 -0.2)">
       <defs>
        <path id="DejaVuSans-33" d="M 2597 2516 
Q 3050 2419 3304 2112 
Q 3559 1806 3559 1356 
Q 3559 666 3084 287 
Q 2609 -91 1734 -91 
Q 1441 -91 1130 -33 
Q 819 25 488 141 
L 488 750 
Q 750 597 1062 519 
Q 1375 441 1716 441 
Q 2309 441 2620 675 
Q 2931 909 2931 1356 
Q 2931 1769 2642 2001 
Q 2353 2234 1838 2234 
L 1294 2234 
L 1294 2753 
L 1863 2753 
Q 2328 2753 2575 2939 
Q 2822 3125 2822 3475 
Q 2822 3834 2567 4026 
Q 2313 4219 1838 4219 
Q 1578 4219 1281 4162 
Q 984 4106 628 3988 
L 628 4550 
Q 988 4650 1302 4700 
Q 1616 4750 1894 4750 
Q 2613 4750 3031 4423 
Q 3450 4097 3450 3541 
Q 3450 3153 3228 2886 
Q 3006 2619 2597 2516 
z
" transform="scale(0.015625)"/>
       </defs>
       <use xlink:href="#DejaVuSans-33"/>
      </g>
     </g>
    </g>
    <g id="xtick_3">
     <g id="line2d_35">
      <path d="M 100.299476 293.76 
L 100.299476 3.456 
" clip-path="url(#p5644309cb1)" style="fill: none; stroke: #b0b0b0; stroke-width: 0.8; stroke-linecap: square"/>
     </g>
     <g id="line2d_36">
      <defs>
       <path id="mc142bc79f6" d="M 0 0 
L 0 2 
" style="stroke: #000000; stroke-width: 0.6"/>
      </defs>
      <g>
       <use xlink:href="#mc142bc79f6" x="100.299476" y="293.76" style="stroke: #000000; stroke-width: 0.6"/>
      </g>
     </g>
    </g>
    <g id="xtick_4">
     <g id="line2d_37">
      <path d="M 122.58156 293.76 
L 122.58156 3.456 
" clip-path="url(#p5644309cb1)" style="fill: none; stroke: #b0b0b0; stroke-width: 0.8; stroke-linecap: square"/>
     </g>
     <g id="line2d_38">
      <g>
       <use xlink:href="#mc142bc79f6" x="122.58156" y="293.76" style="stroke: #000000; stroke-width: 0.6"/>
      </g>
     </g>
    </g>
    <g id="xtick_5">
     <g id="line2d_39">
      <path d="M 138.390951 293.76 
L 138.390951 3.456 
" clip-path="url(#p5644309cb1)" style="fill: none; stroke: #b0b0b0; stroke-width: 0.8; stroke-linecap: square"/>
     </g>
     <g id="line2d_40">
      <g>
       <use xlink:href="#mc142bc79f6" x="138.390951" y="293.76" style="stroke: #000000; stroke-width: 0.6"/>
      </g>
     </g>
    </g>
    <g id="xtick_6">
     <g id="line2d_41">
      <path d="M 150.653667 293.76 
L 150.653667 3.456 
" clip-path="url(#p5644309cb1)" style="fill: none; stroke: #b0b0b0; stroke-width: 0.8; stroke-linecap: square"/>
     </g>
     <g id="line2d_42">
      <g>
       <use xlink:href="#mc142bc79f6" x="150.653667" y="293.76" style="stroke: #000000; stroke-width: 0.6"/>
      </g>
     </g>
    </g>
    <g id="xtick_7">
     <g id="line2d_43">
      <path d="M 160.673036 293.76 
L 160.673036 3.456 
" clip-path="url(#p5644309cb1)" style="fill: none; stroke: #b0b0b0; stroke-width: 0.8; stroke-linecap: square"/>
     </g>
     <g id="line2d_44">
      <g>
       <use xlink:href="#mc142bc79f6" x="160.673036" y="293.76" style="stroke: #000000; stroke-width: 0.6"/>
      </g>
     </g>
    </g>
    <g id="xtick_8">
     <g id="line2d_45">
      <path d="M 169.144291 293.76 
L 169.144291 3.456 
" clip-path="url(#p5644309cb1)" style="fill: none; stroke: #b0b0b0; stroke-width: 0.8; stroke-linecap: square"/>
     </g>
     <g id="line2d_46">
      <g>
       <use xlink:href="#mc142bc79f6" x="169.144291" y="293.76" style="stroke: #000000; stroke-width: 0.6"/>
      </g>
     </g>
    </g>
    <g id="xtick_9">
     <g id="line2d_47">
      <path d="M 176.482427 293.76 
L 176.482427 3.456 
" clip-path="url(#p5644309cb1)" style="fill: none; stroke: #b0b0b0; stroke-width: 0.8; stroke-linecap: square"/>
     </g>
     <g id="line2d_48">
      <g>
       <use xlink:href="#mc142bc79f6" x="176.482427" y="293.76" style="stroke: #000000; stroke-width: 0.6"/>
      </g>
     </g>
    </g>
    <g id="xtick_10">
     <g id="line2d_49">
      <path d="M 182.955121 293.76 
L 182.955121 3.456 
" clip-path="url(#p5644309cb1)" style="fill: none; stroke: #b0b0b0; stroke-width: 0.8; stroke-linecap: square"/>
     </g>
     <g id="line2d_50">
      <g>
       <use xlink:href="#mc142bc79f6" x="182.955121" y="293.76" style="stroke: #000000; stroke-width: 0.6"/>
      </g>
     </g>
    </g>
    <g id="xtick_11">
     <g id="line2d_51">
      <path d="M 226.836618 293.76 
L 226.836618 3.456 
" clip-path="url(#p5644309cb1)" style="fill: none; stroke: #b0b0b0; stroke-width: 0.8; stroke-linecap: square"/>
     </g>
     <g id="line2d_52">
      <g>
       <use xlink:href="#mc142bc79f6" x="226.836618" y="293.76" style="stroke: #000000; stroke-width: 0.6"/>
      </g>
     </g>
    </g>
    <g id="xtick_12">
     <g id="line2d_53">
      <path d="M 249.118703 293.76 
L 249.118703 3.456 
" clip-path="url(#p5644309cb1)" style="fill: none; stroke: #b0b0b0; stroke-width: 0.8; stroke-linecap: square"/>
     </g>
     <g id="line2d_54">
      <g>
       <use xlink:href="#mc142bc79f6" x="249.118703" y="293.76" style="stroke: #000000; stroke-width: 0.6"/>
      </g>
     </g>
    </g>
    <g id="xtick_13">
     <g id="line2d_55">
      <path d="M 264.928094 293.76 
L 264.928094 3.456 
" clip-path="url(#p5644309cb1)" style="fill: none; stroke: #b0b0b0; stroke-width: 0.8; stroke-linecap: square"/>
     </g>
     <g id="line2d_56">
      <g>
       <use xlink:href="#mc142bc79f6" x="264.928094" y="293.76" style="stroke: #000000; stroke-width: 0.6"/>
      </g>
     </g>
    </g>
    <g id="xtick_14">
     <g id="line2d_57">
      <path d="M 277.19081 293.76 
L 277.19081 3.456 
" clip-path="url(#p5644309cb1)" style="fill: none; stroke: #b0b0b0; stroke-width: 0.8; stroke-linecap: square"/>
     </g>
     <g id="line2d_58">
      <g>
       <use xlink:href="#mc142bc79f6" x="277.19081" y="293.76" style="stroke: #000000; stroke-width: 0.6"/>
      </g>
     </g>
    </g>
    <g id="xtick_15">
     <g id="line2d_59">
      <path d="M 287.210179 293.76 
L 287.210179 3.456 
" clip-path="url(#p5644309cb1)" style="fill: none; stroke: #b0b0b0; stroke-width: 0.8; stroke-linecap: square"/>
     </g>
     <g id="line2d_60">
      <g>
       <use xlink:href="#mc142bc79f6" x="287.210179" y="293.76" style="stroke: #000000; stroke-width: 0.6"/>
      </g>
     </g>
    </g>
    <g id="xtick_16">
     <g id="line2d_61">
      <path d="M 295.681434 293.76 
L 295.681434 3.456 
" clip-path="url(#p5644309cb1)" style="fill: none; stroke: #b0b0b0; stroke-width: 0.8; stroke-linecap: square"/>
     </g>
     <g id="line2d_62">
      <g>
       <use xlink:href="#mc142bc79f6" x="295.681434" y="293.76" style="stroke: #000000; stroke-width: 0.6"/>
      </g>
     </g>
    </g>
    <g id="xtick_17">
     <g id="line2d_63">
      <path d="M 303.01957 293.76 
L 303.01957 3.456 
" clip-path="url(#p5644309cb1)" style="fill: none; stroke: #b0b0b0; stroke-width: 0.8; stroke-linecap: square"/>
     </g>
     <g id="line2d_64">
      <g>
       <use xlink:href="#mc142bc79f6" x="303.01957" y="293.76" style="stroke: #000000; stroke-width: 0.6"/>
      </g>
     </g>
    </g>
    <g id="xtick_18">
     <g id="line2d_65">
      <path d="M 309.492264 293.76 
L 309.492264 3.456 
" clip-path="url(#p5644309cb1)" style="fill: none; stroke: #b0b0b0; stroke-width: 0.8; stroke-linecap: square"/>
     </g>
     <g id="line2d_66">
      <g>
       <use xlink:href="#mc142bc79f6" x="309.492264" y="293.76" style="stroke: #000000; stroke-width: 0.6"/>
      </g>
     </g>
    </g>
    <g id="xtick_19">
     <g id="line2d_67">
      <path d="M 353.373761 293.76 
L 353.373761 3.456 
" clip-path="url(#p5644309cb1)" style="fill: none; stroke: #b0b0b0; stroke-width: 0.8; stroke-linecap: square"/>
     </g>
     <g id="line2d_68">
      <g>
       <use xlink:href="#mc142bc79f6" x="353.373761" y="293.76" style="stroke: #000000; stroke-width: 0.6"/>
      </g>
     </g>
    </g>
    <g id="xtick_20">
     <g id="line2d_69">
      <path d="M 375.655846 293.76 
L 375.655846 3.456 
" clip-path="url(#p5644309cb1)" style="fill: none; stroke: #b0b0b0; stroke-width: 0.8; stroke-linecap: square"/>
     </g>
     <g id="line2d_70">
      <g>
       <use xlink:href="#mc142bc79f6" x="375.655846" y="293.76" style="stroke: #000000; stroke-width: 0.6"/>
      </g>
     </g>
    </g>
    <g id="xtick_21">
     <g id="line2d_71">
      <path d="M 391.465237 293.76 
L 391.465237 3.456 
" clip-path="url(#p5644309cb1)" style="fill: none; stroke: #b0b0b0; stroke-width: 0.8; stroke-linecap: square"/>
     </g>
     <g id="line2d_72">
      <g>
       <use xlink:href="#mc142bc79f6" x="391.465237" y="293.76" style="stroke: #000000; stroke-width: 0.6"/>
      </g>
     </g>
    </g>
    <g id="xtick_22">
     <g id="line2d_73">
      <path d="M 403.727953 293.76 
L 403.727953 3.456 
" clip-path="url(#p5644309cb1)" style="fill: none; stroke: #b0b0b0; stroke-width: 0.8; stroke-linecap: square"/>
     </g>
     <g id="line2d_74">
      <g>
       <use xlink:href="#mc142bc79f6" x="403.727953" y="293.76" style="stroke: #000000; stroke-width: 0.6"/>
      </g>
     </g>
    </g>
    <g id="xtick_23">
     <g id="line2d_75">
      <path d="M 413.747322 293.76 
L 413.747322 3.456 
" clip-path="url(#p5644309cb1)" style="fill: none; stroke: #b0b0b0; stroke-width: 0.8; stroke-linecap: square"/>
     </g>
     <g id="line2d_76">
      <g>
       <use xlink:href="#mc142bc79f6" x="413.747322" y="293.76" style="stroke: #000000; stroke-width: 0.6"/>
      </g>
     </g>
    </g>
    <g id="xtick_24">
     <g id="line2d_77">
      <path d="M 422.218577 293.76 
L 422.218577 3.456 
" clip-path="url(#p5644309cb1)" style="fill: none; stroke: #b0b0b0; stroke-width: 0.8; stroke-linecap: square"/>
     </g>
     <g id="line2d_78">
      <g>
       <use xlink:href="#mc142bc79f6" x="422.218577" y="293.76" style="stroke: #000000; stroke-width: 0.6"/>
      </g>
     </g>
    </g>
    <g id="xtick_25">
     <g id="line2d_79">
      <path d="M 429.556712 293.76 
L 429.556712 3.456 
" clip-path="url(#p5644309cb1)" style="fill: none; stroke: #b0b0b0; stroke-width: 0.8; stroke-linecap: square"/>
     </g>
     <g id="line2d_80">
      <g>
       <use xlink:href="#mc142bc79f6" x="429.556712" y="293.76" style="stroke: #000000; stroke-width: 0.6"/>
      </g>
     </g>
    </g>
    <g id="xtick_26">
     <g id="line2d_81">
      <path d="M 436.029406 293.76 
L 436.029406 3.456 
" clip-path="url(#p5644309cb1)" style="fill: none; stroke: #b0b0b0; stroke-width: 0.8; stroke-linecap: square"/>
     </g>
     <g id="line2d_82">
      <g>
       <use xlink:href="#mc142bc79f6" x="436.029406" y="293.76" style="stroke: #000000; stroke-width: 0.6"/>
      </g>
     </g>
    </g>
    <g id="text_3">
     <!-- log10 of FEvals / DIM -->
     <g transform="translate(156.430563 339.313125) scale(0.2 -0.2)">
      <defs>
       <path id="DejaVuSans-6c" d="M 603 4863 
L 1178 4863 
L 1178 0 
L 603 0 
L 603 4863 
z
" transform="scale(0.015625)"/>
       <path id="DejaVuSans-6f" d="M 1959 3097 
Q 1497 3097 1228 2736 
Q 959 2375 959 1747 
Q 959 1119 1226 758 
Q 1494 397 1959 397 
Q 2419 397 2687 759 
Q 2956 1122 2956 1747 
Q 2956 2369 2687 2733 
Q 2419 3097 1959 3097 
z
M 1959 3584 
Q 2709 3584 3137 3096 
Q 3566 2609 3566 1747 
Q 3566 888 3137 398 
Q 2709 -91 1959 -91 
Q 1206 -91 779 398 
Q 353 888 353 1747 
Q 353 2609 779 3096 
Q 1206 3584 1959 3584 
z
" transform="scale(0.015625)"/>
       <path id="DejaVuSans-67" d="M 2906 1791 
Q 2906 2416 2648 2759 
Q 2391 3103 1925 3103 
Q 1463 3103 1205 2759 
Q 947 2416 947 1791 
Q 947 1169 1205 825 
Q 1463 481 1925 481 
Q 2391 481 2648 825 
Q 2906 1169 2906 1791 
z
M 3481 434 
Q 3481 -459 3084 -895 
Q 2688 -1331 1869 -1331 
Q 1566 -1331 1297 -1286 
Q 1028 -1241 775 -1147 
L 775 -588 
Q 1028 -725 1275 -790 
Q 1522 -856 1778 -856 
Q 2344 -856 2625 -561 
Q 2906 -266 2906 331 
L 2906 616 
Q 2728 306 2450 153 
Q 2172 0 1784 0 
Q 1141 0 747 490 
Q 353 981 353 1791 
Q 353 2603 747 3093 
Q 1141 3584 1784 3584 
Q 2172 3584 2450 3431 
Q 2728 3278 2906 2969 
L 2906 3500 
L 3481 3500 
L 3481 434 
z
" transform="scale(0.015625)"/>
       <path id="DejaVuSans-30" d="M 2034 4250 
Q 1547 4250 1301 3770 
Q 1056 3291 1056 2328 
Q 1056 1369 1301 889 
Q 1547 409 2034 409 
Q 2525 409 2770 889 
Q 3016 1369 3016 2328 
Q 3016 3291 2770 3770 
Q 2525 4250 2034 4250 
z
M 2034 4750 
Q 2819 4750 3233 4129 
Q 3647 3509 3647 2328 
Q 3647 1150 3233 529 
Q 2819 -91 2034 -91 
Q 1250 -91 836 529 
Q 422 1150 422 2328 
Q 422 3509 836 4129 
Q 1250 4750 2034 4750 
z
" transform="scale(0.015625)"/>
       <path id="DejaVuSans-20" transform="scale(0.015625)"/>
       <path id="DejaVuSans-66" d="M 2375 4863 
L 2375 4384 
L 1825 4384 
Q 1516 4384 1395 4259 
Q 1275 4134 1275 3809 
L 1275 3500 
L 2222 3500 
L 2222 3053 
L 1275 3053 
L 1275 0 
L 697 0 
L 697 3053 
L 147 3053 
L 147 3500 
L 697 3500 
L 697 3744 
Q 697 4328 969 4595 
Q 1241 4863 1831 4863 
L 2375 4863 
z
" transform="scale(0.015625)"/>
       <path id="DejaVuSans-46" d="M 628 4666 
L 3309 4666 
L 3309 4134 
L 1259 4134 
L 1259 2759 
L 3109 2759 
L 3109 2228 
L 1259 2228 
L 1259 0 
L 628 0 
L 628 4666 
z
" transform="scale(0.015625)"/>
       <path id="DejaVuSans-45" d="M 628 4666 
L 3578 4666 
L 3578 4134 
L 1259 4134 
L 1259 2753 
L 3481 2753 
L 3481 2222 
L 1259 2222 
L 1259 531 
L 3634 531 
L 3634 0 
L 628 0 
L 628 4666 
z
" transform="scale(0.015625)"/>
       <path id="DejaVuSans-76" d="M 191 3500 
L 800 3500 
L 1894 563 
L 2988 3500 
L 3597 3500 
L 2284 0 
L 1503 0 
L 191 3500 
z
" transform="scale(0.015625)"/>
       <path id="DejaVuSans-61" d="M 2194 1759 
Q 1497 1759 1228 1600 
Q 959 1441 959 1056 
Q 959 750 1161 570 
Q 1363 391 1709 391 
Q 2188 391 2477 730 
Q 2766 1069 2766 1631 
L 2766 1759 
L 2194 1759 
z
M 3341 1997 
L 3341 0 
L 2766 0 
L 2766 531 
Q 2569 213 2275 61 
Q 1981 -91 1556 -91 
Q 1019 -91 701 211 
Q 384 513 384 1019 
Q 384 1609 779 1909 
Q 1175 2209 1959 2209 
L 2766 2209 
L 2766 2266 
Q 2766 2663 2505 2880 
Q 2244 3097 1772 3097 
Q 1472 3097 1187 3025 
Q 903 2953 641 2809 
L 641 3341 
Q 956 3463 1253 3523 
Q 1550 3584 1831 3584 
Q 2591 3584 2966 3190 
Q 3341 2797 3341 1997 
z
" transform="scale(0.015625)"/>
       <path id="DejaVuSans-73" d="M 2834 3397 
L 2834 2853 
Q 2591 2978 2328 3040 
Q 2066 3103 1784 3103 
Q 1356 3103 1142 2972 
Q 928 2841 928 2578 
Q 928 2378 1081 2264 
Q 1234 2150 1697 2047 
L 1894 2003 
Q 2506 1872 2764 1633 
Q 3022 1394 3022 966 
Q 3022 478 2636 193 
Q 2250 -91 1575 -91 
Q 1294 -91 989 -36 
Q 684 19 347 128 
L 347 722 
Q 666 556 975 473 
Q 1284 391 1588 391 
Q 1994 391 2212 530 
Q 2431 669 2431 922 
Q 2431 1156 2273 1281 
Q 2116 1406 1581 1522 
L 1381 1569 
Q 847 1681 609 1914 
Q 372 2147 372 2553 
Q 372 3047 722 3315 
Q 1072 3584 1716 3584 
Q 2034 3584 2315 3537 
Q 2597 3491 2834 3397 
z
" transform="scale(0.015625)"/>
       <path id="DejaVuSans-2f" d="M 1625 4666 
L 2156 4666 
L 531 -594 
L 0 -594 
L 1625 4666 
z
" transform="scale(0.015625)"/>
       <path id="DejaVuSans-44" d="M 1259 4147 
L 1259 519 
L 2022 519 
Q 2988 519 3436 956 
Q 3884 1394 3884 2338 
Q 3884 3275 3436 3711 
Q 2988 4147 2022 4147 
L 1259 4147 
z
M 628 4666 
L 1925 4666 
Q 3281 4666 3915 4102 
Q 4550 3538 4550 2338 
Q 4550 1131 3912 565 
Q 3275 0 1925 0 
L 628 0 
L 628 4666 
z
" transform="scale(0.015625)"/>
       <path id="DejaVuSans-49" d="M 628 4666 
L 1259 4666 
L 1259 0 
L 628 0 
L 628 4666 
z
" transform="scale(0.015625)"/>
       <path id="DejaVuSans-4d" d="M 628 4666 
L 1569 4666 
L 2759 1491 
L 3956 4666 
L 4897 4666 
L 4897 0 
L 4281 0 
L 4281 4097 
L 3078 897 
L 2444 897 
L 1241 4097 
L 1241 0 
L 628 0 
L 628 4666 
z
" transform="scale(0.015625)"/>
      </defs>
      <use xlink:href="#DejaVuSans-6c"/>
      <use xlink:href="#DejaVuSans-6f" transform="translate(27.783203 0)"/>
      <use xlink:href="#DejaVuSans-67" transform="translate(88.964844 0)"/>
      <use xlink:href="#DejaVuSans-31" transform="translate(152.441406 0)"/>
      <use xlink:href="#DejaVuSans-30" transform="translate(216.064453 0)"/>
      <use xlink:href="#DejaVuSans-20" transform="translate(279.6875 0)"/>
      <use xlink:href="#DejaVuSans-6f" transform="translate(311.474609 0)"/>
      <use xlink:href="#DejaVuSans-66" transform="translate(372.65625 0)"/>
      <use xlink:href="#DejaVuSans-20" transform="translate(407.861328 0)"/>
      <use xlink:href="#DejaVuSans-46" transform="translate(439.648438 0)"/>
      <use xlink:href="#DejaVuSans-45" transform="translate(497.167969 0)"/>
      <use xlink:href="#DejaVuSans-76" transform="translate(560.351562 0)"/>
      <use xlink:href="#DejaVuSans-61" transform="translate(619.53125 0)"/>
      <use xlink:href="#DejaVuSans-6c" transform="translate(680.810547 0)"/>
      <use xlink:href="#DejaVuSans-73" transform="translate(708.59375 0)"/>
      <use xlink:href="#DejaVuSans-20" transform="translate(760.693359 0)"/>
      <use xlink:href="#DejaVuSans-2f" transform="translate(792.480469 0)"/>
      <use xlink:href="#DejaVuSans-20" transform="translate(826.171875 0)"/>
      <use xlink:href="#DejaVuSans-44" transform="translate(857.958984 0)"/>
      <use xlink:href="#DejaVuSans-49" transform="translate(934.960938 0)"/>
      <use xlink:href="#DejaVuSans-4d" transform="translate(964.453125 0)"/>
     </g>
    </g>
   </g>
   <g id="matplotlib.axis_2">
    <g id="ytick_1">
     <g id="line2d_83">
      <path d="M 62.208 293.76 
L 460.8 293.76 
" clip-path="url(#p5644309cb1)" style="fill: none; stroke: #b0b0b0; stroke-width: 0.8; stroke-linecap: square"/>
     </g>
     <g id="line2d_84">
      <defs>
       <path id="m4aa92f99ea" d="M 0 0 
L -3.5 0 
" style="stroke: #000000; stroke-width: 0.8"/>
      </defs>
      <g>
       <use xlink:href="#m4aa92f99ea" x="62.208" y="293.76" style="stroke: #000000; stroke-width: 0.8"/>
      </g>
     </g>
     <g id="text_4">
      <!-- 0.0 -->
      <g transform="translate(29.763 299.83875) scale(0.16 -0.16)">
       <defs>
        <path id="DejaVuSans-2e" d="M 684 794 
L 1344 794 
L 1344 0 
L 684 0 
L 684 794 
z
" transform="scale(0.015625)"/>
       </defs>
       <use xlink:href="#DejaVuSans-30"/>
       <use xlink:href="#DejaVuSans-2e" transform="translate(63.623047 0)"/>
       <use xlink:href="#DejaVuSans-30" transform="translate(95.410156 0)"/>
      </g>
     </g>
    </g>
    <g id="ytick_2">
     <g id="line2d_85">
      <path d="M 62.208 236.274059 
L 460.8 236.274059 
" clip-path="url(#p5644309cb1)" style="fill: none; stroke: #b0b0b0; stroke-width: 0.8; stroke-linecap: square"/>
     </g>
     <g id="line2d_86">
      <g>
       <use xlink:href="#m4aa92f99ea" x="62.208" y="236.274059" style="stroke: #000000; stroke-width: 0.8"/>
      </g>
     </g>
     <g id="text_5">
      <!-- 0.2 -->
      <g transform="translate(29.763 242.352809) scale(0.16 -0.16)">
       <defs>
        <path id="DejaVuSans-32" d="M 1228 531 
L 3431 531 
L 3431 0 
L 469 0 
L 469 531 
Q 828 903 1448 1529 
Q 2069 2156 2228 2338 
Q 2531 2678 2651 2914 
Q 2772 3150 2772 3378 
Q 2772 3750 2511 3984 
Q 2250 4219 1831 4219 
Q 1534 4219 1204 4116 
Q 875 4013 500 3803 
L 500 4441 
Q 881 4594 1212 4672 
Q 1544 4750 1819 4750 
Q 2544 4750 2975 4387 
Q 3406 4025 3406 3419 
Q 3406 3131 3298 2873 
Q 3191 2616 2906 2266 
Q 2828 2175 2409 1742 
Q 1991 1309 1228 531 
z
" transform="scale(0.015625)"/>
       </defs>
       <use xlink:href="#DejaVuSans-30"/>
       <use xlink:href="#DejaVuSans-2e" transform="translate(63.623047 0)"/>
       <use xlink:href="#DejaVuSans-32" transform="translate(95.410156 0)"/>
      </g>
     </g>
    </g>
    <g id="ytick_3">
     <g id="line2d_87">
      <path d="M 62.208 178.788119 
L 460.8 178.788119 
" clip-path="url(#p5644309cb1)" style="fill: none; stroke: #b0b0b0; stroke-width: 0.8; stroke-linecap: square"/>
     </g>
     <g id="line2d_88">
      <g>
       <use xlink:href="#m4aa92f99ea" x="62.208" y="178.788119" style="stroke: #000000; stroke-width: 0.8"/>
      </g>
     </g>
     <g id="text_6">
      <!-- 0.4 -->
      <g transform="translate(29.763 184.866869) scale(0.16 -0.16)">
       <defs>
        <path id="DejaVuSans-34" d="M 2419 4116 
L 825 1625 
L 2419 1625 
L 2419 4116 
z
M 2253 4666 
L 3047 4666 
L 3047 1625 
L 3713 1625 
L 3713 1100 
L 3047 1100 
L 3047 0 
L 2419 0 
L 2419 1100 
L 313 1100 
L 313 1709 
L 2253 4666 
z
" transform="scale(0.015625)"/>
       </defs>
       <use xlink:href="#DejaVuSans-30"/>
       <use xlink:href="#DejaVuSans-2e" transform="translate(63.623047 0)"/>
       <use xlink:href="#DejaVuSans-34" transform="translate(95.410156 0)"/>
      </g>
     </g>
    </g>
    <g id="ytick_4">
     <g id="line2d_89">
      <path d="M 62.208 121.302178 
L 460.8 121.302178 
" clip-path="url(#p5644309cb1)" style="fill: none; stroke: #b0b0b0; stroke-width: 0.8; stroke-linecap: square"/>
     </g>
     <g id="line2d_90">
      <g>
       <use xlink:href="#m4aa92f99ea" x="62.208" y="121.302178" style="stroke: #000000; stroke-width: 0.8"/>
      </g>
     </g>
     <g id="text_7">
      <!-- 0.6 -->
      <g transform="translate(29.763 127.380928) scale(0.16 -0.16)">
       <defs>
        <path id="DejaVuSans-36" d="M 2113 2584 
Q 1688 2584 1439 2293 
Q 1191 2003 1191 1497 
Q 1191 994 1439 701 
Q 1688 409 2113 409 
Q 2538 409 2786 701 
Q 3034 994 3034 1497 
Q 3034 2003 2786 2293 
Q 2538 2584 2113 2584 
z
M 3366 4563 
L 3366 3988 
Q 3128 4100 2886 4159 
Q 2644 4219 2406 4219 
Q 1781 4219 1451 3797 
Q 1122 3375 1075 2522 
Q 1259 2794 1537 2939 
Q 1816 3084 2150 3084 
Q 2853 3084 3261 2657 
Q 3669 2231 3669 1497 
Q 3669 778 3244 343 
Q 2819 -91 2113 -91 
Q 1303 -91 875 529 
Q 447 1150 447 2328 
Q 447 3434 972 4092 
Q 1497 4750 2381 4750 
Q 2619 4750 2861 4703 
Q 3103 4656 3366 4563 
z
" transform="scale(0.015625)"/>
       </defs>
       <use xlink:href="#DejaVuSans-30"/>
       <use xlink:href="#DejaVuSans-2e" transform="translate(63.623047 0)"/>
       <use xlink:href="#DejaVuSans-36" transform="translate(95.410156 0)"/>
      </g>
     </g>
    </g>
    <g id="ytick_5">
     <g id="line2d_91">
      <path d="M 62.208 63.816238 
L 460.8 63.816238 
" clip-path="url(#p5644309cb1)" style="fill: none; stroke: #b0b0b0; stroke-width: 0.8; stroke-linecap: square"/>
     </g>
     <g id="line2d_92">
      <g>
       <use xlink:href="#m4aa92f99ea" x="62.208" y="63.816238" style="stroke: #000000; stroke-width: 0.8"/>
      </g>
     </g>
     <g id="text_8">
      <!-- 0.8 -->
      <g transform="translate(29.763 69.894988) scale(0.16 -0.16)">
       <defs>
        <path id="DejaVuSans-38" d="M 2034 2216 
Q 1584 2216 1326 1975 
Q 1069 1734 1069 1313 
Q 1069 891 1326 650 
Q 1584 409 2034 409 
Q 2484 409 2743 651 
Q 3003 894 3003 1313 
Q 3003 1734 2745 1975 
Q 2488 2216 2034 2216 
z
M 1403 2484 
Q 997 2584 770 2862 
Q 544 3141 544 3541 
Q 544 4100 942 4425 
Q 1341 4750 2034 4750 
Q 2731 4750 3128 4425 
Q 3525 4100 3525 3541 
Q 3525 3141 3298 2862 
Q 3072 2584 2669 2484 
Q 3125 2378 3379 2068 
Q 3634 1759 3634 1313 
Q 3634 634 3220 271 
Q 2806 -91 2034 -91 
Q 1263 -91 848 271 
Q 434 634 434 1313 
Q 434 1759 690 2068 
Q 947 2378 1403 2484 
z
M 1172 3481 
Q 1172 3119 1398 2916 
Q 1625 2713 2034 2713 
Q 2441 2713 2670 2916 
Q 2900 3119 2900 3481 
Q 2900 3844 2670 4047 
Q 2441 4250 2034 4250 
Q 1625 4250 1398 4047 
Q 1172 3844 1172 3481 
z
" transform="scale(0.015625)"/>
       </defs>
       <use xlink:href="#DejaVuSans-30"/>
       <use xlink:href="#DejaVuSans-2e" transform="translate(63.623047 0)"/>
       <use xlink:href="#DejaVuSans-38" transform="translate(95.410156 0)"/>
      </g>
     </g>
    </g>
    <g id="ytick_6">
     <g id="line2d_93">
      <path d="M 62.208 6.330297 
L 460.8 6.330297 
" clip-path="url(#p5644309cb1)" style="fill: none; stroke: #b0b0b0; stroke-width: 0.8; stroke-linecap: square"/>
     </g>
     <g id="line2d_94">
      <g>
       <use xlink:href="#m4aa92f99ea" x="62.208" y="6.330297" style="stroke: #000000; stroke-width: 0.8"/>
      </g>
     </g>
     <g id="text_9">
      <!-- 1.0 -->
      <g transform="translate(29.763 12.409047) scale(0.16 -0.16)">
       <use xlink:href="#DejaVuSans-31"/>
       <use xlink:href="#DejaVuSans-2e" transform="translate(63.623047 0)"/>
       <use xlink:href="#DejaVuSans-30" transform="translate(95.410156 0)"/>
      </g>
     </g>
    </g>
    <g id="text_10">
     <!-- proportion of trials -->
     <g transform="translate(21.603625 241.61425) rotate(-90) scale(0.2 -0.2)">
      <defs>
       <path id="DejaVuSans-70" d="M 1159 525 
L 1159 -1331 
L 581 -1331 
L 581 3500 
L 1159 3500 
L 1159 2969 
Q 1341 3281 1617 3432 
Q 1894 3584 2278 3584 
Q 2916 3584 3314 3078 
Q 3713 2572 3713 1747 
Q 3713 922 3314 415 
Q 2916 -91 2278 -91 
Q 1894 -91 1617 61 
Q 1341 213 1159 525 
z
M 3116 1747 
Q 3116 2381 2855 2742 
Q 2594 3103 2138 3103 
Q 1681 3103 1420 2742 
Q 1159 2381 1159 1747 
Q 1159 1113 1420 752 
Q 1681 391 2138 391 
Q 2594 391 2855 752 
Q 3116 1113 3116 1747 
z
" transform="scale(0.015625)"/>
       <path id="DejaVuSans-72" d="M 2631 2963 
Q 2534 3019 2420 3045 
Q 2306 3072 2169 3072 
Q 1681 3072 1420 2755 
Q 1159 2438 1159 1844 
L 1159 0 
L 581 0 
L 581 3500 
L 1159 3500 
L 1159 2956 
Q 1341 3275 1631 3429 
Q 1922 3584 2338 3584 
Q 2397 3584 2469 3576 
Q 2541 3569 2628 3553 
L 2631 2963 
z
" transform="scale(0.015625)"/>
       <path id="DejaVuSans-74" d="M 1172 4494 
L 1172 3500 
L 2356 3500 
L 2356 3053 
L 1172 3053 
L 1172 1153 
Q 1172 725 1289 603 
Q 1406 481 1766 481 
L 2356 481 
L 2356 0 
L 1766 0 
Q 1100 0 847 248 
Q 594 497 594 1153 
L 594 3053 
L 172 3053 
L 172 3500 
L 594 3500 
L 594 4494 
L 1172 4494 
z
" transform="scale(0.015625)"/>
       <path id="DejaVuSans-69" d="M 603 3500 
L 1178 3500 
L 1178 0 
L 603 0 
L 603 3500 
z
M 603 4863 
L 1178 4863 
L 1178 4134 
L 603 4134 
L 603 4863 
z
" transform="scale(0.015625)"/>
       <path id="DejaVuSans-6e" d="M 3513 2113 
L 3513 0 
L 2938 0 
L 2938 2094 
Q 2938 2591 2744 2837 
Q 2550 3084 2163 3084 
Q 1697 3084 1428 2787 
Q 1159 2491 1159 1978 
L 1159 0 
L 581 0 
L 581 3500 
L 1159 3500 
L 1159 2956 
Q 1366 3272 1645 3428 
Q 1925 3584 2291 3584 
Q 2894 3584 3203 3211 
Q 3513 2838 3513 2113 
z
" transform="scale(0.015625)"/>
      </defs>
      <use xlink:href="#DejaVuSans-70"/>
      <use xlink:href="#DejaVuSans-72" transform="translate(63.476562 0)"/>
      <use xlink:href="#DejaVuSans-6f" transform="translate(102.339844 0)"/>
      <use xlink:href="#DejaVuSans-70" transform="translate(163.521484 0)"/>
      <use xlink:href="#DejaVuSans-6f" transform="translate(226.998047 0)"/>
      <use xlink:href="#DejaVuSans-72" transform="translate(288.179688 0)"/>
      <use xlink:href="#DejaVuSans-74" transform="translate(329.292969 0)"/>
      <use xlink:href="#DejaVuSans-69" transform="translate(368.501953 0)"/>
      <use xlink:href="#DejaVuSans-6f" transform="translate(396.285156 0)"/>
      <use xlink:href="#DejaVuSans-6e" transform="translate(457.466797 0)"/>
      <use xlink:href="#DejaVuSans-20" transform="translate(520.845703 0)"/>
      <use xlink:href="#DejaVuSans-6f" transform="translate(552.632812 0)"/>
      <use xlink:href="#DejaVuSans-66" transform="translate(613.814453 0)"/>
      <use xlink:href="#DejaVuSans-20" transform="translate(649.019531 0)"/>
      <use xlink:href="#DejaVuSans-74" transform="translate(680.806641 0)"/>
      <use xlink:href="#DejaVuSans-72" transform="translate(720.015625 0)"/>
      <use xlink:href="#DejaVuSans-69" transform="translate(761.128906 0)"/>
      <use xlink:href="#DejaVuSans-61" transform="translate(788.912109 0)"/>
      <use xlink:href="#DejaVuSans-6c" transform="translate(850.191406 0)"/>
      <use xlink:href="#DejaVuSans-73" transform="translate(877.974609 0)"/>
     </g>
    </g>
   </g>
   <g id="line2d_95">
    <path d="M 11.853808 293.76 
L 11.853808 274.59802 
L 11.853808 274.59802 
L 11.853808 255.43604 
L 189.833384 255.43604 
L 189.833384 236.274059 
L 281.825726 236.274059 
L 281.825726 217.112079 
L 376.130065 217.112079 
L 376.130065 197.950099 
L 381.818293 197.950099 
L 381.818293 178.788119 
L 387.595214 178.788119 
L 387.595214 159.626139 
L 403.220033 159.626139 
L 403.220033 140.464158 
L 430.293633 140.464158 
L 430.293633 121.302178 
L 438.535904 121.302178 
L 438.535904 102.140198 
L 438.535904 102.140198 
L 438.535904 102.140198 
L 460.8 102.140198 
" clip-path="url(#p5644309cb1)" style="fill: none; stroke: #000000; stroke-width: 1.5; stroke-linecap: square"/>
   </g>
   <g id="line2d_96">
    <defs>
     <path id="m9ee79ea8a0" d="M -0 14.142136 
L 8.485281 0 
L -0 -14.142136 
L -8.485281 -0 
z
" style="stroke: #000000; stroke-width: 1.5; stroke-linejoin: miter"/>
    </defs>
    <g clip-path="url(#p5644309cb1)">
     <use xlink:href="#m9ee79ea8a0" x="189.833384" y="255.43604" style="fill-opacity: 0; stroke: #000000; stroke-width: 1.5; stroke-linejoin: miter"/>
     <use xlink:href="#m9ee79ea8a0" x="376.130065" y="217.112079" style="fill-opacity: 0; stroke: #000000; stroke-width: 1.5; stroke-linejoin: miter"/>
     <use xlink:href="#m9ee79ea8a0" x="430.293633" y="140.464158" style="fill-opacity: 0; stroke: #000000; stroke-width: 1.5; stroke-linejoin: miter"/>
     <use xlink:href="#m9ee79ea8a0" x="438.535904" y="102.140198" style="fill-opacity: 0; stroke: #000000; stroke-width: 1.5; stroke-linejoin: miter"/>
    </g>
   </g>
   <g id="line2d_97">
    <path clip-path="url(#p5644309cb1)" style="fill: none; stroke: #000000; stroke-width: 1.5; stroke-linecap: square"/>
    <g clip-path="url(#p5644309cb1)">
     <use xlink:href="#m9ee79ea8a0" x="-1" y="581.189703" style="fill-opacity: 0; stroke: #000000; stroke-width: 1.5; stroke-linejoin: miter"/>
     <use xlink:href="#m9ee79ea8a0" x="460.8" y="581.189703" style="fill-opacity: 0; stroke: #000000; stroke-width: 1.5; stroke-linejoin: miter"/>
    </g>
   </g>
   <g id="line2d_98">
    <path d="M 11.853808 293.76 
L 11.853808 274.59802 
L 11.853808 274.59802 
L 11.853808 255.43604 
L 189.833384 255.43604 
L 189.833384 236.274059 
L 215.93087 236.274059 
L 215.93087 217.112079 
L 346.907936 217.112079 
L 346.907936 197.950099 
L 362.933258 197.950099 
L 362.933258 178.788119 
L 376.815876 178.788119 
L 376.815876 159.626139 
L 390.634676 159.626139 
L 390.634676 140.464158 
L 397.150746 140.464158 
L 397.150746 121.302178 
L 404.923842 121.302178 
L 404.923842 102.140198 
L 404.923842 102.140198 
L 404.923842 102.140198 
L 460.8 102.140198 
" clip-path="url(#p5644309cb1)" style="fill: none; stroke: #000000; stroke-width: 1.5; stroke-linecap: square"/>
   </g>
   <g id="line2d_99">
    <defs>
     <path id="m466556e743" d="M 0 7.5 
C 1.989023 7.5 3.896849 6.709753 5.303301 5.303301 
C 6.709753 3.896849 7.5 1.989023 7.5 0 
C 7.5 -1.989023 6.709753 -3.896849 5.303301 -5.303301 
C 3.896849 -6.709753 1.989023 -7.5 0 -7.5 
C -1.989023 -7.5 -3.896849 -6.709753 -5.303301 -5.303301 
C -6.709753 -3.896849 -7.5 -1.989023 -7.5 0 
C -7.5 1.989023 -6.709753 3.896849 -5.303301 5.303301 
C -3.896849 6.709753 -1.989023 7.5 0 7.5 
z
" style="stroke: #000000; stroke-width: 1.5"/>
    </defs>
    <g clip-path="url(#p5644309cb1)">
     <use xlink:href="#m466556e743" x="215.93087" y="236.274059" style="fill-opacity: 0; stroke: #000000; stroke-width: 1.5"/>
     <use xlink:href="#m466556e743" x="362.933258" y="197.950099" style="fill-opacity: 0; stroke: #000000; stroke-width: 1.5"/>
     <use xlink:href="#m466556e743" x="397.150746" y="140.464158" style="fill-opacity: 0; stroke: #000000; stroke-width: 1.5"/>
     <use xlink:href="#m466556e743" x="404.923842" y="102.140198" style="fill-opacity: 0; stroke: #000000; stroke-width: 1.5"/>
    </g>
   </g>
   <g id="line2d_100">
    <path clip-path="url(#p5644309cb1)" style="fill: none; stroke: #000000; stroke-width: 1.5; stroke-linecap: square"/>
   </g>
   <g id="line2d_101">
    <path d="M 264.097533 293.76 
L 264.097533 274.59802 
L 319.205479 274.59802 
L 319.205479 255.43604 
L 324.656751 255.43604 
L 324.656751 236.274059 
L 324.656751 236.274059 
L 324.656751 236.274059 
L 460.8 236.274059 
" clip-path="url(#p5644309cb1)" style="fill: none; stroke: #00bfbf; stroke-width: 1.5; stroke-linecap: square"/>
   </g>
   <g id="line2d_102">
    <defs>
     <path id="m25c8ebf767" d="M -0 14.142136 
L 8.485281 0 
L -0 -14.142136 
L -8.485281 -0 
z
" style="stroke: #00bfbf; stroke-width: 1.5; stroke-linejoin: miter"/>
    </defs>
    <g clip-path="url(#p5644309cb1)">
     <use xlink:href="#m25c8ebf767" x="264.097533" y="293.76" style="fill-opacity: 0; stroke: #00bfbf; stroke-width: 1.5; stroke-linejoin: miter"/>
     <use xlink:href="#m25c8ebf767" x="324.656751" y="255.43604" style="fill-opacity: 0; stroke: #00bfbf; stroke-width: 1.5; stroke-linejoin: miter"/>
     <use xlink:href="#m25c8ebf767" x="324.656751" y="236.274059" style="fill-opacity: 0; stroke: #00bfbf; stroke-width: 1.5; stroke-linejoin: miter"/>
    </g>
   </g>
   <g id="line2d_103">
    <path clip-path="url(#p5644309cb1)" style="fill: none; stroke: #00bfbf; stroke-width: 1.5; stroke-linecap: square"/>
    <g clip-path="url(#p5644309cb1)">
     <use xlink:href="#m25c8ebf767" x="-1" y="581.189703" style="fill-opacity: 0; stroke: #00bfbf; stroke-width: 1.5; stroke-linejoin: miter"/>
     <use xlink:href="#m25c8ebf767" x="460.8" y="581.189703" style="fill-opacity: 0; stroke: #00bfbf; stroke-width: 1.5; stroke-linejoin: miter"/>
    </g>
   </g>
   <g id="line2d_104">
    <path d="M 310.460648 293.76 
L 310.460648 274.59802 
L 316.262667 274.59802 
L 316.262667 255.43604 
L 317.858744 255.43604 
L 317.858744 236.274059 
L 317.858744 236.274059 
L 317.858744 236.274059 
L 460.8 236.274059 
" clip-path="url(#p5644309cb1)" style="fill: none; stroke: #00bfbf; stroke-width: 1.5; stroke-linecap: square"/>
   </g>
   <g id="line2d_105">
    <defs>
     <path id="m625806f0f2" d="M 0 7.5 
C 1.989023 7.5 3.896849 6.709753 5.303301 5.303301 
C 6.709753 3.896849 7.5 1.989023 7.5 0 
C 7.5 -1.989023 6.709753 -3.896849 5.303301 -5.303301 
C 3.896849 -6.709753 1.989023 -7.5 0 -7.5 
C -1.989023 -7.5 -3.896849 -6.709753 -5.303301 -5.303301 
C -6.709753 -3.896849 -7.5 -1.989023 -7.5 0 
C -7.5 1.989023 -6.709753 3.896849 -5.303301 5.303301 
C -3.896849 6.709753 -1.989023 7.5 0 7.5 
z
" style="stroke: #00bfbf; stroke-width: 1.5"/>
    </defs>
    <g clip-path="url(#p5644309cb1)">
     <use xlink:href="#m625806f0f2" x="316.262667" y="274.59802" style="fill-opacity: 0; stroke: #00bfbf; stroke-width: 1.5"/>
     <use xlink:href="#m625806f0f2" x="317.858744" y="255.43604" style="fill-opacity: 0; stroke: #00bfbf; stroke-width: 1.5"/>
     <use xlink:href="#m625806f0f2" x="317.858744" y="236.274059" style="fill-opacity: 0; stroke: #00bfbf; stroke-width: 1.5"/>
    </g>
   </g>
   <g id="line2d_106">
    <path clip-path="url(#p5644309cb1)" style="fill: none; stroke: #00bfbf; stroke-width: 1.5; stroke-linecap: square"/>
   </g>
   <g id="line2d_107"/>
   <g id="line2d_108"/>
   <g id="line2d_109"/>
   <g id="line2d_110"/>
   <g id="line2d_111">
    <path d="M 441.819429 293.76 
L 441.819429 3.456 
" clip-path="url(#p5644309cb1)" style="fill: none; stroke: #000000; stroke-width: 1.5; stroke-linecap: square"/>
    <defs>
     <path id="md14a141785" d="M -10 0 
L 10 0 
M 0 10 
L 0 -10 
" style="stroke: #000000; stroke-width: 3"/>
    </defs>
    <g clip-path="url(#p5644309cb1)">
     <use xlink:href="#md14a141785" x="441.819429" y="293.76" style="stroke: #000000; stroke-width: 3"/>
     <use xlink:href="#md14a141785" x="441.819429" y="3.456" style="stroke: #000000; stroke-width: 3"/>
    </g>
   </g>
   <g id="line2d_112">
    <path d="M 441.819429 293.76 
L 441.819429 3.456 
" clip-path="url(#p5644309cb1)" style="fill: none; stroke: #000000; stroke-width: 1.5; stroke-linecap: square"/>
    <defs>
     <path id="m825ae89245" d="M 0 7.5 
C 1.989023 7.5 3.896849 6.709753 5.303301 5.303301 
C 6.709753 3.896849 7.5 1.989023 7.5 0 
C 7.5 -1.989023 6.709753 -3.896849 5.303301 -5.303301 
C 3.896849 -6.709753 1.989023 -7.5 0 -7.5 
C -1.989023 -7.5 -3.896849 -6.709753 -5.303301 -5.303301 
C -6.709753 -3.896849 -7.5 -1.989023 -7.5 0 
C -7.5 1.989023 -6.709753 3.896849 -5.303301 5.303301 
C -3.896849 6.709753 -1.989023 7.5 0 7.5 
z
" style="stroke: #000000; stroke-width: 3"/>
    </defs>
    <g clip-path="url(#p5644309cb1)">
     <use xlink:href="#m825ae89245" x="441.819429" y="293.76" style="fill-opacity: 0; stroke: #000000; stroke-width: 3"/>
     <use xlink:href="#m825ae89245" x="441.819429" y="3.456" style="fill-opacity: 0; stroke: #000000; stroke-width: 3"/>
    </g>
   </g>
   <g id="patch_3">
    <path d="M 62.208 293.76 
L 62.208 3.456 
" style="fill: none; stroke: #000000; stroke-width: 0.8; stroke-linejoin: miter; stroke-linecap: square"/>
   </g>
   <g id="patch_4">
    <path d="M 460.8 293.76 
L 460.8 3.456 
" style="fill: none; stroke: #000000; stroke-width: 0.8; stroke-linejoin: miter; stroke-linecap: square"/>
   </g>
   <g id="patch_5">
    <path d="M 62.208 293.76 
L 460.8 293.76 
" style="fill: none; stroke: #000000; stroke-width: 0.8; stroke-linejoin: miter; stroke-linecap: square"/>
   </g>
   <g id="patch_6">
    <path d="M 62.208 3.456 
L 460.8 3.456 
" style="fill: none; stroke: #000000; stroke-width: 0.8; stroke-linejoin: miter; stroke-linecap: square"/>
   </g>
   <g id="text_11">
    <!-- f10-f14 -->
    <g transform="translate(225.405563 24.458955) scale(0.2 -0.2)">
     <defs>
      <path id="DejaVuSans-2d" d="M 313 2009 
L 1997 2009 
L 1997 1497 
L 313 1497 
L 313 2009 
z
" transform="scale(0.015625)"/>
     </defs>
     <use xlink:href="#DejaVuSans-66"/>
     <use xlink:href="#DejaVuSans-31" transform="translate(35.205078 0)"/>
     <use xlink:href="#DejaVuSans-30" transform="translate(98.828125 0)"/>
     <use xlink:href="#DejaVuSans-2d" transform="translate(162.451172 0)"/>
     <use xlink:href="#DejaVuSans-66" transform="translate(198.535156 0)"/>
     <use xlink:href="#DejaVuSans-31" transform="translate(233.740234 0)"/>
     <use xlink:href="#DejaVuSans-34" transform="translate(297.363281 0)"/>
    </g>
   </g>
   <g id="text_12">
    <!-- absolute targets -->
    <g transform="translate(62.208 609.932673) scale(0.14 -0.14)">
     <defs>
      <path id="DejaVuSans-62" d="M 3116 1747 
Q 3116 2381 2855 2742 
Q 2594 3103 2138 3103 
Q 1681 3103 1420 2742 
Q 1159 2381 1159 1747 
Q 1159 1113 1420 752 
Q 1681 391 2138 391 
Q 2594 391 2855 752 
Q 3116 1113 3116 1747 
z
M 1159 2969 
Q 1341 3281 1617 3432 
Q 1894 3584 2278 3584 
Q 2916 3584 3314 3078 
Q 3713 2572 3713 1747 
Q 3713 922 3314 415 
Q 2916 -91 2278 -91 
Q 1894 -91 1617 61 
Q 1341 213 1159 525 
L 1159 0 
L 581 0 
L 581 4863 
L 1159 4863 
L 1159 2969 
z
" transform="scale(0.015625)"/>
      <path id="DejaVuSans-75" d="M 544 1381 
L 544 3500 
L 1119 3500 
L 1119 1403 
Q 1119 906 1312 657 
Q 1506 409 1894 409 
Q 2359 409 2629 706 
Q 2900 1003 2900 1516 
L 2900 3500 
L 3475 3500 
L 3475 0 
L 2900 0 
L 2900 538 
Q 2691 219 2414 64 
Q 2138 -91 1772 -91 
Q 1169 -91 856 284 
Q 544 659 544 1381 
z
M 1991 3584 
L 1991 3584 
z
" transform="scale(0.015625)"/>
      <path id="DejaVuSans-65" d="M 3597 1894 
L 3597 1613 
L 953 1613 
Q 991 1019 1311 708 
Q 1631 397 2203 397 
Q 2534 397 2845 478 
Q 3156 559 3463 722 
L 3463 178 
Q 3153 47 2828 -22 
Q 2503 -91 2169 -91 
Q 1331 -91 842 396 
Q 353 884 353 1716 
Q 353 2575 817 3079 
Q 1281 3584 2069 3584 
Q 2775 3584 3186 3129 
Q 3597 2675 3597 1894 
z
M 3022 2063 
Q 3016 2534 2758 2815 
Q 2500 3097 2075 3097 
Q 1594 3097 1305 2825 
Q 1016 2553 972 2059 
L 3022 2063 
z
" transform="scale(0.015625)"/>
     </defs>
     <use xlink:href="#DejaVuSans-61"/>
     <use xlink:href="#DejaVuSans-62" transform="translate(61.279297 0)"/>
     <use xlink:href="#DejaVuSans-73" transform="translate(124.755859 0)"/>
     <use xlink:href="#DejaVuSans-6f" transform="translate(176.855469 0)"/>
     <use xlink:href="#DejaVuSans-6c" transform="translate(238.037109 0)"/>
     <use xlink:href="#DejaVuSans-75" transform="translate(265.820312 0)"/>
     <use xlink:href="#DejaVuSans-74" transform="translate(329.199219 0)"/>
     <use xlink:href="#DejaVuSans-65" transform="translate(368.408203 0)"/>
     <use xlink:href="#DejaVuSans-20" transform="translate(429.931641 0)"/>
     <use xlink:href="#DejaVuSans-74" transform="translate(461.71875 0)"/>
     <use xlink:href="#DejaVuSans-61" transform="translate(500.927734 0)"/>
     <use xlink:href="#DejaVuSans-72" transform="translate(562.207031 0)"/>
     <use xlink:href="#DejaVuSans-67" transform="translate(601.570312 0)"/>
     <use xlink:href="#DejaVuSans-65" transform="translate(665.046875 0)"/>
     <use xlink:href="#DejaVuSans-74" transform="translate(726.570312 0)"/>
     <use xlink:href="#DejaVuSans-73" transform="translate(765.779297 0)"/>
    </g>
   </g>
   <g id="text_13">
    <!-- v2.8.2 -->
    <g style="fill: #808080" transform="translate(248.959 289.19321) scale(0.08 -0.08)">
     <use xlink:href="#DejaVuSans-76"/>
     <use xlink:href="#DejaVuSans-32" transform="translate(59.179688 0)"/>
     <use xlink:href="#DejaVuSans-2e" transform="translate(122.802734 0)"/>
     <use xlink:href="#DejaVuSans-38" transform="translate(154.589844 0)"/>
     <use xlink:href="#DejaVuSans-2e" transform="translate(218.212891 0)"/>
     <use xlink:href="#DejaVuSans-32" transform="translate(250 0)"/>
    </g>
   </g>
   <g id="legend_1">
    <g id="patch_7">
     <path d="M 76.208 136.881 
L 160.148625 136.881 
Q 164.148625 136.881 164.148625 132.881 
L 164.148625 17.456 
Q 164.148625 13.456 160.148625 13.456 
L 76.208 13.456 
Q 72.208 13.456 72.208 17.456 
L 72.208 132.881 
Q 72.208 136.881 76.208 136.881 
z
" style="fill: #ffffff; opacity: 0.2; stroke: #cccccc; stroke-linejoin: miter"/>
    </g>
    <g id="line2d_113">
     <path d="M 80.208 29.652875 
L 80.208 29.652875 
L 100.208 29.652875 
L 100.208 29.652875 
L 120.208 29.652875 
" style="fill: none; stroke: #000000; stroke-width: 1.5; stroke-linecap: square"/>
    </g>
    <g id="text_14">
     <!-- 1 -->
     <g transform="translate(136.208 36.652875) scale(0.2 -0.2)">
      <use xlink:href="#DejaVuSans-31"/>
     </g>
    </g>
    <g id="line2d_114">
     <path d="M 80.208 59.009125 
L 80.208 59.009125 
L 100.208 59.009125 
L 100.208 59.009125 
L 120.208 59.009125 
" style="fill: none; stroke: #00bfbf; stroke-width: 1.5; stroke-linecap: square"/>
    </g>
    <g id="text_15">
     <!-- -1 -->
     <g transform="translate(136.208 66.009125) scale(0.2 -0.2)">
      <use xlink:href="#DejaVuSans-2d"/>
      <use xlink:href="#DejaVuSans-31" transform="translate(36.083984 0)"/>
     </g>
    </g>
    <g id="line2d_115">
     <path d="M 80.208 88.365375 
L 100.208 88.365375 
L 120.208 88.365375 
" style="fill: none; stroke: #bf00bf; stroke-width: 1.5; stroke-linecap: square"/>
    </g>
    <g id="text_16">
     <!-- -4 -->
     <g transform="translate(136.208 95.365375) scale(0.2 -0.2)">
      <use xlink:href="#DejaVuSans-2d"/>
      <use xlink:href="#DejaVuSans-34" transform="translate(36.083984 0)"/>
     </g>
    </g>
    <g id="line2d_116">
     <path d="M 80.208 117.721625 
L 100.208 117.721625 
L 120.208 117.721625 
" style="fill: none; stroke: #ff0000; stroke-width: 3; stroke-linecap: square"/>
    </g>
    <g id="text_17">
     <!-- -8 -->
     <g transform="translate(136.208 124.721625) scale(0.2 -0.2)">
      <use xlink:href="#DejaVuSans-2d"/>
      <use xlink:href="#DejaVuSans-38" transform="translate(36.083984 0)"/>
     </g>
    </g>
   </g>
  </g>
 </g>
 <defs>
  <clipPath id="p5644309cb1">
   <rect x="62.208" y="3.456" width="398.592" height="290.304"/>
  </clipPath>
 </defs>
</svg>
