<?xml version="1.0" encoding="utf-8" standalone="no"?>
<!DOCTYPE svg PUBLIC "-//W3C//DTD SVG 1.1//EN"
  "http://www.w3.org/Graphics/SVG/1.1/DTD/svg11.dtd">
<svg xmlns:xlink="http://www.w3.org/1999/xlink" width="460.8pt" height="345.6pt" viewBox="0 0 460.8 345.6" xmlns="http://www.w3.org/2000/svg" version="1.1">
 <metadata>
  <rdf:RDF xmlns:dc="http://purl.org/dc/elements/1.1/" xmlns:cc="http://creativecommons.org/ns#" xmlns:rdf="http://www.w3.org/1999/02/22-rdf-syntax-ns#">
   <cc:Work>
    <dc:type rdf:resource="http://purl.org/dc/dcmitype/StillImage"/>
    <dc:date>2025-12-16T07:51:52.793702</dc:date>
    <dc:format>image/svg+xml</dc:format>
    <dc:creator>
     <cc:Agent>
      <dc:title>Matplotlib v3.10.0, https://matplotlib.org/</dc:title>
     </cc:Agent>
    </dc:creator>
   </cc:Work>
  </rdf:RDF>
 </metadata>
 <defs>
  <style type="text/css">*{stroke-linejoin: round; stroke-linecap: butt}</style>
 </defs>
 <g id="figure_1">
  <g id="patch_1">
   <path d="M 0 345.6 
L 460.8 345.6 
L 460.8 0 
L 0 0 
z
" style="fill: #ffffff"/>
  </g>
  <g id="axes_1">
   <g id="patch_2">
    <path d="M 62.208 293.76 
L 460.8 293.76 
L 460.8 3.456 
L 62.208 3.456 
z
" style="fill: #ffffff"/>
   </g>
   <g id="line2d_1">
    <path d="M 350.972766 293.76 
L 350.972766 288.969505 
L 355.317341 288.969505 
L 355.317341 284.17901 
L 356.963352 284.17901 
L 356.963352 279.388515 
L 356.963352 279.388515 
L 356.963352 274.59802 
L 357.768231 274.59802 
L 357.768231 269.807525 
L 358.033926 269.807525 
L 358.033926 265.01703 
L 358.298342 265.01703 
L 358.298342 260.226535 
L 359.601669 260.226535 
L 359.601669 255.43604 
L 360.369082 255.43604 
L 360.369082 250.645545 
L 360.622523 250.645545 
L 360.622523 245.85505 
L 360.622523 245.85505 
L 360.622523 241.064554 
L 360.874801 241.064554 
L 360.874801 236.274059 
L 360.874801 236.274059 
L 360.874801 231.483564 
L 361.624758 231.483564 
L 361.624758 226.693069 
L 361.624758 226.693069 
L 361.624758 221.902574 
L 363.335856 221.902574 
L 363.335856 217.112079 
L 363.815112 217.112079 
L 363.815112 212.321584 
L 364.053182 212.321584 
L 364.053182 207.531089 
L 364.290225 207.531089 
L 364.290225 202.740594 
L 364.52625 202.740594 
L 364.52625 197.950099 
L 365.228303 197.950099 
L 365.228303 193.159604 
L 365.228303 193.159604 
L 365.228303 188.369109 
L 365.460341 188.369109 
L 365.460341 183.578614 
L 369.477741 183.578614 
L 369.477741 178.788119 
L 371.588924 178.788119 
L 371.588924 173.997624 
L 372.0016 173.997624 
L 372.0016 169.207129 
L 397.132161 169.207129 
L 397.132161 164.416634 
L 401.661776 164.416634 
L 401.661776 159.626139 
L 406.555536 159.626139 
L 406.555536 154.835644 
L 417.392654 154.835644 
L 417.392654 150.045149 
L 417.392654 150.045149 
L 417.392654 150.045149 
L 460.8 150.045149 
" clip-path="url(#pfa7327f9b7)" style="fill: none; stroke: #f5deb3; stroke-width: 1.5; stroke-linecap: square"/>
   </g>
   <g id="line2d_2"/>
   <g id="line2d_3">
    <path d="M 351.855472 293.76 
L 351.855472 288.969505 
L 361.090121 288.969505 
L 361.090121 284.17901 
L 365.570493 284.17901 
L 365.570493 279.388515 
L 372.7309 279.388515 
L 372.7309 274.59802 
L 373.593473 274.59802 
L 373.593473 269.807525 
L 374.038604 269.807525 
L 374.038604 265.01703 
L 374.076321 265.01703 
L 374.076321 260.226535 
L 374.226933 260.226535 
L 374.226933 255.43604 
L 375.472359 255.43604 
L 375.472359 250.645545 
L 376.365649 250.645545 
L 376.365649 245.85505 
L 376.618231 245.85505 
L 376.618231 241.064554 
L 377.075328 241.064554 
L 377.075328 236.274059 
L 377.360204 236.274059 
L 377.360204 231.483564 
L 377.431193 231.483564 
L 377.431193 226.693069 
L 377.475515 226.693069 
L 377.475515 221.902574 
L 377.519801 221.902574 
L 377.519801 217.112079 
L 377.661276 217.112079 
L 377.661276 212.321584 
L 380.062998 212.321584 
L 380.062998 207.531089 
L 380.910209 207.531089 
L 380.910209 202.740594 
L 381.719955 202.740594 
L 381.719955 197.950099 
L 382.404653 197.950099 
L 382.404653 193.159604 
L 383.772683 193.159604 
L 383.772683 188.369109 
L 384.393377 188.369109 
L 384.393377 183.578614 
L 394.355422 183.578614 
L 394.355422 178.788119 
L 395.375637 178.788119 
L 395.375637 173.997624 
L 395.992715 173.997624 
L 395.992715 169.207129 
L 396.945959 169.207129 
L 396.945959 164.416634 
L 397.039139 164.416634 
L 397.039139 159.626139 
L 397.076366 159.626139 
L 397.076366 154.835644 
L 398.960283 154.835644 
L 398.960283 150.045149 
L 399.145768 150.045149 
L 399.145768 145.254653 
L 400.566802 145.254653 
L 400.566802 140.464158 
L 401.421601 140.464158 
L 401.421601 135.673663 
L 401.57612 135.673663 
L 401.57612 130.883168 
L 402.6009 130.883168 
L 402.6009 126.092673 
L 403.352987 126.092673 
L 403.352987 121.302178 
L 405.036646 121.302178 
L 405.036646 116.511683 
L 408.342661 116.511683 
L 408.342661 111.721188 
L 411.015232 111.721188 
L 411.015232 106.930693 
L 420.786978 106.930693 
L 420.786978 102.140198 
L 424.712572 102.140198 
L 424.712572 97.349703 
L 424.978261 97.349703 
L 424.978261 92.559208 
L 426.46246 92.559208 
L 426.46246 87.768713 
L 426.903979 87.768713 
L 426.903979 82.978218 
L 427.556116 82.978218 
L 427.556116 78.187723 
L 427.556116 78.187723 
L 427.556116 78.187723 
L 460.8 78.187723 
" clip-path="url(#pfa7327f9b7)" style="fill: none; stroke: #f5deb3; stroke-width: 1.5; stroke-linecap: square"/>
   </g>
   <g id="line2d_4">
    <path d="M 421.962838 293.76 
L 421.962838 288.969505 
L 428.428959 288.969505 
L 428.428959 284.17901 
L 432.32946 284.17901 
L 432.32946 279.388515 
L 433.011003 279.388515 
L 433.011003 274.59802 
L 437.502415 274.59802 
L 437.502415 269.807525 
L 437.529159 269.807525 
L 437.529159 265.01703 
L 439.82738 265.01703 
L 439.82738 260.226535 
L 440.815642 260.226535 
L 440.815642 255.43604 
L 440.838025 255.43604 
L 440.838025 250.645545 
L 441.430628 250.645545 
L 441.430628 245.85505 
L 442.205498 245.85505 
L 442.205498 241.064554 
L 442.743099 241.064554 
L 442.743099 236.274059 
L 444.351297 236.274059 
L 444.351297 231.483564 
L 444.920372 231.483564 
L 444.920372 226.693069 
L 445.169117 226.693069 
L 445.169117 221.902574 
L 448.306775 221.902574 
L 448.306775 217.112079 
L 450.084612 217.112079 
L 450.084612 212.321584 
L 450.833612 212.321584 
L 450.833612 207.531089 
L 451.328104 207.531089 
L 451.328104 202.740594 
L 455.565496 202.740594 
L 455.565496 197.950099 
L 461.8 197.950099 
" clip-path="url(#pfa7327f9b7)" style="fill: none; stroke: #f5deb3; stroke-width: 1.5; stroke-linecap: square"/>
   </g>
   <g id="line2d_5"/>
   <g id="line2d_6"/>
   <g id="line2d_7">
    <path d="M 400.891805 293.76 
L 400.891805 288.969505 
L 401.501776 288.969505 
L 401.501776 284.17901 
L 404.062156 284.17901 
L 404.062156 279.388515 
L 404.848511 279.388515 
L 404.848511 274.59802 
L 405.288277 274.59802 
L 405.288277 269.807525 
L 405.666228 269.807525 
L 405.666228 265.01703 
L 406.628565 265.01703 
L 406.628565 260.226535 
L 407.090566 260.226535 
L 407.090566 255.43604 
L 407.497428 255.43604 
L 407.497428 250.645545 
L 408.930683 250.645545 
L 408.930683 245.85505 
L 409.010609 245.85505 
L 409.010609 241.064554 
L 410.195762 241.064554 
L 410.195762 236.274059 
L 412.163084 236.274059 
L 412.163084 231.483564 
L 412.379477 231.483564 
L 412.379477 226.693069 
L 414.956652 226.693069 
L 414.956652 221.902574 
L 443.371739 221.902574 
L 443.371739 217.112079 
L 445.972397 217.112079 
L 445.972397 212.321584 
L 446.676138 212.321584 
L 446.676138 207.531089 
L 448.074316 207.531089 
L 448.074316 202.740594 
L 448.238363 202.740594 
L 448.238363 197.950099 
L 449.130767 197.950099 
L 449.130767 193.159604 
L 449.413877 193.159604 
L 449.413877 188.369109 
L 451.7196 188.369109 
L 451.7196 183.578614 
L 452.247144 183.578614 
L 452.247144 178.788119 
L 453.500962 178.788119 
L 453.500962 173.997624 
L 453.618578 173.997624 
L 453.618578 169.207129 
L 453.755848 169.207129 
L 453.755848 164.416634 
L 453.833188 164.416634 
L 453.833188 159.626139 
L 455.906775 159.626139 
L 455.906775 154.835644 
L 456.953557 154.835644 
L 456.953557 150.045149 
L 457.280129 150.045149 
L 457.280129 145.254653 
L 458.985116 145.254653 
L 458.985116 140.464158 
L 459.217847 140.464158 
L 459.217847 135.673663 
L 459.945756 135.673663 
L 459.945756 130.883168 
L 460.133129 130.883168 
L 460.133129 126.092673 
L 460.761566 126.092673 
L 460.761566 121.302178 
L 461.609546 121.302178 
L 461.609546 116.511683 
L 461.8 116.511683 
" clip-path="url(#pfa7327f9b7)" style="fill: none; stroke: #f5deb3; stroke-width: 1.5; stroke-linecap: square"/>
   </g>
   <g id="line2d_8">
    <path clip-path="url(#pfa7327f9b7)" style="fill: none; stroke: #f5deb3; stroke-width: 1.5; stroke-linecap: square"/>
   </g>
   <g id="line2d_9">
    <path d="M 399.526736 293.76 
L 399.526736 288.969505 
L 402.757737 288.969505 
L 402.757737 284.17901 
L 402.953155 284.17901 
L 402.953155 279.388515 
L 405.533443 279.388515 
L 405.533443 274.59802 
L 405.914998 274.59802 
L 405.914998 269.807525 
L 406.025788 269.807525 
L 406.025788 265.01703 
L 406.41442 265.01703 
L 406.41442 260.226535 
L 406.966364 260.226535 
L 406.966364 255.43604 
L 407.952211 255.43604 
L 407.952211 250.645545 
L 408.155388 250.645545 
L 408.155388 245.85505 
L 408.624893 245.85505 
L 408.624893 241.064554 
L 410.865827 241.064554 
L 410.865827 236.274059 
L 411.422818 236.274059 
L 411.422818 231.483564 
L 412.809724 231.483564 
L 412.809724 226.693069 
L 415.920282 226.693069 
L 415.920282 221.902574 
L 417.186559 221.902574 
L 417.186559 217.112079 
L 438.378165 217.112079 
L 438.378165 212.321584 
L 438.687374 212.321584 
L 438.687374 207.531089 
L 439.421304 207.531089 
L 439.421304 202.740594 
L 439.427044 202.740594 
L 439.427044 197.950099 
L 440.272886 197.950099 
L 440.272886 193.159604 
L 440.399915 193.159604 
L 440.399915 188.369109 
L 441.904542 188.369109 
L 441.904542 183.578614 
L 442.45323 183.578614 
L 442.45323 178.788119 
L 442.564482 178.788119 
L 442.564482 173.997624 
L 442.672804 173.997624 
L 442.672804 169.207129 
L 442.734993 169.207129 
L 442.734993 164.416634 
L 442.939986 164.416634 
L 442.939986 159.626139 
L 443.28887 159.626139 
L 443.28887 154.835644 
L 444.059259 154.835644 
L 444.059259 150.045149 
L 444.23309 150.045149 
L 444.23309 145.254653 
L 445.026745 145.254653 
L 445.026745 140.464158 
L 445.673502 140.464158 
L 445.673502 135.673663 
L 446.330456 135.673663 
L 446.330456 130.883168 
L 446.375999 130.883168 
L 446.375999 126.092673 
L 446.929599 126.092673 
L 446.929599 121.302178 
L 447.673161 121.302178 
L 447.673161 116.511683 
L 449.294093 116.511683 
L 449.294093 111.721188 
L 450.023112 111.721188 
L 450.023112 106.930693 
L 451.344279 106.930693 
L 451.344279 102.140198 
L 452.096934 102.140198 
L 452.096934 97.349703 
L 454.739844 97.349703 
L 454.739844 92.559208 
L 455.847204 92.559208 
L 455.847204 87.768713 
L 455.898269 87.768713 
L 455.898269 82.978218 
L 461.8 82.978218 
" clip-path="url(#pfa7327f9b7)" style="fill: none; stroke: #f5deb3; stroke-width: 1.5; stroke-linecap: square"/>
   </g>
   <g id="line2d_10">
    <path clip-path="url(#pfa7327f9b7)" style="fill: none; stroke: #f5deb3; stroke-width: 1.5; stroke-linecap: square"/>
   </g>
   <g id="line2d_11">
    <path d="M 414.551979 293.76 
L 414.551979 288.969505 
L 418.935053 288.969505 
L 418.935053 284.17901 
L 425.134826 284.17901 
L 425.134826 279.388515 
L 434.412164 279.388515 
L 434.412164 274.59802 
L 435.747808 274.59802 
L 435.747808 269.807525 
L 436.443057 269.807525 
L 436.443057 265.01703 
L 441.133734 265.01703 
L 441.133734 260.226535 
L 441.206024 260.226535 
L 441.206024 255.43604 
L 441.981305 255.43604 
L 441.981305 250.645545 
L 457.278055 250.645545 
L 457.278055 245.85505 
L 458.056482 245.85505 
L 458.056482 241.064554 
L 461.8 241.064554 
" clip-path="url(#pfa7327f9b7)" style="fill: none; stroke: #f5deb3; stroke-width: 1.5; stroke-linecap: square"/>
   </g>
   <g id="line2d_12">
    <path d="M 355.237716 293.76 
L 355.237716 288.969505 
L 362.048755 288.969505 
L 362.048755 284.17901 
L 362.294584 284.17901 
L 362.294584 279.388515 
L 364.458918 279.388515 
L 364.458918 274.59802 
L 364.928521 274.59802 
L 364.928521 269.807525 
L 365.855857 269.807525 
L 365.855857 265.01703 
L 366.541231 265.01703 
L 366.541231 260.226535 
L 366.541231 260.226535 
L 366.541231 255.43604 
L 366.993445 255.43604 
L 366.993445 250.645545 
L 366.993445 250.645545 
L 366.993445 245.85505 
L 367.218164 245.85505 
L 367.218164 241.064554 
L 367.441967 241.064554 
L 367.441967 236.274059 
L 367.664863 236.274059 
L 367.664863 231.483564 
L 367.886859 231.483564 
L 367.886859 226.693069 
L 367.886859 226.693069 
L 367.886859 221.902574 
L 368.547515 221.902574 
L 368.547515 217.112079 
L 368.547515 217.112079 
L 368.547515 212.321584 
L 368.547515 212.321584 
L 368.547515 207.531089 
L 369.200323 207.531089 
L 369.200323 202.740594 
L 369.200323 202.740594 
L 369.200323 197.950099 
L 369.200323 197.950099 
L 369.200323 193.159604 
L 369.845467 193.159604 
L 369.845467 188.369109 
L 370.058843 188.369109 
L 370.058843 183.578614 
L 373.764375 183.578614 
L 373.764375 178.788119 
L 380.147465 178.788119 
L 380.147465 173.997624 
L 403.595904 173.997624 
L 403.595904 169.207129 
L 407.502558 169.207129 
L 407.502558 164.416634 
L 408.038653 164.416634 
L 408.038653 159.626139 
L 408.675139 159.626139 
L 408.675139 154.835644 
L 422.249971 154.835644 
L 422.249971 150.045149 
L 422.249971 150.045149 
L 422.249971 150.045149 
L 460.8 150.045149 
" clip-path="url(#pfa7327f9b7)" style="fill: none; stroke: #f5deb3; stroke-width: 1.5; stroke-linecap: square"/>
   </g>
   <g id="line2d_13"/>
   <g id="line2d_14"/>
   <g id="line2d_15"/>
   <g id="line2d_16">
    <path clip-path="url(#pfa7327f9b7)" style="fill: none; stroke: #f5deb3; stroke-width: 1.5; stroke-linecap: square"/>
   </g>
   <g id="line2d_17">
    <path clip-path="url(#pfa7327f9b7)" style="fill: none; stroke: #f5deb3; stroke-width: 1.5; stroke-linecap: square"/>
   </g>
   <g id="line2d_18">
    <path d="M 321.608239 293.76 
L 321.608239 288.969505 
L 334.086041 288.969505 
L 334.086041 284.17901 
L 334.300288 284.17901 
L 334.300288 279.388515 
L 335.129877 279.388515 
L 335.129877 274.59802 
L 335.435392 274.59802 
L 335.435392 269.807525 
L 339.099761 269.807525 
L 339.099761 265.01703 
L 339.224314 265.01703 
L 339.224314 260.226535 
L 339.348585 260.226535 
L 339.348585 255.43604 
L 339.419471 255.43604 
L 339.419471 250.645545 
L 340.000818 250.645545 
L 340.000818 245.85505 
L 340.437174 245.85505 
L 340.437174 241.064554 
L 340.610751 241.064554 
L 340.610751 236.274059 
L 340.662717 236.274059 
L 340.662717 231.483564 
L 340.921814 231.483564 
L 340.921814 226.693069 
L 341.350946 226.693069 
L 341.350946 221.902574 
L 341.555745 221.902574 
L 341.555745 217.112079 
L 343.067884 217.112079 
L 343.067884 212.321584 
L 343.529966 212.321584 
L 343.529966 207.531089 
L 343.562824 207.531089 
L 343.562824 202.740594 
L 343.644882 202.740594 
L 343.644882 197.950099 
L 344.829184 197.950099 
L 344.829184 193.159604 
L 347.82744 193.159604 
L 347.82744 188.369109 
L 348.206071 188.369109 
L 348.206071 183.578614 
L 354.998147 183.578614 
L 354.998147 178.788119 
L 374.377133 178.788119 
L 374.377133 173.997624 
L 380.500816 173.997624 
L 380.500816 169.207129 
L 382.87249 169.207129 
L 382.87249 164.416634 
L 384.236901 164.416634 
L 384.236901 159.626139 
L 386.508447 159.626139 
L 386.508447 154.835644 
L 387.009838 154.835644 
L 387.009838 150.045149 
L 387.977149 150.045149 
L 387.977149 145.254653 
L 388.559607 145.254653 
L 388.559607 140.464158 
L 389.904561 140.464158 
L 389.904561 135.673663 
L 392.357827 135.673663 
L 392.357827 130.883168 
L 398.41215 130.883168 
L 398.41215 126.092673 
L 400.880231 126.092673 
L 400.880231 121.302178 
L 404.535318 121.302178 
L 404.535318 116.511683 
L 405.138508 116.511683 
L 405.138508 111.721188 
L 409.700121 111.721188 
L 409.700121 106.930693 
L 410.151777 106.930693 
L 410.151777 102.140198 
L 412.599698 102.140198 
L 412.599698 97.349703 
L 421.340175 97.349703 
L 421.340175 92.559208 
L 437.290977 92.559208 
L 437.290977 87.768713 
L 440.04349 87.768713 
L 440.04349 82.978218 
L 449.466499 82.978218 
L 449.466499 78.187723 
L 449.466499 78.187723 
L 449.466499 78.187723 
L 460.8 78.187723 
" clip-path="url(#pfa7327f9b7)" style="fill: none; stroke: #f5deb3; stroke-width: 1.5; stroke-linecap: square"/>
   </g>
   <g id="line2d_19"/>
   <g id="line2d_20">
    <path d="M 432.959373 293.76 
L 432.959373 288.969505 
L 438.345978 288.969505 
L 438.345978 284.17901 
L 444.21731 284.17901 
L 444.21731 279.388515 
L 449.878555 279.388515 
L 449.878555 274.59802 
L 452.559901 274.59802 
L 452.559901 269.807525 
L 454.609368 269.807525 
L 454.609368 265.01703 
L 457.222029 265.01703 
L 457.222029 260.226535 
L 458.38878 260.226535 
L 458.38878 255.43604 
L 460.241317 255.43604 
L 460.241317 250.645545 
L 460.751833 250.645545 
L 460.751833 245.85505 
L 461.050847 245.85505 
L 461.050847 241.064554 
L 461.8 241.064554 
" clip-path="url(#pfa7327f9b7)" style="fill: none; stroke: #f5deb3; stroke-width: 1.5; stroke-linecap: square"/>
   </g>
   <g id="line2d_21"/>
   <g id="line2d_22">
    <path d="M 439.075787 293.76 
L 439.075787 288.969505 
L 439.406951 288.969505 
L 439.406951 284.17901 
L 441.208803 284.17901 
L 441.208803 279.388515 
L 442.428779 279.388515 
L 442.428779 274.59802 
L 442.966902 274.59802 
L 442.966902 269.807525 
L 443.085176 269.807525 
L 443.085176 265.01703 
L 443.696662 265.01703 
L 443.696662 260.226535 
L 444.227831 260.226535 
L 444.227831 255.43604 
L 444.982664 255.43604 
L 444.982664 250.645545 
L 445.529863 250.645545 
L 445.529863 245.85505 
L 446.738985 245.85505 
L 446.738985 241.064554 
L 447.971231 241.064554 
L 447.971231 236.274059 
L 448.101283 236.274059 
L 448.101283 231.483564 
L 449.797816 231.483564 
L 449.797816 226.693069 
L 450.200328 226.693069 
L 450.200328 221.902574 
L 450.973356 221.902574 
L 450.973356 217.112079 
L 451.012886 217.112079 
L 451.012886 212.321584 
L 451.35814 212.321584 
L 451.35814 207.531089 
L 452.492062 207.531089 
L 452.492062 202.740594 
L 453.669541 202.740594 
L 453.669541 197.950099 
L 454.209491 197.950099 
L 454.209491 193.159604 
L 454.791948 193.159604 
L 454.791948 188.369109 
L 455.725734 188.369109 
L 455.725734 183.578614 
L 457.941853 183.578614 
L 457.941853 178.788119 
L 459.475507 178.788119 
L 459.475507 173.997624 
L 460.73236 173.997624 
L 460.73236 169.207129 
L 460.738202 169.207129 
L 460.738202 164.416634 
L 461.8 164.416634 
" clip-path="url(#pfa7327f9b7)" style="fill: none; stroke: #f5deb3; stroke-width: 1.5; stroke-linecap: square"/>
   </g>
   <g id="line2d_23">
    <path clip-path="url(#pfa7327f9b7)" style="fill: none; stroke: #f5deb3; stroke-width: 1.5; stroke-linecap: square"/>
   </g>
   <g id="line2d_24">
    <path d="M 413.875399 293.76 
L 413.875399 288.969505 
L 426.171001 288.969505 
L 426.171001 284.17901 
L 428.33773 284.17901 
L 428.33773 279.388515 
L 430.947178 279.388515 
L 430.947178 274.59802 
L 430.997388 274.59802 
L 430.997388 269.807525 
L 432.031479 269.807525 
L 432.031479 265.01703 
L 433.072252 265.01703 
L 433.072252 260.226535 
L 437.881555 260.226535 
L 437.881555 255.43604 
L 439.055564 255.43604 
L 439.055564 250.645545 
L 439.472945 250.645545 
L 439.472945 245.85505 
L 440.896735 245.85505 
L 440.896735 241.064554 
L 441.494237 241.064554 
L 441.494237 236.274059 
L 441.516345 236.274059 
L 441.516345 231.483564 
L 444.059259 231.483564 
L 444.059259 226.693069 
L 444.293539 226.693069 
L 444.293539 221.902574 
L 461.8 221.902574 
" clip-path="url(#pfa7327f9b7)" style="fill: none; stroke: #f5deb3; stroke-width: 1.5; stroke-linecap: square"/>
   </g>
   <g id="line2d_25">
    <path clip-path="url(#pfa7327f9b7)" style="fill: none; stroke: #f5deb3; stroke-width: 1.5; stroke-linecap: square"/>
   </g>
   <g id="line2d_26">
    <path d="M 459.614818 293.76 
L 459.614818 288.969505 
L 461.8 288.969505 
" clip-path="url(#pfa7327f9b7)" style="fill: none; stroke: #f5deb3; stroke-width: 1.5; stroke-linecap: square"/>
   </g>
   <g id="line2d_27">
    <path d="M 406.136355 293.76 
L 406.136355 288.969505 
L 409.264602 288.969505 
L 409.264602 284.17901 
L 412.370086 284.17901 
L 412.370086 279.388515 
L 412.613724 279.388515 
L 412.613724 274.59802 
L 414.875956 274.59802 
L 414.875956 269.807525 
L 415.473874 269.807525 
L 415.473874 265.01703 
L 417.908781 265.01703 
L 417.908781 260.226535 
L 418.504167 260.226535 
L 418.504167 255.43604 
L 418.592292 255.43604 
L 418.592292 250.645545 
L 418.65934 250.645545 
L 418.65934 245.85505 
L 419.498862 245.85505 
L 419.498862 241.064554 
L 421.76926 241.064554 
L 421.76926 236.274059 
L 422.175382 236.274059 
L 422.175382 231.483564 
L 422.877983 231.483564 
L 422.877983 226.693069 
L 422.885739 226.693069 
L 422.885739 221.902574 
L 423.260619 221.902574 
L 423.260619 217.112079 
L 423.410626 217.112079 
L 423.410626 212.321584 
L 424.006591 212.321584 
L 424.006591 207.531089 
L 424.17731 207.531089 
L 424.17731 202.740594 
L 424.494574 202.740594 
L 424.494574 197.950099 
L 424.547273 197.950099 
L 424.547273 193.159604 
L 424.656276 193.159604 
L 424.656276 188.369109 
L 425.220376 188.369109 
L 425.220376 183.578614 
L 425.376254 183.578614 
L 425.376254 178.788119 
L 425.969723 178.788119 
L 425.969723 173.997624 
L 427.694858 173.997624 
L 427.694858 169.207129 
L 428.281515 169.207129 
L 428.281515 164.416634 
L 428.41844 164.416634 
L 428.41844 159.626139 
L 428.701738 159.626139 
L 428.701738 154.835644 
L 429.281251 154.835644 
L 429.281251 150.045149 
L 431.506922 150.045149 
L 431.506922 145.254653 
L 432.629082 145.254653 
L 432.629082 140.464158 
L 432.797713 140.464158 
L 432.797713 135.673663 
L 433.887732 135.673663 
L 433.887732 130.883168 
L 434.251576 130.883168 
L 434.251576 126.092673 
L 438.328413 126.092673 
L 438.328413 121.302178 
L 438.42495 121.302178 
L 438.42495 116.511683 
L 439.124867 116.511683 
L 439.124867 111.721188 
L 461.8 111.721188 
" clip-path="url(#pfa7327f9b7)" style="fill: none; stroke: #f5deb3; stroke-width: 1.5; stroke-linecap: square"/>
   </g>
   <g id="line2d_28">
    <path d="M 381.390886 293.76 
L 381.390886 288.969505 
L 384.30737 288.969505 
L 384.30737 284.17901 
L 385.659947 284.17901 
L 385.659947 279.388515 
L 386.350348 279.388515 
L 386.350348 274.59802 
L 389.300544 274.59802 
L 389.300544 269.807525 
L 389.585614 269.807525 
L 389.585614 265.01703 
L 390.116169 265.01703 
L 390.116169 260.226535 
L 390.620727 260.226535 
L 390.620727 255.43604 
L 461.203608 255.43604 
L 461.203608 250.645545 
L 461.286578 250.645545 
L 461.286578 245.85505 
L 461.548175 245.85505 
L 461.548175 241.064554 
L 461.716782 241.064554 
L 461.716782 236.274059 
L 461.8 236.274059 
" clip-path="url(#pfa7327f9b7)" style="fill: none; stroke: #f5deb3; stroke-width: 1.5; stroke-linecap: square"/>
   </g>
   <g id="line2d_29">
    <path d="M 330.372585 293.76 
L 330.372585 288.969505 
L 330.372585 288.969505 
L 330.372585 284.17901 
L 330.372585 284.17901 
L 330.372585 279.388515 
L 346.270642 279.388515 
L 346.270642 274.59802 
L 346.270642 274.59802 
L 346.270642 269.807525 
L 346.270642 269.807525 
L 346.270642 265.01703 
L 372.060301 265.01703 
L 372.060301 260.226535 
L 372.060301 260.226535 
L 372.060301 255.43604 
L 372.060301 255.43604 
L 372.060301 250.645545 
L 372.991097 250.645545 
L 372.991097 245.85505 
L 372.991097 245.85505 
L 372.991097 241.064554 
L 372.991097 241.064554 
L 372.991097 236.274059 
L 389.642452 236.274059 
L 389.642452 231.483564 
L 389.642452 231.483564 
L 389.642452 226.693069 
L 389.642452 226.693069 
L 389.642452 221.902574 
L 391.821284 221.902574 
L 391.821284 217.112079 
L 391.821284 217.112079 
L 391.821284 212.321584 
L 391.821284 212.321584 
L 391.821284 207.531089 
L 392.283431 207.531089 
L 392.283431 202.740594 
L 392.283431 202.740594 
L 392.283431 197.950099 
L 392.283431 197.950099 
L 392.283431 193.159604 
L 393.824964 193.159604 
L 393.824964 188.369109 
L 393.824964 188.369109 
L 393.824964 183.578614 
L 393.824964 183.578614 
L 393.824964 178.788119 
L 393.903875 178.788119 
L 393.903875 173.997624 
L 393.903875 173.997624 
L 393.903875 169.207129 
L 393.903875 169.207129 
L 393.903875 164.416634 
L 422.277425 164.416634 
L 422.277425 159.626139 
L 422.277425 159.626139 
L 422.277425 154.835644 
L 422.277425 154.835644 
L 422.277425 150.045149 
L 422.277425 150.045149 
L 422.277425 150.045149 
L 460.8 150.045149 
" clip-path="url(#pfa7327f9b7)" style="fill: none; stroke: #f5deb3; stroke-width: 1.5; stroke-linecap: square"/>
   </g>
   <g id="line2d_30"/>
   <g id="matplotlib.axis_1">
    <g id="xtick_1">
     <g id="line2d_31">
      <path d="M 62.208 293.76 
L 62.208 3.456 
" clip-path="url(#pfa7327f9b7)" style="fill: none; stroke: #b0b0b0; stroke-width: 0.8; stroke-linecap: square"/>
     </g>
     <g id="line2d_32">
      <defs>
       <path id="m75c314e10c" d="M 0 0 
L 0 3.5 
" style="stroke: #000000; stroke-width: 0.8"/>
      </defs>
      <g>
       <use xlink:href="#m75c314e10c" x="62.208" y="293.76" style="stroke: #000000; stroke-width: 0.8"/>
      </g>
     </g>
     <g id="text_1">
      <!-- 0 -->
      <g transform="translate(55.8455 315.956875) scale(0.2 -0.2)">
       <defs>
        <path id="DejaVuSans-30" d="M 2034 4250 
Q 1547 4250 1301 3770 
Q 1056 3291 1056 2328 
Q 1056 1369 1301 889 
Q 1547 409 2034 409 
Q 2525 409 2770 889 
Q 3016 1369 3016 2328 
Q 3016 3291 2770 3770 
Q 2525 4250 2034 4250 
z
M 2034 4750 
Q 2819 4750 3233 4129 
Q 3647 3509 3647 2328 
Q 3647 1150 3233 529 
Q 2819 -91 2034 -91 
Q 1250 -91 836 529 
Q 422 1150 422 2328 
Q 422 3509 836 4129 
Q 1250 4750 2034 4750 
z
" transform="scale(0.015625)"/>
       </defs>
       <use xlink:href="#DejaVuSans-30"/>
      </g>
     </g>
    </g>
    <g id="xtick_2">
     <g id="line2d_33">
      <path d="M 188.745143 293.76 
L 188.745143 3.456 
" clip-path="url(#pfa7327f9b7)" style="fill: none; stroke: #b0b0b0; stroke-width: 0.8; stroke-linecap: square"/>
     </g>
     <g id="line2d_34">
      <g>
       <use xlink:href="#m75c314e10c" x="188.745143" y="293.76" style="stroke: #000000; stroke-width: 0.8"/>
      </g>
     </g>
     <g id="text_2">
      <!-- 1 -->
      <g transform="translate(182.382643 315.956875) scale(0.2 -0.2)">
       <defs>
        <path id="DejaVuSans-31" d="M 794 531 
L 1825 531 
L 1825 4091 
L 703 3866 
L 703 4441 
L 1819 4666 
L 2450 4666 
L 2450 531 
L 3481 531 
L 3481 0 
L 794 0 
L 794 531 
z
" transform="scale(0.015625)"/>
       </defs>
       <use xlink:href="#DejaVuSans-31"/>
      </g>
     </g>
    </g>
    <g id="xtick_3">
     <g id="line2d_35">
      <path d="M 315.282286 293.76 
L 315.282286 3.456 
" clip-path="url(#pfa7327f9b7)" style="fill: none; stroke: #b0b0b0; stroke-width: 0.8; stroke-linecap: square"/>
     </g>
     <g id="line2d_36">
      <g>
       <use xlink:href="#m75c314e10c" x="315.282286" y="293.76" style="stroke: #000000; stroke-width: 0.8"/>
      </g>
     </g>
     <g id="text_3">
      <!-- 2 -->
      <g transform="translate(308.919786 315.956875) scale(0.2 -0.2)">
       <defs>
        <path id="DejaVuSans-32" d="M 1228 531 
L 3431 531 
L 3431 0 
L 469 0 
L 469 531 
Q 828 903 1448 1529 
Q 2069 2156 2228 2338 
Q 2531 2678 2651 2914 
Q 2772 3150 2772 3378 
Q 2772 3750 2511 3984 
Q 2250 4219 1831 4219 
Q 1534 4219 1204 4116 
Q 875 4013 500 3803 
L 500 4441 
Q 881 4594 1212 4672 
Q 1544 4750 1819 4750 
Q 2544 4750 2975 4387 
Q 3406 4025 3406 3419 
Q 3406 3131 3298 2873 
Q 3191 2616 2906 2266 
Q 2828 2175 2409 1742 
Q 1991 1309 1228 531 
z
" transform="scale(0.015625)"/>
       </defs>
       <use xlink:href="#DejaVuSans-32"/>
      </g>
     </g>
    </g>
    <g id="xtick_4">
     <g id="line2d_37">
      <path d="M 441.819429 293.76 
L 441.819429 3.456 
" clip-path="url(#pfa7327f9b7)" style="fill: none; stroke: #b0b0b0; stroke-width: 0.8; stroke-linecap: square"/>
     </g>
     <g id="line2d_38">
      <g>
       <use xlink:href="#m75c314e10c" x="441.819429" y="293.76" style="stroke: #000000; stroke-width: 0.8"/>
      </g>
     </g>
     <g id="text_4">
      <!-- 3 -->
      <g transform="translate(435.456929 315.956875) scale(0.2 -0.2)">
       <defs>
        <path id="DejaVuSans-33" d="M 2597 2516 
Q 3050 2419 3304 2112 
Q 3559 1806 3559 1356 
Q 3559 666 3084 287 
Q 2609 -91 1734 -91 
Q 1441 -91 1130 -33 
Q 819 25 488 141 
L 488 750 
Q 750 597 1062 519 
Q 1375 441 1716 441 
Q 2309 441 2620 675 
Q 2931 909 2931 1356 
Q 2931 1769 2642 2001 
Q 2353 2234 1838 2234 
L 1294 2234 
L 1294 2753 
L 1863 2753 
Q 2328 2753 2575 2939 
Q 2822 3125 2822 3475 
Q 2822 3834 2567 4026 
Q 2313 4219 1838 4219 
Q 1578 4219 1281 4162 
Q 984 4106 628 3988 
L 628 4550 
Q 988 4650 1302 4700 
Q 1616 4750 1894 4750 
Q 2613 4750 3031 4423 
Q 3450 4097 3450 3541 
Q 3450 3153 3228 2886 
Q 3006 2619 2597 2516 
z
" transform="scale(0.015625)"/>
       </defs>
       <use xlink:href="#DejaVuSans-33"/>
      </g>
     </g>
    </g>
    <g id="xtick_5">
     <g id="line2d_39">
      <path d="M 100.299476 293.76 
L 100.299476 3.456 
" clip-path="url(#pfa7327f9b7)" style="fill: none; stroke: #b0b0b0; stroke-width: 0.8; stroke-linecap: square"/>
     </g>
     <g id="line2d_40">
      <defs>
       <path id="m9dc4d5031a" d="M 0 0 
L 0 2 
" style="stroke: #000000; stroke-width: 0.6"/>
      </defs>
      <g>
       <use xlink:href="#m9dc4d5031a" x="100.299476" y="293.76" style="stroke: #000000; stroke-width: 0.6"/>
      </g>
     </g>
    </g>
    <g id="xtick_6">
     <g id="line2d_41">
      <path d="M 122.58156 293.76 
L 122.58156 3.456 
" clip-path="url(#pfa7327f9b7)" style="fill: none; stroke: #b0b0b0; stroke-width: 0.8; stroke-linecap: square"/>
     </g>
     <g id="line2d_42">
      <g>
       <use xlink:href="#m9dc4d5031a" x="122.58156" y="293.76" style="stroke: #000000; stroke-width: 0.6"/>
      </g>
     </g>
    </g>
    <g id="xtick_7">
     <g id="line2d_43">
      <path d="M 138.390951 293.76 
L 138.390951 3.456 
" clip-path="url(#pfa7327f9b7)" style="fill: none; stroke: #b0b0b0; stroke-width: 0.8; stroke-linecap: square"/>
     </g>
     <g id="line2d_44">
      <g>
       <use xlink:href="#m9dc4d5031a" x="138.390951" y="293.76" style="stroke: #000000; stroke-width: 0.6"/>
      </g>
     </g>
    </g>
    <g id="xtick_8">
     <g id="line2d_45">
      <path d="M 150.653667 293.76 
L 150.653667 3.456 
" clip-path="url(#pfa7327f9b7)" style="fill: none; stroke: #b0b0b0; stroke-width: 0.8; stroke-linecap: square"/>
     </g>
     <g id="line2d_46">
      <g>
       <use xlink:href="#m9dc4d5031a" x="150.653667" y="293.76" style="stroke: #000000; stroke-width: 0.6"/>
      </g>
     </g>
    </g>
    <g id="xtick_9">
     <g id="line2d_47">
      <path d="M 160.673036 293.76 
L 160.673036 3.456 
" clip-path="url(#pfa7327f9b7)" style="fill: none; stroke: #b0b0b0; stroke-width: 0.8; stroke-linecap: square"/>
     </g>
     <g id="line2d_48">
      <g>
       <use xlink:href="#m9dc4d5031a" x="160.673036" y="293.76" style="stroke: #000000; stroke-width: 0.6"/>
      </g>
     </g>
    </g>
    <g id="xtick_10">
     <g id="line2d_49">
      <path d="M 169.144291 293.76 
L 169.144291 3.456 
" clip-path="url(#pfa7327f9b7)" style="fill: none; stroke: #b0b0b0; stroke-width: 0.8; stroke-linecap: square"/>
     </g>
     <g id="line2d_50">
      <g>
       <use xlink:href="#m9dc4d5031a" x="169.144291" y="293.76" style="stroke: #000000; stroke-width: 0.6"/>
      </g>
     </g>
    </g>
    <g id="xtick_11">
     <g id="line2d_51">
      <path d="M 176.482427 293.76 
L 176.482427 3.456 
" clip-path="url(#pfa7327f9b7)" style="fill: none; stroke: #b0b0b0; stroke-width: 0.8; stroke-linecap: square"/>
     </g>
     <g id="line2d_52">
      <g>
       <use xlink:href="#m9dc4d5031a" x="176.482427" y="293.76" style="stroke: #000000; stroke-width: 0.6"/>
      </g>
     </g>
    </g>
    <g id="xtick_12">
     <g id="line2d_53">
      <path d="M 182.955121 293.76 
L 182.955121 3.456 
" clip-path="url(#pfa7327f9b7)" style="fill: none; stroke: #b0b0b0; stroke-width: 0.8; stroke-linecap: square"/>
     </g>
     <g id="line2d_54">
      <g>
       <use xlink:href="#m9dc4d5031a" x="182.955121" y="293.76" style="stroke: #000000; stroke-width: 0.6"/>
      </g>
     </g>
    </g>
    <g id="xtick_13">
     <g id="line2d_55">
      <path d="M 226.836618 293.76 
L 226.836618 3.456 
" clip-path="url(#pfa7327f9b7)" style="fill: none; stroke: #b0b0b0; stroke-width: 0.8; stroke-linecap: square"/>
     </g>
     <g id="line2d_56">
      <g>
       <use xlink:href="#m9dc4d5031a" x="226.836618" y="293.76" style="stroke: #000000; stroke-width: 0.6"/>
      </g>
     </g>
    </g>
    <g id="xtick_14">
     <g id="line2d_57">
      <path d="M 249.118703 293.76 
L 249.118703 3.456 
" clip-path="url(#pfa7327f9b7)" style="fill: none; stroke: #b0b0b0; stroke-width: 0.8; stroke-linecap: square"/>
     </g>
     <g id="line2d_58">
      <g>
       <use xlink:href="#m9dc4d5031a" x="249.118703" y="293.76" style="stroke: #000000; stroke-width: 0.6"/>
      </g>
     </g>
    </g>
    <g id="xtick_15">
     <g id="line2d_59">
      <path d="M 264.928094 293.76 
L 264.928094 3.456 
" clip-path="url(#pfa7327f9b7)" style="fill: none; stroke: #b0b0b0; stroke-width: 0.8; stroke-linecap: square"/>
     </g>
     <g id="line2d_60">
      <g>
       <use xlink:href="#m9dc4d5031a" x="264.928094" y="293.76" style="stroke: #000000; stroke-width: 0.6"/>
      </g>
     </g>
    </g>
    <g id="xtick_16">
     <g id="line2d_61">
      <path d="M 277.19081 293.76 
L 277.19081 3.456 
" clip-path="url(#pfa7327f9b7)" style="fill: none; stroke: #b0b0b0; stroke-width: 0.8; stroke-linecap: square"/>
     </g>
     <g id="line2d_62">
      <g>
       <use xlink:href="#m9dc4d5031a" x="277.19081" y="293.76" style="stroke: #000000; stroke-width: 0.6"/>
      </g>
     </g>
    </g>
    <g id="xtick_17">
     <g id="line2d_63">
      <path d="M 287.210179 293.76 
L 287.210179 3.456 
" clip-path="url(#pfa7327f9b7)" style="fill: none; stroke: #b0b0b0; stroke-width: 0.8; stroke-linecap: square"/>
     </g>
     <g id="line2d_64">
      <g>
       <use xlink:href="#m9dc4d5031a" x="287.210179" y="293.76" style="stroke: #000000; stroke-width: 0.6"/>
      </g>
     </g>
    </g>
    <g id="xtick_18">
     <g id="line2d_65">
      <path d="M 295.681434 293.76 
L 295.681434 3.456 
" clip-path="url(#pfa7327f9b7)" style="fill: none; stroke: #b0b0b0; stroke-width: 0.8; stroke-linecap: square"/>
     </g>
     <g id="line2d_66">
      <g>
       <use xlink:href="#m9dc4d5031a" x="295.681434" y="293.76" style="stroke: #000000; stroke-width: 0.6"/>
      </g>
     </g>
    </g>
    <g id="xtick_19">
     <g id="line2d_67">
      <path d="M 303.01957 293.76 
L 303.01957 3.456 
" clip-path="url(#pfa7327f9b7)" style="fill: none; stroke: #b0b0b0; stroke-width: 0.8; stroke-linecap: square"/>
     </g>
     <g id="line2d_68">
      <g>
       <use xlink:href="#m9dc4d5031a" x="303.01957" y="293.76" style="stroke: #000000; stroke-width: 0.6"/>
      </g>
     </g>
    </g>
    <g id="xtick_20">
     <g id="line2d_69">
      <path d="M 309.492264 293.76 
L 309.492264 3.456 
" clip-path="url(#pfa7327f9b7)" style="fill: none; stroke: #b0b0b0; stroke-width: 0.8; stroke-linecap: square"/>
     </g>
     <g id="line2d_70">
      <g>
       <use xlink:href="#m9dc4d5031a" x="309.492264" y="293.76" style="stroke: #000000; stroke-width: 0.6"/>
      </g>
     </g>
    </g>
    <g id="xtick_21">
     <g id="line2d_71">
      <path d="M 353.373761 293.76 
L 353.373761 3.456 
" clip-path="url(#pfa7327f9b7)" style="fill: none; stroke: #b0b0b0; stroke-width: 0.8; stroke-linecap: square"/>
     </g>
     <g id="line2d_72">
      <g>
       <use xlink:href="#m9dc4d5031a" x="353.373761" y="293.76" style="stroke: #000000; stroke-width: 0.6"/>
      </g>
     </g>
    </g>
    <g id="xtick_22">
     <g id="line2d_73">
      <path d="M 375.655846 293.76 
L 375.655846 3.456 
" clip-path="url(#pfa7327f9b7)" style="fill: none; stroke: #b0b0b0; stroke-width: 0.8; stroke-linecap: square"/>
     </g>
     <g id="line2d_74">
      <g>
       <use xlink:href="#m9dc4d5031a" x="375.655846" y="293.76" style="stroke: #000000; stroke-width: 0.6"/>
      </g>
     </g>
    </g>
    <g id="xtick_23">
     <g id="line2d_75">
      <path d="M 391.465237 293.76 
L 391.465237 3.456 
" clip-path="url(#pfa7327f9b7)" style="fill: none; stroke: #b0b0b0; stroke-width: 0.8; stroke-linecap: square"/>
     </g>
     <g id="line2d_76">
      <g>
       <use xlink:href="#m9dc4d5031a" x="391.465237" y="293.76" style="stroke: #000000; stroke-width: 0.6"/>
      </g>
     </g>
    </g>
    <g id="xtick_24">
     <g id="line2d_77">
      <path d="M 403.727953 293.76 
L 403.727953 3.456 
" clip-path="url(#pfa7327f9b7)" style="fill: none; stroke: #b0b0b0; stroke-width: 0.8; stroke-linecap: square"/>
     </g>
     <g id="line2d_78">
      <g>
       <use xlink:href="#m9dc4d5031a" x="403.727953" y="293.76" style="stroke: #000000; stroke-width: 0.6"/>
      </g>
     </g>
    </g>
    <g id="xtick_25">
     <g id="line2d_79">
      <path d="M 413.747322 293.76 
L 413.747322 3.456 
" clip-path="url(#pfa7327f9b7)" style="fill: none; stroke: #b0b0b0; stroke-width: 0.8; stroke-linecap: square"/>
     </g>
     <g id="line2d_80">
      <g>
       <use xlink:href="#m9dc4d5031a" x="413.747322" y="293.76" style="stroke: #000000; stroke-width: 0.6"/>
      </g>
     </g>
    </g>
    <g id="xtick_26">
     <g id="line2d_81">
      <path d="M 422.218577 293.76 
L 422.218577 3.456 
" clip-path="url(#pfa7327f9b7)" style="fill: none; stroke: #b0b0b0; stroke-width: 0.8; stroke-linecap: square"/>
     </g>
     <g id="line2d_82">
      <g>
       <use xlink:href="#m9dc4d5031a" x="422.218577" y="293.76" style="stroke: #000000; stroke-width: 0.6"/>
      </g>
     </g>
    </g>
    <g id="xtick_27">
     <g id="line2d_83">
      <path d="M 429.556712 293.76 
L 429.556712 3.456 
" clip-path="url(#pfa7327f9b7)" style="fill: none; stroke: #b0b0b0; stroke-width: 0.8; stroke-linecap: square"/>
     </g>
     <g id="line2d_84">
      <g>
       <use xlink:href="#m9dc4d5031a" x="429.556712" y="293.76" style="stroke: #000000; stroke-width: 0.6"/>
      </g>
     </g>
    </g>
    <g id="xtick_28">
     <g id="line2d_85">
      <path d="M 436.029406 293.76 
L 436.029406 3.456 
" clip-path="url(#pfa7327f9b7)" style="fill: none; stroke: #b0b0b0; stroke-width: 0.8; stroke-linecap: square"/>
     </g>
     <g id="line2d_86">
      <g>
       <use xlink:href="#m9dc4d5031a" x="436.029406" y="293.76" style="stroke: #000000; stroke-width: 0.6"/>
      </g>
     </g>
    </g>
    <g id="text_5">
     <!-- log10 of FEvals / DIM -->
     <g transform="translate(156.430563 339.313125) scale(0.2 -0.2)">
      <defs>
       <path id="DejaVuSans-6c" d="M 603 4863 
L 1178 4863 
L 1178 0 
L 603 0 
L 603 4863 
z
" transform="scale(0.015625)"/>
       <path id="DejaVuSans-6f" d="M 1959 3097 
Q 1497 3097 1228 2736 
Q 959 2375 959 1747 
Q 959 1119 1226 758 
Q 1494 397 1959 397 
Q 2419 397 2687 759 
Q 2956 1122 2956 1747 
Q 2956 2369 2687 2733 
Q 2419 3097 1959 3097 
z
M 1959 3584 
Q 2709 3584 3137 3096 
Q 3566 2609 3566 1747 
Q 3566 888 3137 398 
Q 2709 -91 1959 -91 
Q 1206 -91 779 398 
Q 353 888 353 1747 
Q 353 2609 779 3096 
Q 1206 3584 1959 3584 
z
" transform="scale(0.015625)"/>
       <path id="DejaVuSans-67" d="M 2906 1791 
Q 2906 2416 2648 2759 
Q 2391 3103 1925 3103 
Q 1463 3103 1205 2759 
Q 947 2416 947 1791 
Q 947 1169 1205 825 
Q 1463 481 1925 481 
Q 2391 481 2648 825 
Q 2906 1169 2906 1791 
z
M 3481 434 
Q 3481 -459 3084 -895 
Q 2688 -1331 1869 -1331 
Q 1566 -1331 1297 -1286 
Q 1028 -1241 775 -1147 
L 775 -588 
Q 1028 -725 1275 -790 
Q 1522 -856 1778 -856 
Q 2344 -856 2625 -561 
Q 2906 -266 2906 331 
L 2906 616 
Q 2728 306 2450 153 
Q 2172 0 1784 0 
Q 1141 0 747 490 
Q 353 981 353 1791 
Q 353 2603 747 3093 
Q 1141 3584 1784 3584 
Q 2172 3584 2450 3431 
Q 2728 3278 2906 2969 
L 2906 3500 
L 3481 3500 
L 3481 434 
z
" transform="scale(0.015625)"/>
       <path id="DejaVuSans-20" transform="scale(0.015625)"/>
       <path id="DejaVuSans-66" d="M 2375 4863 
L 2375 4384 
L 1825 4384 
Q 1516 4384 1395 4259 
Q 1275 4134 1275 3809 
L 1275 3500 
L 2222 3500 
L 2222 3053 
L 1275 3053 
L 1275 0 
L 697 0 
L 697 3053 
L 147 3053 
L 147 3500 
L 697 3500 
L 697 3744 
Q 697 4328 969 4595 
Q 1241 4863 1831 4863 
L 2375 4863 
z
" transform="scale(0.015625)"/>
       <path id="DejaVuSans-46" d="M 628 4666 
L 3309 4666 
L 3309 4134 
L 1259 4134 
L 1259 2759 
L 3109 2759 
L 3109 2228 
L 1259 2228 
L 1259 0 
L 628 0 
L 628 4666 
z
" transform="scale(0.015625)"/>
       <path id="DejaVuSans-45" d="M 628 4666 
L 3578 4666 
L 3578 4134 
L 1259 4134 
L 1259 2753 
L 3481 2753 
L 3481 2222 
L 1259 2222 
L 1259 531 
L 3634 531 
L 3634 0 
L 628 0 
L 628 4666 
z
" transform="scale(0.015625)"/>
       <path id="DejaVuSans-76" d="M 191 3500 
L 800 3500 
L 1894 563 
L 2988 3500 
L 3597 3500 
L 2284 0 
L 1503 0 
L 191 3500 
z
" transform="scale(0.015625)"/>
       <path id="DejaVuSans-61" d="M 2194 1759 
Q 1497 1759 1228 1600 
Q 959 1441 959 1056 
Q 959 750 1161 570 
Q 1363 391 1709 391 
Q 2188 391 2477 730 
Q 2766 1069 2766 1631 
L 2766 1759 
L 2194 1759 
z
M 3341 1997 
L 3341 0 
L 2766 0 
L 2766 531 
Q 2569 213 2275 61 
Q 1981 -91 1556 -91 
Q 1019 -91 701 211 
Q 384 513 384 1019 
Q 384 1609 779 1909 
Q 1175 2209 1959 2209 
L 2766 2209 
L 2766 2266 
Q 2766 2663 2505 2880 
Q 2244 3097 1772 3097 
Q 1472 3097 1187 3025 
Q 903 2953 641 2809 
L 641 3341 
Q 956 3463 1253 3523 
Q 1550 3584 1831 3584 
Q 2591 3584 2966 3190 
Q 3341 2797 3341 1997 
z
" transform="scale(0.015625)"/>
       <path id="DejaVuSans-73" d="M 2834 3397 
L 2834 2853 
Q 2591 2978 2328 3040 
Q 2066 3103 1784 3103 
Q 1356 3103 1142 2972 
Q 928 2841 928 2578 
Q 928 2378 1081 2264 
Q 1234 2150 1697 2047 
L 1894 2003 
Q 2506 1872 2764 1633 
Q 3022 1394 3022 966 
Q 3022 478 2636 193 
Q 2250 -91 1575 -91 
Q 1294 -91 989 -36 
Q 684 19 347 128 
L 347 722 
Q 666 556 975 473 
Q 1284 391 1588 391 
Q 1994 391 2212 530 
Q 2431 669 2431 922 
Q 2431 1156 2273 1281 
Q 2116 1406 1581 1522 
L 1381 1569 
Q 847 1681 609 1914 
Q 372 2147 372 2553 
Q 372 3047 722 3315 
Q 1072 3584 1716 3584 
Q 2034 3584 2315 3537 
Q 2597 3491 2834 3397 
z
" transform="scale(0.015625)"/>
       <path id="DejaVuSans-2f" d="M 1625 4666 
L 2156 4666 
L 531 -594 
L 0 -594 
L 1625 4666 
z
" transform="scale(0.015625)"/>
       <path id="DejaVuSans-44" d="M 1259 4147 
L 1259 519 
L 2022 519 
Q 2988 519 3436 956 
Q 3884 1394 3884 2338 
Q 3884 3275 3436 3711 
Q 2988 4147 2022 4147 
L 1259 4147 
z
M 628 4666 
L 1925 4666 
Q 3281 4666 3915 4102 
Q 4550 3538 4550 2338 
Q 4550 1131 3912 565 
Q 3275 0 1925 0 
L 628 0 
L 628 4666 
z
" transform="scale(0.015625)"/>
       <path id="DejaVuSans-49" d="M 628 4666 
L 1259 4666 
L 1259 0 
L 628 0 
L 628 4666 
z
" transform="scale(0.015625)"/>
       <path id="DejaVuSans-4d" d="M 628 4666 
L 1569 4666 
L 2759 1491 
L 3956 4666 
L 4897 4666 
L 4897 0 
L 4281 0 
L 4281 4097 
L 3078 897 
L 2444 897 
L 1241 4097 
L 1241 0 
L 628 0 
L 628 4666 
z
" transform="scale(0.015625)"/>
      </defs>
      <use xlink:href="#DejaVuSans-6c"/>
      <use xlink:href="#DejaVuSans-6f" transform="translate(27.783203 0)"/>
      <use xlink:href="#DejaVuSans-67" transform="translate(88.964844 0)"/>
      <use xlink:href="#DejaVuSans-31" transform="translate(152.441406 0)"/>
      <use xlink:href="#DejaVuSans-30" transform="translate(216.064453 0)"/>
      <use xlink:href="#DejaVuSans-20" transform="translate(279.6875 0)"/>
      <use xlink:href="#DejaVuSans-6f" transform="translate(311.474609 0)"/>
      <use xlink:href="#DejaVuSans-66" transform="translate(372.65625 0)"/>
      <use xlink:href="#DejaVuSans-20" transform="translate(407.861328 0)"/>
      <use xlink:href="#DejaVuSans-46" transform="translate(439.648438 0)"/>
      <use xlink:href="#DejaVuSans-45" transform="translate(497.167969 0)"/>
      <use xlink:href="#DejaVuSans-76" transform="translate(560.351562 0)"/>
      <use xlink:href="#DejaVuSans-61" transform="translate(619.53125 0)"/>
      <use xlink:href="#DejaVuSans-6c" transform="translate(680.810547 0)"/>
      <use xlink:href="#DejaVuSans-73" transform="translate(708.59375 0)"/>
      <use xlink:href="#DejaVuSans-20" transform="translate(760.693359 0)"/>
      <use xlink:href="#DejaVuSans-2f" transform="translate(792.480469 0)"/>
      <use xlink:href="#DejaVuSans-20" transform="translate(826.171875 0)"/>
      <use xlink:href="#DejaVuSans-44" transform="translate(857.958984 0)"/>
      <use xlink:href="#DejaVuSans-49" transform="translate(934.960938 0)"/>
      <use xlink:href="#DejaVuSans-4d" transform="translate(964.453125 0)"/>
     </g>
    </g>
   </g>
   <g id="matplotlib.axis_2">
    <g id="ytick_1">
     <g id="line2d_87">
      <path d="M 62.208 293.76 
L 460.8 293.76 
" clip-path="url(#pfa7327f9b7)" style="fill: none; stroke: #b0b0b0; stroke-width: 0.8; stroke-linecap: square"/>
     </g>
     <g id="line2d_88">
      <defs>
       <path id="m8194fb6a35" d="M 0 0 
L -3.5 0 
" style="stroke: #000000; stroke-width: 0.8"/>
      </defs>
      <g>
       <use xlink:href="#m8194fb6a35" x="62.208" y="293.76" style="stroke: #000000; stroke-width: 0.8"/>
      </g>
     </g>
     <g id="text_6">
      <!-- 0.0 -->
      <g transform="translate(29.763 299.83875) scale(0.16 -0.16)">
       <defs>
        <path id="DejaVuSans-2e" d="M 684 794 
L 1344 794 
L 1344 0 
L 684 0 
L 684 794 
z
" transform="scale(0.015625)"/>
       </defs>
       <use xlink:href="#DejaVuSans-30"/>
       <use xlink:href="#DejaVuSans-2e" transform="translate(63.623047 0)"/>
       <use xlink:href="#DejaVuSans-30" transform="translate(95.410156 0)"/>
      </g>
     </g>
    </g>
    <g id="ytick_2">
     <g id="line2d_89">
      <path d="M 62.208 236.274059 
L 460.8 236.274059 
" clip-path="url(#pfa7327f9b7)" style="fill: none; stroke: #b0b0b0; stroke-width: 0.8; stroke-linecap: square"/>
     </g>
     <g id="line2d_90">
      <g>
       <use xlink:href="#m8194fb6a35" x="62.208" y="236.274059" style="stroke: #000000; stroke-width: 0.8"/>
      </g>
     </g>
     <g id="text_7">
      <!-- 0.2 -->
      <g transform="translate(29.763 242.352809) scale(0.16 -0.16)">
       <use xlink:href="#DejaVuSans-30"/>
       <use xlink:href="#DejaVuSans-2e" transform="translate(63.623047 0)"/>
       <use xlink:href="#DejaVuSans-32" transform="translate(95.410156 0)"/>
      </g>
     </g>
    </g>
    <g id="ytick_3">
     <g id="line2d_91">
      <path d="M 62.208 178.788119 
L 460.8 178.788119 
" clip-path="url(#pfa7327f9b7)" style="fill: none; stroke: #b0b0b0; stroke-width: 0.8; stroke-linecap: square"/>
     </g>
     <g id="line2d_92">
      <g>
       <use xlink:href="#m8194fb6a35" x="62.208" y="178.788119" style="stroke: #000000; stroke-width: 0.8"/>
      </g>
     </g>
     <g id="text_8">
      <!-- 0.4 -->
      <g transform="translate(29.763 184.866869) scale(0.16 -0.16)">
       <defs>
        <path id="DejaVuSans-34" d="M 2419 4116 
L 825 1625 
L 2419 1625 
L 2419 4116 
z
M 2253 4666 
L 3047 4666 
L 3047 1625 
L 3713 1625 
L 3713 1100 
L 3047 1100 
L 3047 0 
L 2419 0 
L 2419 1100 
L 313 1100 
L 313 1709 
L 2253 4666 
z
" transform="scale(0.015625)"/>
       </defs>
       <use xlink:href="#DejaVuSans-30"/>
       <use xlink:href="#DejaVuSans-2e" transform="translate(63.623047 0)"/>
       <use xlink:href="#DejaVuSans-34" transform="translate(95.410156 0)"/>
      </g>
     </g>
    </g>
    <g id="ytick_4">
     <g id="line2d_93">
      <path d="M 62.208 121.302178 
L 460.8 121.302178 
" clip-path="url(#pfa7327f9b7)" style="fill: none; stroke: #b0b0b0; stroke-width: 0.8; stroke-linecap: square"/>
     </g>
     <g id="line2d_94">
      <g>
       <use xlink:href="#m8194fb6a35" x="62.208" y="121.302178" style="stroke: #000000; stroke-width: 0.8"/>
      </g>
     </g>
     <g id="text_9">
      <!-- 0.6 -->
      <g transform="translate(29.763 127.380928) scale(0.16 -0.16)">
       <defs>
        <path id="DejaVuSans-36" d="M 2113 2584 
Q 1688 2584 1439 2293 
Q 1191 2003 1191 1497 
Q 1191 994 1439 701 
Q 1688 409 2113 409 
Q 2538 409 2786 701 
Q 3034 994 3034 1497 
Q 3034 2003 2786 2293 
Q 2538 2584 2113 2584 
z
M 3366 4563 
L 3366 3988 
Q 3128 4100 2886 4159 
Q 2644 4219 2406 4219 
Q 1781 4219 1451 3797 
Q 1122 3375 1075 2522 
Q 1259 2794 1537 2939 
Q 1816 3084 2150 3084 
Q 2853 3084 3261 2657 
Q 3669 2231 3669 1497 
Q 3669 778 3244 343 
Q 2819 -91 2113 -91 
Q 1303 -91 875 529 
Q 447 1150 447 2328 
Q 447 3434 972 4092 
Q 1497 4750 2381 4750 
Q 2619 4750 2861 4703 
Q 3103 4656 3366 4563 
z
" transform="scale(0.015625)"/>
       </defs>
       <use xlink:href="#DejaVuSans-30"/>
       <use xlink:href="#DejaVuSans-2e" transform="translate(63.623047 0)"/>
       <use xlink:href="#DejaVuSans-36" transform="translate(95.410156 0)"/>
      </g>
     </g>
    </g>
    <g id="ytick_5">
     <g id="line2d_95">
      <path d="M 62.208 63.816238 
L 460.8 63.816238 
" clip-path="url(#pfa7327f9b7)" style="fill: none; stroke: #b0b0b0; stroke-width: 0.8; stroke-linecap: square"/>
     </g>
     <g id="line2d_96">
      <g>
       <use xlink:href="#m8194fb6a35" x="62.208" y="63.816238" style="stroke: #000000; stroke-width: 0.8"/>
      </g>
     </g>
     <g id="text_10">
      <!-- 0.8 -->
      <g transform="translate(29.763 69.894988) scale(0.16 -0.16)">
       <defs>
        <path id="DejaVuSans-38" d="M 2034 2216 
Q 1584 2216 1326 1975 
Q 1069 1734 1069 1313 
Q 1069 891 1326 650 
Q 1584 409 2034 409 
Q 2484 409 2743 651 
Q 3003 894 3003 1313 
Q 3003 1734 2745 1975 
Q 2488 2216 2034 2216 
z
M 1403 2484 
Q 997 2584 770 2862 
Q 544 3141 544 3541 
Q 544 4100 942 4425 
Q 1341 4750 2034 4750 
Q 2731 4750 3128 4425 
Q 3525 4100 3525 3541 
Q 3525 3141 3298 2862 
Q 3072 2584 2669 2484 
Q 3125 2378 3379 2068 
Q 3634 1759 3634 1313 
Q 3634 634 3220 271 
Q 2806 -91 2034 -91 
Q 1263 -91 848 271 
Q 434 634 434 1313 
Q 434 1759 690 2068 
Q 947 2378 1403 2484 
z
M 1172 3481 
Q 1172 3119 1398 2916 
Q 1625 2713 2034 2713 
Q 2441 2713 2670 2916 
Q 2900 3119 2900 3481 
Q 2900 3844 2670 4047 
Q 2441 4250 2034 4250 
Q 1625 4250 1398 4047 
Q 1172 3844 1172 3481 
z
" transform="scale(0.015625)"/>
       </defs>
       <use xlink:href="#DejaVuSans-30"/>
       <use xlink:href="#DejaVuSans-2e" transform="translate(63.623047 0)"/>
       <use xlink:href="#DejaVuSans-38" transform="translate(95.410156 0)"/>
      </g>
     </g>
    </g>
    <g id="ytick_6">
     <g id="line2d_97">
      <path d="M 62.208 6.330297 
L 460.8 6.330297 
" clip-path="url(#pfa7327f9b7)" style="fill: none; stroke: #b0b0b0; stroke-width: 0.8; stroke-linecap: square"/>
     </g>
     <g id="line2d_98">
      <g>
       <use xlink:href="#m8194fb6a35" x="62.208" y="6.330297" style="stroke: #000000; stroke-width: 0.8"/>
      </g>
     </g>
     <g id="text_11">
      <!-- 1.0 -->
      <g transform="translate(29.763 12.409047) scale(0.16 -0.16)">
       <use xlink:href="#DejaVuSans-31"/>
       <use xlink:href="#DejaVuSans-2e" transform="translate(63.623047 0)"/>
       <use xlink:href="#DejaVuSans-30" transform="translate(95.410156 0)"/>
      </g>
     </g>
    </g>
    <g id="text_12">
     <!-- proportion of trials -->
     <g transform="translate(21.603625 241.61425) rotate(-90) scale(0.2 -0.2)">
      <defs>
       <path id="DejaVuSans-70" d="M 1159 525 
L 1159 -1331 
L 581 -1331 
L 581 3500 
L 1159 3500 
L 1159 2969 
Q 1341 3281 1617 3432 
Q 1894 3584 2278 3584 
Q 2916 3584 3314 3078 
Q 3713 2572 3713 1747 
Q 3713 922 3314 415 
Q 2916 -91 2278 -91 
Q 1894 -91 1617 61 
Q 1341 213 1159 525 
z
M 3116 1747 
Q 3116 2381 2855 2742 
Q 2594 3103 2138 3103 
Q 1681 3103 1420 2742 
Q 1159 2381 1159 1747 
Q 1159 1113 1420 752 
Q 1681 391 2138 391 
Q 2594 391 2855 752 
Q 3116 1113 3116 1747 
z
" transform="scale(0.015625)"/>
       <path id="DejaVuSans-72" d="M 2631 2963 
Q 2534 3019 2420 3045 
Q 2306 3072 2169 3072 
Q 1681 3072 1420 2755 
Q 1159 2438 1159 1844 
L 1159 0 
L 581 0 
L 581 3500 
L 1159 3500 
L 1159 2956 
Q 1341 3275 1631 3429 
Q 1922 3584 2338 3584 
Q 2397 3584 2469 3576 
Q 2541 3569 2628 3553 
L 2631 2963 
z
" transform="scale(0.015625)"/>
       <path id="DejaVuSans-74" d="M 1172 4494 
L 1172 3500 
L 2356 3500 
L 2356 3053 
L 1172 3053 
L 1172 1153 
Q 1172 725 1289 603 
Q 1406 481 1766 481 
L 2356 481 
L 2356 0 
L 1766 0 
Q 1100 0 847 248 
Q 594 497 594 1153 
L 594 3053 
L 172 3053 
L 172 3500 
L 594 3500 
L 594 4494 
L 1172 4494 
z
" transform="scale(0.015625)"/>
       <path id="DejaVuSans-69" d="M 603 3500 
L 1178 3500 
L 1178 0 
L 603 0 
L 603 3500 
z
M 603 4863 
L 1178 4863 
L 1178 4134 
L 603 4134 
L 603 4863 
z
" transform="scale(0.015625)"/>
       <path id="DejaVuSans-6e" d="M 3513 2113 
L 3513 0 
L 2938 0 
L 2938 2094 
Q 2938 2591 2744 2837 
Q 2550 3084 2163 3084 
Q 1697 3084 1428 2787 
Q 1159 2491 1159 1978 
L 1159 0 
L 581 0 
L 581 3500 
L 1159 3500 
L 1159 2956 
Q 1366 3272 1645 3428 
Q 1925 3584 2291 3584 
Q 2894 3584 3203 3211 
Q 3513 2838 3513 2113 
z
" transform="scale(0.015625)"/>
      </defs>
      <use xlink:href="#DejaVuSans-70"/>
      <use xlink:href="#DejaVuSans-72" transform="translate(63.476562 0)"/>
      <use xlink:href="#DejaVuSans-6f" transform="translate(102.339844 0)"/>
      <use xlink:href="#DejaVuSans-70" transform="translate(163.521484 0)"/>
      <use xlink:href="#DejaVuSans-6f" transform="translate(226.998047 0)"/>
      <use xlink:href="#DejaVuSans-72" transform="translate(288.179688 0)"/>
      <use xlink:href="#DejaVuSans-74" transform="translate(329.292969 0)"/>
      <use xlink:href="#DejaVuSans-69" transform="translate(368.501953 0)"/>
      <use xlink:href="#DejaVuSans-6f" transform="translate(396.285156 0)"/>
      <use xlink:href="#DejaVuSans-6e" transform="translate(457.466797 0)"/>
      <use xlink:href="#DejaVuSans-20" transform="translate(520.845703 0)"/>
      <use xlink:href="#DejaVuSans-6f" transform="translate(552.632812 0)"/>
      <use xlink:href="#DejaVuSans-66" transform="translate(613.814453 0)"/>
      <use xlink:href="#DejaVuSans-20" transform="translate(649.019531 0)"/>
      <use xlink:href="#DejaVuSans-74" transform="translate(680.806641 0)"/>
      <use xlink:href="#DejaVuSans-72" transform="translate(720.015625 0)"/>
      <use xlink:href="#DejaVuSans-69" transform="translate(761.128906 0)"/>
      <use xlink:href="#DejaVuSans-61" transform="translate(788.912109 0)"/>
      <use xlink:href="#DejaVuSans-6c" transform="translate(850.191406 0)"/>
      <use xlink:href="#DejaVuSans-73" transform="translate(877.974609 0)"/>
     </g>
    </g>
   </g>
   <g id="line2d_99">
    <path d="M 362.236153 293.76 
L 362.236153 269.807525 
L 370.553521 269.807525 
L 370.553521 245.85505 
L 372.508275 245.85505 
L 372.508275 221.902574 
L 407.25058 221.902574 
L 407.25058 197.950099 
L 409.89695 197.950099 
L 409.89695 173.997624 
L 412.054567 173.997624 
L 412.054567 150.045149 
L 412.054567 150.045149 
L 412.054567 150.045149 
L 460.8 150.045149 
" clip-path="url(#pfa7327f9b7)" style="fill: none; stroke: #000000; stroke-width: 1.5; stroke-linecap: square"/>
   </g>
   <g id="line2d_100">
    <defs>
     <path id="m7db7627183" d="M -0 14.142136 
L 8.485281 0 
L -0 -14.142136 
L -8.485281 -0 
z
" style="stroke: #000000; stroke-width: 1.5; stroke-linejoin: miter"/>
    </defs>
    <g clip-path="url(#pfa7327f9b7)">
     <use xlink:href="#m7db7627183" x="407.25058" y="221.902574" style="fill-opacity: 0; stroke: #000000; stroke-width: 1.5; stroke-linejoin: miter"/>
     <use xlink:href="#m7db7627183" x="412.054567" y="173.997624" style="fill-opacity: 0; stroke: #000000; stroke-width: 1.5; stroke-linejoin: miter"/>
     <use xlink:href="#m7db7627183" x="412.054567" y="150.045149" style="fill-opacity: 0; stroke: #000000; stroke-width: 1.5; stroke-linejoin: miter"/>
    </g>
   </g>
   <g id="line2d_101">
    <path clip-path="url(#pfa7327f9b7)" style="fill: none; stroke: #000000; stroke-width: 1.5; stroke-linecap: square"/>
    <g clip-path="url(#pfa7327f9b7)">
     <use xlink:href="#m7db7627183" x="-1" y="581.189703" style="fill-opacity: 0; stroke: #000000; stroke-width: 1.5; stroke-linejoin: miter"/>
     <use xlink:href="#m7db7627183" x="460.8" y="581.189703" style="fill-opacity: 0; stroke: #000000; stroke-width: 1.5; stroke-linejoin: miter"/>
    </g>
   </g>
   <g id="line2d_102">
    <path d="M 348.326685 293.76 
L 348.326685 269.807525 
L 353.974959 269.807525 
L 353.974959 245.85505 
L 360.766823 245.85505 
L 360.766823 221.902574 
L 396.389818 221.902574 
L 396.389818 197.950099 
L 405.368343 197.950099 
L 405.368343 173.997624 
L 405.368343 173.997624 
L 405.368343 173.997624 
L 460.8 173.997624 
" clip-path="url(#pfa7327f9b7)" style="fill: none; stroke: #000000; stroke-width: 1.5; stroke-linecap: square"/>
   </g>
   <g id="line2d_103">
    <defs>
     <path id="md6b3a24273" d="M 0 7.5 
C 1.989023 7.5 3.896849 6.709753 5.303301 5.303301 
C 6.709753 3.896849 7.5 1.989023 7.5 0 
C 7.5 -1.989023 6.709753 -3.896849 5.303301 -5.303301 
C 3.896849 -6.709753 1.989023 -7.5 0 -7.5 
C -1.989023 -7.5 -3.896849 -6.709753 -5.303301 -5.303301 
C -6.709753 -3.896849 -7.5 -1.989023 -7.5 0 
C -7.5 1.989023 -6.709753 3.896849 -5.303301 5.303301 
C -3.896849 6.709753 -1.989023 7.5 0 7.5 
z
" style="stroke: #000000; stroke-width: 1.5"/>
    </defs>
    <g clip-path="url(#pfa7327f9b7)">
     <use xlink:href="#md6b3a24273" x="360.766823" y="245.85505" style="fill-opacity: 0; stroke: #000000; stroke-width: 1.5"/>
     <use xlink:href="#md6b3a24273" x="405.368343" y="197.950099" style="fill-opacity: 0; stroke: #000000; stroke-width: 1.5"/>
     <use xlink:href="#md6b3a24273" x="405.368343" y="173.997624" style="fill-opacity: 0; stroke: #000000; stroke-width: 1.5"/>
    </g>
   </g>
   <g id="line2d_104">
    <path clip-path="url(#pfa7327f9b7)" style="fill: none; stroke: #000000; stroke-width: 1.5; stroke-linecap: square"/>
   </g>
   <g id="line2d_105"/>
   <g id="line2d_106"/>
   <g id="line2d_107"/>
   <g id="line2d_108"/>
   <g id="line2d_109"/>
   <g id="line2d_110"/>
   <g id="line2d_111">
    <path d="M 441.819429 293.76 
L 441.819429 3.456 
" clip-path="url(#pfa7327f9b7)" style="fill: none; stroke: #000000; stroke-width: 1.5; stroke-linecap: square"/>
    <defs>
     <path id="me6903c9697" d="M -10 0 
L 10 0 
M 0 10 
L 0 -10 
" style="stroke: #000000; stroke-width: 3"/>
    </defs>
    <g clip-path="url(#pfa7327f9b7)">
     <use xlink:href="#me6903c9697" x="441.819429" y="293.76" style="stroke: #000000; stroke-width: 3"/>
     <use xlink:href="#me6903c9697" x="441.819429" y="3.456" style="stroke: #000000; stroke-width: 3"/>
    </g>
   </g>
   <g id="line2d_112">
    <path d="M 441.819429 293.76 
L 441.819429 3.456 
" clip-path="url(#pfa7327f9b7)" style="fill: none; stroke: #000000; stroke-width: 1.5; stroke-linecap: square"/>
    <defs>
     <path id="m220dd26194" d="M 0 7.5 
C 1.989023 7.5 3.896849 6.709753 5.303301 5.303301 
C 6.709753 3.896849 7.5 1.989023 7.5 0 
C 7.5 -1.989023 6.709753 -3.896849 5.303301 -5.303301 
C 3.896849 -6.709753 1.989023 -7.5 0 -7.5 
C -1.989023 -7.5 -3.896849 -6.709753 -5.303301 -5.303301 
C -6.709753 -3.896849 -7.5 -1.989023 -7.5 0 
C -7.5 1.989023 -6.709753 3.896849 -5.303301 5.303301 
C -3.896849 6.709753 -1.989023 7.5 0 7.5 
z
" style="stroke: #000000; stroke-width: 3"/>
    </defs>
    <g clip-path="url(#pfa7327f9b7)">
     <use xlink:href="#m220dd26194" x="441.819429" y="293.76" style="fill-opacity: 0; stroke: #000000; stroke-width: 3"/>
     <use xlink:href="#m220dd26194" x="441.819429" y="3.456" style="fill-opacity: 0; stroke: #000000; stroke-width: 3"/>
    </g>
   </g>
   <g id="patch_3">
    <path d="M 62.208 293.76 
L 62.208 3.456 
" style="fill: none; stroke: #000000; stroke-width: 0.8; stroke-linejoin: miter; stroke-linecap: square"/>
   </g>
   <g id="patch_4">
    <path d="M 460.8 293.76 
L 460.8 3.456 
" style="fill: none; stroke: #000000; stroke-width: 0.8; stroke-linejoin: miter; stroke-linecap: square"/>
   </g>
   <g id="patch_5">
    <path d="M 62.208 293.76 
L 460.8 293.76 
" style="fill: none; stroke: #000000; stroke-width: 0.8; stroke-linejoin: miter; stroke-linecap: square"/>
   </g>
   <g id="patch_6">
    <path d="M 62.208 3.456 
L 460.8 3.456 
" style="fill: none; stroke: #000000; stroke-width: 0.8; stroke-linejoin: miter; stroke-linecap: square"/>
   </g>
   <g id="text_13">
    <!-- f6-f9 -->
    <g transform="translate(238.130563 24.458955) scale(0.2 -0.2)">
     <defs>
      <path id="DejaVuSans-2d" d="M 313 2009 
L 1997 2009 
L 1997 1497 
L 313 1497 
L 313 2009 
z
" transform="scale(0.015625)"/>
      <path id="DejaVuSans-39" d="M 703 97 
L 703 672 
Q 941 559 1184 500 
Q 1428 441 1663 441 
Q 2288 441 2617 861 
Q 2947 1281 2994 2138 
Q 2813 1869 2534 1725 
Q 2256 1581 1919 1581 
Q 1219 1581 811 2004 
Q 403 2428 403 3163 
Q 403 3881 828 4315 
Q 1253 4750 1959 4750 
Q 2769 4750 3195 4129 
Q 3622 3509 3622 2328 
Q 3622 1225 3098 567 
Q 2575 -91 1691 -91 
Q 1453 -91 1209 -44 
Q 966 3 703 97 
z
M 1959 2075 
Q 2384 2075 2632 2365 
Q 2881 2656 2881 3163 
Q 2881 3666 2632 3958 
Q 2384 4250 1959 4250 
Q 1534 4250 1286 3958 
Q 1038 3666 1038 3163 
Q 1038 2656 1286 2365 
Q 1534 2075 1959 2075 
z
" transform="scale(0.015625)"/>
     </defs>
     <use xlink:href="#DejaVuSans-66"/>
     <use xlink:href="#DejaVuSans-36" transform="translate(35.205078 0)"/>
     <use xlink:href="#DejaVuSans-2d" transform="translate(98.828125 0)"/>
     <use xlink:href="#DejaVuSans-66" transform="translate(134.912109 0)"/>
     <use xlink:href="#DejaVuSans-39" transform="translate(170.117188 0)"/>
    </g>
   </g>
   <g id="text_14">
    <!-- absolute targets -->
    <g transform="translate(62.208 609.932673) scale(0.14 -0.14)">
     <defs>
      <path id="DejaVuSans-62" d="M 3116 1747 
Q 3116 2381 2855 2742 
Q 2594 3103 2138 3103 
Q 1681 3103 1420 2742 
Q 1159 2381 1159 1747 
Q 1159 1113 1420 752 
Q 1681 391 2138 391 
Q 2594 391 2855 752 
Q 3116 1113 3116 1747 
z
M 1159 2969 
Q 1341 3281 1617 3432 
Q 1894 3584 2278 3584 
Q 2916 3584 3314 3078 
Q 3713 2572 3713 1747 
Q 3713 922 3314 415 
Q 2916 -91 2278 -91 
Q 1894 -91 1617 61 
Q 1341 213 1159 525 
L 1159 0 
L 581 0 
L 581 4863 
L 1159 4863 
L 1159 2969 
z
" transform="scale(0.015625)"/>
      <path id="DejaVuSans-75" d="M 544 1381 
L 544 3500 
L 1119 3500 
L 1119 1403 
Q 1119 906 1312 657 
Q 1506 409 1894 409 
Q 2359 409 2629 706 
Q 2900 1003 2900 1516 
L 2900 3500 
L 3475 3500 
L 3475 0 
L 2900 0 
L 2900 538 
Q 2691 219 2414 64 
Q 2138 -91 1772 -91 
Q 1169 -91 856 284 
Q 544 659 544 1381 
z
M 1991 3584 
L 1991 3584 
z
" transform="scale(0.015625)"/>
      <path id="DejaVuSans-65" d="M 3597 1894 
L 3597 1613 
L 953 1613 
Q 991 1019 1311 708 
Q 1631 397 2203 397 
Q 2534 397 2845 478 
Q 3156 559 3463 722 
L 3463 178 
Q 3153 47 2828 -22 
Q 2503 -91 2169 -91 
Q 1331 -91 842 396 
Q 353 884 353 1716 
Q 353 2575 817 3079 
Q 1281 3584 2069 3584 
Q 2775 3584 3186 3129 
Q 3597 2675 3597 1894 
z
M 3022 2063 
Q 3016 2534 2758 2815 
Q 2500 3097 2075 3097 
Q 1594 3097 1305 2825 
Q 1016 2553 972 2059 
L 3022 2063 
z
" transform="scale(0.015625)"/>
     </defs>
     <use xlink:href="#DejaVuSans-61"/>
     <use xlink:href="#DejaVuSans-62" transform="translate(61.279297 0)"/>
     <use xlink:href="#DejaVuSans-73" transform="translate(124.755859 0)"/>
     <use xlink:href="#DejaVuSans-6f" transform="translate(176.855469 0)"/>
     <use xlink:href="#DejaVuSans-6c" transform="translate(238.037109 0)"/>
     <use xlink:href="#DejaVuSans-75" transform="translate(265.820312 0)"/>
     <use xlink:href="#DejaVuSans-74" transform="translate(329.199219 0)"/>
     <use xlink:href="#DejaVuSans-65" transform="translate(368.408203 0)"/>
     <use xlink:href="#DejaVuSans-20" transform="translate(429.931641 0)"/>
     <use xlink:href="#DejaVuSans-74" transform="translate(461.71875 0)"/>
     <use xlink:href="#DejaVuSans-61" transform="translate(500.927734 0)"/>
     <use xlink:href="#DejaVuSans-72" transform="translate(562.207031 0)"/>
     <use xlink:href="#DejaVuSans-67" transform="translate(601.570312 0)"/>
     <use xlink:href="#DejaVuSans-65" transform="translate(665.046875 0)"/>
     <use xlink:href="#DejaVuSans-74" transform="translate(726.570312 0)"/>
     <use xlink:href="#DejaVuSans-73" transform="translate(765.779297 0)"/>
    </g>
   </g>
   <g id="text_15">
    <!-- v2.8.2 -->
    <g style="fill: #808080" transform="translate(248.959 289.19321) scale(0.08 -0.08)">
     <use xlink:href="#DejaVuSans-76"/>
     <use xlink:href="#DejaVuSans-32" transform="translate(59.179688 0)"/>
     <use xlink:href="#DejaVuSans-2e" transform="translate(122.802734 0)"/>
     <use xlink:href="#DejaVuSans-38" transform="translate(154.589844 0)"/>
     <use xlink:href="#DejaVuSans-2e" transform="translate(218.212891 0)"/>
     <use xlink:href="#DejaVuSans-32" transform="translate(250 0)"/>
    </g>
   </g>
   <g id="legend_1">
    <g id="patch_7">
     <path d="M 76.208 136.881 
L 160.148625 136.881 
Q 164.148625 136.881 164.148625 132.881 
L 164.148625 17.456 
Q 164.148625 13.456 160.148625 13.456 
L 76.208 13.456 
Q 72.208 13.456 72.208 17.456 
L 72.208 132.881 
Q 72.208 136.881 76.208 136.881 
z
" style="fill: #ffffff; opacity: 0.2; stroke: #cccccc; stroke-linejoin: miter"/>
    </g>
    <g id="line2d_113">
     <path d="M 80.208 29.652875 
L 80.208 29.652875 
L 100.208 29.652875 
L 100.208 29.652875 
L 120.208 29.652875 
" style="fill: none; stroke: #000000; stroke-width: 1.5; stroke-linecap: square"/>
    </g>
    <g id="text_16">
     <!-- 1 -->
     <g transform="translate(136.208 36.652875) scale(0.2 -0.2)">
      <use xlink:href="#DejaVuSans-31"/>
     </g>
    </g>
    <g id="line2d_114">
     <path d="M 80.208 59.009125 
L 100.208 59.009125 
L 120.208 59.009125 
" style="fill: none; stroke: #00bfbf; stroke-width: 1.5; stroke-linecap: square"/>
    </g>
    <g id="text_17">
     <!-- -1 -->
     <g transform="translate(136.208 66.009125) scale(0.2 -0.2)">
      <use xlink:href="#DejaVuSans-2d"/>
      <use xlink:href="#DejaVuSans-31" transform="translate(36.083984 0)"/>
     </g>
    </g>
    <g id="line2d_115">
     <path d="M 80.208 88.365375 
L 100.208 88.365375 
L 120.208 88.365375 
" style="fill: none; stroke: #bf00bf; stroke-width: 1.5; stroke-linecap: square"/>
    </g>
    <g id="text_18">
     <!-- -4 -->
     <g transform="translate(136.208 95.365375) scale(0.2 -0.2)">
      <use xlink:href="#DejaVuSans-2d"/>
      <use xlink:href="#DejaVuSans-34" transform="translate(36.083984 0)"/>
     </g>
    </g>
    <g id="line2d_116">
     <path d="M 80.208 117.721625 
L 100.208 117.721625 
L 120.208 117.721625 
" style="fill: none; stroke: #ff0000; stroke-width: 3; stroke-linecap: square"/>
    </g>
    <g id="text_19">
     <!-- -8 -->
     <g transform="translate(136.208 124.721625) scale(0.2 -0.2)">
      <use xlink:href="#DejaVuSans-2d"/>
      <use xlink:href="#DejaVuSans-38" transform="translate(36.083984 0)"/>
     </g>
    </g>
   </g>
  </g>
 </g>
 <defs>
  <clipPath id="pfa7327f9b7">
   <rect x="62.208" y="3.456" width="398.592" height="290.304"/>
  </clipPath>
 </defs>
</svg>
